<?xml version="1.0" encoding="utf-8"?>
<!-- Generator: Adobe Illustrator 19.1.0, SVG Export Plug-In . SVG Version: 6.00 Build 0)  -->
<svg version="1.1" id="Layer_1" xmlns="http://www.w3.org/2000/svg" xmlns:xlink="http://www.w3.org/1999/xlink" x="0px" y="0px"
	 viewBox="0 0 232 62" enable-background="new 0 0 232 62" xml:space="preserve">
<g>
	<g>
		<path fill="#FFFFFF" d="M164.106,42.19c0.314,0,0.531-0.217,0.531-0.531V26.092h5.286c0.314,0,0.531-0.217,0.531-0.531v-2.147
			c0-0.314-0.217-0.531-0.531-0.531h-14.071c-0.314,0-0.531,0.217-0.531,0.531v2.147c0,0.314,0.216,0.531,0.531,0.531h5.286v15.567
			c0,0.314,0.217,0.531,0.531,0.531H164.106z M127.33,41.562l-6.541-18.198c-0.121-0.338-0.362-0.482-0.724-0.482h-3.235
			c-0.361,0-0.579,0.144-0.699,0.482l-6.541,18.198c-0.121,0.314,0.097,0.628,0.41,0.628h2.365c0.362,0,0.579-0.169,0.7-0.507
			l1.425-4.102h7.795l1.424,4.102c0.12,0.338,0.338,0.507,0.7,0.507h2.51C127.258,42.19,127.451,41.877,127.33,41.562z
			 M115.6,34.419l2.8-7.965l2.775,7.965H115.6z M157.855,41.515l-4.079-4.417l2.703-4.633c0.241-0.41,0.024-0.676-0.363-0.676
			h-2.341c-0.386,0-0.603,0.121-0.796,0.434l-1.521,2.656l-2.703-2.921c1.835-1.014,3.573-2.366,3.573-4.778
			c0-2.824-1.979-4.731-5.213-4.731c-3.162,0-5.261,2.051-5.261,5.045c0,1.182,0.507,2.534,1.617,3.813
			c-2.268,1.255-3.765,2.751-3.765,5.552c0,3.644,2.776,5.768,6.3,5.768c2.847,0,4.562-1.231,5.792-2.872l1.834,2.027
			c0.266,0.314,0.483,0.411,0.894,0.411h3.065C157.976,42.19,158.169,41.853,157.855,41.515z M147.163,25.44
			c1.255,0,1.883,0.821,1.883,1.811c0,1.062-0.724,1.665-2.438,2.654c-0.99-1.062-1.424-1.786-1.424-2.607
			C145.184,26.237,145.908,25.44,147.163,25.44z M146.077,39.583c-1.594,0-2.945-1.182-2.945-2.847c0-1.69,0.966-2.534,2.462-3.379
			l3.91,4.2C148.659,38.836,147.621,39.583,146.077,39.583z M131.331,42.19c-0.314,0-0.531-0.217-0.531-0.531V26.092h-5.285
			c-0.314,0-0.531-0.217-0.531-0.531v-2.147c0-0.314,0.217-0.531,0.531-0.531h14.071c0.314,0,0.531,0.217,0.531,0.531v2.147
			c0,0.314-0.217,0.531-0.531,0.531h-5.285v15.567c0,0.314-0.217,0.531-0.531,0.531H131.331z"/>
		<path fill="#FFFFFF" d="M92.527,13.394c-3.072-1.842-6.639-2.89-10.484-2.89c-3.873,0-7.546,1.085-10.629,2.976
			c-0.924,0.569-1.445,1.026-1.445,1.611c0,1.729,4.039,3.588,11.204,3.588c7.09,0,12.59-2.036,12.59-3.996
			C93.762,14.216,93.354,13.888,92.527,13.394z M95.577,15.671c0.086,0.134,0.129,0.279,0.129,0.473
			c0,2.277-6.966,6.306-18.057,6.306c-8.148,0-9.673-3.024-9.673-4.947c0-0.687,0.263-1.391,0.843-2.105
			c0.032-0.043,0.005-0.059-0.032-0.027c-1.058,0.897-2.03,1.907-2.884,2.997c-0.408,0.516-0.661,0.972-0.661,1.246
			c0,3.985,9.99,6.875,19.33,6.875c9.952,0,14.394-3.249,14.394-6.107c0-1.021-0.397-1.617-1.413-2.771
			c-0.661-0.752-1.284-1.364-1.944-1.966C95.577,15.618,95.556,15.639,95.577,15.671z M63.523,22.208
			c-0.602,1.192-1.268,3.206-1.466,4.248c-0.086,0.446-0.048,0.661,0.107,0.994c1.257,2.669,7.616,6.939,22.451,6.939
			c9.05,0,16.081-2.224,17.219-6.284c0.209-0.747,0.22-1.536-0.048-2.6c-0.301-1.187-0.865-2.573-1.343-3.545
			c-0.016-0.032-0.043-0.027-0.038,0.011c0.177,5.323-14.663,8.755-22.15,8.755c-8.11,0-14.878-3.233-14.878-7.315
			c0-0.392,0.081-0.784,0.183-1.192C63.572,22.181,63.539,22.175,63.523,22.208z M77.923,39.218c-10.49,0-15.436-4.888-16.333-8.223
			c-0.011-0.048-0.043-0.038-0.043,0.005c0,1.122,0.113,2.573,0.306,3.534c0.091,0.467,0.473,1.203,1.031,1.789
			c2.54,2.648,8.873,6.359,19.84,6.359c14.942,0,18.358-4.979,19.056-6.617c0.5-1.171,0.757-3.287,0.757-5.065
			c0-0.43-0.011-0.774-0.027-1.112c0-0.054-0.032-0.059-0.043-0.005C101.722,33.89,88.955,39.218,77.923,39.218z M83.434,48.236
			c5.043,0,10.586-1.375,13.9-4.098c0.908-0.741,1.772-1.729,2.546-3.056c0.446-0.763,0.881-1.67,1.235-2.562
			c0.016-0.043-0.011-0.064-0.043-0.016c-3.083,4.538-12.01,7.369-21.226,7.369c-6.515,0-13.524-2.084-16.269-6.064
			c-0.027-0.037-0.054-0.021-0.038,0.022C66.096,45.265,73.852,48.236,83.434,48.236z M69.474,47.188
			c3.475,2.691,7.836,4.308,12.568,4.308c5.178,0,9.899-1.923,13.503-5.081c0.043-0.038,0.021-0.064-0.021-0.038
			c-1.617,1.08-6.225,3.438-13.481,3.438c-6.306,0-10.291-1.407-12.541-2.664C69.458,47.129,69.442,47.161,69.474,47.188z"/>
	</g>
</g>
</svg>
