<?xml version="1.0" encoding="utf-8"?>
<!-- Generator: Adobe Illustrator 19.1.0, SVG Export Plug-In . SVG Version: 6.00 Build 0)  -->
<svg version="1.1" id="Layer_1" xmlns="http://www.w3.org/2000/svg" xmlns:xlink="http://www.w3.org/1999/xlink" x="0px" y="0px"
	 viewBox="0 0 31.994 32" enable-background="new 0 0 31.994 32" xml:space="preserve">
<g>
	<path fill="#92979B" d="M15.984,1.704c7.879-0.022,14.265,6.346,14.309,14.269c0.044,7.881-6.367,14.308-14.285,14.323
		C8.106,30.311,1.696,23.904,1.7,15.997C1.705,8.096,8.071,1.726,15.984,1.704z M13.636,15.934c0,2.965,0,5.884,0,8.809
		c1.237,0,2.44,0,3.677,0c0-2.945,0-5.864,0-8.814c0.844,0,1.654,0,2.47,0c0.107-1.039,0.211-2.047,0.32-3.104
		c-0.942,0-1.857,0-2.762,0c-0.02-0.075-0.036-0.105-0.036-0.135c-0.002-0.546-0.009-1.093-0.002-1.639
		c0.008-0.657,0.265-0.906,0.924-0.907c0.597-0.001,1.194,0,1.807,0c0-1.023,0-2.012,0-3.041c-0.874,0-1.729-0.003-2.584,0.002
		c-0.267,0.002-0.538,0.005-0.802,0.043c-1.539,0.221-2.523,1.082-2.872,2.544c-0.098,0.412-0.126,0.847-0.142,1.272
		c-0.023,0.607-0.006,1.216-0.006,1.867c-0.593,0-1.154,0-1.726,0c0,1.055,0,2.067,0,3.104
		C12.472,15.934,13.025,15.934,13.636,15.934z"/>
</g>
</svg>
