<?xml version="1.0" encoding="utf-8"?>
<!-- Generator: Adobe Illustrator 19.1.0, SVG Export Plug-In . SVG Version: 6.00 Build 0)  -->
<svg version="1.1" id="Layer_1" xmlns="http://www.w3.org/2000/svg" xmlns:xlink="http://www.w3.org/1999/xlink" x="0px" y="0px"
	 viewBox="-20.8 54.7 32 32" style="enable-background:new -20.8 54.7 32 32;" xml:space="preserve">
<style type="text/css">
	.st0{fill:#92979B;}
</style>
<g>
	<path class="st0" d="M7.2,67.4c0-1.1-0.1-2.2-0.3-3.3c-0.5-2.4-1.9-4-4.2-4.8c-1.2-0.4-2.5-0.5-3.7-0.5c-2.4,0-4.8,0-7.2,0
		c-1.1,0-2.2,0.1-3.3,0.3c-2.4,0.5-4,1.9-4.8,4.2c-0.4,1.2-0.5,2.5-0.5,3.7c0,2.4,0,4.7,0,7.1c0,1.1,0.1,2.2,0.3,3.3
		c0.3,1.8,1.3,3.3,2.9,4.2c1.2,0.7,2.6,1,4,1c1.6,0,3.2,0.1,4.9,0.1c0,0,0,0,0,0c1.1,0,2.2,0,3.4,0c1.1,0,2.2-0.1,3.3-0.3
		c2.4-0.5,4-1.9,4.8-4.2c0.4-1.2,0.5-2.5,0.5-3.7C7.2,72.1,7.2,69.7,7.2,67.4z M5,76c-0.1,1.4-0.5,2.6-1.6,3.5
		C2.6,80,1.8,80.3,1,80.4c-0.9,0.1-1.9,0.1-2.8,0.2c-2,0-4,0-6,0c-1.1,0-2.2,0-3.3-0.3c-2-0.4-3.2-1.8-3.4-3.8
		c-0.1-0.9-0.1-1.8-0.1-2.8c0-2,0-4,0-6c0-1.1,0.1-2.2,0.3-3.3c0.4-2,1.8-3.2,3.8-3.4c0.9-0.1,1.9-0.1,2.8-0.2c2,0,4,0,5.9,0
		c1.1,0,2.2,0.1,3.3,0.3c2,0.4,3.2,1.8,3.4,3.8C5,66.7,5,68.6,5.1,70.4c0,0,0,0.1,0,0.1c0,0,0,0,0,0C5.1,72.3,5,74.2,5,76z"/>
	<path class="st0" d="M-4.7,64.6c-3.4,0-6.2,2.7-6.2,6.1c0,3.5,2.7,6.2,6.2,6.2c3.4,0,6.2-2.7,6.2-6.2C1.4,67.3-1.3,64.6-4.7,64.6z
		 M-4.8,74.7c-2.2,0-4-1.8-4-4c0-2.2,1.8-4,4-4c2.2,0,4,1.8,4,4C-0.8,72.9-2.6,74.7-4.8,74.7z"/>
	<path class="st0" d="M1.6,62.9c-0.8,0-1.4,0.6-1.4,1.4c0,0.8,0.7,1.5,1.5,1.5c0.8,0,1.4-0.7,1.4-1.5C3.1,63.5,2.4,62.9,1.6,62.9z"
		/>
</g>
</svg>
