<?xml version="1.0" encoding="utf-8"?>
<!-- Generator: Adobe Illustrator 19.1.0, SVG Export Plug-In . SVG Version: 6.00 Build 0)  -->
<svg version="1.1" id="Layer_1" xmlns="http://www.w3.org/2000/svg" xmlns:xlink="http://www.w3.org/1999/xlink" x="0px" y="0px"
	 viewBox="0 0 232 62" enable-background="new 0 0 232 62" xml:space="preserve">
<g>
	<g>
		<path fill="#1337AA" d="M102.4,24.754h-0.9c-2.6,0-4.3,0.7-5.1,1.7l0,0c-0.8-1-2.6-1.7-5.2-1.7h-0.9c-2.9,0-5.3,1-6.2,3.1
			c-0.4,0.9-0.5,2.1-0.5,3.4v10.7c0,0.2,0.1,0.4,0.4,0.4h2.9c0.2,0,0.4-0.2,0.4-0.4v-8.9c0-1.3,0-2.2,0.1-2.8
			c0.2-1.5,1.3-2.2,3.4-2.2H91c2.1,0,3.3,0.7,3.5,2.2c0.1,0.6,0.1,1.5,0.1,2.8v8.9c0,0.2,0.1,0.4,0.4,0.4h2.9c0.2,0,0.4-0.2,0.4-0.4
			v-8.9c0-1.3,0-2.2,0.1-2.8c0.2-1.5,1.3-2.2,3.5-2.2h0.2c2.1,0,3.2,0.7,3.4,2.2c0.1,0.6,0.1,1.5,0.1,2.8v8.9c0,0.2,0.1,0.4,0.4,0.4
			h2.9c0.2,0,0.4-0.2,0.4-0.4v-10.7c0-1.3-0.1-2.5-0.5-3.4C107.6,25.754,105.3,24.754,102.4,24.754L102.4,24.754z M120.4,24.754
			h-0.5c-3.8,0-6.2,1.2-7.1,4.2c-0.4,1.2-0.5,2.5-0.5,4.8c0,2.2,0.2,3.6,0.5,4.7c0.9,3,3.3,4.2,7.1,4.2h0.5c3.8,0,6.2-1.2,7.1-4.2
			c0.4-1.2,0.6-2.5,0.6-4.7s-0.2-3.6-0.6-4.8C126.6,25.954,124.2,24.754,120.4,24.754L120.4,24.754z M124.1,36.154
			c-0.3,2.8-1.7,3.2-4,3.2H120c-2.3,0-3.7-0.4-4-3.2c-0.1-0.8-0.2-1.5-0.2-2.5s0.1-1.7,0.2-2.5c0.3-2.8,1.7-3.2,4-3.2h0.1
			c2.3,0,3.7,0.4,4,3.2c0.1,0.8,0.2,1.5,0.2,2.5S124.2,35.354,124.1,36.154L124.1,36.154z M144.7,25.054h-3c-0.3,0-0.4,0.1-0.5,0.4
			c-0.1,2.2-0.6,4.7-1.3,7c-0.7,2.4-1.6,4.6-2.4,6.3c-0.9-1.7-1.7-3.9-2.4-6.3c-0.7-2.3-1.1-4.9-1.3-7.1c0-0.3-0.2-0.4-0.5-0.4h-3
			c-0.3,0-0.4,0.2-0.4,0.5c0.4,5.9,2.3,10.5,5.5,16.5c0.1,0.2,0.3,0.3,0.6,0.3h3.2c0.3,0,0.4-0.1,0.5-0.3c2.1-3.9,5.2-10.5,5.4-16.6
			C145.1,25.154,145,25.054,144.7,25.054L144.7,25.054z M191.7,25.454c-1-0.4-2.5-0.7-4.4-0.7h-0.2c-1.2,0-2.8,0.1-4.3,0.4
			c-0.3,0-0.4,0.2-0.4,0.5v2.2c0,0.3,0.1,0.4,0.5,0.3c1.4-0.2,2.8-0.3,3.8-0.3h0.1c1.5,0,2.8,0.1,3.5,0.6c0.7,0.5,1.1,1.2,1.1,2.8
			v0.5c-1.1-0.2-2.5-0.4-3.7-0.4h-0.3c-2.1,0-4,0.5-5.2,1.6c-0.9,0.9-1.6,2.2-1.6,3.9v0.1c0,3.4,2.4,5.5,7.1,5.5h0.9
			c1.9,0,3.7-0.6,4.8-1.5c1.2-1,1.7-2.5,1.7-5v-4.7C195.1,27.854,193.7,26.354,191.7,25.454L191.7,25.454z M191.4,36.154
			c0,1.3,0,2.1-0.5,2.6c-0.5,0.6-1.4,0.8-2.6,0.8h-0.6c-2.2,0-3.5-0.9-3.5-2.6c0-0.8,0.3-1.5,0.8-1.9c0.6-0.5,1.4-0.7,2.8-0.7h0.3
			c1.1,0,2.3,0.1,3.3,0.4L191.4,36.154L191.4,36.154z M206.7,24.754h-2c-2.8,0-5.1,1-6,3c-0.4,0.9-0.5,2.1-0.5,3.4v10.8
			c0,0.2,0.1,0.3,0.4,0.3h2.9c0.2,0,0.4-0.1,0.4-0.3v-9c0-1.3,0-2.2,0.1-2.8c0.2-1.5,1.1-2.2,3.2-2.2h1.6c0.3,0,0.4-0.1,0.4-0.4
			v-2.4C207.1,24.854,207,24.754,206.7,24.754L206.7,24.754z M148.5,25.054c-0.2,0-0.4,0.1-0.4,0.3v16.5c0,0.2,0.1,0.3,0.4,0.3h3
			c0.2,0,0.4-0.1,0.4-0.3v-16.4c0-0.2-0.1-0.3-0.4-0.3h-3V25.054z M177.5,39.154c-1.2,0-1.9-0.3-2.3-0.7c-0.6-0.6-0.7-1.6-0.7-2.8
			v-7.5h3.2c0.3,0,0.4-0.1,0.4-0.3v-2.4c0-0.2-0.1-0.3-0.4-0.3h-3.2v-3.1c0-0.2-0.1-0.3-0.4-0.3h-3c-0.2,0-0.4,0.1-0.4,0.3v13.8
			c0,2.4,0.5,3.9,1.5,5c1,1,2.5,1.5,4.8,1.5h0.8c0.3,0,0.4-0.1,0.4-0.4v-2.5c0-0.2-0.1-0.4-0.4-0.4h-0.3V39.154z M163.1,32.154
			c-0.9-0.3-1.7-0.6-2.3-0.9c-1.5-0.5-1.9-1-1.9-1.8c0-1.3,1.2-1.7,3.2-1.7h0.1c1.1,0,2.5,0.2,4.2,0.5c0.3,0,0.5,0,0.5-0.3v-2.3
			c0-0.3-0.1-0.4-0.4-0.4c-1.1-0.2-3.1-0.5-4.2-0.5H162c-2.3,0-4,0.4-5.2,1.4c-0.9,0.8-1.5,2-1.5,3.5v0.1c0,1.4,0.5,2.4,1.3,3.2
			c0.8,0.7,1.8,1.1,3.1,1.6c0.8,0.3,1.5,0.5,2.2,0.8c1.7,0.6,2.4,1.1,2.4,2.1c0,1.3-1.1,2-3.7,2h-0.1c-1.4,0-3.1-0.3-4.5-0.7
			c-0.3-0.1-0.5,0-0.5,0.3v2.2c0,0.3,0.1,0.4,0.4,0.6c1.4,0.5,3.3,0.7,4.8,0.7h0.1c4.5,0,7-2,7-5.3l0,0c0-1.3-0.4-2.4-1.2-3.1
			C166,33.454,164.8,32.854,163.1,32.154L163.1,32.154z"/>
		<path fill="#1337AA" d="M68.83,26.329c-0.712-8.154-3.958-11.716-7.362-11.716c-0.158,0-0.317,0-0.475,0
			c-2.533,0.237-4.037,1.583-4.037,1.583c-2.692,2.137-3.879,5.304-5.067,8.629c-0.079,0.237-0.158,0.396-0.237,0.633l-0.079,0.317
			c-0.792,2.137-1.662,4.512-4.117,4.512l0,0c-2.692,0-3.721-1.504-5.146-3.562l-0.158-0.237c-0.317-0.475-0.633-0.95-0.95-1.425
			c-1.9-3.008-4.275-6.729-7.837-6.729l0,0c-0.237,0-5.225,0.079-7.283,6.333c-1.9,5.858-1.662,13.141,0.554,18.445
			c0.871,2.137,1.9,3.721,2.929,4.117c0.237,0.079,0.475,0.158,0.712,0.158c0.633,0,1.108-0.317,1.346-0.633
			c0.95-1.504,0.079-3.642-0.633-5.858c-0.475-1.504-1.187-2.771-1.662-5.383c-0.396-2.137-0.158-4.275,0.475-4.433c0,0,0,0,0.079,0
			c0.475,0,1.662,0.95,2.454,1.9c1.662,1.9,2.929,4.433,3.167,4.829c1.9,3.404,3.483,6.412,7.046,7.837
			c0.871,0.396,1.742,0.554,2.771,0.554c0.158,0,0.237,0,0.396,0c2.058,0,4.196-0.633,5.621-1.742
			c0.871-0.633,1.662-1.662,2.296-2.85c0.554-1.029,1.029-2.217,1.504-3.642c0.237-0.633,0.396-1.267,0.554-1.9
			c0.475-1.662,1.029-3.325,1.742-4.829c1.267-2.612,4.037-4.75,5.383-4.75c0.475,0,0.792,0.237,0.792,0.871
			c0,1.9-0.712,9.816,0.158,12.033c0.396,1.029,1.187,1.662,2.058,1.662c0.792,0,1.583-0.475,2.137-1.425
			c0.792-1.267,0.95-4.671,1.029-5.462C69.147,32.742,69.226,29.258,68.83,26.329L68.83,26.329z M29.485,44.458
			C29.485,44.458,29.564,44.537,29.485,44.458c0.079,0.079,0.079,0.158,0.158,0.237c0.317,0.396,0.554,0.712,0.792,0.95l0,0
			c0.317,0.317,0,0.712-0.396,0.633H29.96c-0.554-0.237-1.504-1.425-2.375-3.562c-2.137-5.067-2.296-12.191-0.554-17.733
			c1.821-5.542,6.096-5.621,6.333-5.621c0.079,0,0.158,0,0.237,0c0.317,0,0.317,0.158,0,0.158c-1.821,0.158-3.483,1.504-4.433,2.771
			c-1.821,2.533-3.167,9.183-2.137,14.487C27.585,39.629,28.535,42.954,29.485,44.458L29.485,44.458z M52.601,41.371
			c-2.137,3.8-6.808,4.275-9.658,3.246c-3.167-1.187-4.671-4.037-6.412-7.204l-0.158-0.158l-0.079-0.158
			c-1.108-2.058-2.137-3.721-3.246-4.829c-0.237-0.237-1.979-2.296-3.246-2.296c-0.237,0-0.554,0.079-0.792,0.158
			c-0.396,0.158-0.475,0.158-0.317-0.237c0.396-0.792,1.108-0.871,1.583-0.871c1.346,0,2.454,0.95,3.087,1.504
			c2.692,2.692,4.037,6.096,5.621,8.629c1.504,2.296,3.008,3.8,4.908,4.354c2.296,0.712,5.542,0.237,7.996-2.137
			C52.759,40.658,53.709,39.391,52.601,41.371L52.601,41.371z M59.884,16.117c-1.742,0.871-3.087,3.008-4.117,4.987
			c-1.267,2.533-3.246,9.025-3.642,9.896c-0.396,0.871-1.267,2.217-3.404,2.296c-2.058,0-3.642-0.475-5.462-3.167
			c-0.475-0.712-0.554-1.029,0.237-0.237s2.137,1.425,3.958,1.425l0,0c3.246,0,4.275-3.008,5.067-5.225l0.079-0.317
			c0.079-0.158,0.079-0.237,0.158-0.396l0.079-0.237l0,0c1.187-3.167,2.217-6.175,4.75-8.154l0,0l0,0c0,0,0.792-0.633,2.058-1.029
			C60.122,15.8,60.359,15.88,59.884,16.117L59.884,16.117z M65.426,36.146v0.079l0,0c0,0.475,0,0.871,0,1.267
			c0,0.712,0.079,1.267,0.079,1.742l0,0c0.079,0.475-0.475,0.475-0.792-0.079c0-0.079-0.079-0.158-0.079-0.237
			c-0.633-1.583-0.317-7.046-0.158-9.737c0.158-2.533,0-3.325-0.475-3.879c-0.158-0.158-0.079-0.237,0.158-0.237
			c1.187,0.475,1.425,1.742,1.504,2.692c0.237,1.662-0.158,5.225-0.237,7.916l0,0C65.426,35.987,65.426,36.067,65.426,36.146
			L65.426,36.146z"/>
	</g>
</g>
</svg>
