<?xml version="1.0" encoding="utf-8"?>
<!-- Generator: Adobe Illustrator 19.1.0, SVG Export Plug-In . SVG Version: 6.00 Build 0)  -->
<svg version="1.1" id="Layer_1" xmlns="http://www.w3.org/2000/svg" xmlns:xlink="http://www.w3.org/1999/xlink" x="0px" y="0px"
	 viewBox="-58.4 54.7 32 32" style="enable-background:new -58.4 54.7 32 32;" xml:space="preserve">
<style type="text/css">
	.st0{fill:#92979B;}
</style>
<path class="st0" d="M-42.4,57.3c-7.4,0-13.4,6-13.5,13.4c0,7.4,6,13.4,13.4,13.5c7.4,0,13.4-6,13.5-13.4
	C-28.9,63.4-34.9,57.3-42.4,57.3z M-37.3,76.9c-1-0.2-2.2,0.3-3.4,1.1c-1.3,0.9-2.5,0.7-3.6-0.1c-1-0.7-4,0.3-3.7-0.9
	c0.3-1.2-2-1-2.6-1.7c1-0.8,2.2-1.5,3-2.5c1.1-1.3,0.9-1.7-0.6-2.4c-0.3-0.1-0.7-0.4-0.7-0.8c0.1-0.4,0.7-0.3,1.1-0.3
	c0.4,0.1,0.7,0.2,1,0.2c-0.2-2.1-0.4-4.3,1.3-5.7c2.1-1.8,6-1.4,7,1.1c0.5,1.4,0.6,2.8,0.5,4.6c1-0.5,2.2-0.4,2.2,0.1
	c0,0.5-0.5,0.7-0.6,0.7c-1.7,0.9-1.8,1.3-0.5,2.8c0.8,0.8,1.8,1.4,2.8,2.1C-35,75.6-36.3,77.1-37.3,76.9z"/>
</svg>
