<?xml version="1.0" encoding="utf-8"?>
<!-- Generator: Adobe Illustrator 19.1.0, SVG Export Plug-In . SVG Version: 6.00 Build 0)  -->
<svg version="1.1" id="Layer_1" xmlns="http://www.w3.org/2000/svg" xmlns:xlink="http://www.w3.org/1999/xlink" x="0px" y="0px"
	 viewBox="0 0 232 62" enable-background="new 0 0 232 62" xml:space="preserve">
<g>
	<g>
		<g>
			<path fill-rule="evenodd" clip-rule="evenodd" fill="#1337AA" d="M98.385,17.671l-3.903,5.864h-3.185l-2.692,4.001h3.346
				L82.415,41.87c0,0-0.739,1.141-0.739,2.773c0,1.628,2.044,1.874,2.044,1.874h7.255l2.286-4.158h-3.593
				c0,0-1.387-0.162-0.739-1.292c0.657-1.15,8.999-13.531,8.999-13.531h4.207l2.308-4.001h-3.852l3.87-5.864H98.385L98.385,17.671z"
				/>
			<polygon fill-rule="evenodd" clip-rule="evenodd" fill="#1337AA" points="121.017,46.517 139.465,17.671 133.294,17.671 
				114.855,46.517 121.017,46.517 			"/>
			<polygon fill-rule="evenodd" clip-rule="evenodd" fill="#1337AA" points="172.851,46.517 191.29,17.671 185.134,17.671 
				166.69,46.517 172.851,46.517 			"/>
			<path fill-rule="evenodd" clip-rule="evenodd" fill="#1337AA" d="M118.192,37.15h-14.838c0,0-1.513,1.846-1.681,3.421
				c0,0,0,1.299,1.574,1.299c1.576,0,11.414,0,11.414,0l-2.993,4.647h-9.291c0,0-7.056,0-7.056-4.158c0,0-0.067-3.1,5.105-10.306
				c5.179-7.217,8.721-7.493,14.67-7.493c5.949,0,7.562,1.886,7.373,3.454C122.271,29.804,122.063,30.746,118.192,37.15
				L118.192,37.15z M105.886,33.109h9.781c0,0,1.095-1.873,1.425-3.421c0.332-1.551-1.461-1.958-3.463-1.958
				C111.64,27.731,108.576,27.939,105.886,33.109L105.886,33.109z"/>
			<path fill-rule="evenodd" clip-rule="evenodd" fill="#1337AA" d="M169.484,37.15h-14.836c0,0-1.512,1.846-1.68,3.421
				c0,0,0,1.299,1.572,1.299c1.577,0,11.423,0,11.423,0l-2.994,4.647h-9.291c0,0-7.062,0-7.062-4.158c0,0-0.073-3.1,5.109-10.306
				c5.177-7.217,8.721-7.493,14.667-7.493c5.95,0,7.555,1.886,7.384,3.454C173.569,29.804,173.358,30.746,169.484,37.15
				L169.484,37.15z M157.183,33.109h9.779c0,0,1.097-1.873,1.429-3.421c0.325-1.551-1.466-1.958-3.465-1.958
				C162.931,27.731,159.87,27.939,157.183,33.109L157.183,33.109z"/>
			<path fill-rule="evenodd" clip-rule="evenodd" fill="#1337AA" d="M153.652,24.56l-3.02,4.599c0,0-4.893,0-5.384,0
				c-0.489,0-4.394,0.405-7.898,4.317c-3.503,3.913-3.781,5.783-3.929,7.095c0,0,0,1.299,1.563,1.299c1.581,0,9.95,0,9.95,0
				l-2.988,4.647h-7.82c0,0-7.614,0.238-7.056-4.158c0,0-0.078-3.1,5.101-10.306c0,0,4.686-7.493,14.798-7.493H153.652
				L153.652,24.56z"/>
			<path fill-rule="evenodd" clip-rule="evenodd" fill="#1337AA" d="M175.22,46.538l1.208-1.901h0.444l-0.371,1.606l1.681-1.606
				h0.435l-1.214,1.901h-0.29l0.713-1.128c0.029-0.031,0.067-0.098,0.128-0.191c0.057-0.084,0.118-0.182,0.188-0.284l-1.672,1.603
				h-0.304l0.365-1.603l-0.038,0.061c-0.029,0.041-0.078,0.114-0.134,0.213c-0.055,0.092-0.103,0.161-0.127,0.202l-0.719,1.128
				H175.22L175.22,46.538z"/>
			<polygon fill-rule="evenodd" clip-rule="evenodd" fill="#1337AA" points="177.968,46.538 178.144,46.256 178.471,46.256 
				178.289,46.538 177.968,46.538 			"/>
			<path fill-rule="evenodd" clip-rule="evenodd" fill="#1337AA" d="M180.703,44.86h0.754c0.106,0,0.179,0.009,0.228,0.037
				c0.085,0.05,0.085,0.14,0,0.273c-0.081,0.13-0.175,0.22-0.295,0.267c-0.113,0.047-0.241,0.073-0.386,0.073h-0.715L180.703,44.86
				L180.703,44.86z M179.633,46.538l0.517-0.815h0.706c0.128,0,0.209,0.013,0.255,0.034c0.078,0.044,0.078,0.128,0.006,0.244
				l-0.183,0.319c-0.045,0.079-0.069,0.125-0.078,0.153c-0.011,0.023-0.018,0.05-0.018,0.064h0.377l0.029-0.043
				c-0.033-0.018-0.045-0.055-0.02-0.119c0.003-0.031,0.035-0.09,0.075-0.156l0.154-0.261c0.063-0.107,0.087-0.185,0.075-0.235
				c-0.017-0.052-0.054-0.09-0.122-0.118c0.125-0.047,0.241-0.104,0.345-0.177c0.102-0.073,0.191-0.167,0.258-0.278
				c0.143-0.222,0.134-0.365-0.029-0.446c-0.091-0.047-0.218-0.067-0.395-0.067h-1.048l-1.215,1.901H179.633L179.633,46.538z"/>
			<polygon fill-rule="evenodd" clip-rule="evenodd" fill="#1337AA" points="181.67,46.538 181.854,46.256 182.178,46.256 
				181.996,46.538 181.67,46.538 			"/>
			<polygon fill-rule="evenodd" clip-rule="evenodd" fill="#1337AA" points="41.752,40.576 61.469,40.576 61.208,40.298 
				63.199,40.298 63.412,40.576 69.882,40.576 68.815,42.006 64.691,42.006 64.763,42.092 64.075,42.967 63.033,42.006 
				40.71,42.027 41.752,40.576 			"/>
			<polygon fill-rule="evenodd" clip-rule="evenodd" fill="#1337AA" points="60.26,39.422 59.62,38.824 43.033,38.845 
				44.099,37.372 58.055,37.372 57.772,37.094 60.379,37.094 60.616,37.372 72.227,37.372 71.138,38.824 61.895,38.824 
				62.416,39.422 60.26,39.422 			"/>
			<polygon fill-rule="evenodd" clip-rule="evenodd" fill="#1337AA" points="56.824,36.219 56.137,35.578 45.449,35.6 
				46.515,34.126 54.123,34.126 54.36,33.827 59.62,33.827 59.36,34.126 74.644,34.126 73.554,35.578 59.051,35.578 59.596,36.219 
				56.824,36.219 			"/>
			<polygon fill-rule="evenodd" clip-rule="evenodd" fill="#1337AA" points="55.023,32.953 55.449,32.418 47.771,32.418 
				48.838,30.965 56.564,30.965 56.871,30.56 62.441,30.56 62.085,30.965 76.967,30.944 75.901,32.396 60.853,32.418 60.379,32.953 
				55.023,32.953 			"/>
			<polygon fill-rule="evenodd" clip-rule="evenodd" fill="#1337AA" points="57.535,29.685 57.938,29.171 50.165,29.171 
				51.231,27.719 59.051,27.719 59.36,27.334 65.212,27.334 64.881,27.719 79.337,27.719 78.27,29.171 63.625,29.171 63.199,29.685 
				57.535,29.685 			"/>
			<polygon fill-rule="evenodd" clip-rule="evenodd" fill="#1337AA" points="60.023,26.46 60.331,26.076 52.464,26.076 
				53.53,24.624 61.445,24.624 61.73,24.239 67.891,24.239 67.558,24.624 81.658,24.624 80.569,26.076 66.302,26.076 65.971,26.46 
				60.023,26.46 			"/>
			<polygon fill-rule="evenodd" clip-rule="evenodd" fill="#1337AA" points="62.393,23.363 62.82,22.808 54.881,22.808 
				55.946,21.356 63.933,21.356 64.147,21.1 70.616,21.1 70.379,21.356 84.077,21.356 82.986,22.808 69.122,22.808 68.649,23.363 
				62.393,23.363 			"/>
			<path fill-rule="evenodd" clip-rule="evenodd" fill="#1337AA" d="M64.81,20.224l0.356-0.45h-8.034l1.042-1.451
				c4.005,0,8.01,0,11.992,0l1.35-1.922H71.28l0.664-0.939h1.113l-0.735,0.939h-0.19l-1.516,1.922h2.393h13.294l-1.067,1.431
				l-13.484,0.021l-0.379,0.45H64.81L64.81,20.224z"/>
		</g>
	</g>
</g>
</svg>
