<?xml version="1.0" encoding="utf-8"?>
<!-- Generator: Adobe Illustrator 19.1.0, SVG Export Plug-In . SVG Version: 6.00 Build 0)  -->
<svg version="1.1" id="Layer_1" xmlns="http://www.w3.org/2000/svg" xmlns:xlink="http://www.w3.org/1999/xlink" x="0px" y="0px"
	 viewBox="0 0 31.994 32" enable-background="new 0 0 31.994 32" xml:space="preserve">
<g>
	<path fill="#92979B" d="M1.7,25.037c3.203,0.293,6.053-0.486,8.583-2.428c-1.232-0.077-2.35-0.455-3.334-1.192
		c-0.987-0.739-1.677-1.696-2.086-2.911c0.884,0.132,1.727,0.124,2.593-0.112c-3.44-0.825-4.773-3.902-4.636-5.801
		c0.414,0.157,0.82,0.344,1.246,0.463c0.418,0.117,0.855,0.164,1.303,0.208c-1.217-0.93-2.045-2.1-2.376-3.591
		c-0.33-1.485-0.109-2.892,0.642-4.243c3.184,3.745,7.204,5.8,12.128,6.148c-0.011-0.097-0.014-0.171-0.027-0.243
		c-0.545-2.947,1.129-5.82,3.985-6.707c2.172-0.675,4.139-0.213,5.827,1.323c0.208,0.189,0.375,0.227,0.638,0.163
		c1.08-0.263,2.111-0.646,3.08-1.192c0.074-0.041,0.151-0.076,0.277-0.138c-0.459,1.38-1.295,2.404-2.45,3.193
		c1.104-0.11,2.148-0.412,3.199-0.796c-0.211,0.282-0.41,0.573-0.634,0.844c-0.613,0.739-1.293,1.41-2.069,1.979
		c-0.137,0.101-0.174,0.213-0.171,0.377c0.085,3.89-1.043,7.411-3.3,10.56c-1.99,2.776-4.611,4.743-7.855,5.838
		c-2.521,0.85-5.113,1.084-7.753,0.746c-2.415-0.309-4.651-1.124-6.718-2.407C1.774,25.106,1.759,25.089,1.7,25.037z"/>
</g>
</svg>
