<?xml version="1.0" encoding="utf-8"?>
<!-- Generator: Adobe Illustrator 19.1.0, SVG Export Plug-In . SVG Version: 6.00 Build 0)  -->
<svg version="1.1" id="Layer_1" xmlns="http://www.w3.org/2000/svg" xmlns:xlink="http://www.w3.org/1999/xlink" x="0px" y="0px"
	 viewBox="0 0 31.994 32" enable-background="new 0 0 31.994 32" xml:space="preserve">
<g>
	<path fill="#92979B" d="M2.653,29.432c-0.029-0.029-0.057-0.057-0.086-0.086c0.044-0.095,0.097-0.188,0.131-0.287
		c0.134-0.392,0.26-0.786,0.393-1.179c0.595-1.751,1.189-3.502,1.791-5.25c0.058-0.168,0.035-0.299-0.051-0.443
		c-0.615-1.031-1.065-2.13-1.358-3.293c-0.404-1.603-0.523-3.223-0.309-4.869c0.306-2.35,1.177-4.459,2.625-6.334
		C6.877,6.282,8.2,5.143,9.747,4.269c1.804-1.019,3.751-1.572,5.815-1.682c1.961-0.104,3.862,0.22,5.681,0.963
		c2.232,0.911,4.088,2.33,5.541,4.252c1.375,1.818,2.229,3.862,2.518,6.132c0.039,0.304,0.083,0.606,0.125,0.91
		c0,0.543,0,1.087,0,1.63c-0.014,0.062-0.036,0.122-0.041,0.185c-0.108,1.268-0.378,2.497-0.838,3.686
		c-0.669,1.732-1.671,3.246-2.979,4.556c-0.836,0.838-1.775,1.549-2.808,2.128c-1.878,1.054-3.896,1.628-6.047,1.699
		c-2.362,0.078-4.596-0.43-6.692-1.535c-0.088-0.046-0.223-0.057-0.319-0.028c-0.779,0.238-1.553,0.489-2.329,0.736
		c-1.143,0.364-2.287,0.725-3.429,1.093C3.512,29.133,3.083,29.286,2.653,29.432z M5.885,26.183c0.199-0.058,0.35-0.1,0.499-0.147
		c1.191-0.378,2.383-0.755,3.572-1.139c0.136-0.044,0.241-0.026,0.361,0.043c0.409,0.234,0.812,0.483,1.239,0.68
		c1.782,0.823,3.653,1.146,5.613,0.992c2.297-0.181,4.324-1.031,6.104-2.463c1.227-0.987,2.19-2.204,2.9-3.616
		c0.968-1.925,1.319-3.963,1.087-6.096c-0.213-1.953-0.926-3.715-2.1-5.293c-0.745-1.001-1.63-1.857-2.659-2.556
		c-1.36-0.924-2.85-1.542-4.479-1.79c-2.481-0.378-4.845-0.004-7.058,1.193C9.318,6.879,7.977,8.111,6.947,9.675
		c-0.719,1.09-1.228,2.272-1.519,3.546c-0.234,1.025-0.307,2.061-0.249,3.11c0.054,0.963,0.242,1.9,0.547,2.81
		c0.34,1.014,0.831,1.956,1.442,2.836c0.05,0.072,0.065,0.204,0.037,0.288c-0.335,1.01-0.683,2.016-1.026,3.023
		C6.084,25.571,5.993,25.855,5.885,26.183z"/>
	<path fill="#92979B" d="M12.154,9.704c0.129,0,0.25-0.004,0.371,0.001C12.729,9.713,12.908,9.78,13,9.979
		c0.165,0.356,0.327,0.713,0.481,1.073c0.217,0.505,0.41,1.021,0.644,1.518c0.159,0.339,0.088,0.631-0.11,0.903
		c-0.218,0.299-0.461,0.581-0.7,0.865c-0.184,0.218-0.212,0.416-0.06,0.662c0.839,1.36,1.903,2.495,3.326,3.257
		c0.37,0.199,0.757,0.37,1.144,0.533c0.284,0.12,0.441,0.065,0.639-0.176c0.321-0.392,0.64-0.786,0.959-1.18
		c0.219-0.271,0.392-0.333,0.711-0.186c0.875,0.403,1.742,0.824,2.615,1.231c0.221,0.103,0.318,0.272,0.283,0.498
		c-0.061,0.4-0.113,0.807-0.228,1.193c-0.125,0.42-0.463,0.696-0.813,0.937c-0.874,0.602-1.826,0.888-2.877,0.592
		c-0.7-0.197-1.388-0.438-2.075-0.68c-1.577-0.556-2.877-1.529-4.022-2.724c-0.947-0.988-1.775-2.07-2.445-3.263
		c-0.55-0.98-0.811-2.028-0.561-3.155c0.177-0.796,0.608-1.444,1.229-1.96C11.432,9.674,11.796,9.652,12.154,9.704z"/>
</g>
</svg>
