<?xml version="1.0" encoding="utf-8"?>
<!-- Generator: Adobe Illustrator 19.1.0, SVG Export Plug-In . SVG Version: 6.00 Build 0)  -->
<svg version="1.1" id="Layer_1" xmlns="http://www.w3.org/2000/svg" xmlns:xlink="http://www.w3.org/1999/xlink" x="0px" y="0px"
	 viewBox="0 0 35 35" enable-background="new 0 0 35 35" xml:space="preserve">
<g>
	<g>
		<path fill="#A4B2BC" d="M23.431,29.035c-0.82-0.01-1.606-0.193-2.369-0.469c-1.039-0.376-2.08-0.752-3.099-1.177
			c-1.325-0.552-2.5-1.361-3.61-2.262c-2.081-1.69-3.932-3.598-5.467-5.804c-0.839-1.205-1.452-2.521-1.925-3.904
			c-0.292-0.853-0.617-1.7-0.833-2.572c-0.384-1.549-0.079-3.02,0.699-4.394c0.253-0.446,0.552-0.87,0.859-1.281
			c0.32-0.43,0.757-0.706,1.278-0.853c0.576-0.163,1.154-0.305,1.755-0.349c0.346-0.025,0.613,0.077,0.789,0.382
			c0.279,0.485,0.55,0.974,0.833,1.457c0.574,0.982,1.147,1.965,1.734,2.939c0.397,0.658,0.396,0.98-0.139,1.527
			c-0.368,0.376-0.786,0.703-1.179,1.054c-0.36,0.322-0.726,0.638-1.075,0.972c-0.299,0.286-0.374,0.632-0.172,1.006
			c0.278,0.514,0.557,1.028,0.856,1.53c1.094,1.843,2.469,3.437,4.192,4.724c0.914,0.684,1.895,1.262,2.889,1.817
			c0.643,0.359,0.908,0.309,1.415-0.223c0.355-0.372,0.664-0.788,1.007-1.172c0.322-0.36,0.649-0.716,0.995-1.052
			c0.361-0.35,0.776-0.379,1.204-0.113c0.486,0.302,0.959,0.626,1.455,0.909c0.922,0.526,1.847,1.049,2.789,1.537
			c0.586,0.303,0.845,0.721,0.684,1.373c-0.134,0.542-0.254,1.088-0.406,1.625c-0.139,0.493-0.489,0.845-0.882,1.146
			c-1.035,0.791-2.168,1.373-3.475,1.558C23.964,29.002,23.697,29.012,23.431,29.035z"/>
	</g>
</g>
</svg>
