<?xml version="1.0" encoding="utf-8"?>
<!-- Generator: Adobe Illustrator 19.1.0, SVG Export Plug-In . SVG Version: 6.00 Build 0)  -->
<svg version="1.1" id="Layer_1" xmlns="http://www.w3.org/2000/svg" xmlns:xlink="http://www.w3.org/1999/xlink" x="0px" y="0px"
	 viewBox="0 0 200 200" enable-background="new 0 0 200 200" xml:space="preserve">
<g>
	<g>
		<path fill="#004990" d="M35.311,96.443l4.458-10.845l4.717,10.845H35.311z M58.561,108.333c-0.926-0.103-1.621-0.219-2.085-0.347
			c-0.465-0.126-0.875-0.318-1.233-0.57c-0.508-0.36-0.98-0.899-1.413-1.616c-0.434-0.717-1.017-1.904-1.749-3.564L42.305,80.22
			h-1.267l-8.229,19.752c-0.75,1.807-1.354,3.161-1.809,4.058c-0.456,0.896-0.924,1.636-1.402,2.216
			c-0.567,0.707-1.15,1.218-1.748,1.539c-0.598,0.321-1.293,0.502-2.085,0.547v0.476h10.041v-0.476
			c-0.909-0.073-1.652-0.298-2.232-0.673c-0.418-0.285-0.75-0.647-0.996-1.091c-0.247-0.44-0.37-0.924-0.37-1.448
			c0-0.881,0.336-2.092,1.008-3.636l0.563-1.301l1.17-2.896h9.897l2.157,4.96l0.381,0.878c0.42,0.972,0.629,1.743,0.629,2.311
			c0,0.97-0.464,1.73-1.389,2.268c-0.525,0.314-1.454,0.524-2.785,0.627v0.476h14.724V108.333z"/>
		<path fill="#004990" d="M65.658,93.909c0.555-0.881,1.169-1.545,1.842-1.994c1.24-0.821,2.653-1.231,4.238-1.231
			c0.97,0,1.711,0.202,2.221,0.604c0.462,0.358,0.693,0.807,0.693,1.344c0,0.388-0.138,0.709-0.415,0.963
			c-0.276,0.255-0.631,0.382-1.065,0.382c-0.509,0-0.949-0.195-1.322-0.583l-0.695-0.717c-0.554-0.553-1.204-0.829-1.95-0.829
			c-1.018,0-1.809,0.617-2.377,1.848c-0.569,1.234-0.852,2.948-0.852,5.144v3.9l0.021,1.59c0,0.956,0.061,1.654,0.182,2.094
			c0.12,0.445,0.353,0.806,0.698,1.088c0.42,0.39,1.195,0.682,2.323,0.874v0.424h-9.934v-0.424c0.899-0.117,1.544-0.278,1.935-0.478
			c0.389-0.202,0.703-0.54,0.943-1.015c0.166-0.331,0.281-0.817,0.349-1.463c0.068-0.648,0.101-1.58,0.101-2.799v-5.156
			c0-1.427-0.038-2.431-0.112-3.01c-0.074-0.579-0.239-1.049-0.491-1.407c-0.254-0.386-0.56-0.669-0.916-0.847
			c-0.36-0.178-0.875-0.284-1.546-0.313v-0.475l5.772-0.74C65.539,91.936,65.658,93.009,65.658,93.909z"/>
		<path fill="#004990" d="M87.373,102.028c0,1.762-0.231,3.114-0.691,4.056c-0.326,0.72-0.814,1.289-1.459,1.716
			c-0.645,0.426-1.333,0.638-2.06,0.638c-0.83,0-1.518-0.302-2.059-0.907c-0.542-0.605-0.812-1.365-0.812-2.276
			c0-1.075,0.347-2.024,1.047-2.847c0.341-0.387,0.719-0.724,1.135-0.999c0.414-0.275,1.165-0.69,2.249-1.242
			c0.964-0.464,1.848-1.01,2.65-1.637V102.028z M93.883,107.69c-0.261,0.147-0.623,0.22-1.087,0.22c-0.977,0-1.595-0.491-1.856-1.48
			c-0.125-0.477-0.185-1.374-0.185-2.686v-7.753c0-0.984-0.06-1.687-0.178-2.104c-0.241-0.821-0.844-1.493-1.816-2.017
			c-0.671-0.342-1.507-0.626-2.508-0.852c-1.002-0.222-1.966-0.335-2.889-0.335c-0.822,0-1.663,0.082-2.521,0.247
			c-0.858,0.165-1.58,0.365-2.161,0.607c-1.076,0.494-1.613,1.1-1.613,1.818c0,0.478,0.17,0.877,0.512,1.19
			c0.341,0.316,0.764,0.472,1.267,0.472c0.772,0,1.304-0.328,1.603-0.986l0.56-1.233c0.238-0.51,0.595-0.909,1.073-1.2
			c0.477-0.292,1.023-0.439,1.634-0.439c0.507,0,0.995,0.106,1.466,0.315c0.469,0.21,0.853,0.484,1.153,0.828
			c0.655,0.763,0.984,1.957,0.984,3.584c0,0.764-0.091,1.36-0.27,1.794c-0.178,0.433-0.506,0.815-0.984,1.142
			c-0.418,0.285-0.935,0.531-1.554,0.741c-0.619,0.208-1.576,0.47-2.875,0.784c-1.103,0.269-1.947,0.529-2.528,0.784
			c-0.581,0.254-1.095,0.597-1.543,1.032c-0.792,0.792-1.186,1.763-1.186,2.911c0,1.258,0.482,2.255,1.448,2.994
			c0.966,0.74,2.272,1.109,3.919,1.109c1.287,0,2.417-0.246,3.39-0.739c0.509-0.269,1.266-0.822,2.268-1.658
			c0.494,0.792,0.974,1.353,1.439,1.681c0.703,0.478,1.585,0.716,2.649,0.716c1.929,0,3.163-0.732,3.701-2.196l-0.381-0.201
			C94.455,107.239,94.144,107.54,93.883,107.69z"/>
		<path fill="#004990" d="M101.878,93.951c0.36-0.791,0.911-1.436,1.656-1.936c0.746-0.5,1.555-0.75,2.42-0.75
			c0.716,0,1.415,0.18,2.102,0.537c0.684,0.358,1.311,0.882,1.88,1.567c0.716,0.821,1.267,1.821,1.654,3.001
			c0.389,1.18,0.583,2.425,0.583,3.738c0,2.492-0.593,4.546-1.777,6.166c-1.189,1.621-2.69,2.427-4.509,2.427
			c-0.865,0-1.638-0.197-2.316-0.593c-0.682-0.394-1.192-0.927-1.534-1.602c-0.283-0.579-0.515-1.497-0.693-2.751
			c-0.18-1.252-0.269-2.625-0.269-4.119C101.074,97.01,101.343,95.116,101.878,93.951z M101.074,79.375l-6.869,0.897v0.476
			c1.259,0,2.156,0.339,2.688,1.021c0.534,0.68,0.798,1.797,0.798,3.351v24.586h0.899c0.584-1.176,1.259-1.763,2.022-1.763
			c0.268,0,0.577,0.069,0.921,0.206l1.257,0.481c0.989,0.367,2.195,0.548,3.618,0.548c2.709,0,4.931-0.76,6.668-2.282
			c2.006-1.734,3.009-4.114,3.009-7.144c0-3.03-1.047-5.374-3.141-7.032c-1.691-1.359-3.675-2.037-5.944-2.037
			c-1.601,0-2.978,0.341-4.13,1.02c-0.569,0.341-1.168,0.874-1.795,1.598V79.375z"/>
		<path fill="#004990" d="M122.454,96.602c0.178-1.568,0.745-2.867,1.7-3.897c0.956-1.031,2.068-1.547,3.34-1.547
			c0.754,0,1.465,0.198,2.132,0.594c0.665,0.397,1.199,0.938,1.598,1.626c0.443,0.744,0.716,1.821,0.82,3.225H122.454z
			 M135.376,97.394c0-1.759-0.547-3.221-1.634-4.384c-0.699-0.761-1.557-1.339-2.568-1.734c-1.013-0.395-2.117-0.593-3.307-0.593
			c-2.234,0-4.224,0.65-5.965,1.95c-2.398,1.792-3.597,4.259-3.597,7.399c0,2.303,0.634,4.244,1.904,5.828
			c0.907,1.124,2.02,1.956,3.332,2.501c1.315,0.545,2.887,0.817,4.723,0.817c2.119,0,3.814-0.418,5.09-1.252
			c1.275-0.837,2.109-2.075,2.497-3.716l-0.475-0.158c-0.388,1.086-0.847,1.878-1.382,2.377c-0.477,0.456-1.073,0.806-1.793,1.054
			c-0.72,0.25-1.481,0.375-2.281,0.375c-1.087,0-2.121-0.221-3.107-0.664c-0.987-0.44-1.813-1.061-2.481-1.853
			c-0.655-0.763-1.171-1.723-1.549-2.882c-0.378-1.162-0.566-2.355-0.566-3.582c0-0.299,0.036-0.793,0.105-1.483H135.376z"/>
		<path fill="#004990" d="M137.635,80.114l6.45-0.738v23.365l0.02,1.592c0,0.955,0.059,1.652,0.18,2.093
			c0.121,0.445,0.354,0.806,0.699,1.087c0.421,0.391,1.193,0.682,2.322,0.874v0.424h-9.935v-0.424
			c0.899-0.117,1.544-0.279,1.937-0.48c0.388-0.202,0.703-0.541,0.942-1.019c0.165-0.331,0.28-0.819,0.349-1.468
			c0.068-0.649,0.101-1.586,0.101-2.811V86.169c0-1.42-0.038-2.424-0.113-3.013c-0.075-0.59-0.239-1.065-0.49-1.423
			c-0.255-0.388-0.56-0.664-0.918-0.828c-0.36-0.164-0.874-0.269-1.544-0.316V80.114z"/>
		<path fill="#004990" d="M160.278,102.028c0,1.762-0.229,3.114-0.691,4.056c-0.326,0.72-0.813,1.289-1.461,1.716
			c-0.644,0.426-1.331,0.638-2.056,0.638c-0.832,0-1.519-0.302-2.059-0.907c-0.544-0.605-0.816-1.365-0.816-2.276
			c0-1.075,0.349-2.024,1.049-2.847c0.339-0.387,0.719-0.724,1.136-0.999c0.415-0.275,1.163-0.69,2.247-1.242
			c0.965-0.464,1.85-1.01,2.651-1.637V102.028z M166.788,107.69c-0.264,0.147-0.624,0.22-1.089,0.22
			c-0.975,0-1.594-0.491-1.853-1.48c-0.125-0.477-0.186-1.374-0.186-2.686v-7.753c0-0.984-0.059-1.687-0.18-2.104
			c-0.241-0.821-0.844-1.493-1.815-2.017c-0.672-0.342-1.507-0.626-2.51-0.852c-0.999-0.222-1.962-0.335-2.888-0.335
			c-0.822,0-1.66,0.082-2.521,0.247c-0.859,0.165-1.579,0.365-2.16,0.607c-1.075,0.494-1.613,1.1-1.613,1.818
			c0,0.478,0.171,0.877,0.512,1.19c0.342,0.316,0.764,0.472,1.268,0.472c0.77,0,1.303-0.328,1.601-0.986l0.56-1.233
			c0.239-0.51,0.597-0.909,1.075-1.2c0.474-0.292,1.021-0.439,1.631-0.439c0.508,0,0.996,0.106,1.467,0.315
			c0.469,0.21,0.856,0.484,1.153,0.828c0.656,0.763,0.985,1.957,0.985,3.584c0,0.764-0.091,1.36-0.268,1.794
			c-0.18,0.433-0.507,0.815-0.984,1.142c-0.42,0.285-0.938,0.531-1.556,0.741c-0.62,0.208-1.576,0.47-2.874,0.784
			c-1.105,0.269-1.949,0.529-2.529,0.784c-0.581,0.254-1.094,0.597-1.542,1.032c-0.793,0.792-1.187,1.763-1.187,2.911
			c0,1.258,0.482,2.255,1.448,2.994c0.963,0.74,2.27,1.109,3.919,1.109c1.288,0,2.417-0.246,3.391-0.739
			c0.508-0.269,1.265-0.822,2.27-1.658c0.494,0.792,0.972,1.353,1.436,1.681c0.703,0.478,1.585,0.716,2.651,0.716
			c1.928,0,3.161-0.732,3.699-2.196l-0.382-0.201C167.358,107.239,167.05,107.54,166.788,107.69z"/>
		<path fill="#8E979D" d="M168.193,110.536c0,0-15.046,5.765-26.057,7c-10.93,1.225-24.425-1.762-32.563-3.639
			c-6.119-1.41-15.397-2.845-25.356-1.428c-5.338,0.758-25.11,5.115-25.11,5.115s19.042-2.746,23.621-3.181
			c10.585-1.002,22.544,1.79,29.777,3.285c6.733,1.391,12.991,3.047,22.393,2.931c9.868-0.123,16.619-3.16,20.661-4.636
			C161.813,113.7,168.193,110.536,168.193,110.536z"/>
	</g>
	<g>
		<g>
			<path fill="#231F20" d="M169.196,102.51c0.309,0.708,0.627,1.372,0.973,2.077c0.137-0.294,0.675-1.38,1.008-2.077h0.044
				c0.101,0.965,0.169,1.787,0.278,2.649c-0.054-0.011-0.106-0.019-0.16-0.019c-0.054,0-0.105,0.007-0.159,0.019
				c-0.048-0.675-0.096-1.3-0.167-1.945h-0.007c-0.308,0.63-0.621,1.248-0.888,1.926h-0.031c-0.265-0.626-0.577-1.274-0.872-1.926
				h-0.006c-0.065,0.623-0.16,1.519-0.164,1.945c-0.041-0.011-0.078-0.019-0.119-0.019c-0.04,0-0.078,0.007-0.118,0.019
				c0.118-0.833,0.255-1.85,0.329-2.649H169.196z"/>
			<path fill="#231F20" d="M172.271,103.535c0-0.272,0.011-0.543,0.021-0.818c0.07-0.007,0.173-0.019,0.329-0.019
				c0.229,0,0.525,0.098,0.525,0.494c0,0.448-0.369,0.576-0.647,0.576c-0.09,0-0.167-0.004-0.229-0.019V103.535z M171.993,104.183
				c0,0.324-0.012,0.652-0.026,0.976c0.058-0.011,0.111-0.019,0.167-0.019c0.054,0,0.108,0.007,0.166,0.019
				c-0.014-0.324-0.028-0.652-0.028-0.976v-0.275h0.129c0.292,0.328,0.743,1.022,0.879,1.251c0.064-0.011,0.132-0.019,0.196-0.019
				c0.068,0,0.136,0.007,0.204,0.019c-0.197-0.245-0.764-1.055-0.93-1.285c0.258-0.037,0.696-0.233,0.696-0.72
				c0-0.448-0.322-0.595-0.705-0.595c-0.13,0-0.259,0.018-0.387,0.018c-0.129,0-0.259-0.007-0.387-0.018
				c0.013,0.324,0.026,0.652,0.026,0.976V104.183z"/>
		</g>
		<g>
			<path fill="#231F20" d="M168.221,103.831c0-1.661,1.346-3.007,3.006-3.007l0,0c1.661,0,3.007,1.345,3.007,3.007l0,0
				c0,1.66-1.346,3.006-3.007,3.006l0,0C169.567,106.837,168.221,105.491,168.221,103.831L168.221,103.831z M168.372,103.831
				c0.002,1.577,1.278,2.852,2.855,2.854l0,0c1.577-0.002,2.853-1.277,2.855-2.854l0,0c-0.003-1.577-1.278-2.853-2.855-2.856l0,0
				C169.651,100.978,168.375,102.254,168.372,103.831L168.372,103.831L168.372,103.831z"/>
		</g>
	</g>
</g>
</svg>
