<?xml version="1.0" encoding="utf-8"?>
<!-- Generator: Adobe Illustrator 19.1.0, SVG Export Plug-In . SVG Version: 6.00 Build 0)  -->
<svg version="1.1" id="Layer_1" xmlns="http://www.w3.org/2000/svg" xmlns:xlink="http://www.w3.org/1999/xlink" x="0px" y="0px"
	 viewBox="0 0 200 200" enable-background="new 0 0 200 200" xml:space="preserve">
<g>
	<path fill-rule="evenodd" clip-rule="evenodd" d="M125.148,100.186c0-5.774-4.868-10.455-10.64-10.455
		c-5.77,0-10.642,4.68-10.642,10.455s4.873,10.452,10.642,10.452C120.28,110.639,125.148,105.961,125.148,100.186L125.148,100.186z
		 M102.605,100.186c0-6.397,5.502-11.584,11.903-11.584c6.394,0,11.899,5.187,11.899,11.584c0,6.397-5.504,11.582-11.899,11.582
		C108.107,111.768,102.605,106.583,102.605,100.186L102.605,100.186z"/>
	<polygon fill-rule="evenodd" clip-rule="evenodd" points="83.038,103.053 80.074,109.454 77.113,103.053 70.535,89.228 
		69.22,89.228 80.006,111.896 80.138,111.896 90.928,89.228 89.613,89.228 83.038,103.053 	"/>
	<polygon fill-rule="evenodd" clip-rule="evenodd" points="161.534,88.599 161.539,99.681 161.602,108.445 142.304,88.104 
		142.17,88.104 142.17,111.256 143.394,111.256 143.394,99.681 143.328,90.922 162.631,111.263 162.76,111.263 162.76,88.599 
		161.534,88.599 	"/>
	<path fill-rule="evenodd" clip-rule="evenodd" d="M42.031,103.97l12.141,0.012l-3.074-6.521l-3.003-6.423l-2.959,6.406
		L42.031,103.97L42.031,103.97z M38.557,111.261H37.24l10.793-22.522h0.129l10.79,22.522h-1.315l-3.008-6.322H41.563L38.557,111.261
		L38.557,111.261z"/>
</g>
</svg>
