<?xml version="1.0" encoding="utf-8"?>
<!-- Generator: Adobe Illustrator 19.1.0, SVG Export Plug-In . SVG Version: 6.00 Build 0)  -->
<svg version="1.1" id="Layer_1" xmlns="http://www.w3.org/2000/svg" xmlns:xlink="http://www.w3.org/1999/xlink" x="0px" y="0px"
	 viewBox="0 0 200 200" enable-background="new 0 0 200 200" xml:space="preserve">
<g>
	<g>
		<path fill="#231F20" d="M47.134,118.625h7.032l-6.53-18.585h-7.032l-6.53,18.585h7.032l0.502-2.511h5.023L47.134,118.625z
			 M42.614,112.096l1.406-6.028h0.201l1.406,6.028H42.614z"/>
		<polygon fill="#231F20" points="65.066,113.603 67.477,118.625 75.011,118.625 68.482,108.831 74.007,100.041 66.975,100.041 
			65.066,104.31 64.865,104.31 62.956,100.041 55.924,100.041 61.198,108.831 54.92,118.625 62.454,118.625 64.865,113.603 		"/>
		<path fill="#231F20" d="M89.075,116.616c0,0-3.368,0.709-4.52,0.106c-1.237-0.647-1.257-2.534-1.257-3.12
			c0-0.586,0-12.055,0-12.055h5.776v-1.507h-5.776v-6.53l-2.009,1.005v5.525h-4.521v1.507h4.521c0,0,0,8.92,0,12.322
			c0,4.093,1.884,4.82,4.737,4.82c1.931,0,3.049-0.315,3.049-0.315V116.616z"/>
		<polygon fill="#231F20" points="111.666,118.625 113.675,118.625 113.675,92.507 108.652,92.758 108.652,93.762 111.666,94.264 		
			"/>
		<path fill="#231F20" d="M99.851,99.789c-3.686,0-8.015,2.325-8.015,9.614c0,7.086,3.702,9.284,7.551,9.382
			c4.479,0.113,6.491-1.115,6.491-1.115l-0.201-1.758c0,0-1.634,1.228-5.568,1.228c-7.152,0-6.286-9.013-6.286-9.013h12.808
			c0.038-0.204,0.105-0.453,0.105-1.136C106.737,102.703,104.287,99.789,99.851,99.789z M94.075,106.621
			c0,0,0.282-5.169,5.326-5.169c3.542,0,4.971,1.996,4.971,5.169H94.075z"/>
		<path fill="#231F20" d="M163.434,116.006c-0.062-0.07-0.156-0.127-0.269-0.176c0.277-0.021,0.505-0.118,0.669-0.293
			c0.173-0.172,0.256-0.378,0.256-0.624c0-0.169-0.05-0.321-0.148-0.477c-0.026-0.027-0.054-0.065-0.078-0.091
			c-0.089-0.097-0.2-0.17-0.326-0.217c-0.175-0.063-0.448-0.092-0.832-0.092h-1.117v0.309v2.94h0.53v-1.383h0.302
			c0.186,0,0.327,0.034,0.426,0.113c0.134,0.099,0.318,0.348,0.537,0.756l0.294,0.513h0.64l-0.402-0.636
			C163.732,116.343,163.573,116.132,163.434,116.006z M162.753,115.452h-0.635v-0.976h0.592c0.255,0,0.428,0.019,0.523,0.061
			c0.094,0.033,0.17,0.092,0.224,0.168c0.055,0.073,0.08,0.159,0.08,0.251c0,0.151-0.055,0.271-0.171,0.365
			C163.262,115.411,163.054,115.452,162.753,115.452z"/>
		<path fill="#231F20" d="M164.711,118.037c0.338-0.238,0.613-0.553,0.817-0.926c0.265-0.475,0.397-0.975,0.397-1.497
			c0-0.437-0.095-0.861-0.279-1.269c-0.038-0.084-0.076-0.161-0.126-0.238c-0.271-0.487-0.644-0.866-1.121-1.115
			c-0.484-0.262-0.982-0.395-1.481-0.395c-0.51,0-1.005,0.132-1.485,0.395c-0.483,0.249-0.858,0.628-1.129,1.115
			c-0.042,0.077-0.082,0.154-0.126,0.238c-0.183,0.407-0.28,0.831-0.28,1.269c0,0.521,0.138,1.022,0.4,1.497
			c0.209,0.373,0.482,0.689,0.817,0.926c0.095,0.071,0.194,0.135,0.295,0.194c0.482,0.265,0.982,0.395,1.508,0.395
			c0.512,0,1.016-0.13,1.491-0.395C164.517,118.172,164.611,118.108,164.711,118.037z M163.573,118.037
			c-0.216,0.059-0.435,0.092-0.655,0.092c-0.232,0-0.45-0.033-0.662-0.092c-0.201-0.057-0.4-0.138-0.587-0.243
			c-0.402-0.225-0.714-0.53-0.936-0.934c-0.226-0.393-0.332-0.808-0.332-1.246c0-0.433,0.106-0.858,0.338-1.258
			c0-0.011,0.007-0.011,0.007-0.011c0.226-0.399,0.535-0.709,0.934-0.922c0.4-0.215,0.811-0.325,1.237-0.325
			c0.415,0,0.827,0.111,1.229,0.325c0.398,0.213,0.71,0.523,0.934,0.922l0.004,0.011c0.228,0.4,0.339,0.825,0.339,1.258
			c0,0.438-0.104,0.853-0.333,1.246c-0.218,0.404-0.53,0.709-0.925,0.934C163.968,117.899,163.774,117.98,163.573,118.037z"/>
	</g>
	<g>
		<ellipse fill="#AC162C" cx="139.702" cy="99.418" rx="0.712" ry="2.026"/>
		<ellipse fill="#AC162C" cx="142.927" cy="99.418" rx="0.712" ry="2.026"/>
		<path fill="#AC162C" d="M149.645,110.087v-4.165c2.189-1.724,3.439-4.085,3.439-6.536c0-4.894-4.868-8.911-11-9.224v-3.804
			c1.077-0.331,1.862-1.334,1.862-2.518c0-1.453-1.182-2.634-2.634-2.634c-1.452,0-2.633,1.181-2.633,2.634
			c0,1.184,0.785,2.187,1.862,2.518v3.804c-6.132,0.313-11,4.33-11,9.224c0,2.45,1.25,4.812,3.44,6.536v4.164
			c-2.552,0.65-4.225,2.254-4.225,4.119c0,2.478,2.927,4.42,6.664,4.42c2.587,0,4.784-0.93,5.893-2.325
			c1.109,1.394,3.307,2.325,5.894,2.325c3.736,0,6.664-1.942,6.664-4.42C153.87,112.338,152.197,110.736,149.645,110.087z
			 M140.222,83.841c0-0.601,0.49-1.09,1.09-1.09c0.602,0,1.09,0.489,1.09,1.09c0,0.601-0.489,1.09-1.09,1.09
			C140.712,84.931,140.222,84.442,140.222,83.841z M141.76,111.636c-0.166,0.156-0.314,0.319-0.448,0.488
			c-0.133-0.169-0.281-0.332-0.447-0.489v-3.012c0.149,0.005,0.298,0.009,0.447,0.009c0.15,0,0.298-0.005,0.448-0.009V111.636z
			 M141.313,107.089c-0.386,0-0.775-0.017-1.156-0.049c-0.395-0.034-0.742,0.238-0.819,0.618c0,0.001,0,0.003,0,0.004
			c-0.006,0.027-0.014,0.053-0.016,0.081c-0.002,0.02,0.001,0.04,0.001,0.06c0,0.004-0.002,0.007-0.002,0.011v4.169
			c0,0.007,0.002,0.014,0.002,0.022c0.001,0.036,0.005,0.073,0.011,0.109c0.003,0.017,0.006,0.032,0.01,0.049
			c0.007,0.031,0.018,0.061,0.028,0.091c0.007,0.019,0.015,0.037,0.023,0.055c0.013,0.026,0.025,0.05,0.04,0.074
			c0.013,0.02,0.025,0.039,0.04,0.058c0.014,0.019,0.029,0.038,0.046,0.056c0.02,0.021,0.04,0.041,0.062,0.061
			c0.009,0.007,0.015,0.017,0.025,0.024c0.426,0.342,0.933,0.901,0.933,1.622c0,1.559-2.345,2.876-5.121,2.876
			c-2.776,0-5.121-1.317-5.121-2.876c0-1.204,1.504-2.355,3.578-2.738c0.001,0,0.002-0.001,0.003-0.001
			c0.365-0.061,0.644-0.376,0.644-0.759v-5.166c0-0.145-0.042-0.279-0.111-0.395c-0.002-0.003-0.003-0.006-0.005-0.008
			c-0.022-0.035-0.046-0.068-0.073-0.099c-0.008-0.008-0.015-0.019-0.023-0.027c-0.024-0.025-0.049-0.047-0.075-0.069
			c-0.012-0.009-0.021-0.021-0.034-0.03c-2.012-1.468-3.119-3.432-3.119-5.529c0-4.247,4.589-7.703,10.228-7.703
			c5.64,0,10.228,3.456,10.228,7.703c0,2.098-1.108,4.062-3.12,5.53c0,0,0,0,0,0c-1.619,1.182-3.735,1.936-5.958,2.124
			C142.084,107.073,141.697,107.089,141.313,107.089z M147.206,117.082c-2.776,0-5.122-1.317-5.122-2.876
			c0-0.719,0.505-1.277,0.928-1.618c0.008-0.007,0.015-0.016,0.023-0.023c0.026-0.022,0.049-0.046,0.072-0.071
			c0.01-0.012,0.02-0.024,0.029-0.035c0.022-0.03,0.044-0.06,0.062-0.093c0.005-0.009,0.011-0.019,0.015-0.028
			c0.019-0.037,0.034-0.075,0.048-0.115c0.002-0.006,0.002-0.012,0.004-0.017c0.013-0.043,0.022-0.087,0.027-0.132
			c0-0.004,0.001-0.007,0.001-0.011c0.002-0.026,0.008-0.052,0.008-0.079v-3.487c1.741-0.231,3.367-0.76,4.798-1.556v3.642
			c-0.06,0.372,0.159,0.726,0.506,0.848c0.042,0.015,0.085,0.028,0.129,0.036c2.081,0.38,3.59,1.531,3.59,2.739
			C152.327,115.765,149.982,117.082,147.206,117.082z"/>
	</g>
</g>
</svg>
