<?xml version="1.0" encoding="utf-8"?>
<!-- Generator: Adobe Illustrator 19.1.0, SVG Export Plug-In . SVG Version: 6.00 Build 0)  -->
<svg version="1.1" id="Layer_1" xmlns="http://www.w3.org/2000/svg" xmlns:xlink="http://www.w3.org/1999/xlink" x="0px" y="0px"
	 viewBox="0 0 200 200" enable-background="new 0 0 200 200" xml:space="preserve">
<g>
	<g>
		<g>
			<path fill="#003DA6" d="M67.321,127.805c-0.558,0.269-1.88,0.599-3.553,0.599c-4.812,0-7.291-3.015-7.291-7.002
				c0-4.75,3.387-7.373,7.601-7.373c1.632,0,2.871,0.33,3.429,0.619l-0.661,2.479c-0.62-0.269-1.508-0.516-2.644-0.516
				c-2.479,0-4.42,1.508-4.42,4.626c0,2.788,1.652,4.544,4.441,4.544c0.971,0,2.003-0.186,2.644-0.454L67.321,127.805z"/>
			<path fill="#003DA6" d="M76.677,125.74c0,0.95,0.041,1.88,0.165,2.438h-2.83l-0.186-1.012h-0.062
				c-0.661,0.806-1.694,1.239-2.892,1.239c-2.045,0-3.263-1.487-3.263-3.098c0-2.623,2.354-3.863,5.928-3.863v-0.124
				c0-0.537-0.289-1.301-1.838-1.301c-1.033,0-2.127,0.351-2.788,0.743l-0.578-2.003c0.702-0.392,2.086-0.909,3.924-0.909
				c3.367,0,4.42,1.983,4.42,4.358V125.74z M73.64,123.406c-1.652,0-2.933,0.392-2.933,1.59c0,0.805,0.537,1.198,1.239,1.198
				c0.764,0,1.425-0.516,1.632-1.157c0.041-0.165,0.062-0.351,0.062-0.537V123.406z"/>
			<path fill="#003DA6" d="M78.35,113.513h3.139v5.763h0.041c0.599-0.868,1.652-1.425,3.057-1.425c2.417,0,4.172,2.003,4.151,5.101
				c0,3.635-2.292,5.453-4.606,5.453c-1.177,0-2.334-0.433-3.036-1.632h-0.041l-0.124,1.405h-2.664
				c0.041-0.661,0.083-1.88,0.083-3.016V113.513z M81.489,123.881c0,0.206,0.021,0.392,0.062,0.558
				c0.206,0.826,0.929,1.487,1.838,1.487c1.342,0,2.168-1.033,2.168-2.85c0-1.569-0.702-2.809-2.168-2.809
				c-0.847,0-1.632,0.64-1.838,1.549c-0.041,0.186-0.062,0.372-0.062,0.578V123.881z"/>
			<path fill="#003DA6" d="M89.875,113.513h3.139v14.664h-3.139V113.513z"/>
			<path fill="#003DA6" d="M97.124,124.108c0.103,1.322,1.384,1.942,2.85,1.942c1.074,0,1.942-0.144,2.788-0.434l0.413,2.128
				c-1.033,0.434-2.293,0.64-3.656,0.64c-3.428,0-5.391-1.983-5.391-5.164c0-2.561,1.611-5.391,5.102-5.391
				c3.264,0,4.503,2.541,4.503,5.04c0,0.537-0.062,1.012-0.103,1.26L97.124,124.108z M100.821,121.96
				c0-0.743-0.331-2.045-1.756-2.045c-1.343,0-1.88,1.219-1.962,2.045H100.821z"/>
			<path fill="#003DA6" d="M104.787,121.3c0-1.26-0.041-2.313-0.083-3.222h2.664l0.124,1.384h0.062
				c0.434-0.661,1.343-1.611,3.057-1.611c1.322,0,2.334,0.681,2.768,1.735h0.041c0.392-0.537,0.826-0.95,1.322-1.24
				c0.558-0.309,1.177-0.495,1.921-0.495c1.942,0,3.408,1.363,3.408,4.379v5.949h-3.057v-5.473c0-1.467-0.475-2.313-1.487-2.313
				c-0.744,0-1.239,0.495-1.466,1.094c-0.062,0.227-0.103,0.537-0.103,0.785v5.907H110.9v-5.66c0-1.26-0.454-2.127-1.466-2.127
				c-0.806,0-1.281,0.619-1.466,1.115c-0.103,0.248-0.124,0.537-0.124,0.805v5.866h-3.057V121.3z"/>
			<path fill="#003DA6" d="M130.129,125.74c0,0.95,0.041,1.88,0.165,2.438h-2.83l-0.186-1.012h-0.062
				c-0.661,0.806-1.694,1.239-2.892,1.239c-2.045,0-3.263-1.487-3.263-3.098c0-2.623,2.354-3.863,5.928-3.863v-0.124
				c0-0.537-0.289-1.301-1.838-1.301c-1.033,0-2.128,0.351-2.788,0.743l-0.579-2.003c0.702-0.392,2.086-0.909,3.924-0.909
				c3.366,0,4.42,1.983,4.42,4.358V125.74z M127.093,123.406c-1.653,0-2.933,0.392-2.933,1.59c0,0.805,0.537,1.198,1.239,1.198
				c0.764,0,1.425-0.516,1.632-1.157c0.041-0.165,0.062-0.351,0.062-0.537V123.406z M129.158,113.719l-2.52,3.139h-2.148
				l1.776-3.139H129.158z"/>
			<path fill="#003DA6" d="M131.782,125.451c0.578,0.351,1.776,0.744,2.706,0.744c0.95,0,1.342-0.31,1.342-0.826
				c0-0.537-0.309-0.785-1.466-1.177c-2.107-0.682-2.913-1.838-2.892-3.015c0-1.9,1.611-3.325,4.11-3.325
				c1.177,0,2.21,0.289,2.83,0.599l-0.537,2.148c-0.455-0.227-1.343-0.558-2.189-0.558c-0.764,0-1.198,0.31-1.198,0.805
				c0,0.496,0.392,0.744,1.632,1.177c1.921,0.64,2.706,1.632,2.726,3.098c0,1.9-1.466,3.284-4.358,3.284
				c-1.322,0-2.499-0.309-3.263-0.723L131.782,125.451z"/>
		</g>
		<g>
			<path fill="#003DA6" d="M141.572,124.459c1.085,0,1.951,0.884,1.951,1.968c0,1.102-0.866,1.977-1.96,1.977
				c-1.085,0-1.968-0.875-1.968-1.977c0-1.084,0.883-1.968,1.968-1.968H141.572z M141.554,124.853c-0.822,0-1.487,0.709-1.487,1.583
				c0,0.884,0.665,1.575,1.496,1.575c0.831,0.009,1.504-0.691,1.504-1.575c0-0.875-0.673-1.583-1.504-1.583H141.554z
				 M141.222,127.573h-0.464v-2.187c0.175-0.026,0.367-0.061,0.7-0.061c0.376,0,0.604,0.061,0.752,0.175
				c0.122,0.096,0.192,0.245,0.192,0.472c0,0.262-0.184,0.446-0.42,0.507v0.018c0.192,0.035,0.315,0.21,0.35,0.533
				c0.044,0.341,0.087,0.473,0.122,0.542h-0.481c-0.052-0.079-0.087-0.271-0.131-0.569c-0.035-0.236-0.175-0.332-0.411-0.332h-0.21
				V127.573z M141.222,126.314h0.219c0.271,0,0.481-0.087,0.481-0.315c0-0.184-0.131-0.324-0.446-0.324
				c-0.114,0-0.193,0-0.254,0.009V126.314z"/>
		</g>
	</g>
	<radialGradient id="SVGID_2_" cx="101.1334" cy="86.3118" r="8.2251" gradientUnits="userSpaceOnUse">
		<stop  offset="0" style="stop-color:#FFC627"/>
		<stop  offset="0.1659" style="stop-color:#F9A629"/>
		<stop  offset="0.4324" style="stop-color:#F1792C"/>
		<stop  offset="0.6699" style="stop-color:#EB582D"/>
		<stop  offset="0.8672" style="stop-color:#E7442F"/>
		<stop  offset="1" style="stop-color:#E63C2F"/>
	</radialGradient>
	<circle fill="url(#SVGID_2_)" cx="99.665" cy="89.007" r="5.296"/>
	<path fill="#003DA6" d="M91.862,81.776c0.937-0.88,2.015-1.681,3.208-2.388c14.574,0.796,25.71,5.108,25.71,10.308
		c0,5.766-13.692,10.44-30.582,10.44c-11.58,0-21.656-2.197-26.847-5.437l8.416-0.141c4.264,1.873,10.934,3.079,18.431,3.079
		c12.875,0,23.312-3.555,23.312-7.94C113.51,85.501,103.96,82.066,91.862,81.776z M86.597,79.328
		c-8.474,0.339-15.888,1.861-20.789,4.07l6.742,1.11c3.03-1.195,7.091-2.076,11.709-2.489
		C84.932,81.073,85.715,80.174,86.597,79.328z"/>
	<path fill="#77BC1F" d="M90.198,97.636c-2.377,0-4.671-0.121-6.831-0.347c-1.273-2.2-1.956-4.615-1.913-7.15
		c0.178-10.241,12.149-18.543,26.742-18.543c9.301,0,17.419,3.373,22.038,8.471l-6.064,1.697c-3.594-3.48-9.428-5.738-16.051-5.738
		c-11.084,0-20.177,6.319-20.312,14.113c-0.048,2.753,1.033,5.321,2.934,7.492C90.56,97.633,90.38,97.636,90.198,97.636z
		 M107.63,104.253c-5.571,0-10.584-1.598-14.175-4.176c-1.07,0.039-2.157,0.059-3.257,0.059c-1.658,0-3.283-0.047-4.869-0.133
		c4.586,5.214,12.797,8.68,22.224,8.68c9.324,0,17.577-3.39,22.368-8.509l-7.232-0.644
		C118.964,102.427,113.586,104.253,107.63,104.253z"/>
</g>
</svg>
