<?xml version="1.0" encoding="utf-8"?>
<!-- Generator: Adobe Illustrator 19.1.0, SVG Export Plug-In . SVG Version: 6.00 Build 0)  -->
<svg version="1.1" id="Layer_1" xmlns="http://www.w3.org/2000/svg" xmlns:xlink="http://www.w3.org/1999/xlink" x="0px" y="0px"
	 viewBox="0 0 200 200" enable-background="new 0 0 200 200" xml:space="preserve">
<g>
	<path fill="#108643" d="M111.973,96.039l1.028-5.63h-0.533H99.432l-1.057,5.63h12.417H111.973L111.973,96.039z M108.365,115.788
		l2.249-12.312h-0.837h-12.76l-2.342,12.77l-0.154,0.842h-0.853h-5.773h-1.23l0.223-1.211l1.75-9.515
		c-0.572,1.639-1.256,3.113-2.064,4.414c-0.911,1.467-1.975,2.709-3.208,3.715l0.001,0.001c-1.227,1.037-2.563,1.81-4.012,2.325
		c-1.445,0.513-2.991,0.767-4.646,0.767h-0.001v-0.004c-1.86,0-3.527-0.321-4.996-0.962c-0.233-0.102-0.47-0.217-0.71-0.344
		L69,116.277c-1.188-0.632-2.229-1.494-3.12-2.584l0,0c-1.066-1.303-1.862-2.867-2.387-4.704c-0.514-1.8-0.772-3.863-0.772-6.2
		c0-1.896,0.172-3.707,0.512-5.443c0.339-1.728,0.848-3.385,1.522-4.978v-0.004c0.678-1.581,1.493-2.984,2.447-4.207
		c0.965-1.237,2.062-2.283,3.292-3.138l0.001,0.001c0.349-0.248,0.698-0.475,1.044-0.68c0.341-0.202,0.703-0.394,1.086-0.578
		c1.888-0.905,3.892-1.342,5.982-1.342v-0.004c1.639,0,3.133,0.257,4.487,0.765c1.369,0.514,2.579,1.28,3.634,2.293l0.016,0.012
		c1.025,1.025,1.837,2.232,2.441,3.623c0.593,1.365,0.981,2.898,1.168,4.601l0.111,1.013l-1.018,0.114l-5.578,0.624l-0.984,0.11
		l-0.143-0.981l0-0.002c-0.036-0.245-0.077-0.476-0.123-0.692c-0.05-0.234-0.101-0.442-0.154-0.624
		c-0.279-0.96-0.68-1.679-1.169-2.145c-0.342-0.327-0.729-0.565-1.171-0.721c-0.465-0.164-1.005-0.242-1.633-0.242
		c-0.684,0-1.338,0.115-1.967,0.345c-0.638,0.233-1.266,0.592-1.888,1.075c-0.167,0.14-0.324,0.282-0.469,0.427
		c-0.153,0.153-0.309,0.323-0.466,0.511c-0.808,0.962-1.498,2.216-2.044,3.778h0l0,0.002c-0.101,0.289-0.203,0.603-0.305,0.941
		c-0.096,0.317-0.183,0.632-0.262,0.944c-0.409,1.612-0.62,3.234-0.62,4.837c0,1.202,0.123,2.242,0.369,3.13
		c0.236,0.849,0.586,1.569,1.052,2.168l0.008,0.016l0,0.001c0.119,0.158,0.248,0.312,0.388,0.46c0.125,0.133,0.26,0.259,0.403,0.378
		c0.689,0.57,1.499,0.855,2.407,0.855c0.633,0,1.228-0.112,1.789-0.338c0.576-0.233,1.128-0.588,1.66-1.07l0.024-0.024l0.001,0
		l0.001,0.001c0.138-0.122,0.277-0.258,0.417-0.408c0.141-0.151,0.275-0.31,0.404-0.479c0.688-0.899,1.232-2.069,1.618-3.511
		l0.243-0.906l0.921,0.16l5.851,1.014l0.93,0.161l3.821-20.777l0.155-0.842h0.852h19.658h0.909l0.016-0.089h0.853h20.829h1.227
		l-0.22,1.207l-0.975,5.344l-0.154,0.846h-0.853h-14.167l-0.981,5.24h13.276h1.227l-0.22,1.208l-0.975,5.344l-0.154,0.846h-0.852
		h-13.674l-1.341,6.644h15.053h1.227l-0.22,1.208l-0.975,5.344l-0.154,0.846h-0.852h-21.921h-1.228L108.365,115.788L108.365,115.788
		z"/>
	<path fill="#FFFFFF" d="M82.068,104.098l5.851,1.014l0.39,0.067l-0.122,0.375c-0.593,1.819-1.316,3.432-2.185,4.832
		c-0.872,1.406-1.89,2.593-3.068,3.553l0,0c-1.163,0.983-2.427,1.715-3.798,2.202c-1.369,0.486-2.84,0.727-4.419,0.727h-0.001
		v-0.001c-1.764,0-3.34-0.302-4.724-0.906c-0.233-0.102-0.455-0.208-0.664-0.32v-0.001c-1.111-0.591-2.082-1.394-2.911-2.409h0
		c-1.005-1.227-1.758-2.711-2.259-4.461c-0.496-1.734-0.743-3.736-0.743-6.013h-0.001c0-1.854,0.168-3.622,0.499-5.312
		c0.331-1.688,0.825-3.3,1.479-4.845V92.6l0-0.001c0.186-0.433,0.379-0.847,0.58-1.242c0.203-0.399,0.417-0.785,0.642-1.159
		c1.156-1.921,2.583-3.471,4.279-4.65l0,0c0.331-0.236,0.665-0.453,1.002-0.652c0.334-0.198,0.679-0.382,1.033-0.552
		c1.796-0.861,3.702-1.277,5.688-1.277c1.56,0,2.975,0.242,4.248,0.72c1.279,0.48,2.41,1.197,3.399,2.146l0.005,0.004
		c0.966,0.966,1.73,2.103,2.299,3.411c0.565,1.3,0.935,2.767,1.114,4.401l0.037,0.338l-0.339,0.038l-5.578,0.624l-0.328,0.037
		l-0.048-0.327l0-0.002v-0.001c-0.037-0.254-0.081-0.498-0.131-0.733c-0.051-0.239-0.107-0.463-0.168-0.672
		c-0.314-1.08-0.778-1.901-1.353-2.45c-0.413-0.395-0.88-0.683-1.414-0.871c-0.542-0.191-1.157-0.282-1.861-0.282
		c-0.761,0-1.493,0.13-2.2,0.388c-0.71,0.26-1.4,0.652-2.075,1.177c-0.183,0.152-0.36,0.313-0.53,0.483
		c-0.172,0.172-0.342,0.357-0.509,0.556c-0.859,1.022-1.59,2.348-2.165,3.992l0,0l0,0.002c-0.11,0.315-0.215,0.639-0.315,0.97
		c-0.098,0.325-0.188,0.649-0.271,0.973c-0.423,1.668-0.642,3.345-0.642,5.002c0,1.259,0.132,2.36,0.396,3.312
		c0.26,0.94,0.651,1.739,1.17,2.407l0.003,0.005l0,0c0.138,0.184,0.283,0.357,0.436,0.519c0.148,0.157,0.303,0.302,0.465,0.436
		c0.816,0.675,1.773,1.013,2.843,1.013c0.718,0,1.397-0.128,2.043-0.389c0.65-0.263,1.27-0.661,1.863-1.199l0.008-0.008l0.001-0.001
		l0,0c0.162-0.142,0.321-0.297,0.476-0.463c0.155-0.167,0.304-0.343,0.447-0.53c0.743-0.971,1.326-2.22,1.736-3.749l0.081-0.302
		L82.068,104.098L82.068,104.098z"/>
	<polygon fill="#FFFFFF" points="87.594,115.919 93.484,83.896 93.536,83.616 93.82,83.616 113.478,83.616 113.887,83.616 
		113.814,84.017 112.839,89.361 112.788,89.642 112.503,89.642 98.901,89.642 97.586,96.642 110.826,96.642 111.238,96.642 
		111.162,97.048 110.147,102.43 110.095,102.71 109.812,102.71 96.483,102.71 94.038,116.041 93.987,116.322 93.703,116.322 
		87.93,116.322 87.52,116.322 87.594,115.919 	"/>
	<polygon fill="#FFFFFF" points="109.036,115.919 114.886,83.896 114.938,83.615 115.222,83.615 136.051,83.615 136.46,83.615 
		136.386,84.017 135.411,89.361 135.36,89.643 135.076,89.643 120.342,89.643 119.105,96.252 133.203,96.252 133.612,96.252 
		133.539,96.655 132.564,101.999 132.512,102.281 132.228,102.281 117.997,102.281 116.38,110.294 132.267,110.294 132.676,110.294 
		132.603,110.697 131.628,116.04 131.576,116.322 131.292,116.322 109.371,116.322 108.962,116.322 109.036,115.919 	"/>
	<path fill-rule="evenodd" clip-rule="evenodd" fill="#108643" d="M82.011,104.435l5.851,1.014c-1.17,3.588-2.847,6.358-5.149,8.23
		c-2.262,1.911-4.914,2.848-7.996,2.848c-3.432,0-6.124-1.17-8.035-3.511c-1.95-2.379-2.925-5.773-2.925-10.258
		c0-3.666,0.663-6.982,1.95-10.024c1.287-3.004,3.081-5.305,5.383-6.904c2.301-1.638,4.837-2.418,7.528-2.418
		c3.042,0,5.499,0.936,7.411,2.769c1.872,1.872,2.964,4.407,3.316,7.606l-5.578,0.624c-0.273-1.872-0.897-3.237-1.755-4.056
		c-0.897-0.858-2.028-1.248-3.51-1.248c-1.6,0-3.081,0.546-4.486,1.638c-1.365,1.131-2.496,2.847-3.315,5.188
		c-0.819,2.34-1.248,4.72-1.248,7.06c0,2.574,0.546,4.524,1.638,5.929c1.053,1.404,2.418,2.106,4.017,2.106
		c1.521,0,2.886-0.546,4.134-1.677C80.49,108.257,81.426,106.619,82.011,104.435L82.011,104.435z"/>
	<polygon fill-rule="evenodd" clip-rule="evenodd" fill="#108643" points="87.93,115.98 93.82,83.957 113.478,83.957 
		112.503,89.301 98.617,89.301 97.174,96.985 110.826,96.985 109.812,102.367 96.199,102.367 93.703,115.98 87.93,115.98 	"/>
	<polygon fill-rule="evenodd" clip-rule="evenodd" fill="#108643" points="109.371,115.98 115.222,83.957 136.051,83.957 
		135.076,89.301 120.058,89.301 118.694,96.595 133.203,96.595 132.228,101.938 117.719,101.938 115.963,110.637 132.267,110.637 
		131.292,115.98 109.371,115.98 	"/>
</g>
</svg>
