<?xml version="1.0" encoding="utf-8"?>
<!-- Generator: Adobe Illustrator 19.1.0, SVG Export Plug-In . SVG Version: 6.00 Build 0)  -->
<svg version="1.1" id="Layer_1" xmlns="http://www.w3.org/2000/svg" xmlns:xlink="http://www.w3.org/1999/xlink" x="0px" y="0px"
	 viewBox="0 0 200 200" enable-background="new 0 0 200 200" xml:space="preserve">
<g>
	<path fill-rule="evenodd" clip-rule="evenodd" fill="#231F20" d="M98.022,104.282c0,3.099,2.271,4.637,4.8,6.066l2.256,1.283
		c1.229,0.692,1.777,1.474,1.777,2.536c0,1.404-1.037,2.277-2.705,2.277c-3.077,0-4.002-2.557-4.504-5.059l-0.077-0.39h-1.507v7.043
		h1.17l0.144-0.165c0.271-0.303,0.271-0.303,0.532-0.303c0.452-0.016,1.034,0.121,1.708,0.279c0.845,0.197,1.802,0.421,2.806,0.421
		c2.544,0,6.129-1.708,6.129-5.504c0-2.648-1.586-3.834-3.502-5.008c-0.001-0.001-4.207-2.494-4.207-2.494
		c-0.965-0.575-1.435-1.342-1.435-2.345c0-0.821,0.656-2.043,2.471-2.043c1.347,0,3.002,0.5,3.844,4.402l0.083,0.383h1.476
		l-0.184-6.303h-1.182l-0.14,0.244c-0.064,0.114-0.171,0.183-0.279,0.183c-0.062-0.003-0.394-0.11-0.593-0.174
		c-0.753-0.241-1.881-0.604-3.025-0.604C100.484,99.009,98.022,101.227,98.022,104.282L98.022,104.282z"/>
	<path fill-rule="evenodd" clip-rule="evenodd" fill="#231F20" d="M70.691,107.823c0-4.983,2.338-6.752,4.34-6.752
		c2.205,0,3.522,1.85,3.522,3.639c0,0,0,8.603,0,8.644c-0.268,1.114-1.518,1.923-2.977,1.923
		C73.322,115.277,70.691,113.323,70.691,107.823L70.691,107.823L70.691,107.823z M82.075,90.315l-0.126,0.045v-0.001
		c-0.698,0.249-3.45,1.151-5.672,1.699l-0.37,0.092v1.542l0.535-0.056c1.246-0.128,1.719,0.034,1.896,0.194
		c0.204,0.185,0.215,0.558,0.215,1.152c0,0,0,4.725,0,5.19c-1.14-0.809-2.244-1.162-3.639-1.162c-2.214,0-4.414,1.111-6.034,3.049
		c-1.594,1.905-2.507,4.46-2.507,7.009c0,8.945,6.794,9.202,7.568,9.202c1.894,0,3.441-0.589,4.612-1.738c0,0.41,0,1.381,0,1.381
		l0.559,0.417l6.288-2.225v-1.491l-0.523,0.041c-1.222,0.095-1.691-0.082-1.869-0.245c-0.182-0.169-0.215-0.463-0.215-0.983V90.566
		l-0.671-0.268L82.075,90.315L82.075,90.315z"/>
	<path fill-rule="evenodd" clip-rule="evenodd" fill="#E03A3E" d="M88.068,93.654c0-1.872,1.517-3.39,3.39-3.39
		c1.872,0,3.389,1.518,3.389,3.39c0,1.872-1.517,3.389-3.389,3.389C89.585,97.043,88.068,95.526,88.068,93.654L88.068,93.654z"/>
	<path fill-rule="evenodd" clip-rule="evenodd" fill="#E03A3E" d="M86.041,113.53c0,0,1.89,3.992,5.616,3.992
		c3.726,0,5.475-3.992,5.475-3.992s-2.695,1.393-5.475,1.393C88.958,114.923,86.041,113.53,86.041,113.53L86.041,113.53z"/>
	<path fill-rule="evenodd" clip-rule="evenodd" fill="#E03A3E" d="M87.942,109.006c0,0,1.242,2.717,3.691,2.717
		c2.448,0,3.598-2.717,3.598-2.717s-1.993,0.666-3.598,0.666C90.027,109.672,87.942,109.006,87.942,109.006L87.942,109.006z"/>
	<path fill-rule="evenodd" clip-rule="evenodd" fill="#E03A3E" d="M88.695,104.389c0,0,0.985,2.244,2.927,2.244
		c1.943,0,2.856-2.244,2.856-2.244s-1.583,0.408-2.856,0.408C90.35,104.797,88.695,104.389,88.695,104.389L88.695,104.389z"/>
	<path fill-rule="evenodd" clip-rule="evenodd" fill="#E03A3E" d="M89.419,99.964c0,0,0.74,1.681,2.195,1.681
		c1.457,0,2.141-1.681,2.141-1.681s-1.287,0.343-2.243,0.343C90.557,100.307,89.419,99.964,89.419,99.964L89.419,99.964z"/>
	<path fill-rule="evenodd" clip-rule="evenodd" fill="#E03A3E" d="M126.496,89.381c2.047,2.869,2.039,6.873,0.361,11.303
		c0.468,0.845,0.752,1.92,0.853,3.221c5.505-7.556,7.502-14.524,4.565-18.645c-5.174-7.254-23.682-3.206-41.333,9.378
		c-3.768,2.686-4.838,3.777-6.379,5.318c1.849-1.309,3.932-2.765,6.851-4.846C105.872,84.8,121.407,82.243,126.496,89.381
		L126.496,89.381z"/>
	<path fill-rule="evenodd" clip-rule="evenodd" fill="#231F20" d="M129.041,116.334c-1.715-0.303-1.935-0.343-1.935-2.829v-7.822
		c0-4.428-1.774-6.673-5.271-6.673c-1.976,0-3.777,0.842-5.235,2.42c0-0.627,0-10.771,0-10.771l-0.639-0.384l-0.062,0.026
		l-0.164,0.067c-0.821,0.336-4.008,1.288-5.471,1.695l-0.355,0.098v1.534l0.54-0.061c0.323-0.036,0.573-0.036,0.919-0.036
		c0.361,0,0.618,0.076,0.764,0.225c0.244,0.248,0.237,0.74,0.231,1.135c0,0.002-0.003,0.176-0.003,0.176v18.292
		c0,2.485-0.154,2.702-2.055,2.903l-0.435,0.046v1.507h9.021v-1.544l-0.08-0.008c-1.742-0.186-2.211-0.237-2.211-2.864
		c0,0,0-9.13,0-9.221c0.219-0.271,1.822-2.161,3.794-2.161c1.71,0,2.473,1.158,2.473,3.756v7.666c0,2.414-0.417,2.691-2.197,2.823
		l-0.037,0.003v1.551h8.809v-1.477L129.041,116.334L129.041,116.334z"/>
</g>
</svg>
