<?xml version="1.0" encoding="utf-8"?>
<!-- Generator: Adobe Illustrator 19.1.0, SVG Export Plug-In . SVG Version: 6.00 Build 0)  -->
<svg version="1.1" id="Layer_1" xmlns="http://www.w3.org/2000/svg" xmlns:xlink="http://www.w3.org/1999/xlink" x="0px" y="0px"
	 viewBox="0 0 200 200" enable-background="new 0 0 200 200" xml:space="preserve">
<g>
	<path fill="none" d="M110.187,127.813c0,0.163,0.045,0.295,0.135,0.395c0.09,0.1,0.208,0.15,0.352,0.15
		c0.128,0,0.277-0.04,0.447-0.121c0.169-0.08,0.359-0.201,0.57-0.362v-1.26l-0.447,0.171
		C110.54,127.059,110.187,127.401,110.187,127.813z"/>
	<path fill="none" d="M107.422,80.001c0-0.821-0.241-1.457-0.722-1.91c-0.481-0.452-1.073-0.678-1.774-0.678
		c-1.702,0-2.716,1.054-3.044,3.162h5.498C107.408,80.36,107.422,80.168,107.422,80.001z"/>
	<path fill="none" d="M76.088,115.983c1.473-1.017,2.209-2.543,2.209-4.578c0-2.084-0.833-3.619-2.499-4.606
		c-1.666-0.986-4.597-1.479-8.794-1.479c-0.663,0-1.362,0.013-2.099,0.038v5.619c0,2.395,0.064,3.915,0.193,4.56
		c0.128,0.645,0.473,1.135,1.035,1.47c0.561,0.335,1.671,0.502,3.327,0.502C72.406,117.509,74.614,117,76.088,115.983z"/>
	<path fill="none" d="M91.768,109.489c-0.932,0.888-1.399,1.747-1.399,2.578c0,1.278,0.81,2.484,2.43,3.621
		c1.62,1.137,3.453,1.705,5.499,1.705c2.275,0,4.378-0.71,6.309-2.134c-3.437-3.333-6.399-6.031-8.886-8.098
		C94.018,107.825,92.701,108.601,91.768,109.489z"/>
	<path fill="none" d="M134.142,126.138c0-0.228-0.07-0.405-0.211-0.531c-0.141-0.126-0.314-0.189-0.519-0.189
		c-0.497,0-0.794,0.293-0.89,0.879h1.607C134.138,126.238,134.142,126.185,134.142,126.138z"/>
	<path fill="none" d="M99.085,125.496c-0.309,0-0.566,0.113-0.773,0.338c-0.206,0.226-0.31,0.594-0.31,1.104
		c0,0.518,0.106,0.901,0.318,1.147c0.212,0.246,0.474,0.369,0.785,0.369c0.208,0,0.4-0.047,0.578-0.14
		c0.178-0.093,0.342-0.233,0.492-0.42v-1.956c-0.18-0.148-0.362-0.259-0.543-0.332C99.451,125.533,99.268,125.496,99.085,125.496z"
		/>
	<path fill="none" d="M98.176,105.276c3.273-1.215,4.91-2.528,4.91-3.941c0-0.841-0.365-1.52-1.092-2.039
		c-0.728-0.52-1.69-0.779-2.885-0.779c-1.178,0-2.123,0.249-2.835,0.748c-0.712,0.498-1.068,1.116-1.068,1.853
		C95.205,102.135,96.195,103.522,98.176,105.276z"/>
	<path fill="none" d="M91.993,127.813c0,0.163,0.045,0.295,0.135,0.395c0.09,0.1,0.208,0.15,0.353,0.15
		c0.128,0,0.277-0.04,0.447-0.121c0.169-0.08,0.359-0.201,0.57-0.362v-1.26l-0.447,0.171
		C92.345,127.059,91.993,127.401,91.993,127.813z"/>
	<path fill="none" d="M74.21,103.198c1.454-0.843,2.181-2.208,2.181-4.094c0-1.315-0.285-2.332-0.856-3.052
		c-0.57-0.719-1.427-1.275-2.567-1.665c-1.142-0.391-3.093-0.586-5.854-0.586c-0.718,0-1.454,0.019-2.209,0.056v10.588
		c0.46,0.013,0.846,0.018,1.16,0.018C70.041,104.464,72.756,104.043,74.21,103.198z"/>
	<path fill="none" d="M79.398,125.477c-0.189,0-0.368,0.045-0.537,0.136c-0.17,0.091-0.331,0.228-0.484,0.412v1.936
		c0.148,0.171,0.304,0.3,0.469,0.387c0.165,0.087,0.34,0.13,0.523,0.13c0.309,0,0.578-0.126,0.808-0.377
		c0.23-0.251,0.344-0.652,0.344-1.201c0-0.477-0.111-0.833-0.332-1.069C79.968,125.595,79.705,125.477,79.398,125.477z"/>
	<path fill="none" d="M87.163,126.138c0-0.228-0.07-0.405-0.211-0.531c-0.141-0.126-0.314-0.189-0.519-0.189
		c-0.497,0-0.794,0.293-0.89,0.879h1.607C87.159,126.238,87.163,126.185,87.163,126.138z"/>
	<path fill="none" d="M60.146,127.813c0,0.163,0.045,0.295,0.135,0.395c0.09,0.1,0.208,0.15,0.353,0.15
		c0.128,0,0.277-0.04,0.447-0.121c0.169-0.08,0.359-0.201,0.57-0.362v-1.26l-0.447,0.171
		C60.499,127.059,60.146,127.401,60.146,127.813z"/>
	<path fill="none" d="M104.046,126.138c0-0.228-0.07-0.405-0.211-0.531c-0.141-0.126-0.314-0.189-0.519-0.189
		c-0.497,0-0.794,0.293-0.89,0.879h1.607C104.042,126.238,104.046,126.185,104.046,126.138z"/>
	<path fill="none" d="M140.198,127.813c0,0.163,0.045,0.295,0.135,0.395c0.09,0.1,0.208,0.15,0.352,0.15
		c0.128,0,0.277-0.04,0.447-0.121c0.17-0.08,0.359-0.201,0.57-0.362v-1.26l-0.447,0.171
		C140.55,127.059,140.198,127.401,140.198,127.813z"/>
	<path fill="none" d="M128.085,86.03c0,0.588,0.155,1.061,0.462,1.42c0.308,0.36,0.711,0.539,1.207,0.539
		c0.44,0,0.949-0.145,1.529-0.434c0.58-0.289,1.23-0.722,1.95-1.301v-4.533l-1.529,0.615
		C129.29,83.316,128.085,84.548,128.085,86.03z"/>
	<path fill="#EC008C" d="M69.425,82.813h-0.671c-0.336,1.404-0.794,2.505-1.376,3.302c-0.582,0.797-1.194,1.323-1.837,1.577
		c-0.643,0.254-1.462,0.381-2.458,0.381H61.67c-1.267,0-2.044-0.198-2.333-0.594c-0.289-0.397-0.433-1.719-0.433-3.966v-4.491h2.09
		c0.814,0,1.391,0.054,1.733,0.16c0.341,0.108,0.6,0.341,0.779,0.7c0.177,0.36,0.266,1.066,0.266,2.119h0.643V75.51h-0.643
		c0,0.933-0.058,1.56-0.175,1.882c-0.117,0.322-0.36,0.562-0.729,0.721c-0.37,0.159-1.017,0.238-1.944,0.238h-2.02v-7.96h2.63
		c1.324,0,2.285,0.072,2.881,0.217c0.597,0.144,1.112,0.494,1.547,1.049c0.433,0.556,0.799,1.495,1.098,2.819h0.644l-0.434-4.729
		H53.7v0.644c0.914,0,1.513,0.09,1.798,0.272c0.284,0.182,0.466,0.502,0.545,0.958c0.079,0.458,0.119,1.409,0.119,2.854v9.303
		c0,1.585-0.038,2.572-0.112,2.959c-0.075,0.387-0.25,0.707-0.524,0.959c-0.276,0.252-0.884,0.377-1.826,0.377h-0.392v0.643h15.704
		L69.425,82.813z"/>
	<path fill="#EC008C" d="M72.629,87.877c0.821,0.867,1.758,1.302,2.812,1.302c0.997,0,1.826-0.313,2.483-0.938
		c0.658-0.624,0.986-1.436,0.986-2.434c0-0.634-0.177-1.296-0.532-1.987c-0.354-0.68-1.325-1.38-2.91-2.098
		c-1.054-0.476-1.768-0.9-2.141-1.273c-0.382-0.364-0.573-0.798-0.573-1.301c0-0.457,0.172-0.858,0.518-1.203
		c0.345-0.344,0.797-0.517,1.356-0.517c0.728,0,1.359,0.306,1.896,0.916c0.537,0.612,0.898,1.341,1.085,2.19h0.518v-3.54h-0.518
		c-0.224,0.541-0.406,0.882-0.545,1.022c-0.653-0.812-1.479-1.218-2.476-1.218c-0.979,0-1.739,0.343-2.28,1.028
		c-0.541,0.685-0.811,1.406-0.811,2.161c0,0.793,0.252,1.46,0.756,2.001c0.504,0.55,1.334,1.11,2.49,1.679
		c1.101,0.541,1.842,1.003,2.224,1.385c0.373,0.382,0.559,0.872,0.559,1.469c0,0.513-0.175,0.984-0.524,1.413
		c-0.349,0.43-0.879,0.643-1.588,0.643c-1.632,0-2.766-1.086-3.399-3.259h-0.546v3.763h0.546
		C72.172,88.558,72.377,88.157,72.629,87.877z"/>
	<path fill="#EC008C" d="M82.268,84.379c0,1.334,0.063,2.266,0.189,2.798c0.125,0.531,0.443,0.995,0.952,1.392
		c0.508,0.396,1.098,0.594,1.769,0.594c0.578,0,1.15-0.156,1.714-0.469c0.565-0.312,0.991-0.776,1.28-1.391l-0.448-0.266
		c-0.494,0.765-1.077,1.147-1.749,1.147c-0.345,0-0.669-0.112-0.972-0.336c-0.304-0.224-0.501-0.52-0.595-0.889
		c-0.093-0.368-0.14-1.084-0.14-2.147v-6.925h3.456v-0.644h-3.456v-3.588H83.82c-0.167,1.129-0.554,2.006-1.158,2.63
		c-0.605,0.625-1.289,0.946-2.052,0.965v0.637h1.657V84.379z"/>
	<path fill="#EC008C" d="M95.18,88.073h-0.394c-0.601,0-1.019-0.084-1.254-0.252c-0.235-0.168-0.369-0.41-0.401-0.728
		c-0.033-0.316-0.049-1.086-0.049-2.308v-2.042c0-1.026,0.079-1.833,0.238-2.421c0.158-0.587,0.518-1.154,1.077-1.699
		c0.56-0.546,1.04-0.819,1.441-0.819c0.336,0,0.588,0.233,0.756,0.7c0.242,0.691,0.597,1.036,1.063,1.036
		c0.261,0,0.483-0.098,0.664-0.294c0.182-0.195,0.273-0.429,0.273-0.699c0-0.402-0.177-0.793-0.532-1.175
		c-0.354-0.382-0.839-0.574-1.455-0.574c-0.681,0-1.378,0.279-2.092,0.839c-0.713,0.559-1.229,1.255-1.546,2.084
		c-0.028-1.212-0.177-2.187-0.448-2.924c-1.412,0.447-2.555,0.723-3.427,0.826v0.629h0.294c0.597,0,1.012,0.087,1.245,0.259
		c0.233,0.173,0.366,0.416,0.399,0.727c0.032,0.313,0.049,1.084,0.049,2.316v3.232c0,1.325-0.023,2.126-0.07,2.406
		c-0.047,0.279-0.189,0.496-0.426,0.651c-0.238,0.153-0.637,0.23-1.197,0.23h-0.294v0.643h6.086V88.073z"/>
	<path fill="#EC008C" d="M102.396,88.443c0.864,0.49,1.782,0.736,2.753,0.736c1.046,0,2.012-0.268,2.9-0.805
		c0.887-0.536,1.48-1.28,1.779-2.232h-0.668c-0.71,1.52-1.916,2.28-3.618,2.28c-1.253,0-2.194-0.505-2.826-1.515
		c-0.631-1.01-0.946-2.52-0.946-4.531c0-0.27,0.019-0.679,0.056-1.228h8.002c-0.046-1.067-0.481-2.059-1.303-2.975
		c-0.822-0.917-1.985-1.376-3.488-1.376c-1.597,0-2.928,0.599-3.992,1.797c-1.065,1.199-1.597,2.703-1.597,4.513
		c0,1.277,0.275,2.363,0.826,3.259C100.825,87.261,101.532,87.954,102.396,88.443z M104.925,77.413c0.701,0,1.293,0.226,1.774,0.678
		c0.481,0.453,0.722,1.089,0.722,1.91c0,0.167-0.014,0.359-0.042,0.573h-5.498C102.209,78.467,103.224,77.413,104.925,77.413z"/>
	<path fill="#EC008C" d="M117.326,88.073h-0.335c-0.597,0-1.012-0.084-1.245-0.252c-0.233-0.168-0.366-0.41-0.399-0.728
		c-0.033-0.316-0.049-1.086-0.049-2.308V69.481h-0.308c-0.287,0.13-0.815,0.261-1.581,0.392c-0.767,0.131-1.434,0.196-2,0.196v0.644
		c0.83,0,1.352,0.156,1.567,0.468c0.214,0.313,0.322,1.07,0.322,2.273v11.332c0,1.325-0.024,2.126-0.071,2.406
		c-0.046,0.279-0.189,0.496-0.427,0.651c-0.238,0.153-0.636,0.23-1.196,0.23h-0.392v0.643h6.113V88.073z"/>
	<path fill="#EC008C" d="M124.195,88.073h-0.336c-0.597,0-1.011-0.084-1.245-0.252c-0.233-0.168-0.366-0.41-0.399-0.728
		c-0.034-0.316-0.049-1.086-0.049-2.308V69.481h-0.308c-0.288,0.13-0.816,0.261-1.582,0.392c-0.767,0.131-1.433,0.196-2,0.196v0.644
		c0.83,0,1.353,0.156,1.567,0.468c0.214,0.313,0.321,1.07,0.321,2.273v11.332c0,1.325-0.023,2.126-0.069,2.406
		c-0.047,0.279-0.189,0.496-0.427,0.651c-0.237,0.153-0.636,0.23-1.196,0.23h-0.392v0.643h6.114V88.073z"/>
	<path fill="#EC008C" d="M131.06,81.945c-1.654,0.681-2.951,1.381-3.89,2.099c-0.938,0.718-1.408,1.558-1.408,2.518
		c0,0.737,0.28,1.329,0.841,1.777c0.561,0.447,1.229,0.672,2.004,0.672c0.607,0,1.296-0.168,2.068-0.503
		c0.77-0.336,1.623-0.835,2.557-1.497c0.112,0.662,0.351,1.161,0.719,1.497c0.367,0.335,0.867,0.503,1.499,0.503
		c1.479,0,2.26-0.798,2.343-2.393h-0.511c-0.15,0.915-0.533,1.371-1.151,1.371c-0.375,0-0.618-0.154-0.73-0.462
		c-0.112-0.308-0.168-1.002-0.168-2.085v-4.63c0-0.98-0.105-1.707-0.315-2.183c-0.21-0.476-0.641-0.9-1.294-1.273
		c-0.653-0.373-1.571-0.56-2.755-0.56c-1.595,0-2.771,0.306-3.526,0.916c-0.755,0.611-1.133,1.182-1.133,1.714
		c0,0.541,0.284,0.812,0.853,0.812c0.634,0,1.026-0.476,1.175-1.427c0.159-0.932,0.94-1.399,2.343-1.399
		c0.702,0,1.267,0.14,1.697,0.419c0.43,0.28,0.697,0.597,0.8,0.952c0.102,0.355,0.154,0.928,0.154,1.721v0.56L131.06,81.945z
		 M133.233,86.254c-0.72,0.579-1.37,1.012-1.95,1.301c-0.58,0.289-1.089,0.434-1.529,0.434c-0.496,0-0.898-0.179-1.207-0.539
		c-0.308-0.359-0.462-0.832-0.462-1.42c0-1.482,1.206-2.714,3.619-3.693l1.529-0.615V86.254z"/>
	<path fill="#EC008C" d="M140.41,87.877c0.82,0.867,1.758,1.302,2.812,1.302c0.997,0,1.825-0.313,2.482-0.938
		c0.658-0.624,0.987-1.436,0.987-2.434c0-0.634-0.178-1.296-0.531-1.987c-0.355-0.68-1.325-1.38-2.91-2.098
		c-1.054-0.476-1.768-0.9-2.14-1.273c-0.383-0.364-0.574-0.798-0.574-1.301c0-0.457,0.172-0.858,0.517-1.203
		c0.345-0.344,0.798-0.517,1.357-0.517c0.728,0,1.359,0.306,1.895,0.916c0.537,0.612,0.898,1.341,1.085,2.19h0.517v-3.54h-0.517
		c-0.224,0.541-0.406,0.882-0.546,1.022c-0.653-0.812-1.479-1.218-2.476-1.218c-0.979,0-1.739,0.343-2.28,1.028
		c-0.542,0.685-0.812,1.406-0.812,2.161c0,0.793,0.252,1.46,0.755,2.001c0.504,0.55,1.334,1.11,2.49,1.679
		c1.101,0.541,1.842,1.003,2.225,1.385c0.373,0.382,0.559,0.872,0.559,1.469c0,0.513-0.174,0.984-0.524,1.413
		c-0.349,0.43-0.879,0.643-1.588,0.643c-1.633,0-2.766-1.086-3.4-3.259h-0.545v3.763h0.545
		C139.952,88.558,140.158,88.157,140.41,87.877z"/>
	<path fill="#FF9E16" d="M76.764,117.871c2.181-0.354,3.971-1.106,5.37-2.255c1.398-1.149,2.099-2.519,2.099-4.108
		c0-1.826-1.031-3.348-3.093-4.566c-2.062-1.218-5.218-1.932-9.471-2.143c3.534-0.347,6.18-1.016,7.938-2.007
		c1.757-0.991,2.637-2.304,2.637-3.939c0-3.964-5.123-5.946-15.366-5.946l-7.02,0.149l-6.164,0.112v0.855h0.721
		c1.906,0,3.14,0.112,3.704,0.336c0.564,0.223,0.934,0.632,1.109,1.228c0.176,0.595,0.264,1.917,0.264,3.964v12.282
		c0,2.109-0.083,3.452-0.248,4.029c-0.166,0.577-0.557,1.002-1.174,1.275c-0.617,0.273-1.726,0.409-3.327,0.409h-1.436v0.857h14.689
		C71.661,118.403,74.583,118.225,76.764,117.871z M64.905,93.857c0.755-0.037,1.491-0.056,2.209-0.056
		c2.761,0,4.712,0.195,5.854,0.586c1.141,0.391,1.997,0.946,2.567,1.665c0.571,0.72,0.856,1.737,0.856,3.052
		c0,1.886-0.727,3.25-2.181,4.094c-1.454,0.844-4.169,1.265-8.145,1.265c-0.313,0-0.7-0.006-1.16-0.018V93.857z M65.099,115.537
		c-0.129-0.645-0.193-2.165-0.193-4.56v-5.619c0.736-0.025,1.436-0.038,2.099-0.038c4.197,0,7.128,0.493,8.794,1.479
		c1.666,0.987,2.499,2.522,2.499,4.606c0,2.035-0.737,3.561-2.209,4.578c-1.473,1.018-3.682,1.526-6.626,1.526
		c-1.657,0-2.766-0.168-3.327-0.502C65.572,116.672,65.227,116.181,65.099,115.537z"/>
	<path fill="#8A8C8C" d="M119.851,116.099h-1.129c-0.835,0.925-2.021,1.387-3.559,1.387c-1.129,0-2.193-0.213-3.191-0.639
		c-0.999-0.425-2.373-1.433-4.124-3.021c0.736-0.623,1.546-1.599,2.43-2.928c1.047-1.609,2.066-2.704,3.056-3.286
		c0.99-0.582,2.148-0.986,3.474-1.215v-0.716h-10.507v0.716c2.553,0.187,3.829,0.878,3.829,2.071c0,0.498-0.27,1.192-0.81,2.079
		c-0.54,0.888-1.276,1.747-2.209,2.578c-2.586-2.336-5.336-4.755-8.249-7.257c4.713-1.506,7.07-3.058,7.07-4.657
		c0-1.028-0.711-1.858-2.135-2.492c-1.424-0.633-3.02-0.95-4.787-0.95c-1.98,0-3.625,0.423-4.934,1.269
		c-1.309,0.846-1.964,1.809-1.964,2.889c0,1.37,0.957,2.902,2.872,4.594c-3.175,1.349-5.323,2.469-6.444,3.356
		c-1.121,0.888-1.681,1.986-1.681,3.294c0,1.142,0.45,2.149,1.35,3.021c0.9,0.872,2.066,1.55,3.498,2.032
		c1.432,0.483,2.934,0.725,4.504,0.725c3.207,0,6.251-1.017,9.132-3.053c2.422,2.035,5.229,3.053,8.42,3.053
		c1.472,0,2.77-0.262,3.89-0.787C118.775,117.639,119.508,116.951,119.851,116.099z M96.273,99.265
		c0.712-0.499,1.657-0.748,2.835-0.748c1.195,0,2.156,0.259,2.885,0.779c0.728,0.519,1.092,1.198,1.092,2.039
		c0,1.413-1.637,2.726-4.91,3.941c-1.981-1.754-2.97-3.141-2.97-4.158C95.205,100.381,95.561,99.763,96.273,99.265z M98.298,117.392
		c-2.046,0-3.879-0.569-5.499-1.705c-1.62-1.136-2.43-2.343-2.43-3.621c0-0.831,0.467-1.69,1.399-2.578
		c0.933-0.888,2.25-1.663,3.953-2.328c2.487,2.067,5.449,4.766,8.886,8.098C102.676,116.682,100.573,117.392,98.298,117.392z"/>
	<path fill="#FF9E16" d="M141.846,105.515c-1.463-0.589-3.808-1.365-7.032-2.328c-3.373-1.013-5.701-1.928-6.985-2.747
		c-1.304-0.806-1.956-1.791-1.956-2.956c0-0.968,0.52-1.857,1.56-2.67c1.04-0.812,2.673-1.218,4.901-1.218
		c2.338,0,4.395,0.55,6.171,1.651c1.776,1.101,3.014,2.609,3.713,4.527h1.215v-6.606h-1.215c-0.11,0.794-0.589,1.531-1.436,2.214
		c-1.473-1.091-2.909-1.811-4.307-2.158c-1.4-0.347-2.891-0.521-4.474-0.521c-2.835,0-5.177,0.598-7.027,1.795
		c-1.85,1.197-2.775,2.695-2.775,4.495c0,1.178,0.428,2.289,1.284,3.331c0.856,1.042,2.048,1.889,3.576,2.54
		c1.528,0.652,3.792,1.412,6.793,2.28c3.369,0.967,5.688,1.875,6.958,2.719c1.27,0.858,1.905,1.921,1.905,3.188
		c0,1.255-0.722,2.39-2.168,3.403c-1.445,1.013-3.483,1.519-6.116,1.519c-5.854,0-9.563-2.648-11.128-7.946h-1.38v8.113h1.38
		c0.294-1.054,0.746-1.873,1.353-2.456c2.743,2.121,6.166,3.183,10.271,3.183c3.571,0,6.424-0.676,8.56-2.029
		c2.135-1.352,3.203-3.108,3.203-5.266c0-1.365-0.441-2.568-1.325-3.61C144.482,106.92,143.309,106.104,141.846,105.515z"/>
	<path d="M58.471,127.922c-0.149,0.192-0.306,0.316-0.471,0.373c-0.165,0.057-0.419,0.086-0.76,0.086h-0.422
		c-0.32,0-0.528-0.027-0.625-0.08c-0.097-0.053-0.157-0.128-0.178-0.224c-0.022-0.096-0.033-0.334-0.033-0.715v-2.76
		c0-0.438,0.014-0.715,0.043-0.832c0.029-0.117,0.085-0.196,0.17-0.239c0.085-0.043,0.264-0.064,0.537-0.064h0.246v-0.179h-2.669
		v0.179h0.123c0.281,0,0.464,0.023,0.547,0.07c0.083,0.047,0.138,0.131,0.164,0.253c0.026,0.122,0.039,0.393,0.039,0.813v2.585
		c0,0.441-0.013,0.721-0.039,0.842c-0.026,0.12-0.085,0.209-0.176,0.266c-0.092,0.057-0.256,0.086-0.494,0.086h-0.164v0.179h4.723
		l0.041-1.551h-0.193C58.756,127.426,58.62,127.731,58.471,127.922z"/>
	<path d="M62.503,128.358c-0.109,0-0.18-0.043-0.213-0.128c-0.033-0.086-0.049-0.279-0.049-0.579v-1.287
		c0-0.272-0.031-0.474-0.092-0.606c-0.062-0.132-0.188-0.25-0.379-0.354c-0.191-0.104-0.461-0.156-0.808-0.156
		c-0.467,0-0.812,0.085-1.033,0.255c-0.221,0.17-0.332,0.328-0.332,0.476c0,0.15,0.083,0.226,0.25,0.226
		c0.186,0,0.301-0.132,0.344-0.397c0.046-0.259,0.275-0.389,0.685-0.389c0.205,0,0.37,0.039,0.496,0.117
		c0.126,0.078,0.204,0.166,0.234,0.264c0.03,0.099,0.045,0.258,0.045,0.478v0.156l-0.635,0.245
		c-0.484,0.189-0.863,0.384-1.138,0.583c-0.275,0.2-0.412,0.433-0.412,0.7c0,0.205,0.082,0.369,0.246,0.494
		c0.164,0.124,0.359,0.187,0.586,0.187c0.178,0,0.379-0.047,0.605-0.14c0.225-0.093,0.475-0.232,0.748-0.416
		c0.033,0.184,0.103,0.323,0.211,0.416c0.108,0.093,0.255,0.14,0.441,0.14c0.435,0,0.664-0.221,0.689-0.665H62.84
		C62.796,128.231,62.684,128.358,62.503,128.358z M61.651,127.876c-0.21,0.161-0.4,0.281-0.57,0.362
		c-0.17,0.08-0.318,0.121-0.447,0.121c-0.145,0-0.262-0.05-0.353-0.15c-0.09-0.1-0.135-0.231-0.135-0.395
		c0-0.412,0.353-0.754,1.058-1.026l0.447-0.171V127.876z"/>
	<path d="M69.565,127.835c-0.171,0.222-0.351,0.368-0.539,0.439s-0.429,0.107-0.722,0.107h-0.414c-0.372,0-0.6-0.055-0.685-0.165
		c-0.085-0.11-0.127-0.478-0.127-1.102v-1.248h0.611c0.238,0,0.406,0.015,0.506,0.045c0.1,0.03,0.176,0.095,0.228,0.194
		c0.052,0.1,0.078,0.296,0.078,0.589h0.193v-1.804h-0.193c0,0.259-0.017,0.433-0.051,0.523c-0.034,0.09-0.105,0.156-0.213,0.2
		c-0.108,0.044-0.297,0.066-0.568,0.066h-0.59v-2.212h0.771c0.388,0,0.67,0.02,0.845,0.06c0.175,0.04,0.326,0.137,0.453,0.292
		c0.127,0.154,0.234,0.415,0.322,0.783h0.193l-0.131-1.314h-3.973v0.179c0.268,0,0.443,0.025,0.527,0.076
		c0.083,0.05,0.137,0.139,0.16,0.266c0.023,0.127,0.035,0.391,0.035,0.793v2.585c0,0.441-0.011,0.715-0.033,0.822
		c-0.022,0.108-0.073,0.196-0.154,0.266c-0.081,0.07-0.259,0.105-0.535,0.105h-0.115v0.179h4.604l0.119-1.641h-0.197
		C69.871,127.308,69.736,127.613,69.565,127.835z"/>
	<path d="M76.445,128.144c-0.015-0.08-0.023-0.306-0.023-0.676v-0.956c0-0.324-0.019-0.558-0.057-0.704
		c-0.038-0.145-0.148-0.275-0.328-0.389c-0.18-0.114-0.4-0.171-0.66-0.171c-0.227,0-0.45,0.06-0.668,0.179
		c-0.219,0.119-0.432,0.298-0.64,0.536c-0.068-0.238-0.189-0.417-0.361-0.536c-0.172-0.119-0.396-0.179-0.672-0.179
		c-0.243,0-0.471,0.056-0.683,0.167c-0.212,0.111-0.409,0.279-0.592,0.502c0-0.272-0.04-0.495-0.119-0.669h-0.041
		c-0.254,0.08-0.575,0.139-0.963,0.175v0.179c0.189,0,0.319,0.021,0.392,0.062c0.072,0.041,0.115,0.103,0.127,0.185
		c0.012,0.082,0.018,0.304,0.018,0.667v0.953c0,0.384-0.008,0.613-0.025,0.688c-0.016,0.075-0.061,0.132-0.133,0.169
		c-0.072,0.038-0.199,0.056-0.379,0.056v0.179h1.644v-0.179c-0.183,0-0.31-0.022-0.381-0.066c-0.071-0.044-0.112-0.109-0.123-0.194
		c-0.011-0.086-0.016-0.303-0.016-0.653v-1.326c0.183-0.207,0.363-0.363,0.539-0.467c0.176-0.104,0.349-0.156,0.519-0.156
		c0.175,0,0.321,0.045,0.439,0.134c0.117,0.089,0.188,0.197,0.211,0.323c0.023,0.126,0.035,0.329,0.035,0.608v0.882
		c0,0.386-0.009,0.617-0.027,0.692c-0.018,0.075-0.063,0.131-0.135,0.167c-0.072,0.036-0.2,0.054-0.383,0.054v0.179h1.623v-0.179
		c-0.172,0-0.292-0.024-0.359-0.072c-0.067-0.048-0.105-0.115-0.115-0.202c-0.01-0.087-0.014-0.3-0.014-0.639v-1.256
		c0.18-0.231,0.36-0.403,0.539-0.517c0.179-0.114,0.357-0.171,0.535-0.171c0.175,0,0.317,0.039,0.426,0.117
		c0.109,0.078,0.177,0.171,0.203,0.28c0.026,0.109,0.039,0.271,0.039,0.486v1.061c0,0.381-0.008,0.61-0.025,0.686
		c-0.016,0.076-0.061,0.133-0.133,0.171c-0.072,0.038-0.198,0.056-0.375,0.056v0.179h1.677v-0.179c-0.197,0-0.331-0.02-0.404-0.058
		C76.503,128.284,76.46,128.224,76.445,128.144z"/>
	<path d="M79.579,125.248c-0.224,0-0.437,0.043-0.638,0.13c-0.201,0.087-0.389,0.218-0.564,0.395c0-0.205-0.023-0.38-0.07-0.525
		h-0.111c-0.413,0.104-0.754,0.169-1.025,0.194v0.179h0.123c0.175,0,0.296,0.023,0.365,0.07c0.068,0.047,0.107,0.114,0.117,0.202
		c0.01,0.088,0.014,0.302,0.014,0.641v2.893c0,0.355-0.005,0.569-0.014,0.643s-0.044,0.137-0.102,0.191
		c-0.059,0.053-0.185,0.08-0.379,0.08h-0.123v0.179h1.755v-0.179c-0.194,0-0.327-0.02-0.398-0.06c-0.071-0.04-0.114-0.1-0.129-0.181
		c-0.015-0.08-0.023-0.305-0.023-0.673v-1.209c0.169,0.156,0.349,0.273,0.539,0.352c0.19,0.079,0.389,0.119,0.597,0.119
		c0.506,0,0.914-0.167,1.224-0.502c0.31-0.334,0.465-0.75,0.465-1.248c0-0.508-0.154-0.917-0.463-1.227
		C80.43,125.402,80.043,125.248,79.579,125.248z M80.177,128.101c-0.23,0.251-0.499,0.377-0.808,0.377
		c-0.183,0-0.357-0.043-0.523-0.13c-0.165-0.087-0.322-0.216-0.469-0.387v-1.936c0.153-0.184,0.314-0.321,0.484-0.412
		c0.169-0.091,0.348-0.136,0.537-0.136c0.306,0,0.57,0.118,0.791,0.354c0.221,0.236,0.332,0.592,0.332,1.069
		C80.522,127.449,80.407,127.85,80.177,128.101z"/>
	<path d="M83.998,125.248c-0.2,0-0.404,0.078-0.613,0.233c-0.209,0.156-0.36,0.349-0.453,0.579
		c-0.008-0.337-0.052-0.608-0.131-0.813c-0.416,0.124-0.752,0.201-1.009,0.229v0.175h0.086c0.175,0,0.297,0.024,0.365,0.072
		c0.068,0.048,0.107,0.115,0.117,0.202c0.01,0.087,0.014,0.301,0.014,0.643v0.898c0,0.368-0.007,0.591-0.02,0.669
		c-0.014,0.078-0.055,0.138-0.125,0.181c-0.07,0.043-0.187,0.064-0.351,0.064h-0.086v0.179h1.783v-0.179h-0.115
		c-0.175,0-0.297-0.023-0.365-0.07c-0.068-0.047-0.107-0.114-0.117-0.202c-0.01-0.088-0.014-0.302-0.014-0.641V126.9
		c0-0.285,0.023-0.509,0.07-0.673c0.046-0.163,0.152-0.321,0.316-0.472c0.164-0.152,0.305-0.227,0.422-0.227
		c0.098,0,0.172,0.065,0.221,0.194c0.071,0.192,0.175,0.288,0.312,0.288c0.076,0,0.141-0.027,0.195-0.082
		c0.053-0.054,0.08-0.119,0.08-0.194c0-0.111-0.052-0.22-0.156-0.327C84.321,125.301,84.179,125.248,83.998,125.248z"/>
	<path d="M87.869,126.453c-0.014-0.295-0.141-0.57-0.381-0.824c-0.241-0.254-0.581-0.381-1.021-0.381
		c-0.467,0-0.857,0.167-1.168,0.5c-0.312,0.333-0.467,0.751-0.467,1.254c0,0.355,0.081,0.657,0.242,0.906
		c0.161,0.249,0.368,0.441,0.621,0.577c0.253,0.136,0.521,0.204,0.806,0.204c0.306,0,0.589-0.075,0.849-0.224
		c0.26-0.149,0.433-0.356,0.521-0.62h-0.197c-0.208,0.422-0.56,0.634-1.058,0.634c-0.366,0-0.642-0.141-0.826-0.422
		c-0.184-0.281-0.277-0.702-0.277-1.262c0-0.075,0.005-0.189,0.016-0.342H87.869z M86.434,125.419c0.205,0,0.378,0.063,0.519,0.189
		c0.141,0.126,0.211,0.303,0.211,0.531c0,0.047-0.004,0.1-0.012,0.159h-1.607C85.64,125.712,85.936,125.419,86.434,125.419z"/>
	<path d="M89.701,126.616c-0.309-0.132-0.518-0.25-0.627-0.354c-0.112-0.101-0.168-0.222-0.168-0.362
		c0-0.127,0.05-0.238,0.152-0.334c0.101-0.096,0.234-0.144,0.398-0.144c0.213,0,0.398,0.085,0.556,0.255
		c0.157,0.17,0.263,0.373,0.318,0.608h0.152v-0.983h-0.152c-0.066,0.15-0.119,0.245-0.16,0.284
		c-0.191-0.225-0.433-0.338-0.726-0.338c-0.287,0-0.51,0.095-0.668,0.286c-0.159,0.19-0.238,0.391-0.238,0.601
		c0,0.22,0.074,0.406,0.221,0.556c0.148,0.153,0.391,0.309,0.73,0.467c0.322,0.15,0.54,0.279,0.652,0.385
		c0.109,0.106,0.164,0.242,0.164,0.408c0,0.143-0.051,0.274-0.154,0.393c-0.102,0.119-0.258,0.179-0.465,0.179
		c-0.478,0-0.81-0.302-0.996-0.906h-0.16v1.046h0.16c0.046-0.145,0.107-0.257,0.18-0.334c0.24,0.241,0.515,0.362,0.824,0.362
		c0.292,0,0.535-0.087,0.728-0.261c0.193-0.174,0.289-0.399,0.289-0.676c0-0.176-0.052-0.36-0.156-0.552
		C90.45,127.01,90.166,126.816,89.701,126.616z"/>
	<path d="M94.35,128.358c-0.109,0-0.18-0.043-0.213-0.128c-0.033-0.086-0.049-0.279-0.049-0.579v-1.287
		c0-0.272-0.031-0.474-0.092-0.606c-0.062-0.132-0.188-0.25-0.379-0.354c-0.191-0.104-0.461-0.156-0.808-0.156
		c-0.467,0-0.812,0.085-1.033,0.255c-0.221,0.17-0.332,0.328-0.332,0.476c0,0.15,0.083,0.226,0.25,0.226
		c0.186,0,0.301-0.132,0.344-0.397c0.046-0.259,0.275-0.389,0.685-0.389c0.205,0,0.37,0.039,0.496,0.117
		c0.126,0.078,0.204,0.166,0.234,0.264c0.03,0.099,0.045,0.258,0.045,0.478v0.156l-0.636,0.245
		c-0.484,0.189-0.863,0.384-1.138,0.583c-0.275,0.2-0.412,0.433-0.412,0.7c0,0.205,0.082,0.369,0.246,0.494
		c0.164,0.124,0.359,0.187,0.586,0.187c0.178,0,0.379-0.047,0.605-0.14c0.225-0.093,0.475-0.232,0.748-0.416
		c0.033,0.184,0.103,0.323,0.211,0.416c0.108,0.093,0.255,0.14,0.441,0.14c0.435,0,0.664-0.221,0.689-0.665h-0.152
		C94.643,128.231,94.531,128.358,94.35,128.358z M93.497,127.876c-0.21,0.161-0.4,0.281-0.57,0.362
		c-0.169,0.08-0.318,0.121-0.447,0.121c-0.145,0-0.262-0.05-0.353-0.15c-0.09-0.1-0.135-0.231-0.135-0.395
		c0-0.412,0.353-0.754,1.058-1.026l0.447-0.171V127.876z"/>
	<path d="M100.787,128.171c-0.014-0.08-0.021-0.306-0.021-0.676v-4.28h-0.086c-0.394,0.101-0.756,0.156-1.086,0.163v0.179h0.086
		c0.175,0,0.296,0.023,0.365,0.07c0.068,0.047,0.107,0.114,0.117,0.202c0.01,0.088,0.014,0.302,0.014,0.641v1.244
		c-0.18-0.156-0.372-0.272-0.574-0.35c-0.202-0.078-0.417-0.117-0.644-0.117c-0.446,0-0.83,0.16-1.152,0.48
		c-0.323,0.32-0.484,0.739-0.484,1.258c0,0.472,0.158,0.873,0.474,1.205c0.316,0.332,0.691,0.498,1.125,0.498
		c0.23,0,0.452-0.048,0.666-0.144c0.215-0.096,0.423-0.24,0.625-0.432c0,0.262,0.016,0.453,0.049,0.575
		c0.309-0.06,0.661-0.093,1.058-0.101v-0.179c-0.197,0-0.331-0.019-0.404-0.058C100.844,128.311,100.8,128.252,100.787,128.171z
		 M100.176,127.895c-0.15,0.187-0.314,0.327-0.492,0.42c-0.178,0.093-0.37,0.14-0.578,0.14c-0.312,0-0.573-0.123-0.785-0.369
		c-0.212-0.246-0.318-0.629-0.318-1.147c0-0.51,0.103-0.879,0.31-1.104c0.206-0.225,0.464-0.338,0.773-0.338
		c0.183,0,0.366,0.037,0.547,0.111c0.182,0.074,0.363,0.185,0.543,0.332V127.895z"/>
	<path d="M104.751,126.453c-0.014-0.295-0.141-0.57-0.381-0.824c-0.241-0.254-0.581-0.381-1.021-0.381
		c-0.467,0-0.857,0.167-1.168,0.5c-0.312,0.333-0.467,0.751-0.467,1.254c0,0.355,0.081,0.657,0.242,0.906
		c0.161,0.249,0.368,0.441,0.621,0.577c0.253,0.136,0.521,0.204,0.806,0.204c0.306,0,0.589-0.075,0.849-0.224
		c0.26-0.149,0.433-0.356,0.521-0.62h-0.197c-0.208,0.422-0.56,0.634-1.058,0.634c-0.366,0-0.642-0.141-0.826-0.422
		c-0.184-0.281-0.277-0.702-0.277-1.262c0-0.075,0.005-0.189,0.016-0.342H104.751z M103.316,125.419
		c0.205,0,0.378,0.063,0.519,0.189c0.141,0.126,0.211,0.303,0.211,0.531c0,0.047-0.004,0.1-0.012,0.159h-1.607
		C102.522,125.712,102.819,125.419,103.316,125.419z"/>
	<path d="M108.589,128.311c-0.068-0.047-0.107-0.114-0.117-0.202c-0.01-0.088-0.014-0.302-0.014-0.641v-4.253h-0.09
		c-0.085,0.036-0.24,0.073-0.465,0.109c-0.225,0.036-0.422,0.055-0.588,0.055v0.179c0.243,0,0.396,0.043,0.459,0.13
		c0.063,0.087,0.094,0.297,0.094,0.632v3.149c0,0.368-0.007,0.591-0.021,0.669c-0.014,0.078-0.055,0.138-0.125,0.181
		c-0.07,0.043-0.187,0.064-0.351,0.064h-0.115v0.179h1.796v-0.179h-0.098C108.779,128.381,108.657,128.358,108.589,128.311z"/>
	<path d="M112.545,128.358c-0.109,0-0.18-0.043-0.213-0.128c-0.033-0.086-0.049-0.279-0.049-0.579v-1.287
		c0-0.272-0.031-0.474-0.092-0.606c-0.061-0.132-0.188-0.25-0.379-0.354c-0.191-0.104-0.461-0.156-0.808-0.156
		c-0.467,0-0.812,0.085-1.033,0.255c-0.221,0.17-0.332,0.328-0.332,0.476c0,0.15,0.083,0.226,0.25,0.226
		c0.186,0,0.301-0.132,0.344-0.397c0.046-0.259,0.275-0.389,0.685-0.389c0.205,0,0.37,0.039,0.496,0.117
		c0.126,0.078,0.203,0.166,0.234,0.264c0.03,0.099,0.045,0.258,0.045,0.478v0.156l-0.635,0.245
		c-0.484,0.189-0.863,0.384-1.138,0.583c-0.275,0.2-0.412,0.433-0.412,0.7c0,0.205,0.082,0.369,0.246,0.494
		c0.164,0.124,0.359,0.187,0.586,0.187c0.178,0,0.379-0.047,0.605-0.14c0.226-0.093,0.475-0.232,0.748-0.416
		c0.033,0.184,0.103,0.323,0.211,0.416c0.108,0.093,0.255,0.14,0.441,0.14c0.435,0,0.664-0.221,0.689-0.665h-0.152
		C112.837,128.231,112.725,128.358,112.545,128.358z M111.692,127.876c-0.21,0.161-0.4,0.281-0.57,0.362
		c-0.17,0.08-0.318,0.121-0.447,0.121c-0.145,0-0.262-0.05-0.352-0.15c-0.09-0.1-0.135-0.231-0.135-0.395
		c0-0.412,0.353-0.754,1.058-1.026l0.447-0.171V127.876z"/>
	<path d="M114.632,126.616c-0.309-0.132-0.518-0.25-0.627-0.354c-0.112-0.101-0.168-0.222-0.168-0.362
		c0-0.127,0.051-0.238,0.152-0.334c0.101-0.096,0.234-0.144,0.398-0.144c0.213,0,0.398,0.085,0.555,0.255
		c0.157,0.17,0.263,0.373,0.318,0.608h0.152v-0.983h-0.152c-0.066,0.15-0.119,0.245-0.16,0.284
		c-0.191-0.225-0.433-0.338-0.726-0.338c-0.287,0-0.51,0.095-0.668,0.286c-0.159,0.19-0.238,0.391-0.238,0.601
		c0,0.22,0.074,0.406,0.221,0.556c0.148,0.153,0.391,0.309,0.73,0.467c0.323,0.15,0.54,0.279,0.652,0.385
		c0.109,0.106,0.164,0.242,0.164,0.408c0,0.143-0.051,0.274-0.154,0.393c-0.103,0.119-0.258,0.179-0.465,0.179
		c-0.478,0-0.81-0.302-0.996-0.906h-0.16v1.046h0.16c0.046-0.145,0.107-0.257,0.18-0.334c0.241,0.241,0.515,0.362,0.824,0.362
		c0.292,0,0.535-0.087,0.728-0.261c0.193-0.174,0.289-0.399,0.289-0.676c0-0.176-0.052-0.36-0.156-0.552
		C115.38,127.01,115.096,126.816,114.632,126.616z"/>
	<path d="M122.407,127.835c-0.171,0.222-0.35,0.368-0.539,0.439c-0.189,0.071-0.429,0.107-0.722,0.107h-0.414
		c-0.372,0-0.6-0.055-0.685-0.165c-0.085-0.11-0.127-0.478-0.127-1.102v-1.248h0.611c0.238,0,0.406,0.015,0.506,0.045
		c0.1,0.03,0.176,0.095,0.228,0.194c0.052,0.1,0.078,0.296,0.078,0.589h0.193v-1.804h-0.193c0,0.259-0.017,0.433-0.051,0.523
		c-0.034,0.09-0.105,0.156-0.213,0.2c-0.108,0.044-0.297,0.066-0.568,0.066h-0.59v-2.212h0.771c0.388,0,0.67,0.02,0.844,0.06
		c0.175,0.04,0.326,0.137,0.453,0.292c0.127,0.154,0.234,0.415,0.322,0.783h0.193l-0.131-1.314h-3.973v0.179
		c0.268,0,0.443,0.025,0.527,0.076c0.083,0.05,0.137,0.139,0.16,0.266c0.023,0.127,0.035,0.391,0.035,0.793v2.585
		c0,0.441-0.011,0.715-0.033,0.822c-0.022,0.108-0.073,0.196-0.154,0.266c-0.081,0.07-0.259,0.105-0.535,0.105h-0.115v0.179h4.604
		l0.119-1.641h-0.197C122.712,127.308,122.578,127.613,122.407,127.835z"/>
	<path d="M124.778,126.616c-0.309-0.132-0.518-0.25-0.627-0.354c-0.112-0.101-0.168-0.222-0.168-0.362
		c0-0.127,0.051-0.238,0.152-0.334c0.101-0.096,0.234-0.144,0.398-0.144c0.213,0,0.398,0.085,0.555,0.255
		c0.157,0.17,0.263,0.373,0.318,0.608h0.152v-0.983h-0.152c-0.066,0.15-0.119,0.245-0.16,0.284
		c-0.191-0.225-0.433-0.338-0.726-0.338c-0.287,0-0.51,0.095-0.668,0.286c-0.159,0.19-0.238,0.391-0.238,0.601
		c0,0.22,0.074,0.406,0.221,0.556c0.148,0.153,0.391,0.309,0.73,0.467c0.322,0.15,0.54,0.279,0.652,0.385
		c0.109,0.106,0.164,0.242,0.164,0.408c0,0.143-0.051,0.274-0.154,0.393c-0.103,0.119-0.258,0.179-0.465,0.179
		c-0.478,0-0.81-0.302-0.996-0.906h-0.16v1.046h0.16c0.046-0.145,0.107-0.257,0.18-0.334c0.241,0.241,0.515,0.362,0.824,0.362
		c0.292,0,0.535-0.087,0.728-0.261c0.193-0.174,0.289-0.399,0.289-0.676c0-0.176-0.052-0.36-0.156-0.552
		C125.527,127.01,125.243,126.816,124.778,126.616z"/>
	<path d="M127.857,128.416c-0.101,0-0.196-0.031-0.285-0.093c-0.089-0.062-0.147-0.144-0.174-0.247
		c-0.027-0.102-0.041-0.301-0.041-0.597v-1.924h1.013v-0.179h-1.013v-0.999h-0.131c-0.049,0.314-0.163,0.557-0.34,0.731
		c-0.178,0.174-0.379,0.263-0.603,0.268v0.179h0.488v1.804c0,0.371,0.018,0.63,0.055,0.778c0.037,0.148,0.13,0.277,0.279,0.387
		c0.149,0.11,0.322,0.165,0.519,0.165c0.17,0,0.337-0.043,0.502-0.13c0.165-0.087,0.29-0.216,0.375-0.387l-0.131-0.074
		C128.225,128.31,128.054,128.416,127.857,128.416z"/>
	<path d="M130.977,125.248c-0.199,0-0.404,0.078-0.613,0.233c-0.209,0.156-0.36,0.349-0.453,0.579
		c-0.008-0.337-0.052-0.608-0.131-0.813c-0.415,0.124-0.752,0.201-1.009,0.229v0.175h0.086c0.175,0,0.296,0.024,0.365,0.072
		c0.068,0.048,0.107,0.115,0.117,0.202c0.01,0.087,0.014,0.301,0.014,0.643v0.898c0,0.368-0.007,0.591-0.021,0.669
		c-0.014,0.078-0.055,0.138-0.125,0.181c-0.07,0.043-0.186,0.064-0.35,0.064h-0.086v0.179h1.783v-0.179h-0.115
		c-0.175,0-0.297-0.023-0.365-0.07c-0.068-0.047-0.107-0.114-0.117-0.202s-0.014-0.302-0.014-0.641V126.9
		c0-0.285,0.023-0.509,0.07-0.673c0.046-0.163,0.152-0.321,0.316-0.472c0.164-0.152,0.305-0.227,0.422-0.227
		c0.098,0,0.172,0.065,0.221,0.194c0.071,0.192,0.175,0.288,0.312,0.288c0.076,0,0.141-0.027,0.195-0.082
		c0.053-0.054,0.08-0.119,0.08-0.194c0-0.111-0.052-0.22-0.156-0.327C131.3,125.301,131.158,125.248,130.977,125.248z"/>
	<path d="M134.847,126.453c-0.014-0.295-0.141-0.57-0.381-0.824s-0.581-0.381-1.021-0.381c-0.467,0-0.857,0.167-1.168,0.5
		c-0.312,0.333-0.467,0.751-0.467,1.254c0,0.355,0.081,0.657,0.242,0.906c0.161,0.249,0.368,0.441,0.621,0.577
		c0.253,0.136,0.521,0.204,0.806,0.204c0.306,0,0.589-0.075,0.849-0.224c0.26-0.149,0.433-0.356,0.521-0.62h-0.197
		c-0.208,0.422-0.56,0.634-1.058,0.634c-0.366,0-0.642-0.141-0.826-0.422c-0.184-0.281-0.277-0.702-0.277-1.262
		c0-0.075,0.005-0.189,0.016-0.342H134.847z M133.412,125.419c0.205,0,0.378,0.063,0.519,0.189c0.141,0.126,0.211,0.303,0.211,0.531
		c0,0.047-0.004,0.1-0.012,0.159h-1.607C132.618,125.712,132.915,125.419,133.412,125.419z"/>
	<path d="M136.586,128.311c-0.068-0.047-0.107-0.114-0.117-0.202c-0.01-0.088-0.014-0.302-0.014-0.641v-4.253h-0.09
		c-0.085,0.036-0.24,0.073-0.465,0.109c-0.225,0.036-0.422,0.055-0.588,0.055v0.179c0.243,0,0.396,0.043,0.459,0.13
		c0.063,0.087,0.094,0.297,0.094,0.632v3.149c0,0.368-0.007,0.591-0.021,0.669c-0.014,0.078-0.055,0.138-0.125,0.181
		c-0.07,0.043-0.187,0.064-0.351,0.064h-0.115v0.179h1.796v-0.179h-0.098C136.776,128.381,136.654,128.358,136.586,128.311z"/>
	<path d="M138.599,128.311c-0.068-0.047-0.107-0.114-0.117-0.202c-0.01-0.088-0.014-0.302-0.014-0.641v-4.253h-0.09
		c-0.085,0.036-0.24,0.073-0.465,0.109c-0.225,0.036-0.422,0.055-0.588,0.055v0.179c0.243,0,0.396,0.043,0.459,0.13
		c0.063,0.087,0.094,0.297,0.094,0.632v3.149c0,0.368-0.007,0.591-0.021,0.669c-0.014,0.078-0.055,0.138-0.125,0.181
		c-0.07,0.043-0.186,0.064-0.351,0.064h-0.115v0.179h1.796v-0.179h-0.098C138.789,128.381,138.667,128.358,138.599,128.311z"/>
	<path d="M142.555,128.358c-0.109,0-0.18-0.043-0.213-0.128c-0.033-0.086-0.049-0.279-0.049-0.579v-1.287
		c0-0.272-0.031-0.474-0.092-0.606c-0.061-0.132-0.188-0.25-0.379-0.354c-0.191-0.104-0.461-0.156-0.808-0.156
		c-0.467,0-0.812,0.085-1.033,0.255c-0.221,0.17-0.332,0.328-0.332,0.476c0,0.15,0.083,0.226,0.25,0.226
		c0.186,0,0.301-0.132,0.344-0.397c0.046-0.259,0.275-0.389,0.685-0.389c0.205,0,0.37,0.039,0.496,0.117
		c0.126,0.078,0.204,0.166,0.234,0.264c0.03,0.099,0.045,0.258,0.045,0.478v0.156l-0.635,0.245
		c-0.484,0.189-0.863,0.384-1.138,0.583c-0.275,0.2-0.412,0.433-0.412,0.7c0,0.205,0.082,0.369,0.246,0.494
		c0.164,0.124,0.359,0.187,0.586,0.187c0.178,0,0.379-0.047,0.605-0.14c0.226-0.093,0.475-0.232,0.748-0.416
		c0.033,0.184,0.103,0.323,0.211,0.416c0.108,0.093,0.255,0.14,0.441,0.14c0.435,0,0.664-0.221,0.689-0.665h-0.152
		C142.847,128.231,142.735,128.358,142.555,128.358z M141.702,127.876c-0.21,0.161-0.4,0.281-0.57,0.362
		c-0.169,0.08-0.318,0.121-0.447,0.121c-0.145,0-0.262-0.05-0.352-0.15c-0.09-0.1-0.135-0.231-0.135-0.395
		c0-0.412,0.353-0.754,1.058-1.026l0.447-0.171V127.876z"/>
	<path d="M144.642,126.616c-0.309-0.132-0.518-0.25-0.627-0.354c-0.112-0.101-0.168-0.222-0.168-0.362
		c0-0.127,0.051-0.238,0.152-0.334c0.101-0.096,0.234-0.144,0.398-0.144c0.213,0,0.398,0.085,0.555,0.255
		c0.157,0.17,0.263,0.373,0.318,0.608h0.152v-0.983h-0.152c-0.066,0.15-0.119,0.245-0.16,0.284
		c-0.191-0.225-0.433-0.338-0.726-0.338c-0.287,0-0.51,0.095-0.668,0.286c-0.159,0.19-0.238,0.391-0.238,0.601
		c0,0.22,0.074,0.406,0.221,0.556c0.148,0.153,0.391,0.309,0.73,0.467c0.323,0.15,0.54,0.279,0.652,0.385
		c0.109,0.106,0.164,0.242,0.164,0.408c0,0.143-0.051,0.274-0.154,0.393c-0.103,0.119-0.258,0.179-0.465,0.179
		c-0.478,0-0.81-0.302-0.996-0.906h-0.16v1.046h0.16c0.046-0.145,0.107-0.257,0.18-0.334c0.241,0.241,0.515,0.362,0.824,0.362
		c0.292,0,0.535-0.087,0.728-0.261c0.193-0.174,0.289-0.399,0.289-0.676c0-0.176-0.052-0.36-0.156-0.552
		C145.391,127.01,145.106,126.816,144.642,126.616z"/>
</g>
</svg>
