<?xml version="1.0" encoding="utf-8"?>
<!-- Generator: Adobe Illustrator 19.1.0, SVG Export Plug-In . SVG Version: 6.00 Build 0)  -->
<svg version="1.1" id="Layer_1" xmlns="http://www.w3.org/2000/svg" xmlns:xlink="http://www.w3.org/1999/xlink" x="0px" y="0px"
	 viewBox="0 0 200 200" enable-background="new 0 0 200 200" xml:space="preserve">
<g>
	<path fill-rule="evenodd" clip-rule="evenodd" fill="#231F20" d="M24.196,90.808c-0.069-1.762-0.144-3.56-0.226-5.392
		c1.259,0.066,2.507,0.124,3.748,0.171c1.24,0.048,2.484,0.073,3.733,0.073c1.247,0,2.509-0.025,3.783-0.073
		c1.277-0.047,2.664-0.105,4.16-0.171c-0.082,0.415-0.123,0.833-0.123,1.249c0,0.417,0.041,0.833,0.123,1.249
		c-0.746-0.072-1.648-0.137-2.702-0.197c-1.054-0.059-2.131-0.108-3.223-0.144c-1.096-0.036-2.151-0.066-3.164-0.09
		c-1.013-0.025-1.851-0.036-2.516-0.036c-0.055,0.967-0.095,1.891-0.121,2.775c-0.029,0.883-0.041,1.767-0.041,2.65
		c0,0.967,0.012,1.856,0.041,2.672c0.027,0.814,0.04,1.663,0.04,2.547c1.831,0,3.64-0.027,5.429-0.082
		c1.788-0.053,3.557-0.161,5.302-0.325c-0.109,0.411-0.163,0.824-0.163,1.234c0,0.411,0.053,0.823,0.163,1.234
		c-0.691-0.068-1.474-0.119-2.348-0.153c-0.874-0.035-1.782-0.064-2.726-0.086c-0.943-0.023-1.899-0.034-2.869-0.034
		c-0.971,0-1.9,0-2.788,0v3.523c0,1.825,0.034,3.621,0.101,5.39c0.07,1.77,0.144,3.511,0.225,5.225
		c-0.637-0.056-1.314-0.082-2.031-0.082c-0.719,0-1.397,0.026-2.032,0.082c0.081-1.721,0.157-3.469,0.226-5.245
		c0.066-1.776,0.101-3.58,0.101-5.414v-7.16C24.297,94.366,24.262,92.569,24.196,90.808L24.196,90.808z"/>
	<path fill-rule="evenodd" clip-rule="evenodd" fill="#231F20" d="M69.851,89.839c-0.029-2.142-0.097-3.616-0.203-4.423
		c0.302,0.066,0.589,0.124,0.863,0.171c0.276,0.048,0.552,0.073,0.824,0.073c0.358,0,0.77-0.082,1.238-0.244
		c-0.082,0.972-0.163,2.133-0.244,3.479c-0.081,1.349-0.15,2.793-0.203,4.335c-0.055,1.541-0.109,3.124-0.163,4.748
		c-0.054,1.626-0.095,3.202-0.121,4.73c-0.028,1.862-0.312,3.528-0.852,5.002c-0.541,1.472-1.31,2.722-2.306,3.75
		c-0.998,1.029-2.224,1.806-3.677,2.334c-1.457,0.528-3.124,0.791-5.007,0.791c-4.156,0-7.175-0.944-9.058-2.833
		c-1.884-1.889-2.824-4.876-2.824-8.96c0-1.306,0.039-2.466,0.12-3.48c0.081-1.014,0.124-2.048,0.124-3.104
		c0-2.334-0.038-4.403-0.111-6.208c-0.073-1.805-0.144-3.334-0.216-4.584c0.336,0.066,0.699,0.124,1.091,0.171
		c0.389,0.048,0.754,0.073,1.09,0.073c0.307,0,0.607-0.025,0.899-0.073c0.294-0.047,0.594-0.105,0.903-0.171
		c-0.057,0.612-0.11,1.412-0.163,2.401c-0.055,0.988-0.109,2.108-0.163,3.36c-0.056,1.252-0.095,2.601-0.122,4.048
		c-0.027,1.449-0.041,2.95-0.041,4.508c0,0.948,0.015,1.928,0.041,2.943c0.028,1.016,0.124,2.005,0.292,2.965
		c0.165,0.959,0.435,1.879,0.81,2.754c0.374,0.878,0.908,1.643,1.599,2.297c0.693,0.653,1.564,1.168,2.616,1.544
		c1.053,0.376,2.356,0.564,3.906,0.564c1.525,0,2.805-0.223,3.844-0.668c1.038-0.445,1.89-1.031,2.556-1.754
		c0.663-0.723,1.182-1.557,1.558-2.504c0.372-0.945,0.644-1.933,0.809-2.962c0.166-1.03,0.263-2.059,0.292-3.089
		c0.027-1.03,0.041-1.976,0.041-2.84C69.891,95.03,69.877,91.984,69.851,89.839L69.851,89.839z"/>
	<path fill-rule="evenodd" clip-rule="evenodd" fill="#231F20" d="M83.553,90.808c-0.069-1.762-0.143-3.56-0.225-5.392
		c0.358,0.066,0.703,0.124,1.036,0.171c0.332,0.048,0.663,0.073,0.995,0.073c0.331,0,0.662-0.025,0.995-0.073
		c0.331-0.047,0.677-0.105,1.036-0.171c-0.082,1.83-0.156,3.625-0.222,5.384c-0.071,1.76-0.104,3.555-0.104,5.384
		c0,3.492,0.019,6.52,0.055,9.085c0.034,2.563,0.072,4.857,0.109,6.878c1.968,0,3.854-0.018,5.656-0.057
		c1.802-0.038,3.745-0.188,5.825-0.445c-0.139,0.499-0.208,0.915-0.208,1.248c0,0.306,0.069,0.679,0.208,1.125
		c-1.276-0.056-2.553-0.082-3.826-0.082c-1.278,0-2.554,0-3.829,0c-1.333,0-2.616,0-3.855,0c-1.24,0-2.53,0.026-3.871,0.082
		c0.082-1.721,0.156-3.469,0.225-5.245c0.067-1.776,0.1-3.58,0.1-5.414v-7.16C83.653,94.366,83.621,92.569,83.553,90.808
		L83.553,90.808z"/>
	<path fill-rule="evenodd" clip-rule="evenodd" fill="#231F20" d="M107.453,90.808c-0.069-1.762-0.142-3.56-0.222-5.392
		c0.358,0.066,0.703,0.124,1.035,0.171c0.331,0.048,0.664,0.073,0.993,0.073c0.333,0,0.663-0.025,0.998-0.073
		c0.331-0.047,0.676-0.105,1.035-0.171c-0.08,1.83-0.156,3.625-0.224,5.384c-0.068,1.76-0.101,3.555-0.101,5.384
		c0,3.492,0.019,6.52,0.054,9.085c0.037,2.563,0.073,4.857,0.11,6.878c1.968,0,3.854-0.018,5.657-0.057
		c1.802-0.038,3.743-0.188,5.826-0.445c-0.14,0.499-0.209,0.915-0.209,1.248c0,0.306,0.068,0.679,0.209,1.125
		c-1.277-0.056-2.554-0.082-3.828-0.082c-1.278,0-2.553,0-3.829,0c-1.331,0-2.617,0-3.854,0c-1.241,0-2.53,0.026-3.871,0.082
		c0.08-1.721,0.153-3.469,0.222-5.245c0.067-1.776,0.101-3.58,0.101-5.414v-7.16C107.554,94.366,107.52,92.569,107.453,90.808
		L107.453,90.808z"/>
	<path fill-rule="evenodd" clip-rule="evenodd" fill="#231F20" d="M131.353,90.745c-0.067-1.776-0.141-3.553-0.222-5.33
		c1.244,0.066,2.484,0.124,3.716,0.171c1.233,0.048,2.472,0.073,3.722,0.073c1.244,0,2.48-0.025,3.701-0.073
		c1.22-0.047,2.453-0.105,3.703-0.171c-0.084,0.42-0.124,0.84-0.124,1.259c0,0.421,0.04,0.841,0.124,1.26
		c-0.887-0.049-1.7-0.1-2.434-0.15c-0.733-0.049-1.51-0.1-2.329-0.149c-0.818-0.051-1.713-0.093-2.682-0.132
		c-0.971-0.038-2.137-0.057-3.496-0.057c-0.03,0.882-0.06,1.723-0.101,2.522c-0.041,0.799-0.061,1.709-0.061,2.726
		c0,1.075,0.014,2.123,0.04,3.143c0.026,1.019,0.042,1.791,0.042,2.317c1.22,0,2.314-0.014,3.284-0.041
		c0.971-0.029,1.858-0.063,2.664-0.105c0.804-0.04,1.545-0.083,2.225-0.124c0.679-0.04,1.325-0.09,1.934-0.146
		c-0.083,0.416-0.127,0.847-0.127,1.292c0,0.417,0.045,0.833,0.127,1.249c-0.721-0.082-1.56-0.151-2.517-0.206
		c-0.957-0.056-1.915-0.091-2.871-0.105c-0.956-0.014-1.859-0.028-2.704-0.042c-0.846-0.013-1.518-0.022-2.016-0.022
		c0,0.251-0.016,0.521-0.042,0.81c-0.027,0.291-0.04,0.657-0.04,1.1v1.618v2.491c0,1.577,0.007,2.878,0.02,3.902
		c0.015,1.023,0.033,1.796,0.062,2.321c0.914,0,1.884,0,2.913,0c1.052,0,2.083-0.018,3.097-0.057c1.012-0.038,1.969-0.09,2.87-0.154
		c0.902-0.063,1.685-0.162,2.352-0.291c-0.057,0.195-0.092,0.408-0.105,0.646c-0.013,0.235-0.02,0.45-0.02,0.643
		c0,0.445,0.041,0.807,0.125,1.084c-1.251-0.056-2.49-0.082-3.726-0.082c-1.233,0-2.489,0-3.763,0c-1.277,0-2.536,0-3.785,0
		c-1.245,0-2.506,0.026-3.777,0.082c0.081-1.775,0.156-3.547,0.222-5.309c0.069-1.762,0.101-3.557,0.101-5.391v-7.161
		C131.454,94.325,131.422,92.521,131.353,90.745L131.353,90.745z"/>
	<path fill-rule="evenodd" clip-rule="evenodd" fill="#231F20" d="M155.255,90.808c-0.069-1.762-0.144-3.56-0.225-5.392
		c0.804,0.066,1.594,0.124,2.369,0.171c0.777,0.048,1.565,0.073,2.37,0.073c0.804,0,1.591-0.04,2.369-0.123
		c0.774-0.08,1.565-0.121,2.368-0.121c1.164,0,2.272,0.111,3.327,0.334c1.052,0.223,1.973,0.591,2.762,1.104
		c0.791,0.513,1.414,1.187,1.871,2.019c0.456,0.833,0.685,1.871,0.685,3.121c0,1.334-0.297,2.478-0.893,3.434
		c-0.595,0.957-1.324,1.748-2.183,2.373c-0.859,0.625-1.78,1.111-2.764,1.457c-0.983,0.348-1.876,0.576-2.68,0.688
		c0.334,0.417,0.791,0.999,1.374,1.749c0.58,0.749,1.233,1.576,1.955,2.477c0.72,0.902,1.469,1.846,2.247,2.83
		c0.777,0.986,1.524,1.93,2.245,2.832c0.72,0.901,1.4,1.728,2.037,2.476c0.637,0.75,1.154,1.317,1.541,1.708
		c-0.417-0.056-0.833-0.082-1.248-0.082c-0.419,0-0.832,0-1.247,0c-0.39,0-0.791,0-1.21,0c-0.415,0-0.817,0.026-1.205,0.082
		c-0.416-0.583-1.048-1.458-1.893-2.622c-0.845-1.164-1.782-2.412-2.809-3.744c-1.027-1.33-2.072-2.654-3.136-3.972
		c-1.067-1.318-2.041-2.434-2.925-3.349h-1.576v3.036c0,1.831,0.032,3.634,0.097,5.408c0.066,1.776,0.136,3.524,0.215,5.243
		c-0.634-0.056-1.312-0.082-2.032-0.082c-0.717,0-1.396,0.026-2.032,0.082c0.081-1.721,0.156-3.469,0.225-5.245
		c0.067-1.776,0.1-3.58,0.1-5.414v-7.16C155.355,94.366,155.322,92.569,155.255,90.808L155.255,90.808z M160.03,98.733
		c0.458,0.027,0.964,0.04,1.518,0.04c0.861,0,1.754-0.096,2.684-0.291c0.929-0.192,1.783-0.532,2.558-1.016
		c0.779-0.486,1.423-1.138,1.934-1.956c0.515-0.817,0.77-1.851,0.77-3.1c0-1.082-0.2-1.975-0.603-2.683
		c-0.402-0.707-0.922-1.269-1.562-1.684c-0.635-0.416-1.331-0.701-2.079-0.853c-0.747-0.153-1.482-0.23-2.205-0.23
		c-0.969,0-1.775,0.021-2.412,0.063c-0.637,0.042-1.179,0.091-1.621,0.145c-0.057,1.526-0.112,3.037-0.167,4.536
		c-0.057,1.498-0.086,2.994-0.086,4.492v2.373C159.152,98.65,159.573,98.705,160.03,98.733L160.03,98.733z"/>
</g>
</svg>
