<?xml version="1.0" encoding="utf-8"?>
<!-- Generator: Adobe Illustrator 19.1.0, SVG Export Plug-In . SVG Version: 6.00 Build 0)  -->
<svg version="1.1" id="Layer_1" xmlns="http://www.w3.org/2000/svg" xmlns:xlink="http://www.w3.org/1999/xlink" x="0px" y="0px"
	 viewBox="0 0 200 200" enable-background="new 0 0 200 200" xml:space="preserve">
<g>
	<path fill="#142D72" d="M62.833,78.655c-9.699,0-17.562,8.585-17.562,19.175c0,10.59,7.863,19.175,17.562,19.175
		c9.699,0,17.562-8.585,17.562-19.175C80.395,87.239,72.532,78.655,62.833,78.655z M62.833,116.091
		c-9.237,0-16.726-8.176-16.726-18.261c0-10.086,7.488-18.262,16.726-18.262c9.238,0,16.726,8.176,16.726,18.262
		C79.559,107.915,72.07,116.091,62.833,116.091z"/>
	<path fill="#F4A019" d="M54.35,118.598l17.319-0.013v2.077l2.314,0.002c0.72,0.001,0.955-0.334,0.959-0.982
		c0.004-0.604,0.007-1.63,0.007-1.63h0.995c0,0,0.013-6.921,0.019-7.888c0.007-1.03-0.898-2.28-1.312-2.781
		c-0.434-0.524-1.251-1.636-1.251-1.636s0.621,0.004,1.262-0.011c0.888-0.02,1.301-0.082,1.301-0.943
		c0-0.829-1.501-1.441-2.475-0.195h-0.465c-0.608-0.827-3.376-5.394-3.376-5.394H56.657c0,0-2.865,4.863-3.299,5.43l-0.322-0.007
		c-0.637-1.009-1.875-0.908-2.396-0.648c-0.709,0.355-0.59,1.776,0.199,1.787c0.697,0.01,1.801-0.01,1.801-0.01
		s-1.423,1.781-1.757,2.301c-0.306,0.476-0.587,1.61-0.571,2.124c0.017,0.557,0.026,7.871,0.026,7.871h1.031
		c0.04,2.015-0.095,2.607,1.104,2.592c0.673-0.008,1.891,0,1.891,0L54.35,118.598z"/>
	<path fill="#FFFFFF" d="M57.986,113.607l-1.137-2.183h-4.763c0,0-0.081,0.815,0.559,1.588c0.613,0.74,2.201,0.559,2.743,0.595
		C55.769,113.632,57.986,113.607,57.986,113.607z"/>
	<path fill="#FFFFFF" d="M68.073,113.607l1.137-2.183h4.763c0,0,0.081,0.815-0.559,1.588c-0.613,0.74-2.201,0.559-2.743,0.595
		C70.289,113.632,68.073,113.607,68.073,113.607z"/>
	<rect x="58.004" y="113.625" fill="#FFFFFF" width="10.213" height="0.409"/>
	<polygon fill="#FFFFFF" points="57.434,100.169 54.032,105.725 72.136,105.725 68.697,100.169 	"/>
	<path fill="#142D72" d="M72.137,89.616c-0.203,0-0.401-0.1-0.518-0.284c-1.588-2.491-4.677-4.218-7.871-4.398
		c-3.476-0.197-6.757,1.386-9.238,4.454c-0.213,0.264-0.6,0.304-0.863,0.091c-0.264-0.213-0.304-0.6-0.091-0.863
		c2.736-3.383,6.381-5.127,10.262-4.908c3.63,0.205,7.016,2.107,8.837,4.964c0.182,0.286,0.098,0.665-0.188,0.847
		C72.364,89.585,72.25,89.616,72.137,89.616z"/>
	<path fill="#F4A019" d="M70.031,93.213c-0.233,0-0.456-0.133-0.559-0.359c-0.8-1.756-2.905-3.07-5.362-3.347
		c-2.989-0.337-5.813,0.926-7.75,3.465c-0.206,0.27-0.591,0.321-0.86,0.116c-0.27-0.206-0.321-0.591-0.116-0.86
		c2.205-2.89,5.436-4.325,8.863-3.94c2.877,0.324,5.367,1.917,6.342,4.058c0.14,0.309,0.004,0.673-0.304,0.813
		C70.203,93.196,70.116,93.213,70.031,93.213z"/>
	<path fill="#142D72" d="M68.876,97.111c-0.247,0-0.48-0.15-0.574-0.395c-0.604-1.584-2.213-2.722-4.201-2.969
		c-2.528-0.315-4.985,0.845-6.572,3.104c-0.195,0.277-0.578,0.344-0.855,0.149c-0.277-0.195-0.344-0.578-0.149-0.855
		c1.852-2.637,4.741-3.989,7.728-3.616c2.44,0.304,4.431,1.741,5.196,3.75c0.121,0.317-0.038,0.671-0.355,0.792
		C69.023,97.098,68.949,97.111,68.876,97.111z"/>
	<path fill="#142D72" d="M61.705,102.947h2.972c0,0,0-1.313-0.653-1.686l-1.779,0.001C61.735,101.645,61.728,102.602,61.705,102.947
		z"/>
	<path fill="#142D72" d="M91.603,99.046h-5.931v0.433c0,0,1.527-0.128,1.526,1.057c0,1.091,0.001,18.51,0,19.02
		c-0.001,0.713,0.288,1.269,1.018,1.269c0.451,0,5.362,0,5.362,0V120.3c0,0-1.975-0.021-1.975-1.376
		C91.603,117.632,91.603,99.046,91.603,99.046z"/>
	<path fill="#142D72" d="M112.338,118.539c0.589,1.618,2.114,1.644,2.114,1.644v0.642c0,0-3.123,0-3.887,0
		c-0.764,0-1.213-0.524-1.526-1.307c-0.313-0.783-1.436-4.905-1.436-4.905l-7.835,0.012c0,0-1.067,3.874-1.241,4.533
		c-0.293,1.106,1.182,0.962,1.182,0.962l0.002,0.705c0,0-1.902,0-3.879,0c-1.495,0-1.145-1.284-1.025-1.698
		c0.162-0.56,5.009-15.995,5.597-17.769c0.621-1.877-0.665-1.761-0.665-1.761v-0.55h6.771
		C106.508,99.046,111.935,117.432,112.338,118.539z M102.975,103.549l-2.194,8.219h5.792l-2.194-8.219H102.975z"/>
	<path fill="#142D72" d="M114.595,99.046h-5.44v0.472c0,0,1.386,0.021,1.918,1.566c0.548,1.592,7.241,19.741,7.241,19.741h3.327
		c0,0,5.475-19.337,5.636-19.898c0.16-0.56,0.631-1.881-0.454-1.881c-0.567,0-4.869,0-4.869,0v0.433c0,0,1.67-0.092,1.292,1.566
		c-0.32,1.399-3.288,14.496-3.288,14.496L114.595,99.046z"/>
	<path fill="#142D72" d="M128.646,99.046v0.472c0,0,1.135-0.039,1.135,0.978c0,1.018-0.002,18.72,0,19.335
		c0.003,0.736,0.42,0.994,0.954,0.994c0.412,0,11.159,0,11.649,0c1.103,0,1.589-1.077,1.592-2.084
		c0.002-0.738-0.003-1.824-0.003-1.824h-0.592c0,0,0.113,1.004-0.812,1.065h-7.935l0-7.818l6.966,0.001l-0.005-2.819l-6.961,0
		l-0.003-5.509l7.793,0v-2.79H128.646z"/>
	<path fill="#142D72" d="M150.966,121.345c-2.075,0-3.763-1.688-3.763-3.763c0-2.075,1.688-3.763,3.763-3.763
		c2.075,0,3.763,1.688,3.763,3.763C154.729,119.657,153.041,121.345,150.966,121.345z M150.966,114.228
		c-1.849,0-3.354,1.505-3.354,3.354c0,1.849,1.505,3.354,3.354,3.354c1.849,0,3.354-1.505,3.354-3.354
		C154.32,115.733,152.816,114.228,150.966,114.228z"/>
	<g>
		<path fill="#142D72" d="M148.274,118.894v-2.625h0.523l0.621,1.858c0.057,0.173,0.099,0.303,0.125,0.388
			c0.03-0.095,0.076-0.236,0.14-0.421l0.628-1.826h0.467v2.625h-0.335v-2.197l-0.763,2.197h-0.313l-0.759-2.234v2.234H148.274z"/>
		<path fill="#142D72" d="M151.345,118.894v-2.625h1.164c0.234,0,0.412,0.024,0.534,0.071c0.122,0.047,0.219,0.13,0.292,0.25
			c0.073,0.119,0.109,0.251,0.109,0.396c0,0.186-0.06,0.343-0.181,0.471c-0.121,0.128-0.307,0.209-0.559,0.244
			c0.092,0.044,0.162,0.088,0.209,0.131c0.101,0.093,0.198,0.209,0.288,0.349l0.457,0.714h-0.437l-0.347-0.546
			c-0.101-0.157-0.185-0.278-0.251-0.362s-0.124-0.142-0.176-0.175c-0.052-0.033-0.105-0.057-0.158-0.07
			c-0.039-0.008-0.104-0.013-0.193-0.013h-0.403v1.165H151.345z M151.692,117.428h0.747c0.159,0,0.283-0.016,0.372-0.049
			c0.09-0.033,0.158-0.085,0.204-0.158c0.047-0.072,0.07-0.151,0.07-0.235c0-0.124-0.045-0.226-0.135-0.306
			c-0.09-0.08-0.232-0.12-0.427-0.12h-0.831V117.428z"/>
	</g>
</g>
</svg>
