<?xml version="1.0" encoding="utf-8"?>
<!-- Generator: Adobe Illustrator 19.1.0, SVG Export Plug-In . SVG Version: 6.00 Build 0)  -->
<svg version="1.1" id="Layer_1" xmlns="http://www.w3.org/2000/svg" xmlns:xlink="http://www.w3.org/1999/xlink" x="0px" y="0px"
	 viewBox="0 0 200 200" enable-background="new 0 0 200 200" xml:space="preserve">
<g>
	<path fill="#591C58" d="M46.723,102.52c0,0-2.472,1.293-3.271-8.443c0,0,0.304-13.158,2.997-15.921
		c0.117-0.12,1.338-1.16,2.403-0.128c0,0,6.642,14.827,0.963,35.976c0,0-1.724,7.505-14.502,1.42c0,0-13.792-5.274-8.823-10.953
		c0,0,5.375,8.113,13.589,10.547c0,0,6.283,2.409,6.998-4.767c0,0,2.839-16.023-0.101-27.787c0,0-0.406-1.217-0.811,0.203
		c0,0-1.825,13.133,0.254,17.849C46.419,100.517,47.279,102.499,46.723,102.52z"/>
	<path fill="#591C58" d="M93.5,105.639c-5.476-4.564-0.38-5.552-0.38-5.552c3.347,0.254,4.564,2.89,4.564,2.89
		c2.738-0.38,1.901-2.434,1.901-2.434c-4.589-6.414-9.812-1.293-9.812-1.293c-5.172,5.933,5.4,12.17,5.4,12.17
		c3.803,3.042,1.825,3.803,1.825,3.803c-3.118,1.217-6.389-3.727-6.389-3.727c-2.206-3.803-4.107,2.054-4.107,2.054
		c-1.065,2.966-2.282,0.456-2.282,0.456c-0.482-0.659-1.521-8.595-1.521-8.595c-0.078-0.876-0.456-2.358-1.825-2.358
		s-2.13,2.054-2.13,2.054l-2.434,6.921c-2.13,5.933-3.727,0.456-3.727,0.456c-1.217-3.423-0.38-11.637-0.38-11.637
		c-4.107-0.685-3.803,2.358-3.803,2.358c0.076,3.651-2.206,8.747-2.206,8.747c-5.02,9.203-6.465-4.488-6.465-4.488
		c5.933-20.46,1.369-27.153,1.369-27.153l-0.152-0.228c-1.521-2.586-3.042-0.076-3.042-0.076c-4.868,6.617-0.913,30.5-0.913,30.5
		c0,1.065-2.206,5.857-2.206,5.857c1.927,1.141,3.042-2.966,3.042-2.966c1.019,4.078,4.057,4.408,4.057,4.408
		c3.093,0.96,6.44-6.69,6.44-6.69c0.811,6.389,5.071,6.69,5.071,6.69c3.448,0.301,6.063-8.534,6.063-8.534
		c0.437-0.437,0.428,0.627,0.428,0.627c0.051,1.876,1.521,5.857,1.521,5.857c2.687,4.766,6.541-1.521,6.541-1.521
		c0.532-0.989,1.901,1.217,1.901,1.217c4.64,4.944,9.127,0.913,9.127,0.913C102.704,111.191,93.5,105.639,93.5,105.639z
		 M59.096,101.379c0,0-0.679-14.117,0-16.175c0,0,0.761-4.31,1.506-0.309c0,0,0.674,9.537-0.999,16.281
		C59.603,101.176,59.248,102.545,59.096,101.379z"/>
	
		<ellipse transform="matrix(0.9118 0.4107 -0.4107 0.9118 48.4168 -35.0173)" fill="#591C58" cx="105.716" cy="95.188" rx="1.592" ry="2.296"/>
	<path fill="#591C58" d="M116.623,93.184c0,0-0.932,0.057-0.78,0.97c0.152,0.913,1.521,0.551,1.711,0.551l7.435-0.437
		c0,0,0.551,0.171,0.456-0.818c0,0-0.247-1.921-1.806-1.616L116.623,93.184z"/>
	<path fill="#591C58" d="M174.048,108.377c-15.744,13.311-23.959,7.986-23.959,7.986c-3.423-1.293-5.628-12.588-5.628-12.588
		c-1.711-3.423-4.678-0.456-4.678-0.456c-1.407,1.103-4.183,7.416-4.183,7.416c-0.532,1.749-0.723-0.076-0.723-0.076l0.266-6.503
		c0.38-3.08-2.168-2.244-2.168-2.244l-6.883,1.331c-4.259-8.937-9.165-3.233-9.165-3.233c-3.004,5.464,6.161,5.172,6.161,5.172
		c0.872,10.751-3.195,11.181-3.195,11.181c-3.499-0.837-3.537-9.85-3.537-9.85c0.38-4.158-2.852-2.738-2.852-2.738
		c-0.114,8.481-2.13,11.029-2.13,11.029c-2.396,2.966-3.651,0-3.651,0c-2.092-3.347-0.913-13.006-0.913-13.006
		c-3.651-1.103-3.879,1.787-3.879,1.787c-0.837,5.058-2.776,6.807-2.776,6.807c1.141,1.825,2.776-0.989,2.776-0.989
		c-0.304,5.058,2.784,7.872,2.784,7.872c6.663,3.955,8.473-4.259,8.473-4.259c1.749,5.552,5.781,5.248,5.781,5.248
		c8.291-0.304,6.465-13.311,6.465-13.311l3.423-0.532c1.902-0.38,1.749,1.521,1.749,1.521v6.541
		c-0.761,5.628,1.521,5.552,1.521,5.552c1.673,0.761,2.358-1.901,2.358-1.901c0.076-3.651,4.259-9.888,4.259-9.888
		c0.989-1.369,1.521,0.228,1.521,0.228c2.282,11.257,8.138,11.865,8.138,11.865c12.626,3.423,24.643-6.998,24.643-6.998
		C175.265,109.898,174.048,108.377,174.048,108.377z M122.137,103.376c-5.071-0.805-2.89-3.061-2.89-3.061
		c2.214-1.99,3.499,2.396,3.499,2.396C123.021,103.547,122.137,103.376,122.137,103.376z"/>
	<path fill="#E37AAA" d="M166.024,87.156c0,0-1.293,4.45-5.02,8.1c0,0-4.419,4.988-5.4,7.454c0,0-5.248-0.532-4.411-4.678
		c0,0,0.456-1.293,2.282-3.765c0,0,1.882-2.377,0.989-6.275c0,0,5.438,3.765,10.534-1.065c0,0,3.879-3.803-0.989-6.427
		c0,0-4.792-1.331-8.138,2.13c0,0-2.092,3.271,2.282,3.423c0,0,4.564-0.418,4.259-3.993c0,0-2.662,2.714-4.411,2.536
		c0,0-3.195-0.254,0-2.232c0,0,3.195-1.597,5.781-0.685c0,0,3.727,1.293,0.38,4.183c0,0-5.4,4.259-10.42,0
		c0,0-0.951-1.597-1.921-1.065c0,0-1.103,0.685,0.685,2.016c0,0,2.377,1.255,0.247,4.564c0,0-1.942,3.374-3.004,4.83
		c0,0-3.461,5.971,5.172,7.872c0,0-1.863,5.134,1.331,8.176c0,0,1.065,0.228,0.875-0.342c0,0-2.89-2.51-0.076-7.644
		c0,0,11.295,1.471,12.74-6.053C169.788,98.216,170.169,95.142,166.024,87.156z M167.05,99.563
		c-3.676,5.163-9.393,3.401-9.393,3.401c-0.076-0.304,4.259-5.844,4.259-5.844c3.385-4.107,4.107-6.161,4.107-6.161
		C169.028,96.359,167.05,99.563,167.05,99.563z"/>
	<g>
		<path fill="#591C58" d="M169.773,117.77c0.399,0,0.782,0.1,1.148,0.299c0.367,0.2,0.655,0.486,0.864,0.858
			c0.209,0.373,0.314,0.762,0.314,1.169c0,0.405-0.103,0.791-0.308,1.159c-0.205,0.368-0.492,0.654-0.86,0.86
			c-0.368,0.205-0.754,0.308-1.159,0.308c-0.405,0-0.791-0.103-1.159-0.308c-0.368-0.206-0.654-0.492-0.86-0.86
			c-0.206-0.368-0.308-0.754-0.308-1.159c0-0.407,0.105-0.797,0.314-1.169c0.21-0.373,0.498-0.659,0.864-0.858
			C168.991,117.87,169.374,117.77,169.773,117.77z M169.776,118.226c-0.32,0-0.627,0.08-0.92,0.24
			c-0.294,0.16-0.525,0.39-0.694,0.689c-0.169,0.3-0.254,0.614-0.254,0.942c0,0.326,0.082,0.637,0.248,0.932
			c0.165,0.296,0.395,0.526,0.691,0.693c0.296,0.166,0.606,0.249,0.929,0.249c0.326,0,0.636-0.083,0.931-0.249
			c0.295-0.166,0.525-0.397,0.691-0.693c0.166-0.296,0.249-0.606,0.249-0.932c0-0.328-0.085-0.642-0.254-0.942
			c-0.169-0.3-0.401-0.529-0.696-0.689C170.403,118.306,170.096,118.226,169.776,118.226z M168.722,121.342v-2.469h0.501
			c0.47,0,0.733,0.002,0.79,0.006c0.166,0.014,0.295,0.047,0.387,0.099c0.092,0.052,0.169,0.131,0.231,0.237
			c0.062,0.106,0.093,0.224,0.093,0.354c0,0.178-0.058,0.331-0.175,0.457c-0.116,0.127-0.28,0.205-0.491,0.235
			c0.075,0.028,0.133,0.059,0.173,0.093c0.04,0.033,0.096,0.097,0.167,0.19c0.018,0.024,0.079,0.125,0.182,0.301l0.292,0.498h-0.62
			l-0.206-0.401c-0.14-0.269-0.255-0.439-0.346-0.509c-0.091-0.07-0.207-0.105-0.346-0.105h-0.131v1.014H168.722z M169.223,119.939
			h0.204c0.29,0,0.469-0.011,0.539-0.033c0.07-0.022,0.125-0.061,0.165-0.117c0.041-0.056,0.061-0.119,0.061-0.19
			c0-0.069-0.02-0.13-0.059-0.184c-0.039-0.054-0.096-0.092-0.168-0.115c-0.073-0.023-0.252-0.035-0.538-0.035h-0.204V119.939z"/>
	</g>
</g>
</svg>
