<?xml version="1.0" encoding="utf-8"?>
<!-- Generator: Adobe Illustrator 19.1.0, SVG Export Plug-In . SVG Version: 6.00 Build 0)  -->
<svg version="1.1" id="Layer_1" xmlns="http://www.w3.org/2000/svg" xmlns:xlink="http://www.w3.org/1999/xlink" x="0px" y="0px"
	 viewBox="0 0 200 200" enable-background="new 0 0 200 200" xml:space="preserve">
<g>
	<rect x="64.31" y="73.498" fill="#E21937" width="71.38" height="53.005"/>
	<g>
		<g>
			<ellipse fill="#FFFFFF" cx="86.702" cy="86.244" rx="4.431" ry="4.436"/>
			<polygon fill="#FFFFFF" points="83.535,97.866 83.535,97.866 73.409,87.722 73.409,91.789 80.579,99.062 80.579,111.413 
				83.535,111.413 83.535,97.868 83.536,97.867 83.535,97.866 			"/>
			<circle fill="#FFFFFF" cx="113.297" cy="86.247" r="4.437"/>
			<g>
				<g>
					<g>
						<polygon fill="#FFFFFF" points="113.275,95.096 99.994,81.808 99.994,81.806 99.993,81.807 99.992,81.806 99.992,81.808 
							86.703,95.112 73.412,81.805 73.409,85.874 84.622,97.195 84.615,97.202 85.225,97.813 85.225,111.383 88.179,111.383 
							88.179,97.805 100.018,85.901 100.011,84.737 100.019,85.898 111.193,97.179 111.185,97.186 111.796,97.797 111.796,111.367 
							114.752,111.367 114.752,97.788 126.576,85.858 126.576,81.791 						"/>
					</g>
				</g>
			</g>
			<g>
				<g>
					<polygon fill="#FFFFFF" points="110.128,97.87 110.128,97.87 100.006,87.782 100.002,89.204 100.002,87.779 89.875,97.863 
						89.875,97.863 89.875,97.863 89.874,97.864 89.875,97.864 89.875,111.409 92.831,111.409 92.831,99.059 99.995,91.792 
						99.995,91.792 107.17,99.065 107.17,111.416 110.128,111.416 110.128,97.871 110.129,97.87 					"/>
				</g>
			</g>
			<polygon fill="#FFFFFF" points="116.466,97.87 116.466,97.87 116.465,97.87 116.466,97.871 116.466,111.416 119.423,111.416 
				119.423,99.065 126.598,91.792 126.598,87.726 116.466,97.87 			"/>
		</g>
		<g>
			<path fill="#FFFFFF" d="M83.652,113.197h5.107v1.193h-3.607v0.926h3.439v1.152h-3.439v1.694h-1.5V113.197z"/>
		</g>
		<g>
			<path fill="#FFFFFF" d="M73.393,113.198h1.51v4.999h-1.51V113.198z"/>
		</g>
		<g>
			<path fill="#FFFFFF" d="M75.998,113.196h2.327l2.821,3.638h0.014v-3.638h1.502v5.007h-2.327l-2.821-3.638H77.5v3.638h-1.502
				V113.196z"/>
		</g>
		<g>
			<path fill="#FFFFFF" d="M89.547,114.903c0-1.454,0.797-1.797,2.136-1.797h2.384c1.339,0,2.136,0.343,2.136,1.797v1.482
				c0,1.454-0.797,1.797-2.136,1.797h-2.384c-1.339,0-2.136-0.343-2.136-1.797V114.903z M91.074,115.912
				c0,0.72,0.147,0.994,0.851,0.994h1.902c0.703,0,0.85-0.274,0.85-0.994v-0.535c0-0.617-0.147-0.995-0.931-0.995h-1.741
				c-0.784,0-0.931,0.377-0.931,0.995V115.912z"/>
		</g>
		<g>
			<path fill="#FFFFFF" d="M120.843,113.202h5.764v1.245h-2.126v3.762h-1.512v-3.762h-2.126V113.202z"/>
		</g>
		<g>
			<path fill="#FFFFFF" d="M110.71,113.224h1.64l1.91,3.691l1.91-3.691h1.641l-2.626,4.967h-1.849L110.71,113.224z"/>
		</g>
		<g>
			<path fill="#FFFFFF" d="M107.198,113.2h1.875l2.663,4.963h-1.663l-1.95-3.754l-1.924,3.754h-1.663L107.198,113.2z"/>
		</g>
		<g>
			<path fill="#FFFFFF" d="M97.163,113.198h2.327l2.821,3.638h0.013v-3.638h1.502v5.007h-2.327l-2.821-3.638h-0.013v3.638h-1.502
				V113.198z"/>
		</g>
		<g>
			<path fill="#FFFFFF" d="M118.61,113.199h1.508v4.992h-1.508V113.199z"/>
		</g>
	</g>
</g>
</svg>
