<?xml version="1.0" encoding="utf-8"?>
<!-- Generator: Adobe Illustrator 19.1.0, SVG Export Plug-In . SVG Version: 6.00 Build 0)  -->
<svg version="1.1" id="Layer_1" xmlns="http://www.w3.org/2000/svg" xmlns:xlink="http://www.w3.org/1999/xlink" x="0px" y="0px"
	 viewBox="0 0 200 200" enable-background="new 0 0 200 200" xml:space="preserve">
<g>
	<rect x="140.37" y="88.518" fill="#D42373" width="6.175" height="5.603"/>
	<rect x="53.455" y="106.514" fill="#00AFAC" width="5.971" height="5.316"/>
	<rect x="66.87" y="93.793" stroke="#000000" stroke-width="0.121" stroke-miterlimit="10" width="5.849" height="18.037"/>
	<rect x="66.87" y="81.686" fill="#F47F28" width="5.849" height="5.605"/>
	<polygon stroke="#000000" stroke-width="0.121" stroke-miterlimit="10" points="97.818,88.517 77.752,88.517 77.752,94.121 
		89.855,94.121 77.422,106.37 77.422,111.975 97.818,111.975 97.818,106.37 85.77,106.37 97.818,94.121 	"/>
	<polygon stroke="#000000" stroke-width="0.121" stroke-miterlimit="10" points="122.362,88.517 102.29,88.517 102.29,94.121 
		114.396,94.121 101.964,106.37 101.964,111.975 122.362,111.975 122.362,106.37 110.309,106.37 122.362,94.121 	"/>
	<rect x="127.32" y="113.059" fill="#FFD74F" width="5.893" height="5.255"/>
	<rect x="127.32" y="88.517" stroke="#000000" stroke-width="0.121" stroke-miterlimit="10" width="5.893" height="18.379"/>
</g>
</svg>
