<?xml version="1.0" encoding="utf-8"?>
<!-- Generator: Adobe Illustrator 19.1.0, SVG Export Plug-In . SVG Version: 6.00 Build 0)  -->
<svg version="1.1" id="Layer_1" xmlns="http://www.w3.org/2000/svg" xmlns:xlink="http://www.w3.org/1999/xlink" x="0px" y="0px"
	 viewBox="0 0 200 200" enable-background="new 0 0 200 200" xml:space="preserve">
<g>
	<path fill-rule="evenodd" clip-rule="evenodd" fill="#67154C" d="M52.225,82.333v4.737v16.965c0,3.547-1.38,6.788-3.629,9.212
		c-1.878,2.024-4.801,3.479-7.809,4.067c-0.559,0.109-1.046,0.189-1.473,0.243c-1.79,0.225-2.395,0.178-3.732-0.868
		c4.756,0.71,8.236-1.089,10.478-4.159c1.485-2.033,2.364-4.533,2.364-7.228V87.07h-0.062c0.04-0.225,0.061-0.456,0.062-0.692v-0.02
		c0-2.008-1.491-3.685-3.421-3.979v-0.046h3.421H52.225L52.225,82.333z"/>
	<path fill-rule="evenodd" clip-rule="evenodd" fill="#67154C" d="M58.996,107.923c-0.641,0.908-1.695,1.524-2.646,1.616
		c0.395-0.38,1.009-0.944,1.349-1.423c0.915-1.289,1.521-2.542,2.136-3.976l9.102-21.807h2.108l10.007,23.109
		c1.177,2.367,2.831,3.327,4.637,4.513c-3.704-0.144-6.748-1.164-7.938-3.839l-2.483-5.677h-8.042c-0.856,0-1.576-0.612-1.743-1.42
		h9.164l-5.561-12.714l-0.335-0.02l-8.424,18.919C59.939,106.071,59.535,107.159,58.996,107.923L58.996,107.923z"/>
	<path fill-rule="evenodd" clip-rule="evenodd" fill="#67154C" d="M140.558,107.923c-0.641,0.908-1.695,1.524-2.646,1.616
		c0.395-0.38,1.009-0.944,1.349-1.423c0.915-1.289,1.521-2.542,2.136-3.976l9.102-21.807h2.108l1.08,2.494h0l10.732,24.805
		c-2.381-0.492-4.238-1.562-5.107-3.515l-2.483-5.677h-8.042c-0.856,0-1.576-0.612-1.743-1.42h9.164l-5.561-12.714l-0.335-0.02
		l-8.424,18.919C141.501,106.071,141.097,107.159,140.558,107.923L140.558,107.923z"/>
	<path fill-rule="evenodd" clip-rule="evenodd" fill="#67154C" d="M93.571,83.737v11.2h9.106c-0.076,0.696-0.671,1.243-1.386,1.243
		h-7.719v6.479c0,3.59-2.769,6.564-6.277,6.894c1.602-1.027,2.669-2.824,2.669-4.858v-8.515v-1.243v-11.2v-1.404h3.608h14.781
		c-0.214,0.806-0.951,1.404-1.822,1.404H93.571L93.571,83.737z"/>
	<path fill-rule="evenodd" clip-rule="evenodd" fill="#67154C" d="M113.265,82.333h3.663h9.208c3.466,0,6.302,2.836,6.302,6.302l0,0
		c0,3.466-3.703,6.302-7.169,6.302h-0.943h-3.049c1.578,0.076,3.131,0.269,4.572,0.878c1.316,0.542,2.359,1.248,3.203,2.074
		c2.749,2.687,2.638,5.348,4.197,8.354c0.807,1.556,1.99,2.886,4.021,3.708c-4.146,0.114-6.599-1.27-8.073-3.519
		c-1.372-2.093-1.489-4.425-2.592-6.649c-1.813-3.655-4.301-3.992-6.824-4.155c-0.301-0.068-1.063-0.984-1.087-1.187h1.05h3.374
		c3.141,0,5.71-2.57,5.71-5.71l0,0c0-3.141-2.57-5.71-5.71-5.71h-6.187v26.879c-2.061-0.28-3.663-2.058-3.663-4.193V83.018V82.333
		L113.265,82.333z"/>
</g>
</svg>
