<?xml version="1.0" encoding="utf-8"?>
<!-- Generator: Adobe Illustrator 19.1.0, SVG Export Plug-In . SVG Version: 6.00 Build 0)  -->
<svg version="1.1" id="Layer_1" xmlns="http://www.w3.org/2000/svg" xmlns:xlink="http://www.w3.org/1999/xlink" x="0px" y="0px"
	 viewBox="0 0 200 200" enable-background="new 0 0 200 200" xml:space="preserve">
<g>
	<g>
		<g>
			<polygon fill-rule="evenodd" clip-rule="evenodd" fill="#231F20" points="106.028,114.362 106.028,110.19 115.909,110.19 
				115.909,107.608 106.028,107.608 106.028,103.755 119.716,103.755 119.716,100.628 103.037,100.628 103.037,117.488 
				120.533,117.488 120.533,114.362 			"/>
			<polygon fill-rule="evenodd" clip-rule="evenodd" fill="#231F20" points="63.062,114.362 63.062,100.628 59.799,100.628 
				59.799,117.488 75.662,117.488 75.662,114.362 			"/>
			<polygon fill-rule="evenodd" clip-rule="evenodd" fill="#231F20" points="127.601,114.362 127.601,100.628 124.338,100.628 
				124.338,117.488 140.201,117.488 140.201,114.362 			"/>
			<path fill-rule="evenodd" clip-rule="evenodd" fill="#231F20" d="M96.445,108.841c0,0,2.24-0.193,2.24-3.4
				c0-4.726-5.086-4.813-5.086-4.813H79.38v16.86h13.445v0.005c3.566,0,6.634-0.691,6.634-4.505
				C99.459,109.395,96.445,108.841,96.445,108.841z M82.371,103.755h9.541v0.001c0.003,0,0.013-0.001,0.018-0.001
				c0,0,3.549-0.137,3.549,1.798c0,2.266-3.703,2.045-3.703,2.045v0.01h-9.404V103.755z M92.887,114.374v-0.011H82.371v-4.173h9.88
				v-0.015c2.716,0.031,3.725,0.712,3.725,2.37C95.976,114.148,93.986,114.374,92.887,114.374z"/>
			<path fill-rule="evenodd" clip-rule="evenodd" fill="#231F20" d="M75.841,107.217c0,0-3.138,0.137-3.138-3.591
				c0-0.035,0-2.813,0-2.85h3.183L75.841,107.217z"/>
		</g>
		<path fill-rule="evenodd" clip-rule="evenodd" fill="#231F20" d="M99.815,72.697c-7.305,0-13.226,5.133-13.226,11.463
			c0,1.255,0.24,2.46,0.671,3.591c1.483,1.219,3.37,2.775,5.68,2.692c2.743-0.098,5.58-1.789,6.738-4.317
			c0.786-1.713,2.194-4.121,3.368-4.708c1.176-0.587,0.294-1.273-1.175-0.392c-1.471,0.882-2.906,2.957-3.822,4.604
			c-1.47,2.646-2.636,3.233-6.163,3.233c0,0-0.697-3.919,1.558-6.857c2.254-2.94,5.879-1.764,5.879-1.764s1.077-1.469,2.644-1.469
			c1.568,0,2.841,1.371,2.841,1.371s2.647-0.686,4.9,0.881c0,0-1.559,0.479-2.646,0.98c-2.541,1.171-3.934,2.926-6.543,5.805
			c-3.054,3.369-6.253,4.739-12.148,2.082c2.288,3.422,6.548,5.73,11.441,5.73c7.303,0,13.224-5.132,13.224-11.463
			C113.039,77.83,107.118,72.697,99.815,72.697z"/>
	</g>
	<g>
		<g>
			<path fill="#231F20" d="M85.455,127.162v-5.511h3.488c0.683,0,1.217,0.167,1.6,0.497c0.383,0.331,0.574,0.791,0.574,1.38
				c0,0.588-0.191,1.048-0.574,1.376c-0.383,0.328-0.917,0.493-1.6,0.493h-2.007v1.763H85.455z M86.936,124.321h1.351
				c0.495,0,0.842-0.059,1.041-0.178c0.198-0.117,0.298-0.315,0.298-0.593c0-0.286-0.086-0.485-0.258-0.599
				c-0.173-0.114-0.501-0.171-0.985-0.171h-1.446V124.321z"/>
			<path fill="#231F20" d="M90.649,127.162l2.788-5.511h1.418l2.685,5.511h-1.641l-0.538-1.169h-2.593l-0.529,1.169H90.649z
				 M93.273,124.875h1.558l-0.793-1.7L93.273,124.875z"/>
			<path fill="#231F20" d="M97.912,127.162v-5.511h3.614c0.788,0,1.367,0.121,1.74,0.362c0.373,0.242,0.559,0.617,0.559,1.124
				c0,0.324-0.087,0.609-0.262,0.859c-0.174,0.249-0.415,0.428-0.722,0.538c0.26,0.102,0.442,0.227,0.547,0.376
				c0.105,0.151,0.166,0.416,0.185,0.795c0.003,0.037,0.005,0.088,0.008,0.152c0.032,0.681,0.137,1.116,0.315,1.305h-1.66
				c-0.042-0.059-0.073-0.125-0.093-0.197c-0.021-0.072-0.032-0.149-0.032-0.231v-0.373c0-0.505-0.069-0.835-0.208-0.991
				c-0.139-0.156-0.41-0.234-0.815-0.234h-0.036h-1.661v2.025H97.912z M99.393,124.009h1.661c0.441,0,0.752-0.05,0.931-0.152
				c0.18-0.101,0.269-0.268,0.269-0.5c0-0.225-0.084-0.383-0.251-0.472c-0.168-0.09-0.504-0.135-1.012-0.135h-1.598V124.009z"/>
			<path fill="#231F20" d="M104.899,127.162v-5.511h1.481v5.511H104.899z"/>
			<path fill="#231F20" d="M107.467,125.248h1.511v0.052c0,0.311,0.145,0.548,0.437,0.711c0.292,0.162,0.716,0.244,1.273,0.244
				c0.429,0,0.76-0.059,0.993-0.178c0.233-0.118,0.35-0.285,0.35-0.501c0-0.181-0.076-0.315-0.228-0.401
				c-0.152-0.085-0.459-0.151-0.921-0.196l-1.051-0.097c-0.764-0.075-1.325-0.237-1.684-0.487c-0.359-0.251-0.538-0.604-0.538-1.061
				c0-0.542,0.26-0.983,0.778-1.324c0.519-0.34,1.206-0.51,2.06-0.51c0.918,0,1.637,0.16,2.156,0.481
				c0.519,0.321,0.778,0.761,0.778,1.317v0.046h-1.461c-0.035-0.277-0.173-0.484-0.414-0.621c-0.241-0.137-0.586-0.205-1.036-0.205
				c-0.416,0-0.738,0.055-0.967,0.166c-0.229,0.111-0.343,0.267-0.343,0.468c0,0.161,0.067,0.28,0.201,0.354
				c0.135,0.075,0.465,0.14,0.993,0.194l1.099,0.108c0.753,0.077,1.305,0.247,1.659,0.509c0.354,0.262,0.531,0.631,0.531,1.108
				c0,0.613-0.266,1.079-0.798,1.399c-0.532,0.318-1.31,0.478-2.335,0.478c-0.976,0-1.728-0.168-2.253-0.504
				c-0.526-0.335-0.788-0.815-0.788-1.436V125.248z"/>
		</g>
	</g>
</g>
</svg>
