<?xml version="1.0" encoding="utf-8"?>
<!-- Generator: Adobe Illustrator 19.1.0, SVG Export Plug-In . SVG Version: 6.00 Build 0)  -->
<svg version="1.1" id="Layer_1" xmlns="http://www.w3.org/2000/svg" xmlns:xlink="http://www.w3.org/1999/xlink" x="0px" y="0px"
	 viewBox="0 0 200 200" enable-background="new 0 0 200 200" xml:space="preserve">
<g>
	<path fill="#231F20" d="M57.785,103.206l-4.301-8.851l0.058,9.149c0,0.2,0.043,0.352,0.128,0.456
		c0.085,0.104,0.236,0.187,0.455,0.252v0.304l-3.185,0.036v-0.304c0.218-0.064,0.37-0.148,0.455-0.252
		c0.085-0.103,0.127-0.255,0.127-0.455V92.345c0-0.194-0.043-0.342-0.127-0.446c-0.085-0.103-0.237-0.187-0.455-0.252v-0.304
		l5.333-0.07v0.304c-0.281,0.077-0.421,0.255-0.421,0.532c0,0.129,0.042,0.278,0.126,0.446l2.68,5.351l2.805-5.173
		c0.149-0.297,0.223-0.513,0.223-0.649c0-0.264-0.149-0.413-0.447-0.446v-0.304l6.181,0.008v0.304
		c-0.218,0.065-0.37,0.149-0.455,0.252c-0.085,0.103-0.128,0.252-0.128,0.446v11.195c0,0.2,0.043,0.352,0.128,0.455
		c0.085,0.103,0.237,0.187,0.455,0.252v0.304h-4.796v-0.304c0.213-0.058,0.363-0.14,0.45-0.247c0.088-0.107,0.132-0.26,0.132-0.461
		l-0.373-9.559L57.785,103.206z"/>
	<path fill="#231F20" d="M136.279,103.206l-4.301-8.851l0.059,9.149c0,0.2,0.043,0.352,0.128,0.456
		c0.085,0.104,0.236,0.187,0.454,0.252v0.304l-3.185,0.036v-0.304c0.218-0.064,0.37-0.148,0.455-0.252
		c0.085-0.103,0.127-0.255,0.127-0.455V92.345c0-0.194-0.043-0.342-0.127-0.446c-0.085-0.103-0.237-0.187-0.455-0.252v-0.304
		l5.333-0.07v0.304c-0.28,0.077-0.42,0.255-0.42,0.532c0,0.129,0.042,0.278,0.125,0.446l2.68,5.351l2.805-5.173
		c0.149-0.297,0.223-0.513,0.223-0.649c0-0.264-0.149-0.413-0.447-0.446v-0.304l6.181,0.008v0.304
		c-0.218,0.065-0.37,0.149-0.455,0.252c-0.085,0.103-0.128,0.252-0.128,0.446v11.195c0,0.2,0.043,0.352,0.128,0.455
		c0.085,0.103,0.236,0.187,0.455,0.252v0.304h-4.796v-0.304c0.212-0.058,0.362-0.14,0.45-0.247c0.088-0.107,0.132-0.26,0.132-0.461
		l-0.373-9.559L136.279,103.206z"/>
	<path fill="#231F20" d="M111.829,102.099c-2.665,2.571-6.405,2.415-6.405,2.415c-5.469-0.063-7.2-3.35-7.2-3.35
		c-2.337-3.273-0.093-6.779-0.093-6.779c3.553-4.815,10.799-2.898,10.799-2.898c0.935,0.187,1.742,0.5,1.853,0.5
		s0.255-0.086,0.428-0.258l0.243,0.178l-2.15,2.899l-0.251-0.178c0.012-0.105,0.019-0.194,0.019-0.266
		c0-0.191-0.078-0.37-0.232-0.538c-0.155-0.168-0.431-0.37-0.828-0.607c0,0-2.26-0.982-4.317,0.046c0,0-3.272,1.449-2.758,5.283
		c0,0,0.701,4.301,4.909,4.348c0,0,2.711,0.234,5.329-1.964L111.829,102.099z"/>
	<g>
		<path fill="#231F20" d="M78.922,92.858c-0.123-0.239-0.184-0.452-0.184-0.639c0-0.271,0.19-0.461,0.571-0.571v-0.304L72.8,91.328
			v0.304c0.374,0.129,0.562,0.342,0.562,0.639c0,0.194-0.078,0.452-0.232,0.775l-3.875,10.175c-0.174,0.375-0.329,0.626-0.466,0.756
			c-0.134,0.129-0.332,0.219-0.59,0.271v0.304h3.625v-0.304c-0.436-0.11-0.654-0.309-0.654-0.596c0-0.15,0.062-0.355,0.184-0.615
			l0.618-1.638h7.093l0.752,1.638c0.129,0.267,0.194,0.469,0.194,0.605c0,0.332-0.212,0.534-0.636,0.606v0.304h2.457
			c0.506-0.635,1.143-1.385,1.837-2.084L78.922,92.858z M72.633,99.653l2.543-6.732l3.089,6.732H72.633z"/>
	</g>
	<path fill="#C3002F" d="M125.15,92.16c-0.551,1.029-1.145,1.822-1.615,2.368c0.577,0.828,0.924,1.927,0.924,3.224
		c0,2.975-1.825,4.914-4.076,4.914c-2.252,0-4.076-2.005-4.076-4.914c0-2.908,1.825-4.914,4.076-4.914c0.67,0,1.3,0.176,1.858,0.497
		c-1.053,2.259-2.385,4.611-3.775,7.034c7.386-8.322,9.984-17.143,6.732-20.851c-4.675-5.33-18.092,0.267-30.563,11.738
		c-1.425,1.31-2.766,2.643-4.027,3.985l-1.592-2.196c-0.278-0.362-0.417-0.62-0.417-0.775c0-0.291,0.193-0.488,0.581-0.591v-0.304
		h-6.442l0.01,0.304c0.349,0.033,0.602,0.112,0.761,0.237c0.158,0.126,0.476,0.502,0.954,1.128l3.627,5.018
		c-8.025,9.492-11.536,18.857-7.927,22.781c4.428,4.814,19.367-1.051,32.517-14.313c-0.004,0.004-0.007,0.007-0.011,0.01
		c-11.175,10.28-25.151,16.456-29.359,12.155c-3.23-3.302-0.673-11.225,5.697-19.365l2.688,3.718c0.233,0.304,0.35,0.523,0.35,0.659
		c0,0.259-0.194,0.426-0.582,0.504v0.304h6.372v-0.304c-0.336-0.051-0.599-0.155-0.789-0.31c-0.191-0.155-0.505-0.516-0.944-1.085
		l-4.647-6.41c1.371-1.536,2.865-3.061,4.479-4.546c11.176-10.279,24.508-16.103,27.423-10.809c1.67,3.033,1.233,6.466-0.214,10.188
		c-0.859-0.262-1.786-0.407-2.758-0.407c-4.313,0-7.808,2.805-7.808,6.872c0,4.067,3.495,6.872,7.808,6.872
		c4.312,0,7.807-2.711,7.807-6.872C128.191,95.278,126.997,93.35,125.15,92.16z"/>
	<path fill="#231F20" d="M147.851,91.235c0.289,0,0.536,0.102,0.74,0.306c0.203,0.203,0.305,0.448,0.305,0.735
		c0,0.289-0.101,0.536-0.305,0.74c-0.203,0.204-0.449,0.306-0.74,0.306c-0.29,0-0.537-0.102-0.74-0.306
		c-0.202-0.204-0.303-0.45-0.303-0.74c0-0.287,0.102-0.532,0.304-0.735C147.318,91.337,147.564,91.235,147.851,91.235z
		 M149.06,92.273c0-0.333-0.119-0.616-0.354-0.851c-0.236-0.234-0.521-0.351-0.856-0.351c-0.333,0-0.615,0.117-0.851,0.351
		c-0.235,0.236-0.353,0.519-0.353,0.851c0,0.335,0.117,0.621,0.35,0.856c0.234,0.236,0.519,0.355,0.854,0.355
		c0.335,0,0.62-0.118,0.856-0.355C148.941,92.893,149.06,92.608,149.06,92.273z M148.171,92.012c0,0.101-0.046,0.169-0.138,0.204
		c-0.05,0.019-0.126,0.029-0.226,0.029h-0.214v-0.473h0.203c0.132,0,0.227,0.016,0.287,0.049
		C148.141,91.853,148.171,91.917,148.171,92.012z M147.365,91.609v1.321h0.228v-0.52h0.187c0.126,0,0.214,0.014,0.264,0.043
		c0.084,0.049,0.127,0.15,0.127,0.303v0.105l0.005,0.042c0.001,0.005,0.002,0.011,0.003,0.015c0.001,0.004,0.002,0.008,0.004,0.013
		h0.217l-0.009-0.016c-0.005-0.011-0.009-0.034-0.011-0.069c-0.002-0.035-0.003-0.067-0.003-0.098v-0.097
		c0-0.067-0.024-0.135-0.072-0.205c-0.047-0.07-0.123-0.113-0.226-0.129c0.082-0.013,0.146-0.034,0.192-0.064
		c0.087-0.056,0.131-0.143,0.131-0.26c0-0.166-0.069-0.278-0.207-0.334c-0.077-0.032-0.198-0.048-0.363-0.048H147.365z"/>
</g>
</svg>
