<?xml version="1.0" encoding="utf-8"?>
<!-- Generator: Adobe Illustrator 19.1.0, SVG Export Plug-In . SVG Version: 6.00 Build 0)  -->
<svg version="1.1" id="Layer_1" xmlns="http://www.w3.org/2000/svg" xmlns:xlink="http://www.w3.org/1999/xlink" x="0px" y="0px"
	 viewBox="0 0 200 200" enable-background="new 0 0 200 200" xml:space="preserve">
<g>
	<g>
		<g>
			<path fill-rule="evenodd" clip-rule="evenodd" fill="#231F20" d="M100.047,99.106v4.216c-0.714,0.333-1.451,0.518-2.202,0.555
				c-0.753,0-1.451-0.222-2.073-0.65c-0.623-0.402-1.124-0.992-1.471-1.764c-0.363-0.756-0.547-1.638-0.547-2.616
				c0.038-0.901,0.164-1.694,0.385-2.414c0.224-0.718,0.509-1.306,0.917-1.803c0.385-0.494,0.845-0.862,1.395-1.121
				c0.532-0.259,1.119-0.388,1.782-0.388c0.621,0,1.264,0.129,1.908,0.406c0.621,0.277,1.154,0.756,1.595,1.416h0.256
				c0.02-0.201,0.071-0.499,0.181-0.866c0.093-0.385,0.206-0.7,0.332-0.957c-1.268-0.719-2.696-1.086-4.346-1.086
				c-1.359,0.016-2.513,0.241-3.469,0.647c-0.956,0.401-1.724,0.937-2.275,1.58c-0.57,0.663-0.973,1.382-1.212,2.155
				c-0.256,0.793-0.381,1.58-0.381,2.376c0,1.124,0.218,2.06,0.637,2.853c0.424,0.791,0.992,1.42,1.688,1.898
				c0.699,0.478,1.467,0.827,2.293,1.049c0.827,0.203,1.67,0.316,2.494,0.316c1.504,0,3.084-0.278,4.774-0.814v-4.99
				c-0.477,0.073-0.937,0.109-1.357,0.109C100.947,99.215,100.525,99.18,100.047,99.106z"/>
			<path fill-rule="evenodd" clip-rule="evenodd" fill="#231F20" d="M82.504,92.35v12.227h6.829c-0.038-0.256-0.074-0.499-0.131-0.7
				c0.038-0.222,0.093-0.518,0.148-0.848c-1.344,0.166-2.734,0.256-4.149,0.256v-4.549h1.892c0.863,0,1.594,0.058,2.165,0.17
				c-0.039-0.24-0.071-0.5-0.111-0.717c0-0.114,0.016-0.224,0.039-0.37c0.014-0.149,0.052-0.316,0.071-0.483
				c-0.44,0.093-1.028,0.149-1.726,0.149h-2.332v-3.825h0.607c1.12,0,2.294,0.071,3.525,0.236c-0.055-0.312-0.093-0.568-0.131-0.739
				c0.057-0.368,0.109-0.622,0.148-0.806H82.504z"/>
			<path fill-rule="evenodd" clip-rule="evenodd" fill="#231F20" d="M109.935,92.239c-0.106-0.022-0.22-0.022-0.325-0.022
				c-0.127-0.015-0.221-0.015-0.333-0.036l-0.036,0.096l-5.063,12.373c0.091-0.017,0.218-0.017,0.401-0.038
				c0.187,0,0.293-0.018,0.371-0.035c0.109,0.017,0.27,0.035,0.455,0.035c0.201,0.02,0.35,0.02,0.444,0.038
				c0.088-0.351,0.201-0.682,0.31-1.031c0.127-0.354,0.294-0.846,0.515-1.456c0.238-0.625,0.386-1.031,0.439-1.213h2.128h2.05
				c0.481,1.231,0.885,2.467,1.251,3.7c0.184-0.017,0.424-0.017,0.753-0.038c0.315,0,0.554-0.018,0.695-0.035
				c0.208,0.017,0.465,0.035,0.811,0.035c0.347,0.02,0.625,0.02,0.822,0.038l-4.988-12.469
				C110.577,92.18,110.34,92.217,109.935,92.239z M109.24,99.804h-1.634l1.634-4.067l0.036-0.093l1.618,4.16H109.24z"/>
			<path fill-rule="evenodd" clip-rule="evenodd" fill="#231F20" d="M79.643,98.389c-0.129-0.976-0.221-1.919-0.329-2.763
				c-0.093-0.847-0.223-1.95-0.367-3.276c-0.291,0.036-0.552,0.074-0.734,0.094c-0.388-0.041-0.645-0.077-0.752-0.094
				c-0.333,0.699-0.698,1.454-1.102,2.261c-0.386,0.831-0.738,1.51-1.012,2.065c-0.274,0.55-0.604,1.196-0.99,1.929
				c-0.364,0.723-0.734,1.459-1.119,2.193c-1.813-3.645-3.191-6.459-4.107-8.448c-0.133,0.017-0.369,0.052-0.736,0.094
				c-0.075,0-0.185-0.02-0.332-0.041c-0.145-0.017-0.273-0.036-0.403-0.052c-0.274,2.06-0.568,4.18-0.876,6.354
				c-0.333,2.17-0.665,4.161-0.974,5.983c0.16-0.019,0.44-0.054,0.842-0.11c0.184,0.035,0.312,0.056,0.425,0.056
				c0.104,0.017,0.238,0.035,0.419,0.054c0-0.629,0.053-1.402,0.129-2.321c0.055-0.939,0.165-1.954,0.274-3.038
				c0.129-1.108,0.242-2.047,0.348-2.834c0.208,0.42,0.496,1.008,0.884,1.78c0.364,0.777,0.677,1.42,0.915,1.917
				c0.254,0.499,0.603,1.236,1.081,2.211c0.478,0.976,0.824,1.694,1.047,2.175h0.29h0.371c1.192-2.597,2.511-5.362,3.96-8.27
				c0.074,0.683,0.166,1.475,0.259,2.414c0.11,0.939,0.186,1.656,0.24,2.133c0.055,0.501,0.091,1.086,0.166,1.789
				c0.054,0.698,0.088,1.38,0.107,2.044c0.495-0.074,0.992-0.11,1.471-0.11c0.512,0,0.99,0.035,1.47,0.11
				c-0.188-1.18-0.335-2.285-0.463-3.3C79.9,100.361,79.772,99.36,79.643,98.389z"/>
			<path fill-rule="evenodd" clip-rule="evenodd" fill="#231F20" d="M133.441,92.239c-0.11-0.022-0.219-0.022-0.329-0.022
				c-0.111-0.015-0.216-0.015-0.333-0.036l-0.032,0.096l-5.063,12.373c0.089-0.017,0.215-0.017,0.402-0.038
				c0.182,0,0.288-0.018,0.367-0.035c0.111,0.017,0.276,0.035,0.455,0.035c0.206,0.02,0.353,0.02,0.441,0.038
				c0.089-0.351,0.2-0.682,0.312-1.031c0.131-0.354,0.296-0.846,0.512-1.456c0.241-0.625,0.389-1.031,0.445-1.213h2.127h2.058
				c0.474,1.231,0.877,2.467,1.242,3.7c0.185-0.017,0.424-0.017,0.735-0.038c0.328,0,0.571-0.018,0.717-0.035
				c0.206,0.017,0.475,0.035,0.807,0.035c0.349,0.02,0.622,0.02,0.827,0.038l-4.99-12.469
				C134.085,92.18,133.845,92.217,133.441,92.239z M132.747,99.804h-1.638l1.638-4.067l0.032-0.093l1.619,4.16H132.747z"/>
			<path fill-rule="evenodd" clip-rule="evenodd" fill="#231F20" d="M154.415,103.285V92.35c-0.222,0.017-0.494,0.036-0.824,0.052
				c-0.315,0.041-0.496,0.041-0.533,0.041c-0.404-0.041-0.841-0.077-1.32-0.094v12.227h6.789c-0.038-0.279-0.078-0.519-0.114-0.737
				c0.036-0.333,0.095-0.591,0.152-0.81C156.966,103.196,155.595,103.285,154.415,103.285z"/>
			<path fill-rule="evenodd" clip-rule="evenodd" fill="#231F20" d="M147.817,98.48c-0.472-0.206-1.012-0.331-1.576-0.39v-0.165
				c1.89-0.367,2.86-1.305,2.936-2.835c0-0.554-0.132-1.031-0.405-1.453c-0.274-0.404-0.681-0.735-1.176-0.956
				c-0.514-0.224-1.099-0.333-1.76-0.333h-0.679h-4.184v12.227h3.942c0.097,0,0.17,0,0.243,0c0.643-0.022,1.231-0.112,1.744-0.256
				c0.572-0.189,1.044-0.443,1.433-0.758c0.383-0.335,0.663-0.698,0.843-1.126c0.201-0.44,0.293-0.899,0.293-1.398
				c0-0.664-0.166-1.214-0.474-1.638C148.68,98.978,148.295,98.684,147.817,98.48z M143.672,93.396
				c0.312-0.038,0.568-0.07,0.791-0.07c0.253,0,0.491,0.032,0.695,0.07c0.899,0.208,1.339,0.831,1.339,1.879
				c0,0.407-0.073,0.775-0.201,1.103c-0.126,0.334-0.332,0.629-0.626,0.848c-0.145,0.109-0.31,0.201-0.513,0.276
				c-0.145,0.057-0.31,0.095-0.475,0.095c-0.188,0.034-0.513,0.034-1.01,0.034V93.396z M146.348,102.421
				c-0.2,0.351-0.457,0.609-0.772,0.807c-0.141,0.094-0.27,0.151-0.419,0.203c-0.164,0.06-0.328,0.093-0.475,0.093h-1.01v-4.82
				h0.512c0.366,0,0.7,0.032,0.973,0.107c1.012,0.296,1.506,1.089,1.506,2.376C146.664,101.647,146.555,102.053,146.348,102.421z"/>
			<path fill-rule="evenodd" clip-rule="evenodd" fill="#231F20" d="M163.352,103.285v-4.549h1.872c0.881,0,1.594,0.058,2.166,0.17
				c-0.039-0.24-0.074-0.5-0.11-0.717c0.015-0.114,0.036-0.224,0.036-0.37c0.035-0.149,0.056-0.316,0.074-0.483
				c-0.441,0.093-1.012,0.149-1.727,0.149h-2.311v-3.825h0.585c1.121,0,2.295,0.071,3.525,0.236
				c-0.039-0.312-0.072-0.568-0.111-0.739c0.056-0.368,0.095-0.622,0.143-0.806h-6.839v12.227h6.806
				c-0.039-0.256-0.072-0.499-0.111-0.7c0.039-0.222,0.071-0.518,0.143-0.848C166.14,103.196,164.764,103.285,163.352,103.285z"/>
			<path fill-rule="evenodd" clip-rule="evenodd" fill="#231F20" d="M120.965,93.78c0.645-0.441,1.356-0.658,2.148-0.658
				c0.55,0,1.081,0.129,1.597,0.406c0.533,0.277,0.968,0.699,1.373,1.231h0.223c0.166-0.735,0.31-1.363,0.441-1.838
				c-0.293-0.203-0.79-0.405-1.466-0.59c-0.7-0.207-1.471-0.296-2.352-0.296c-0.973,0-1.979,0.181-3.026,0.553
				c-1.047,0.368-1.968,1.069-2.752,2.081c-0.791,1.031-1.189,2.447-1.208,4.236c0,0.788,0.143,1.547,0.453,2.281
				c0.313,0.717,0.755,1.364,1.342,1.933c0.587,0.554,1.303,0.995,2.127,1.31c0.843,0.315,1.781,0.481,2.825,0.481
				c1.452,0,2.624-0.26,3.541-0.779l0.402-1.546l-0.251-0.109c-0.394,0.406-0.884,0.736-1.491,0.976
				c-0.605,0.238-1.153,0.349-1.67,0.349c-0.933,0-1.724-0.218-2.365-0.664c-0.662-0.441-1.138-1.068-1.472-1.842
				c-0.329-0.788-0.474-1.675-0.474-2.671c0-1.142,0.183-2.117,0.552-2.943C119.809,94.856,120.324,94.208,120.965,93.78z"/>
		</g>
		<path fill="#231F20" d="M170.099,104.173c-0.031-0.049-0.077-0.066-0.127-0.095c0.127,0,0.238-0.051,0.305-0.129
			c0.079-0.082,0.131-0.18,0.131-0.293c0-0.081-0.034-0.161-0.066-0.224c-0.066-0.066-0.116-0.111-0.195-0.143
			c-0.066-0.032-0.157-0.032-0.288-0.05h-0.627v1.531h0.241v-0.645h0.144c0.097,0,0.159,0.017,0.212,0.049
			c0,0,0.014,0.016,0.03,0.032c0.052,0.051,0.131,0.161,0.209,0.323l0.143,0.241h0.292l-0.179-0.306
			C170.227,104.321,170.165,104.219,170.099,104.173z M169.776,103.914h-0.303v-0.468h0.386c0.066,0,0.113,0.016,0.146,0.034
			c0.046,0.014,0.076,0.032,0.094,0.079c0.034,0.032,0.048,0.066,0.048,0.109c0,0.07-0.037,0.134-0.079,0.182
			c-0.046,0.036-0.111,0.048-0.209,0.048C169.83,103.899,169.812,103.914,169.776,103.914z M171.079,103.269
			c-0.126-0.223-0.303-0.402-0.532-0.513c-0.222-0.13-0.465-0.196-0.687-0.196c-0.242,0-0.483,0.066-0.705,0.196
			c-0.225,0.111-0.402,0.29-0.513,0.513c-0.13,0.225-0.197,0.47-0.197,0.708c0,0.242,0.066,0.485,0.178,0.712
			c0.129,0.226,0.306,0.402,0.532,0.513c0.222,0.132,0.448,0.196,0.705,0.196c0.24,0,0.465-0.064,0.687-0.196
			c0.229-0.111,0.406-0.287,0.532-0.513c0.111-0.227,0.178-0.47,0.178-0.712C171.257,103.74,171.19,103.495,171.079,103.269z
			 M170.869,104.577c-0.093,0.179-0.238,0.321-0.429,0.433c-0.196,0.097-0.389,0.144-0.581,0.144c-0.209,0-0.402-0.047-0.591-0.144
			c-0.179-0.112-0.324-0.255-0.438-0.433c-0.095-0.192-0.159-0.388-0.159-0.6c0-0.209,0.064-0.403,0.159-0.595
			c0.115-0.177,0.259-0.322,0.45-0.433c0.177-0.097,0.37-0.145,0.579-0.145c0.192,0,0.385,0.047,0.581,0.145
			c0.175,0.111,0.32,0.256,0.429,0.433c0.1,0.192,0.164,0.386,0.164,0.595C171.033,104.189,170.986,104.385,170.869,104.577z"/>
	</g>
	<rect x="65.797" y="107.818" fill-rule="evenodd" clip-rule="evenodd" fill="#0066B2" width="101.639" height="0.853"/>
	<g>
		<path fill="#231F20" d="M68.646,114.45l0.866,0.335c-0.136,0.598-0.358,1.037-0.67,1.314c-0.315,0.278-0.697,0.415-1.153,0.415
			c-0.572,0-1.037-0.22-1.391-0.662c-0.411-0.51-0.614-1.2-0.614-2.066c0-0.917,0.204-1.632,0.615-2.149
			c0.361-0.449,0.84-0.673,1.446-0.673c0.493,0,0.906,0.17,1.238,0.506c0.235,0.24,0.408,0.597,0.518,1.069l-0.881,0.252
			c-0.057-0.292-0.167-0.513-0.337-0.668c-0.165-0.154-0.361-0.233-0.59-0.233c-0.323,0-0.589,0.143-0.793,0.425
			c-0.206,0.283-0.309,0.75-0.309,1.401c0,0.676,0.1,1.157,0.3,1.44c0.201,0.285,0.46,0.428,0.779,0.428
			c0.236,0,0.435-0.093,0.605-0.27C68.447,115.133,68.57,114.844,68.646,114.45z"/>
		<path fill="#231F20" d="M71.966,113.772c0-0.64,0.094-1.166,0.283-1.58c0.189-0.413,0.436-0.721,0.742-0.923
			c0.303-0.205,0.673-0.304,1.109-0.304c0.629,0,1.142,0.238,1.538,0.719c0.4,0.482,0.597,1.166,0.597,2.054
			c0,0.899-0.21,1.601-0.629,2.104c-0.373,0.448-0.87,0.672-1.503,0.672c-0.638,0-1.142-0.22-1.509-0.662
			C72.176,115.345,71.966,114.652,71.966,113.772z M72.875,113.735c0,0.616,0.118,1.079,0.355,1.39
			c0.235,0.305,0.527,0.46,0.877,0.46c0.35,0,0.641-0.154,0.87-0.458c0.233-0.308,0.349-0.777,0.349-1.411
			c0-0.622-0.113-1.082-0.338-1.379c-0.223-0.298-0.518-0.446-0.881-0.446c-0.364,0-0.661,0.15-0.89,0.451
			C72.988,112.642,72.875,113.109,72.875,113.735z"/>
		<path fill="#231F20" d="M78.82,116.424v-5.371h0.864l1.803,3.586v-3.586h0.829v5.371H81.42l-1.77-3.5v3.5H78.82z"/>
		<path fill="#231F20" d="M85.112,116.424v-5.371h3.259v0.909h-2.377v1.191h2.208v0.899h-2.208v1.459h2.458v0.912H85.112z"/>
		<path fill="#231F20" d="M93.895,114.45l0.865,0.335c-0.132,0.598-0.358,1.037-0.668,1.314c-0.313,0.278-0.697,0.415-1.151,0.415
			c-0.575,0-1.039-0.22-1.396-0.662c-0.407-0.51-0.612-1.2-0.612-2.066c0-0.917,0.205-1.632,0.616-2.149
			c0.36-0.449,0.842-0.673,1.447-0.673c0.492,0,0.903,0.17,1.236,0.506c0.236,0.24,0.41,0.597,0.519,1.069l-0.881,0.252
			c-0.057-0.292-0.169-0.513-0.338-0.668c-0.164-0.154-0.362-0.233-0.59-0.233c-0.323,0-0.587,0.143-0.793,0.425
			c-0.204,0.283-0.306,0.75-0.306,1.401c0,0.676,0.1,1.157,0.3,1.44c0.199,0.285,0.458,0.428,0.777,0.428
			c0.235,0,0.436-0.093,0.606-0.27C93.695,115.133,93.82,114.844,93.895,114.45z"/>
		<path fill="#231F20" d="M98.383,116.424v-4.461h-1.305v-0.909h3.495v0.909h-1.306v4.461H98.383z"/>
		<path fill="#231F20" d="M106.533,116.424h-0.965l-0.377-1.216h-1.76l-0.365,1.216h-0.945l1.71-5.371h0.95L106.533,116.424z
			 M104.902,114.296l-0.605-1.99l-0.596,1.99H104.902z"/>
		<path fill="#231F20" d="M108.864,116.424v-5.371h1.33l0.797,3.674l0.792-3.674h1.342v5.371h-0.827v-4.238l-0.88,4.238h-0.849
			l-0.878-4.238v4.238H108.864z"/>
		<path fill="#231F20" d="M115.695,113.772c0-0.64,0.095-1.166,0.284-1.58c0.188-0.413,0.434-0.721,0.74-0.923
			c0.305-0.205,0.677-0.304,1.111-0.304c0.628,0,1.142,0.238,1.538,0.719c0.396,0.482,0.595,1.166,0.595,2.054
			c0,0.899-0.209,1.601-0.629,2.104c-0.368,0.448-0.869,0.672-1.501,0.672c-0.638,0-1.142-0.22-1.51-0.662
			C115.904,115.345,115.695,114.652,115.695,113.772z M116.606,113.735c0,0.616,0.116,1.079,0.35,1.39
			c0.239,0.305,0.528,0.46,0.877,0.46c0.351,0,0.642-0.154,0.874-0.458c0.232-0.308,0.348-0.777,0.348-1.411
			c0-0.622-0.113-1.082-0.337-1.379c-0.225-0.298-0.52-0.446-0.885-0.446c-0.362,0-0.659,0.15-0.886,0.451
			C116.719,112.642,116.606,113.109,116.606,113.735z"/>
		<path fill="#231F20" d="M122.306,114.665l0.864-0.097c0.097,0.677,0.419,1.017,0.964,1.017c0.268,0,0.477-0.07,0.633-0.21
			c0.152-0.137,0.232-0.309,0.232-0.515c0-0.121-0.027-0.224-0.08-0.309c-0.057-0.085-0.137-0.154-0.247-0.209
			c-0.111-0.053-0.378-0.146-0.799-0.274c-0.377-0.114-0.655-0.238-0.832-0.37c-0.174-0.137-0.318-0.312-0.419-0.531
			c-0.105-0.217-0.156-0.452-0.156-0.704c0-0.293,0.068-0.555,0.199-0.791c0.136-0.232,0.319-0.411,0.551-0.531
			c0.236-0.118,0.526-0.178,0.872-0.178c0.518,0,0.922,0.14,1.214,0.421c0.29,0.285,0.444,0.685,0.462,1.21l-0.893,0.045
			c-0.04-0.29-0.122-0.489-0.253-0.603c-0.13-0.116-0.315-0.174-0.556-0.174c-0.24,0-0.427,0.048-0.555,0.15
			c-0.129,0.097-0.193,0.222-0.193,0.368c0,0.147,0.058,0.267,0.178,0.365c0.119,0.101,0.387,0.211,0.809,0.332
			c0.449,0.129,0.767,0.265,0.967,0.408c0.202,0.143,0.351,0.328,0.455,0.555c0.107,0.225,0.158,0.498,0.158,0.82
			c0,0.465-0.144,0.858-0.43,1.176c-0.286,0.318-0.736,0.477-1.348,0.477C123.028,116.514,122.426,115.9,122.306,114.665z"/>
		<path fill="#231F20" d="M133.08,116.424v-4.461h-1.307v-0.909h3.493v0.909h-1.304v4.461H133.08z"/>
		<path fill="#231F20" d="M137.705,111.053h0.882v2.909c0,0.45,0.013,0.745,0.034,0.88c0.04,0.236,0.133,0.421,0.283,0.55
			c0.151,0.127,0.344,0.193,0.589,0.193c0.204,0,0.374-0.045,0.505-0.138c0.129-0.091,0.217-0.216,0.265-0.38
			c0.048-0.161,0.074-0.51,0.074-1.046v-2.968h0.881v2.82c0,0.72-0.037,1.241-0.114,1.561c-0.076,0.32-0.251,0.582-0.519,0.779
			c-0.272,0.201-0.629,0.3-1.071,0.3c-0.456,0-0.817-0.083-1.073-0.247c-0.259-0.165-0.444-0.397-0.562-0.698
			c-0.115-0.296-0.174-0.848-0.174-1.652V111.053z"/>
		<path fill="#231F20" d="M148.733,116.424l-1.578-5.371h0.959l1.117,3.975l1.08-3.975h0.944l-1.581,5.371H148.733z"/>
		<path fill="#231F20" d="M153.552,116.424v-5.371h0.882v5.371H153.552z"/>
		<path fill="#231F20" d="M157.154,111.053h1.62c0.407,0,0.716,0.047,0.925,0.14c0.207,0.09,0.401,0.245,0.576,0.462
			c0.177,0.217,0.312,0.499,0.412,0.845c0.101,0.347,0.152,0.777,0.152,1.293c0,0.463-0.055,0.869-0.159,1.211
			c-0.105,0.343-0.238,0.616-0.401,0.814c-0.157,0.201-0.353,0.351-0.58,0.451c-0.229,0.102-0.521,0.154-0.88,0.154h-1.665V111.053z
			 M158.037,111.963v3.55h0.668c0.286,0,0.491-0.025,0.621-0.08c0.129-0.053,0.235-0.134,0.318-0.243
			c0.081-0.109,0.15-0.278,0.201-0.513c0.055-0.233,0.083-0.542,0.083-0.923c0-0.399-0.028-0.711-0.083-0.94
			c-0.058-0.23-0.141-0.41-0.257-0.542c-0.116-0.132-0.259-0.218-0.427-0.259c-0.12-0.031-0.365-0.049-0.72-0.049H158.037z"/>
		<path fill="#231F20" d="M167.435,116.424h-0.967l-0.376-1.216h-1.765l-0.363,1.216h-0.943l1.708-5.371h0.953L167.435,116.424z
			 M165.8,114.296l-0.604-1.99l-0.595,1.99H165.8z"/>
	</g>
	<g>
		
			<radialGradient id="SVGID_2_" cx="601.5428" cy="1276.5852" r="69.6392" gradientTransform="matrix(0.44 0 0 0.44 -219.0917 -471.4081)" gradientUnits="userSpaceOnUse">
			<stop  offset="0" style="stop-color:#FFFFFF"/>
			<stop  offset="0.05" style="stop-color:#B8DAF2"/>
			<stop  offset="0.25" style="stop-color:#0094D9"/>
			<stop  offset="0.6" style="stop-color:#005AA9"/>
			<stop  offset="0.8" style="stop-color:#001A4B"/>
			<stop  offset="1" style="stop-color:#00000C"/>
		</radialGradient>
		<path fill="url(#SVGID_2_)" d="M62.582,100.004c0-9.347-7.575-16.924-16.92-16.924c-9.343,0-16.919,7.577-16.919,16.924
			s7.576,16.917,16.919,16.917C55.008,116.92,62.582,109.35,62.582,100.004z"/>
		
			<radialGradient id="SVGID_3_" cx="601.542" cy="1259.851" r="86.8277" gradientTransform="matrix(0.44 0 0 0.44 -219.0917 -471.4081)" gradientUnits="userSpaceOnUse">
			<stop  offset="0" style="stop-color:#FFFFFF"/>
			<stop  offset="0.05" style="stop-color:#B8DAF2"/>
			<stop  offset="0.25" style="stop-color:#0094D9"/>
			<stop  offset="0.6" style="stop-color:#005AA9"/>
			<stop  offset="0.8" style="stop-color:#001A4B"/>
			<stop  offset="1" style="stop-color:#00000C"/>
		</radialGradient>
		<path fill="url(#SVGID_3_)" d="M36.149,90.84c-4.007,4.372-6.134,10.093-5.942,16.048c0,0,0,0,0.001,0.002
			c0.276,0.612,0.584,1.209,0.929,1.784c1.073-5.822,3.946-11.182,8.29-15.371C38.864,92.053,37.654,91.094,36.149,90.84z
			 M51.96,99.643c-7.293,2.324-13.232,7.322-16.536,13.828c0.521,0.399,1.069,0.764,1.635,1.099
			c4.409-5.155,10.64-8.803,17.762-10.129C54.834,102.487,53.766,100.642,51.96,99.643z M55.954,95.02
			c-0.632-2.243-2.297-4.186-4.688-5.212c-10.008,3.229-17.042,11.236-18.818,20.753c0.51,0.637,1.067,1.241,1.663,1.797
			C37.794,103.794,45.705,97.147,55.954,95.02z"/>
		
			<radialGradient id="SVGID_5_" cx="601.5431" cy="1276.5878" r="69.4105" gradientTransform="matrix(0.44 0 0 0.44 -219.0917 -471.4081)" gradientUnits="userSpaceOnUse">
			<stop  offset="0" style="stop-color:#FFFFFF"/>
			<stop  offset="0.1966" style="stop-color:#FFFFFF"/>
			<stop  offset="0.7" style="stop-color:#CCDDE6"/>
			<stop  offset="0.86" style="stop-color:#727D83"/>
			<stop  offset="1" style="stop-color:#1B1D21"/>
		</radialGradient>
		<path fill="url(#SVGID_5_)" d="M54.647,94.147c-0.712-2.232-2.373-4.125-4.662-5.071c-9.325,3.586-15.917,11.847-17.58,21.432
			c0.503,0.634,1.048,1.227,1.635,1.782C37.526,103.578,44.977,96.636,54.647,94.147z M51.065,98.927
			c-6.943,2.585-12.598,7.813-15.737,14.468c0.505,0.392,1.029,0.758,1.578,1.087c4.249-5.356,10.253-9.254,17.143-10.823
			C53.961,101.692,52.841,99.873,51.065,98.927z M35.807,90.637c-3.76,4.51-5.783,10.303-5.6,16.25
			c0.27,0.606,0.573,1.193,0.909,1.758c1.029-5.857,3.749-11.315,7.821-15.656C38.382,91.755,37.225,90.838,35.807,90.637z"/>
		
			<radialGradient id="SVGID_7_" cx="601.4303" cy="1273.4191" r="73.0355" gradientTransform="matrix(0.44 0 0 0.44 -219.0917 -471.4081)" gradientUnits="userSpaceOnUse">
			<stop  offset="0" style="stop-color:#A0C0E5"/>
			<stop  offset="0.5" style="stop-color:#0072B4"/>
			<stop  offset="0.8" style="stop-color:#0E3179"/>
			<stop  offset="1" style="stop-color:#000006"/>
		</radialGradient>
		<path fill="url(#SVGID_7_)" d="M51.101,98.861l-0.031-0.014l-0.031,0.011c-3.457,1.287-6.594,3.212-9.319,5.724
			c-2.714,2.498-4.885,5.449-6.452,8.769c0.039,0.032,0.077,0.062,0.118,0.092l0.006-0.003l0.005-0.012
			c1.561-3.31,3.722-6.249,6.425-8.737c2.705-2.489,5.813-4.401,9.237-5.68c1.695,0.916,2.805,2.666,2.912,4.592
			c-6.728,1.547-12.805,5.394-17.122,10.835l-0.004,0.007c0.044,0.027,0.089,0.056,0.134,0.082c0-0.007,0.001-0.009,0.001-0.012
			c4.306-5.425,10.375-9.254,17.088-10.781l0.059-0.015v-0.061C54.033,101.644,52.874,99.807,51.101,98.861z M39.024,93.003
			l-0.019-0.045c-0.587-1.301-1.777-2.196-3.189-2.396l-0.041-0.006l-0.026,0.032c-3.772,4.525-5.761,10.246-5.621,16.13
			c0.052,0.115,0.102,0.229,0.154,0.343c0.011-0.081,0.011-0.144,0-0.185c-0.181-5.888,1.792-11.626,5.554-16.158
			c1.326,0.201,2.448,1.041,3.012,2.258c-4.053,4.339-6.745,9.721-7.789,15.574c0.032,0.056,0.065,0.109,0.097,0.165l0.018-0.02
			l0.012-0.015l0.006-0.022c1.03-5.873,3.729-11.276,7.802-15.618L39.024,93.003z M54.718,94.126
			c-0.743-2.326-2.456-4.191-4.705-5.12l-0.027-0.011l-0.027,0.011c-4.556,1.752-8.601,4.688-11.696,8.49
			c-3.042,3.738-5.09,8.213-5.921,12.94c0.037,0.048,0.076,0.096,0.114,0.143c0.007-0.013,0.013-0.026,0.017-0.039l0.005-0.007
			l0.002-0.011c0.818-4.723,2.86-9.195,5.899-12.932c3.071-3.775,7.084-6.69,11.607-8.433c2.167,0.904,3.827,2.702,4.564,4.94
			c-4.653,1.211-8.998,3.536-12.574,6.733c-3.488,3.115-6.252,7.062-7.998,11.41c0.039,0.036,0.075,0.069,0.113,0.105
			c0.003-0.003,0.007-0.007,0.007-0.01l0.008-0.008l0.002-0.008c1.733-4.337,4.492-8.271,7.967-11.379
			c3.575-3.197,7.929-5.521,12.59-6.719l0.077-0.02L54.718,94.126z"/>
	</g>
</g>
</svg>
