<?xml version="1.0" encoding="utf-8"?>
<!-- Generator: Adobe Illustrator 19.1.0, SVG Export Plug-In . SVG Version: 6.00 Build 0)  -->
<svg version="1.1" id="Layer_1" xmlns="http://www.w3.org/2000/svg" xmlns:xlink="http://www.w3.org/1999/xlink" x="0px" y="0px"
	 viewBox="0 0 200 200" enable-background="new 0 0 200 200" xml:space="preserve">
<g>
	<path fill="#0075C9" d="M84.661,104.719L84.661,104.719c0,4.048-2.643,6.998-8.012,7.576c-3.889,0.417-9.511-0.073-12.189-0.379
		c-0.092-0.436-0.164-0.974-0.164-1.41c0-3.528,1.898-4.34,3.689-4.34c1.863,0,4.793,0.325,6.964,0.325
		c2.404,0,3.127-0.816,3.127-1.59c0-1.015-0.958-1.429-2.82-1.792l-5.101-0.976c-4.23-0.814-6.488-3.742-6.488-6.855
		c0-3.775,2.674-6.942,7.936-7.521c3.978-0.43,8.825,0.056,11.483,0.38c0.092,0.454,0.144,0.886,0.144,1.356
		c0,3.528-1.863,4.286-3.651,4.286c-1.374,0-3.505-0.252-5.951-0.252c-2.48,0-3.51,0.687-3.51,1.516
		c0,0.887,0.978,1.248,2.537,1.521l4.862,0.904C82.505,98.391,84.661,101.227,84.661,104.719 M93.389,109.059L93.389,109.059
		c0,2.168-0.85,3.419-5.083,3.419c-0.562,0-1.049-0.038-1.52-0.113v-28.75c0-2.186,0.741-4.466,5.009-4.466
		c0.541,0,1.081,0.056,1.593,0.165V109.059z M110.685,120.18c0.559,0.289,1.699,0.631,3.128,0.669
		c2.462,0.052,3.797-0.889,4.791-3.093l13.182-29.402c-0.541-0.291-1.753-0.618-2.73-0.635c-1.701-0.037-3.979,0.307-5.423,3.782
		l-4.265,10.069l-8.377-13.631c-0.541-0.166-1.863-0.398-2.822-0.398c-2.963,0-4.61,1.084-6.328,2.946l-8.138,8.897l6.545,10.306
		c1.212,1.881,2.804,2.84,5.39,2.84c1.701,0,3.11-0.398,3.761-0.704l-7.885-11.881l5.59-5.931l9.169,14.394L110.685,120.18z"/>
	<path fill="#0075C9" d="M134.129,89.271L134.129,89.271h0.422c0.146,0,0.46,0,0.46-0.328c-0.024-0.216-0.239-0.239-0.413-0.239
		h-0.469V89.271z M134.64,88.37L134.64,88.37c0.127,0,0.722,0,0.722,0.558c0,0.225-0.103,0.431-0.38,0.497v0.009
		c0.281,0.08,0.333,0.249,0.342,0.511c0.019,0.347,0.019,0.389,0.066,0.474h-0.352c-0.037-0.061-0.052-0.122-0.061-0.38
		c-0.014-0.324-0.08-0.413-0.432-0.441h-0.417v0.821h-0.352v-2.05H134.64z M133.125,89.378L133.125,89.378
		c0,0.788,0.624,1.435,1.417,1.435c0.783,0,1.417-0.638,1.417-1.435c0-0.779-0.615-1.436-1.417-1.436
		C133.734,87.943,133.125,88.6,133.125,89.378z M136.333,89.378c0,0.994-0.812,1.792-1.787,1.792c-1.004,0-1.797-0.812-1.797-1.792
		c0-0.976,0.788-1.792,1.797-1.792C135.541,87.586,136.333,88.398,136.333,89.378z"/>
</g>
</svg>
