<?xml version="1.0" encoding="utf-8"?>
<!-- Generator: Adobe Illustrator 19.1.0, SVG Export Plug-In . SVG Version: 6.00 Build 0)  -->
<svg version="1.1" id="Layer_1" xmlns="http://www.w3.org/2000/svg" xmlns:xlink="http://www.w3.org/1999/xlink" x="0px" y="0px"
	 viewBox="0 0 200 200" enable-background="new 0 0 200 200" xml:space="preserve">
<g>
	<path fill="#FEFEFE" d="M22.624,102.089c0,3.004,0.003,6.007-0.005,9.011c-0.001,0.224,0.057,0.28,0.281,0.28
		c5.989-0.006,11.979-0.007,17.968,0c0.233,0,0.302-0.052,0.302-0.294c-0.007-5.998-0.007-11.997,0-17.995
		c0-0.232-0.072-0.275-0.288-0.275c-5.989,0.006-11.979,0.006-17.968-0.001c-0.23,0-0.297,0.045-0.296,0.289
		C22.627,96.099,22.624,99.094,22.624,102.089z M73.814,93.178c-1.998,4.454-3.97,8.851-5.947,13.257
		c-0.106-0.073-0.12-0.165-0.156-0.244c-1.895-4.133-3.791-8.266-5.679-12.403c-0.075-0.165-0.156-0.221-0.336-0.218
		c-0.71,0.012-1.421,0.005-2.131,0.005c-0.156,0-0.312,0-0.511,0c2.936,6.282,5.849,12.514,8.789,18.806
		c2.004-4.443,3.978-8.818,5.971-13.237c1.994,4.427,3.968,8.811,5.961,13.235c2.946-6.298,5.866-12.539,8.797-18.805
		c-0.88,0-1.716,0.011-2.552-0.007c-0.251-0.005-0.373,0.072-0.477,0.301c-1.866,4.097-3.741,8.19-5.615,12.284
		c-0.042,0.092-0.091,0.181-0.161,0.318C77.776,102.024,75.805,97.624,73.814,93.178z M52.577,111.934
		c1.242,0.001,2.461-0.166,3.619-0.615c2.889-1.119,4.801-3.047,5.02-6.293c0.102-1.518-0.308-2.9-1.299-4.081
		c-0.851-1.014-1.95-1.685-3.128-2.243c-1.482-0.701-3.06-1.136-4.602-1.671c-0.911-0.316-1.792-0.695-2.548-1.312
		c-0.512-0.418-0.923-0.916-1.065-1.578c-0.26-1.212,0.189-2.184,1.122-2.924c1.459-1.157,3.147-1.415,4.942-1.119
		c1.284,0.212,2.301,0.879,3.08,1.911c0.111,0.147,0.185,0.15,0.344,0.066c0.666-0.353,1.337-0.697,2.017-1.021
		c0.212-0.101,0.181-0.171,0.066-0.323c-0.783-1.029-1.752-1.829-2.941-2.339c-2.288-0.982-4.629-0.98-6.984-0.287
		c-1.523,0.449-2.849,1.227-3.816,2.529c-1.289,1.735-1.347,4.361,0.284,6.075c0.82,0.862,1.826,1.444,2.893,1.934
		c1.371,0.63,2.812,1.077,4.22,1.611c1.12,0.425,2.216,0.896,3.121,1.711c0.792,0.714,1.248,1.595,1.256,2.673
		c0.014,1.754-0.751,3.122-2.215,4.038c-1.992,1.246-4.083,1.185-6.138,0.163c-1.448-0.72-2.352-1.892-2.5-3.555
		c-0.02-0.23-0.15-0.177-0.276-0.154c-0.883,0.158-1.766,0.324-2.65,0.477c-0.164,0.028-0.196,0.074-0.16,0.243
		c0.326,1.517,1.069,2.795,2.212,3.833C48.188,111.26,50.27,111.911,52.577,111.934z M150.03,99.726c0-1.96-0.004-3.92,0.006-5.881
		c0.001-0.231-0.064-0.28-0.283-0.275c-0.692,0.015-1.385,0.016-2.077,0c-0.231-0.005-0.299,0.045-0.298,0.29
		c0.009,3.48,0.006,6.96,0.006,10.439c0,0.694-0.064,1.381-0.225,2.057c-0.427,1.795-1.486,2.979-3.322,3.384
		c-1.003,0.221-2.018,0.222-3.024,0.015c-1.588-0.327-2.665-1.254-3.208-2.793c-0.312-0.885-0.409-1.805-0.413-2.731
		c-0.012-3.462-0.007-6.924,0.001-10.385c0.001-0.228-0.059-0.282-0.281-0.277c-0.683,0.016-1.367,0.016-2.05,0
		c-0.241-0.006-0.312,0.053-0.311,0.305c0.009,3.669,0.007,7.337,0.005,11.006c0,0.423,0.016,0.844,0.081,1.262
		c0.348,2.227,1.485,3.925,3.501,4.94c2.374,1.195,4.865,1.257,7.355,0.413c2.852-0.967,4.537-3.413,4.537-6.429
		C150.03,103.287,150.03,101.506,150.03,99.726z M100.534,93.193c-0.178-0.01-0.519,0.019-0.858,0.062
		c-1.267,0.16-2.456,0.539-3.48,1.326c-1.33,1.022-1.933,2.36-1.642,4.039c0.194,1.116,0.891,1.896,1.796,2.515
		c1.041,0.712,2.215,1.133,3.389,1.556c0.979,0.352,1.974,0.666,2.867,1.219c0.607,0.375,1.124,0.835,1.391,1.524
		c0.449,1.159,0.035,2.654-1.042,3.517c-1.492,1.196-3.138,1.224-4.811,0.453c-1.155-0.533-1.861-1.443-1.928-2.764
		c-0.007-0.146-0.055-0.151-0.18-0.128c-0.768,0.139-1.538,0.271-2.308,0.4c-0.153,0.026-0.2,0.073-0.165,0.246
		c0.342,1.671,1.25,2.956,2.699,3.822c2.196,1.312,4.516,1.358,6.865,0.469c1.512-0.572,2.702-1.562,3.302-3.098
		c0.721-1.845,0.55-3.598-0.8-5.133c-0.64-0.728-1.473-1.197-2.342-1.6c-1.102-0.51-2.269-0.841-3.412-1.239
		c-0.672-0.234-1.326-0.505-1.889-0.953c-1.109-0.883-1.14-2.204-0.081-3.145c1.437-1.278,4.58-1.477,5.993,0.556
		c0.097,0.139,0.176,0.183,0.345,0.091c0.575-0.312,1.159-0.609,1.746-0.9c0.142-0.071,0.158-0.119,0.065-0.248
		c-0.317-0.44-0.676-0.841-1.098-1.181C103.715,93.595,102.272,93.197,100.534,93.193z M114.964,93.195
		c-0.48-0.013-0.954,0.032-1.424,0.116c-1.41,0.25-2.687,0.768-3.705,1.821c-1.203,1.245-1.457,3.196-0.587,4.629
		c0.512,0.843,1.289,1.387,2.137,1.843c1.112,0.597,2.314,0.971,3.492,1.405c0.784,0.29,1.56,0.593,2.251,1.076
		c0.535,0.374,0.961,0.836,1.171,1.469c0.388,1.167-0.075,2.615-1.136,3.445c-1.342,1.049-2.844,1.144-4.384,0.573
		c-1.344-0.499-2.219-1.436-2.314-2.947c-0.011-0.169-0.098-0.127-0.197-0.109c-0.716,0.128-1.432,0.254-2.148,0.38
		c-0.353,0.062-0.354,0.061-0.271,0.414c0.377,1.617,1.293,2.853,2.708,3.698c1.953,1.166,4.044,1.286,6.187,0.665
		c1.7-0.493,3.051-1.463,3.853-3.09c0.858-1.741,0.591-3.909-0.649-5.3c-0.727-0.817-1.657-1.337-2.643-1.769
		c-1.078-0.473-2.213-0.789-3.319-1.185c-0.722-0.259-1.421-0.565-1.981-1.109c-0.497-0.483-0.725-1.061-0.569-1.759
		c0.137-0.615,0.511-1.066,1.02-1.403c1.111-0.736,2.329-0.889,3.612-0.61c0.872,0.19,1.553,0.679,2.084,1.386
		c0.074,0.099,0.122,0.21,0.293,0.119c0.61-0.324,1.227-0.634,1.844-0.945c0.11-0.055,0.126-0.104,0.047-0.2
		c-0.137-0.166-0.257-0.347-0.4-0.508C118.613,93.81,116.911,93.212,114.964,93.195z M158.384,93.196
		c-0.47-0.015-0.935,0.032-1.396,0.113c-1.401,0.244-2.675,0.755-3.688,1.797c-1.326,1.365-1.506,3.458-0.42,4.936
		c0.449,0.612,1.048,1.053,1.7,1.428c0.994,0.57,2.072,0.939,3.143,1.325c0.911,0.329,1.833,0.634,2.656,1.163
		c0.602,0.386,1.128,0.855,1.345,1.559c0.399,1.294,0.022,2.414-0.933,3.307c-1.249,1.168-2.758,1.326-4.328,0.831
		c-1.47-0.463-2.443-1.411-2.555-3.043c-0.011-0.154-0.081-0.116-0.172-0.099c-0.724,0.129-1.449,0.257-2.174,0.383
		c-0.357,0.062-0.358,0.059-0.274,0.417c0.42,1.782,1.48,3.068,3.084,3.909c1.556,0.816,3.214,0.97,4.925,0.667
		c1.509-0.267,2.834-0.896,3.887-2.036c1.451-1.571,1.772-4.013,0.754-5.809c-0.581-1.024-1.493-1.681-2.513-2.21
		c-1.234-0.639-2.57-1.004-3.873-1.459c-0.723-0.253-1.428-0.545-2.01-1.062c-0.564-0.501-0.839-1.114-0.663-1.877
		c0.12-0.521,0.427-0.922,0.838-1.251c1.488-1.194,4.525-1.329,5.904,0.687c0.065,0.095,0.12,0.161,0.257,0.089
		c0.611-0.323,1.225-0.638,1.842-0.948c0.131-0.065,0.118-0.118,0.045-0.22c-0.268-0.374-0.57-0.718-0.915-1.023
		C161.573,93.643,160.055,93.201,158.384,93.196z M132.476,96.278c0.006,0,0.012,0,0.017,0c0-2.698-0.002-5.396,0.004-8.094
		c0-0.205-0.042-0.277-0.263-0.272c-0.719,0.015-1.439,0.018-2.158-0.001c-0.256-0.007-0.329,0.054-0.328,0.32
		c0.009,4.676,0.007,9.353,0.006,14.029c0,0.8,0.001,1.6-0.077,2.397c-0.092,0.952-0.263,1.886-0.663,2.763
		c-0.514,1.126-1.322,1.902-2.615,1.943c-1.086,0.034-2.149-0.151-3.121-0.685c-0.15-0.083-0.211-0.076-0.302,0.077
		c-0.36,0.611-0.729,1.217-1.113,1.813c-0.126,0.196-0.091,0.266,0.111,0.362c1.504,0.71,3.084,0.994,4.739,0.884
		c2.431-0.161,4.139-1.324,5.031-3.624c0.5-1.29,0.702-2.641,0.72-4.009C132.501,101.548,132.476,98.913,132.476,96.278z
		 M169.715,103.642c0,2.58,0.003,5.161-0.005,7.741c-0.001,0.211,0.051,0.271,0.265,0.267c0.692-0.014,1.385-0.019,2.077,0.002
		c0.262,0.008,0.323-0.064,0.323-0.323c-0.008-5.116-0.004-10.232-0.012-15.347c0-0.255,0.054-0.332,0.32-0.33
		c1.483,0.014,2.967,0.004,4.45,0.01c0.176,0.001,0.254-0.026,0.249-0.229c-0.015-0.548-0.01-1.097-0.002-1.645
		c0.003-0.157-0.027-0.215-0.203-0.215c-4.091,0.006-8.182,0.006-12.272,0c-0.194,0-0.214,0.073-0.212,0.233
		c0.008,0.53,0.014,1.061-0.002,1.591c-0.007,0.214,0.057,0.268,0.267,0.266c1.483-0.009,2.967,0,4.45-0.01
		c0.236-0.002,0.313,0.047,0.312,0.302C169.711,98.517,169.715,101.079,169.715,103.642z M89.748,102.617
		c0,2.921,0.002,5.843-0.005,8.764c0,0.208,0.047,0.273,0.264,0.268c0.71-0.015,1.42-0.012,2.13-0.001
		c0.19,0.003,0.26-0.031,0.26-0.245c-0.007-5.87-0.006-11.74-0.001-17.61c0-0.177-0.047-0.225-0.223-0.222
		c-0.719,0.01-1.438,0.015-2.157-0.002c-0.233-0.006-0.274,0.066-0.273,0.283C89.751,96.774,89.748,99.696,89.748,102.617z"/>
	<path fill="#CE443A" d="M22.624,102.089c0-2.995,0.003-5.989-0.006-8.984c-0.001-0.244,0.066-0.29,0.296-0.289
		c5.989,0.007,11.979,0.006,17.968,0.001c0.216,0,0.288,0.042,0.288,0.275c-0.007,5.998-0.007,11.997,0,17.995
		c0,0.243-0.069,0.295-0.302,0.294c-5.989-0.007-11.979-0.007-17.968,0c-0.224,0-0.282-0.056-0.281-0.28
		C22.626,108.096,22.624,105.092,22.624,102.089z M38.603,102.004c0-0.692-0.015-1.385,0.008-2.076
		c0.009-0.273-0.08-0.317-0.329-0.315c-1.321,0.013-2.643,0.001-3.964,0.011c-0.205,0.002-0.253-0.056-0.252-0.255
		c0.009-1.339-0.001-2.679,0.01-4.018c0.002-0.229-0.064-0.279-0.284-0.278c-1.393,0.01-2.787,0.009-4.18,0.001
		c-0.208-0.001-0.272,0.05-0.271,0.266c0.01,1.339,0,2.679,0.01,4.018c0.002,0.214-0.059,0.267-0.269,0.266
		c-1.348-0.01-2.697,0-4.045-0.01c-0.206-0.002-0.252,0.057-0.251,0.256c0.009,1.402,0.01,2.805,0,4.207
		c-0.002,0.221,0.053,0.289,0.281,0.287c1.33-0.011,2.661,0.002,3.991-0.012c0.245-0.002,0.295,0.07,0.293,0.301
		c-0.011,1.33-0.001,2.661-0.01,3.991c-0.002,0.212,0.056,0.27,0.268,0.269c1.393-0.009,2.787-0.013,4.18,0.002
		c0.254,0.003,0.288-0.082,0.286-0.304c-0.01-1.33,0-2.661-0.01-3.991c-0.002-0.216,0.062-0.268,0.27-0.266
		c1.339,0.009,2.679,0,4.018,0.01c0.204,0.001,0.258-0.054,0.254-0.256C38.596,103.407,38.604,102.706,38.603,102.004z"/>
	<path fill="#2B3D88" d="M73.814,93.178c1.991,4.446,3.961,8.846,5.953,13.295c0.07-0.137,0.118-0.226,0.161-0.318
		c1.874-4.094,3.749-8.187,5.615-12.284c0.105-0.23,0.227-0.307,0.477-0.301c0.836,0.017,1.672,0.007,2.552,0.007
		c-2.931,6.265-5.851,12.507-8.797,18.805c-1.993-4.424-3.967-8.808-5.961-13.235c-1.993,4.419-3.967,8.793-5.971,13.237
		c-2.941-6.292-5.854-12.524-8.789-18.806c0.199,0,0.355,0,0.511,0c0.71,0,1.421,0.007,2.131-0.005
		c0.18-0.003,0.261,0.053,0.336,0.218c1.889,4.136,3.784,8.269,5.679,12.403c0.036,0.078,0.05,0.171,0.156,0.244
		C69.844,102.029,71.817,97.632,73.814,93.178z"/>
	<path fill="#2B3D88" d="M52.577,111.934c-2.307-0.024-4.39-0.675-6.124-2.249c-1.143-1.037-1.886-2.316-2.212-3.833
		c-0.036-0.169-0.004-0.215,0.16-0.243c0.884-0.153,1.766-0.319,2.65-0.477c0.126-0.022,0.255-0.076,0.276,0.154
		c0.148,1.664,1.052,2.836,2.5,3.555c2.055,1.021,4.146,1.083,6.138-0.163c1.464-0.916,2.229-2.284,2.215-4.038
		c-0.009-1.078-0.464-1.959-1.256-2.673c-0.905-0.815-2.001-1.286-3.121-1.711c-1.408-0.534-2.849-0.981-4.22-1.611
		c-1.067-0.49-2.073-1.072-2.893-1.934c-1.631-1.714-1.573-4.341-0.284-6.075c0.967-1.302,2.293-2.08,3.816-2.529
		c2.354-0.694,4.695-0.695,6.984,0.287c1.189,0.511,2.158,1.31,2.941,2.339c0.115,0.151,0.147,0.222-0.066,0.323
		c-0.68,0.324-1.351,0.668-2.017,1.021c-0.158,0.084-0.233,0.08-0.344-0.066c-0.779-1.032-1.796-1.7-3.08-1.911
		c-1.795-0.296-3.483-0.038-4.942,1.119c-0.933,0.74-1.382,1.712-1.122,2.924c0.142,0.662,0.553,1.16,1.065,1.578
		c0.756,0.617,1.636,0.996,2.548,1.312c1.542,0.535,3.12,0.971,4.602,1.671c1.179,0.557,2.277,1.229,3.128,2.243
		c0.992,1.181,1.402,2.563,1.299,4.081c-0.219,3.246-2.131,5.174-5.02,6.293C55.039,111.768,53.82,111.936,52.577,111.934z"/>
	<path fill="#2B3E88" d="M150.03,99.726c0,1.78,0,3.561,0,5.341c0,3.015-1.685,5.461-4.537,6.429
		c-2.489,0.844-4.98,0.782-7.355-0.413c-2.016-1.015-3.153-2.712-3.501-4.94c-0.065-0.419-0.081-0.839-0.081-1.262
		c0.001-3.669,0.004-7.337-0.005-11.006c-0.001-0.252,0.07-0.311,0.311-0.305c0.683,0.016,1.367,0.016,2.05,0
		c0.222-0.005,0.282,0.05,0.281,0.277c-0.008,3.462-0.013,6.924-0.001,10.385c0.003,0.926,0.101,1.846,0.413,2.731
		c0.542,1.539,1.62,2.466,3.208,2.793c1.006,0.207,2.02,0.206,3.024-0.015c1.836-0.405,2.895-1.589,3.322-3.384
		c0.161-0.676,0.225-1.364,0.225-2.057c0-3.48,0.003-6.96-0.006-10.439c-0.001-0.245,0.067-0.296,0.298-0.29
		c0.692,0.016,1.385,0.015,2.077,0c0.219-0.005,0.284,0.044,0.283,0.275C150.026,95.806,150.03,97.766,150.03,99.726z"/>
	<path fill="#2B3D88" d="M100.534,93.193c1.738,0.004,3.182,0.402,4.425,1.406c0.422,0.341,0.781,0.741,1.098,1.181
		c0.093,0.129,0.077,0.178-0.065,0.248c-0.587,0.291-1.17,0.588-1.746,0.9c-0.169,0.092-0.248,0.048-0.345-0.091
		c-1.413-2.033-4.556-1.834-5.993-0.556c-1.059,0.941-1.028,2.262,0.081,3.145c0.563,0.448,1.218,0.719,1.889,0.953
		c1.143,0.398,2.31,0.729,3.412,1.239c0.869,0.403,1.702,0.872,2.342,1.6c1.35,1.535,1.52,3.289,0.8,5.133
		c-0.6,1.536-1.79,2.526-3.302,3.098c-2.348,0.889-4.668,0.843-6.865-0.469c-1.449-0.866-2.358-2.151-2.699-3.822
		c-0.035-0.173,0.012-0.22,0.165-0.246c0.77-0.129,1.54-0.261,2.308-0.4c0.125-0.023,0.173-0.018,0.18,0.128
		c0.067,1.321,0.773,2.231,1.928,2.764c1.672,0.772,3.319,0.743,4.811-0.453c1.077-0.863,1.491-2.358,1.042-3.517
		c-0.267-0.689-0.784-1.148-1.391-1.524c-0.893-0.553-1.889-0.866-2.867-1.219c-1.174-0.423-2.349-0.844-3.389-1.556
		c-0.905-0.619-1.602-1.399-1.796-2.515c-0.292-1.678,0.312-3.017,1.642-4.039c1.024-0.787,2.213-1.166,3.48-1.326
		C100.015,93.212,100.355,93.183,100.534,93.193z"/>
	<path fill="#2B3D88" d="M114.964,93.195c1.947,0.016,3.649,0.614,4.974,2.104c0.143,0.161,0.263,0.342,0.4,0.508
		c0.079,0.096,0.063,0.145-0.047,0.2c-0.617,0.31-1.234,0.621-1.844,0.945c-0.171,0.091-0.219-0.02-0.293-0.119
		c-0.532-0.707-1.212-1.196-2.084-1.386c-1.283-0.279-2.501-0.127-3.612,0.61c-0.509,0.337-0.882,0.788-1.02,1.403
		c-0.156,0.699,0.073,1.276,0.569,1.759c0.56,0.545,1.259,0.851,1.981,1.109c1.106,0.396,2.241,0.712,3.319,1.185
		c0.986,0.432,1.916,0.953,2.643,1.769c1.239,1.391,1.507,3.559,0.649,5.3c-0.802,1.627-2.153,2.598-3.853,3.09
		c-2.143,0.621-4.235,0.501-6.187-0.665c-1.415-0.845-2.331-2.08-2.708-3.698c-0.082-0.353-0.081-0.352,0.271-0.414
		c0.716-0.125,1.432-0.252,2.148-0.38c0.1-0.018,0.187-0.06,0.197,0.109c0.095,1.511,0.97,2.448,2.314,2.947
		c1.54,0.571,3.042,0.476,4.384-0.573c1.061-0.83,1.524-2.278,1.136-3.445c-0.21-0.633-0.636-1.095-1.171-1.469
		c-0.691-0.483-1.467-0.787-2.251-1.076c-1.177-0.435-2.38-0.809-3.492-1.405c-0.848-0.455-1.625-0.999-2.137-1.843
		c-0.87-1.433-0.616-3.384,0.587-4.629c1.018-1.053,2.295-1.572,3.705-1.821C114.01,93.228,114.484,93.183,114.964,93.195z"/>
	<path fill="#2B3D88" d="M158.384,93.196c1.671,0.004,3.189,0.446,4.466,1.573c0.345,0.304,0.647,0.648,0.915,1.023
		c0.073,0.102,0.085,0.154-0.045,0.22c-0.617,0.31-1.231,0.625-1.842,0.948c-0.136,0.072-0.191,0.006-0.257-0.089
		c-1.379-2.016-4.416-1.881-5.904-0.687c-0.411,0.33-0.718,0.73-0.838,1.251c-0.176,0.763,0.099,1.376,0.663,1.877
		c0.582,0.517,1.286,0.809,2.01,1.062c1.303,0.455,2.64,0.82,3.873,1.459c1.021,0.529,1.932,1.186,2.513,2.21
		c1.019,1.796,0.698,4.239-0.754,5.809c-1.054,1.14-2.379,1.769-3.887,2.036c-1.711,0.303-3.369,0.149-4.925-0.667
		c-1.604-0.841-2.664-2.126-3.084-3.909c-0.084-0.357-0.083-0.355,0.274-0.417c0.725-0.126,1.45-0.254,2.174-0.383
		c0.09-0.016,0.161-0.055,0.172,0.099c0.112,1.632,1.085,2.579,2.555,3.043c1.571,0.495,3.079,0.337,4.328-0.831
		c0.955-0.892,1.332-2.013,0.933-3.307c-0.217-0.704-0.743-1.173-1.345-1.559c-0.823-0.529-1.745-0.834-2.656-1.163
		c-1.071-0.387-2.149-0.755-3.143-1.325c-0.653-0.375-1.251-0.817-1.7-1.428c-1.086-1.478-0.906-3.571,0.42-4.936
		c1.012-1.042,2.286-1.553,3.688-1.797C157.449,93.229,157.914,93.182,158.384,93.196z"/>
	<path fill="#2C3E88" d="M132.476,96.278c0,2.635,0.025,5.27-0.01,7.904c-0.018,1.367-0.22,2.719-0.72,4.009
		c-0.892,2.3-2.6,3.463-5.031,3.624c-1.655,0.11-3.235-0.174-4.739-0.884c-0.203-0.096-0.237-0.166-0.111-0.362
		c0.384-0.596,0.753-1.202,1.113-1.813c0.091-0.154,0.152-0.16,0.302-0.077c0.971,0.534,2.035,0.72,3.121,0.685
		c1.293-0.041,2.101-0.817,2.615-1.943c0.4-0.877,0.57-1.811,0.663-2.763c0.077-0.797,0.077-1.597,0.077-2.397
		c0.001-4.676,0.003-9.353-0.006-14.029c-0.001-0.266,0.072-0.327,0.328-0.32c0.719,0.019,1.439,0.016,2.158,0.001
		c0.221-0.005,0.264,0.068,0.263,0.272c-0.006,2.698-0.004,5.396-0.004,8.094C132.488,96.278,132.482,96.278,132.476,96.278z"/>
	<path fill="#2B3D88" d="M169.715,103.642c0-2.562-0.004-5.125,0.007-7.687c0.001-0.256-0.076-0.304-0.312-0.302
		c-1.483,0.01-2.967,0.001-4.45,0.01c-0.21,0.001-0.274-0.052-0.267-0.266c0.016-0.53,0.01-1.061,0.002-1.591
		c-0.002-0.16,0.018-0.234,0.212-0.233c4.091,0.006,8.182,0.006,12.272,0c0.176,0,0.205,0.058,0.203,0.215
		c-0.009,0.548-0.013,1.097,0.002,1.645c0.005,0.203-0.073,0.23-0.249,0.229c-1.483-0.006-2.967,0.004-4.45-0.01
		c-0.266-0.002-0.321,0.075-0.32,0.33c0.008,5.116,0.004,10.232,0.012,15.347c0,0.26-0.061,0.331-0.323,0.323
		c-0.692-0.02-1.385-0.016-2.077-0.002c-0.214,0.004-0.266-0.056-0.265-0.267C169.718,108.802,169.715,106.222,169.715,103.642z"/>
	<path fill="#2A3C87" d="M89.748,102.617c0-2.921,0.002-5.843-0.005-8.764c-0.001-0.217,0.04-0.288,0.273-0.283
		c0.719,0.017,1.438,0.012,2.157,0.002c0.176-0.002,0.223,0.046,0.223,0.222c-0.005,5.87-0.005,11.74,0.001,17.61
		c0,0.214-0.069,0.247-0.26,0.245c-0.71-0.011-1.42-0.013-2.13,0.001c-0.217,0.004-0.264-0.06-0.264-0.268
		C89.751,108.46,89.748,105.538,89.748,102.617z"/>
	<path fill="#FEFEFE" d="M38.604,102.004c0,0.701-0.008,1.402,0.005,2.103c0.004,0.202-0.05,0.257-0.254,0.256
		c-1.339-0.009-2.679,0-4.018-0.01c-0.209-0.001-0.272,0.05-0.27,0.266c0.01,1.33,0,2.661,0.01,3.991
		c0.002,0.222-0.032,0.307-0.286,0.304c-1.393-0.015-2.787-0.012-4.18-0.002c-0.212,0.001-0.27-0.057-0.268-0.269
		c0.01-1.33-0.001-2.661,0.01-3.991c0.002-0.231-0.048-0.304-0.293-0.301c-1.33,0.013-2.661,0.001-3.991,0.012
		c-0.228,0.002-0.283-0.066-0.281-0.287c0.01-1.402,0.009-2.805,0-4.207c-0.001-0.199,0.045-0.257,0.251-0.256
		c1.348,0.01,2.697,0,4.045,0.01c0.21,0.001,0.271-0.052,0.269-0.266c-0.01-1.339,0-2.679-0.01-4.018
		c-0.002-0.216,0.062-0.267,0.271-0.266c1.393,0.009,2.787,0.01,4.18-0.001c0.22-0.002,0.286,0.048,0.284,0.278
		c-0.012,1.339-0.001,2.679-0.01,4.018c-0.001,0.199,0.047,0.257,0.252,0.255c1.321-0.01,2.643,0.002,3.964-0.011
		c0.249-0.002,0.338,0.041,0.329,0.315C38.588,100.62,38.603,101.312,38.604,102.004z"/>
</g>
</svg>
