<?xml version="1.0" encoding="utf-8"?>
<!-- Generator: Adobe Illustrator 19.1.0, SVG Export Plug-In . SVG Version: 6.00 Build 0)  -->
<svg version="1.1" id="Layer_1" xmlns="http://www.w3.org/2000/svg" xmlns:xlink="http://www.w3.org/1999/xlink" x="0px" y="0px"
	 viewBox="0 0 200 200" enable-background="new 0 0 200 200" xml:space="preserve">
<g>
	<polygon fill="#F9CA48" points="29.3,88.287 29.3,91.025 37.463,91.025 37.463,112.169 40.556,112.169 40.556,90.974 
		48.568,90.974 48.568,88.287 	"/>
	<polygon fill="#F9CA48" points="49.836,88.287 49.836,112.169 66.822,112.169 66.822,109.076 53.03,109.076 53.03,101.268 
		65.706,101.268 65.706,98.377 53.03,98.377 53.03,91.025 66.822,91.025 66.822,88.287 	"/>
	<polygon fill="#F9CA48" points="86.267,88.287 86.267,112.169 103.254,112.169 103.254,109.076 89.462,109.076 89.462,101.268 
		102.138,101.268 102.138,98.377 89.462,98.377 89.462,91.025 103.254,91.025 103.254,88.287 	"/>
	<polygon fill="#F9CA48" points="68.951,88.287 68.951,112.169 85.076,112.169 85.076,109.178 72.095,109.178 72.095,88.287 	"/>
	<polygon fill="#231F20" points="104.75,88.287 106.828,112.169 112.355,112.169 125.995,87.983 120.671,87.983 111.544,104.564 
		109.871,88.287 	"/>
	<polygon fill="#231F20" points="129.595,83.774 126.908,86.867 132.08,86.867 134.666,83.774 	"/>
	<path fill="#231F20" d="M131.978,87.983l-4.969,20.586l12.626-20.586h5.476l3.296,24.187h-5.223l-0.761-5.831h-8.975l-3.397,5.831
		h-9.127l5.882-24.187H131.978z M140.852,93.915l-5.223,8.417h6.237L140.852,93.915z"/>
	<path fill="#F9CA48" d="M153.724,82.326c0,0,4.075-1.762,9.999,2.475c6.16,4.405,7.281,12.345,6.915,17.108
		c-0.36,4.686-2.712,12.683-8.815,16.127c3.507-5.927,5.381-15.103,4.185-20.523C165.05,93.169,162.481,83.541,153.724,82.326z"/>
	<path fill="#F9CA48" d="M150.425,86.583c0,0,2.443-1.454,6.092,1.444c3.794,3.013,4.585,8.824,4.432,12.35
		c-0.152,3.468-1.463,9.453-5.111,12.224c2.04-4.503,3.045-11.338,2.244-15.289C157.44,94.146,155.747,87.145,150.425,86.583z"/>
	<path fill="#F9CA48" d="M148.062,89.624c0,0,1.561-0.871,3.454,1.361c1.968,2.321,2.32,6.614,2.18,9.091
		c-0.152,2.693-1.625,6.908-3.606,8.686c1.588-3.021,2.498-8.127,2.369-10.927C152.355,95.59,151.14,90.326,148.062,89.624z"/>
</g>
</svg>
