<?xml version="1.0" encoding="utf-8"?>
<!-- Generator: Adobe Illustrator 19.1.0, SVG Export Plug-In . SVG Version: 6.00 Build 0)  -->
<svg version="1.1" id="Layer_1" xmlns="http://www.w3.org/2000/svg" xmlns:xlink="http://www.w3.org/1999/xlink" x="0px" y="0px"
	 viewBox="0 0 200 200" enable-background="new 0 0 200 200" xml:space="preserve">
<g>
	<polygon fill-rule="evenodd" clip-rule="evenodd" fill="#221F1F" points="116.848,115.408 116.848,113.365 126.38,113.365 
		126.38,110.777 113.443,110.777 113.443,123.646 126.38,123.646 126.38,121.059 116.848,121.059 116.848,117.926 124.95,117.995 
		124.95,115.408 116.848,115.408 	"/>
	<polygon fill-rule="evenodd" clip-rule="evenodd" fill="#221F1F" points="143.403,123.646 137.486,116.785 142.859,110.777 
		138.637,110.777 135.414,114.382 132.305,110.777 128.082,110.777 133.132,116.934 127.13,123.646 131.351,123.646 
		135.152,119.396 138.637,123.646 	"/>
	<polygon fill-rule="evenodd" clip-rule="evenodd" fill="#221F1F" points="79.328,110.777 79.328,123.578 92.198,123.578 
		92.198,121.059 82.801,121.059 82.801,110.777 79.328,110.777 	"/>
	<polygon fill-rule="evenodd" clip-rule="evenodd" fill="#221F1F" points="49.23,110.777 49.23,113.365 54.338,113.365 
		54.338,123.646 57.742,123.646 57.742,113.365 62.849,113.365 62.849,110.777 49.23,110.777 	"/>
	<polygon fill-rule="evenodd" clip-rule="evenodd" fill="#221F1F" points="93.492,110.777 93.492,123.646 96.896,123.646 
		96.896,113.365 101.118,123.646 103.569,123.646 107.927,113.365 107.927,123.646 111.4,123.646 111.4,110.777 105.34,110.777 
		102.343,118.2 99.483,110.777 93.492,110.777 	"/>
	<polygon fill-rule="evenodd" clip-rule="evenodd" fill="#221F1F" points="67.752,115.408 67.752,113.365 77.217,113.365 
		77.217,110.777 64.347,110.777 64.347,123.646 77.217,123.646 77.217,121.059 67.752,121.059 67.752,117.926 75.787,117.995 
		75.787,115.408 67.752,115.408 	"/>
	<path fill-rule="evenodd" clip-rule="evenodd" fill="#0582BD" d="M80.225,84.031l8.84-0.096V94.6h14.893V84.031h8.647
		l10.858,19.409h-8.743l-5.574-8.84l-12.683,8.84l-12.588-8.935l-5.668,8.935h-8.743L80.225,84.031L80.225,84.031z M123.463,83.935
		v-9.032H69.464v9.032h8.743l1.057-2.018h11.819v10.569h10.856V81.916h11.626l1.153,2.018H123.463L123.463,83.935z"/>
	<g>
		<path fill="#221F1F" d="M149.969,124.292c-0.534,0.537-1.18,0.805-1.938,0.805s-1.403-0.268-1.935-0.805
			c-0.529-0.535-0.794-1.182-0.794-1.943c0-0.753,0.267-1.397,0.801-1.931c0.532-0.532,1.174-0.798,1.927-0.798
			c0.758,0,1.404,0.266,1.938,0.798c0.534,0.532,0.801,1.175,0.801,1.931C150.77,123.108,150.503,123.756,149.969,124.292z
			 M146.368,120.686c-0.457,0.46-0.685,1.016-0.685,1.668c0,0.657,0.227,1.216,0.682,1.679c0.457,0.462,1.012,0.694,1.665,0.694
			c0.653,0,1.208-0.232,1.665-0.694c0.457-0.463,0.685-1.022,0.685-1.679c0-0.652-0.229-1.208-0.685-1.668
			c-0.459-0.462-1.014-0.694-1.665-0.694C147.381,119.992,146.828,120.224,146.368,120.686z M147.978,120.84
			c0.373,0,0.647,0.036,0.821,0.108c0.311,0.129,0.466,0.383,0.466,0.761c0,0.269-0.098,0.466-0.293,0.593
			c-0.104,0.067-0.249,0.116-0.434,0.145c0.236,0.037,0.408,0.135,0.517,0.294c0.109,0.159,0.164,0.314,0.164,0.466v0.22
			c0,0.07,0.002,0.144,0.007,0.224c0.005,0.079,0.013,0.131,0.025,0.156l0.018,0.037h-0.492c-0.002-0.01-0.005-0.02-0.007-0.03
			c-0.002-0.01-0.005-0.021-0.007-0.033l-0.011-0.097v-0.238c0-0.347-0.095-0.577-0.285-0.689c-0.113-0.064-0.31-0.097-0.593-0.097
			h-0.42v1.183h-0.528v-3.005H147.978z M148.551,121.315c-0.134-0.075-0.348-0.112-0.643-0.112h-0.454v1.087h0.48
			c0.225,0,0.394-0.022,0.507-0.067c0.207-0.082,0.311-0.238,0.311-0.469C148.752,121.536,148.684,121.389,148.551,121.315z"/>
	</g>
</g>
</svg>
