<?xml version="1.0" encoding="utf-8"?>
<!-- Generator: Adobe Illustrator 19.1.0, SVG Export Plug-In . SVG Version: 6.00 Build 0)  -->
<svg version="1.1" id="Layer_1" xmlns="http://www.w3.org/2000/svg" xmlns:xlink="http://www.w3.org/1999/xlink" x="0px" y="0px"
	 viewBox="0 0 200 200" enable-background="new 0 0 200 200" xml:space="preserve">
<g>
	<path fill-rule="evenodd" clip-rule="evenodd" fill="#6D6E71" d="M117.698,89.574l-4.233-1.197v16.719h0
		c0,2.48,0.813,4.597,3.357,4.789c1.403,0.106,2.514,0.011,3.228-0.096v-3.133c-0.449,0.031-0.996,0.052-1.475,0.022
		c-1.026-0.064-0.877-1.582-0.877-1.582l0,0V89.574L117.698,89.574z M88.664,90.087l4.233-1.197v5.388h3.421v3.335h-3.421v7.312
		c0,0-0.149,1.518,0.877,1.582c1.026,0.064,2.373-0.107,2.373-0.107v3.036c0,0-1.582,0.47-4.126,0.278
		c-2.544-0.193-3.357-2.309-3.357-4.789v-7.312h-2.565v-3.335h2.565V90.087L88.664,90.087z M56.894,92.823h7.184v16.89h4.233v-16.89
		h4.49c0.776,0,1.411-0.635,1.411-1.411v-2.095H57.877L56.894,92.823L56.894,92.823z M78.274,109.906
		c4.96-0.043,7.845-3.58,7.845-7.996s-2.714-8.038-7.845-7.996c-5.131,0.043-7.845,3.58-7.845,7.996S73.314,109.949,78.274,109.906
		L78.274,109.906z M78.274,106.699c2.312-0.026,3.656-1.631,3.656-4.789s-1.265-4.814-3.656-4.789
		c-2.391,0.025-3.656,1.588-3.656,4.789S75.962,106.724,78.274,106.699L78.274,106.699z M110.579,110.078
		c-1.539-0.47-2.33-2.245-2.33-2.245s-1.09,2.117-5.067,2.181c-3.977,0.064-5.003-2.587-5.024-4.875
		c-0.021-2.288,1.881-4.896,5.131-5.174c3.25-0.278,4.725-0.235,4.725-0.235s0,0.171,0-1.069c0-1.24-0.88-1.896-3.283-1.896
		c-2.404,0-4.798,1.725-4.798,1.725l-1.433-2.801c0,0,2.16-1.86,6.799-1.86s6.542,1.946,6.542,4.319s0,5.794,0,7.162
		c0,1.368,1.368,2.138,1.368,2.138L110.579,110.078L110.579,110.078z M107.927,102.167v3.656c0,0-1.497,1.283-3.207,1.39
		c-1.71,0.107-2.694-0.684-2.651-2.437s1.774-2.822,1.774-2.822L107.927,102.167L107.927,102.167z M175.602,95.935h-0.182
		l-0.257-0.602h-0.398v0.602H174.6v-1.392h0.549c0.149,0,0.259,0.041,0.331,0.122c0.072,0.081,0.108,0.17,0.108,0.267
		c0,0.074-0.02,0.145-0.06,0.213c-0.04,0.068-0.107,0.117-0.199,0.146L175.602,95.935L175.602,95.935z M174.764,95.19h0.364
		c0.096,0,0.167-0.025,0.214-0.076c0.047-0.05,0.071-0.113,0.071-0.186c0-0.073-0.025-0.131-0.075-0.171
		c-0.05-0.041-0.113-0.061-0.189-0.061h-0.385V95.19L174.764,95.19z M175.101,93.851c0.383,0,0.73,0.156,0.981,0.406l0.001,0.001
		c0.251,0.251,0.406,0.598,0.406,0.981c0,0.383-0.156,0.73-0.406,0.981l-0.001,0.001c-0.251,0.251-0.598,0.406-0.981,0.406
		c-0.383,0-0.73-0.156-0.981-0.406l-0.001-0.001c-0.251-0.251-0.406-0.598-0.406-0.981c0-0.383,0.156-0.73,0.406-0.981l0.001-0.001
		C174.371,94.007,174.718,93.851,175.101,93.851L175.101,93.851z M175.889,94.451L175.889,94.451
		c-0.202-0.202-0.48-0.326-0.788-0.326c-0.308,0-0.586,0.125-0.788,0.326l-0.001,0.001c-0.201,0.201-0.326,0.48-0.326,0.788
		c0,0.308,0.125,0.586,0.326,0.788l0.001,0.001c0.201,0.201,0.48,0.326,0.788,0.326c0.308,0,0.586-0.125,0.788-0.326l0.001-0.001
		c0.201-0.201,0.326-0.48,0.326-0.788C176.215,94.931,176.09,94.653,175.889,94.451L175.889,94.451z"/>
	<path fill-rule="evenodd" clip-rule="evenodd" fill="#63C6F1" d="M124.283,112.707l-4.233,3.592V94.363h4.233v1.231
		c1.065-1.111,2.512-1.765,4.298-1.765c4.098,0,6.457,2.844,6.414,7.953c-0.043,5.109-2.872,8.167-6.414,8.167
		c-1.653,0-3.161-0.797-4.298-2.105V112.707L124.283,112.707z M127.024,97.036c2.566,0,4.042,1.78,4.015,4.979
		c-0.027,3.198-1.798,5.112-4.015,5.112c-1.06,0-2.023-0.523-2.741-1.377v-7.556C124.954,97.467,125.877,97.036,127.024,97.036
		L127.024,97.036z"/>
	<path fill-rule="evenodd" clip-rule="evenodd" fill="#A6CE39" d="M140.189,89.574l-4.233-1.197v16.719h0
		c0,2.48,0.813,4.597,3.357,4.789c1.403,0.106,2.514,0.011,3.228-0.096v-3.133c-0.449,0.031-0.996,0.052-1.475,0.022
		c-1.026-0.064-0.877-1.582-0.877-1.582l0,0V89.574L140.189,89.574z"/>
	<path fill-rule="evenodd" clip-rule="evenodd" fill="#F58220" d="M155.559,110.078c-1.539-0.47-2.33-2.245-2.33-2.245
		s-1.09,2.117-5.067,2.181c-3.977,0.064-5.003-2.587-5.024-4.875c-0.021-2.288,1.881-4.896,5.131-5.174
		c3.25-0.278,4.725-0.235,4.725-0.235s0,0.171,0-1.069c0-1.24-0.88-1.896-3.283-1.896c-2.404,0-4.798,1.725-4.798,1.725
		l-1.433-2.801c0,0,2.16-1.86,6.799-1.86c4.639,0,6.542,1.946,6.542,4.319s0,5.794,0,7.162c0,1.368,1.368,2.138,1.368,2.138
		L155.559,110.078L155.559,110.078z M152.907,102.167v3.656c0,0-1.497,1.283-3.207,1.39c-1.71,0.107-2.694-0.684-2.651-2.437
		s1.775-2.822,1.775-2.822L152.907,102.167L152.907,102.167z"/>
	<path fill-rule="evenodd" clip-rule="evenodd" fill="#CA1F25" d="M156.994,94.192h4.447l3.583,10.438l3.601-10.438h4.447
		l-7.592,19.094c0,0-1.046,2.649-2.991,3.098s-4.575,0-4.575,0v-3.335c0,0,2.181,0.086,2.865,0.043s1.371-1.668,1.371-1.668
		l0.646-1.718L156.994,94.192L156.994,94.192z"/>
	<g>
		<path fill-rule="evenodd" clip-rule="evenodd" fill="#6F2C91" d="M32.419,100.719c0.401-0.232,0.632-1.099,0.009-1.459
			l-3.829-2.21l-3.82-2.205c-0.401-0.232-1.268,0.002-1.268,0.722l0,4.421l0,4.411c0,0.463,0.636,1.097,1.259,0.737l3.829-2.21
			L32.419,100.719L32.419,100.719z"/>
		<path fill-rule="evenodd" clip-rule="evenodd" fill="#F7A51C" d="M32.419,89.345c0.401-0.232,0.632-1.099,0.009-1.459l-3.829-2.21
			l-3.82-2.205c-0.401-0.232-1.268,0.002-1.268,0.722l0,4.421l0,4.411c0,0.463,0.636,1.097,1.259,0.737l3.829-2.21L32.419,89.345
			L32.419,89.345z"/>
		<path fill-rule="evenodd" clip-rule="evenodd" fill="#E61369" d="M32.419,112.093c0.401-0.232,0.632-1.099,0.009-1.459
			l-3.829-2.21l-3.82-2.205c-0.401-0.232-1.268,0.002-1.268,0.722l0,4.421l0,4.411c0,0.463,0.636,1.097,1.259,0.737l3.829-2.21
			L32.419,112.093L32.419,112.093z"/>
		<path fill-rule="evenodd" clip-rule="evenodd" fill="#B0D235" d="M42.302,106.386c0.401-0.232,0.632-1.099,0.009-1.459
			l-3.829-2.21l-3.82-2.205c-0.401-0.232-1.268,0.002-1.268,0.722v4.421l0,4.411c0,0.463,0.636,1.097,1.259,0.737l3.829-2.21
			L42.302,106.386L42.302,106.386z"/>
		<path fill-rule="evenodd" clip-rule="evenodd" fill="#BF2025" d="M52.999,100.719c0.401-0.232,0.632-1.099,0.009-1.459
			l-3.829-2.21l-3.82-2.205c-0.401-0.232-1.268,0.002-1.268,0.722v4.421l0,4.411c0,0.463,0.636,1.097,1.259,0.737l3.829-2.21
			L52.999,100.719L52.999,100.719z"/>
		<path fill-rule="evenodd" clip-rule="evenodd" fill="#2EC1EA" d="M42.302,94.883c0.401-0.232,0.632-1.099,0.009-1.459l-3.829-2.21
			l-3.82-2.205c-0.401-0.232-1.268,0.002-1.268,0.722v4.421l0,4.411c0,0.463,0.636,1.097,1.259,0.737l3.829-2.21L42.302,94.883
			L42.302,94.883z"/>
	</g>
</g>
</svg>
