<?xml version="1.0" encoding="utf-8"?>
<!-- Generator: Adobe Illustrator 19.1.0, SVG Export Plug-In . SVG Version: 6.00 Build 0)  -->
<svg version="1.1" id="Layer_1" xmlns="http://www.w3.org/2000/svg" xmlns:xlink="http://www.w3.org/1999/xlink" x="0px" y="0px"
	 viewBox="0 0 200 200" enable-background="new 0 0 200 200" xml:space="preserve">
<g>
	<polygon fill-rule="evenodd" clip-rule="evenodd" fill="#EB008B" points="55.258,104.963 58.972,104.963 58.929,116.887 
		63.077,116.887 63.142,104.963 67.464,104.963 67.464,100.532 55.258,100.532 55.258,104.963 	"/>
	<path fill-rule="evenodd" clip-rule="evenodd" fill="#EB008B" d="M67.986,105.006l3.692-0.022l-0.043,6.951
		c0.108,0.174,0.021,0.651,0.195,0.804c0.825,0.673,1.347,0.63,1.868,0.586c1.173-0.065,1.498-0.5,2.085-1.499v-6.841h3.627v11.902
		h-3.627v-0.847c-1.13,0.456-0.934,0.434-2.151,0.673c-0.347,0.065-1.607,0.109-1.911,0.087c-0.304-0.021-0.695-0.152-1.021-0.217
		c-1.629-0.347-2.715-1.108-2.715-2.498V105.006L67.986,105.006z"/>
	<path fill-rule="evenodd" clip-rule="evenodd" fill="#EB008B" d="M121.524,104.963l0.022,11.902h3.41l0.065-6.603
		c0-0.89,0.478-1.368,0.891-1.737c0.716-0.586,1.064-0.586,2.063-0.5l1.151,0.109v-3.171l-0.977-0.065
		c-0.804,0.087-1.759-0.087-2.411,0.369c-0.218,0.152-0.543,0.369-0.738,0.499l-0.044-0.803H121.524L121.524,104.963z"/>
	<path fill-rule="evenodd" clip-rule="evenodd" fill="#EB008B" d="M165.332,105.006v11.924h3.432v-6.82
		c0-0.912,0.478-1.39,0.912-1.738c0.695-0.586,1.064-0.586,2.063-0.499l1.151,0.087v-2.954l-0.999-0.261
		c-0.782,0.086-1.868,0.13-2.52,0.586c-0.217,0.13-0.413,0.5-0.608,0.63v-0.956H165.332L165.332,105.006z"/>
	<polygon fill-rule="evenodd" clip-rule="evenodd" fill="#EB008B" points="130.429,104.963 134.273,116.887 137.727,116.887 
		139.703,108.916 141.94,116.887 145.394,116.887 149.107,104.963 145.22,104.963 143.243,111.196 141.419,104.963 138.074,104.963 
		136.054,111.5 134.23,104.963 130.429,104.963 	"/>
	<path fill-rule="evenodd" clip-rule="evenodd" fill="#EB008B" d="M161.466,106.895c-0.304-0.478-0.543-1.02-1.26-1.433
		c-0.717-0.412-1.585-0.804-2.454-0.825l-1.564-0.043c-0.586-0.022-2.107,0.152-2.519,0.282c-0.413,0.13-0.521,0.13-0.739,0.239
		c-0.239,0.109-0.413,0.282-0.608,0.434c-0.673,0.478-0.912,1.672-1.064,2.367l0.043,0.738h3.171l0.217-0.586
		c0.391-1.129,3.497-1.434,3.302-0.196l-0.109,0.673c-0.152,0.978-0.89,0.956-1.846,1.086l-1.976,0.413l-0.825,0.326
		c-1.629,0.717-2.52,1.108-2.607,2.846l-0.044,1.042c-0.065,1.368,1.521,2.237,3.041,2.367c0.434,0.022,0.912,0.109,1.325,0.044
		l1.455-0.26c0.217-0.044,1.933-0.934,1.868-0.673l0.066,1.151h3.583l0.022-8.536C161.944,108.003,161.639,107.2,161.466,106.895z
		 M157.969,113.694c-0.13,0.369-0.456,0.543-0.673,0.738c-0.608,0.456-1.738,0.413-2.389,0.087
		c-0.347-0.152-0.673-0.478-0.782-0.825c-0.13-0.326-0.021-0.695,0.152-1.086c0.174-0.391,1.477-0.413,2.042-0.391
		c0.587,0.022,1.281-0.196,1.694-0.391c0.043,0.239,0.065,0.109,0.065,0.456C158.077,112.651,158.099,113.325,157.969,113.694z"/>
	<path fill-rule="evenodd" clip-rule="evenodd" fill="#EB008B" d="M120.155,111.935l0.022-0.847
		c-0.109-1.064-0.217-2.063-0.587-2.911c-0.564-1.26-1.585-2.237-2.584-2.737c-0.586-0.304-2.259-0.63-3.019-0.564
		c-2.91,0.174-4.865,0.912-5.734,4.235c-0.543,2.107,0.131,4.778,2.194,6.625c0.803,0.586,1.542,0.782,2.128,0.912
		c0.478,0.087,0.825,0.152,1.325,0.196c1.651,0.087,2.085-0.108,2.889-0.369c0.717-0.239,1.129-0.478,1.499-0.76
		c0.434-0.326,0.804-0.738,1.216-1.455l0.521-1.412h-3.844c-0.478,0.847-1.173,1.477-1.977,1.434c-0.13,0-0.326-0.022-0.5-0.065
		c-0.282-0.087-0.608-0.261-0.76-0.391c-0.152-0.152-0.174-0.152-0.282-0.304c-0.087-0.131-0.239-0.369-0.282-0.521
		c-0.109-0.369-0.109-0.695-0.087-1.064H120.155z M112.206,109.35c0-0.435,0.196-0.825,0.435-1.151
		c0.326-0.434,0.826-0.717,1.607-0.717c0.934,0,1.477,0.239,1.803,0.717c0.195,0.282,0.326,0.63,0.369,1.151H112.206z"/>
	<path fill-rule="evenodd" clip-rule="evenodd" fill="#EB008B" d="M185.422,111.935l0.022-0.825
		c-0.108-1.064-0.217-2.063-0.586-2.932c-0.565-1.238-1.607-2.215-2.585-2.737c-0.587-0.304-2.259-0.608-3.041-0.564
		c-2.889,0.195-4.844,0.912-5.712,4.257c-0.543,2.107,0.13,4.778,2.194,6.603c0.804,0.586,1.542,0.782,2.128,0.912
		c0.478,0.109,0.804,0.174,1.325,0.196c1.651,0.108,2.085-0.108,2.889-0.369c0.717-0.239,1.108-0.456,1.499-0.738
		c0.434-0.326,0.804-0.738,1.216-1.455l0.521-1.412h-3.844c-0.478,0.847-1.173,1.455-1.976,1.412c-0.153,0-0.326-0.022-0.5-0.065
		c-0.304-0.065-0.608-0.239-0.76-0.391c-0.152-0.13-0.173-0.152-0.282-0.282c-0.108-0.152-0.239-0.391-0.282-0.522
		c-0.109-0.391-0.109-0.695-0.087-1.086H185.422z M177.473,109.35c0-0.435,0.195-0.804,0.434-1.129
		c0.326-0.456,0.803-0.738,1.585-0.738c0.956,0,1.499,0.239,1.825,0.717c0.195,0.282,0.326,0.63,0.369,1.151H177.473z"/>
	<path fill-rule="evenodd" clip-rule="evenodd" fill="#EB008B" d="M97.893,106.049v-1.064h-3.366v15.03h3.366v-4.496
		c0.565,0.261,1.564,0.869,2.15,0.977c1.846,0.391,2.997,0.456,4.257-0.521c0.717-0.543,0.978-0.847,1.347-1.651
		C108.775,107.525,103.236,102.639,97.893,106.049z M100.608,113.998c-1.303,0-2.368-1.455-2.368-3.258
		c0-1.781,1.064-3.236,2.368-3.236c1.303,0,2.563,1.347,2.563,3.128C103.171,112.434,101.911,113.998,100.608,113.998z"/>
	<path fill-rule="evenodd" clip-rule="evenodd" fill="#EB008B" d="M84.579,106.049v-1.086h-3.475l-0.021,14.986h3.431v-4.431
		c0.565,0.261,1.52,0.869,2.107,0.977c1.824,0.391,2.997,0.456,4.257-0.521c0.738-0.543,0.999-0.847,1.368-1.651
		C95.352,107.525,89.944,102.639,84.579,106.049z M87.185,113.998c-1.303,0-2.367-1.455-2.367-3.258
		c0-1.781,1.064-3.236,2.367-3.236c1.282,0,2.65,1.455,2.65,3.236C89.836,112.543,88.467,113.998,87.185,113.998z"/>
	<path fill-rule="evenodd" clip-rule="evenodd" fill="#EB008B" d="M41.51,85.133l-4.387,7.688c-0.022,0-0.13,0.021-0.174,0
		c-0.022-0.022-0.044-0.044-0.087-0.044c-0.022-0.021-0.043-0.043-0.087-0.043c-0.022-0.022-0.066-0.044-0.087-0.044
		c-0.022-0.022-0.065-0.022-0.087-0.043c-0.022-0.022-0.043-0.022-0.065-0.022c0-0.087,0-0.152-0.022-0.239c0-0.022,0-0.065,0-0.109
		c0-0.022-0.022-0.065-0.022-0.109c-0.022-0.131-0.066-0.282-0.109-0.413c-0.043-0.13,0-0.13-0.065-0.26l0.695-2.607
		c0.13-0.022,0.478,0.043,0.586,0.022c0.108-0.022,0.217-0.043,0.326-0.066c1.13-0.304,1.955-1.303,1.976-2.498
		c0.022-1.411-1.172-2.585-2.628-2.606c-1.433,0-2.628,1.173-2.628,2.585c0,0.152,0,0.304,0.022,0.456
		c0.022,0.131,0.066,0.283,0.109,0.413c0.043,0.13,0.108,0.26,0.174,0.391c0.065,0.109,0.13,0.239,0.217,0.348
		c0.087,0.109,0.195,0.217,0.282,0.304c0.109,0.109,0.217,0.195,0.348,0.261c0.109,0.087,0.239,0.152,0.369,0.217l-0.521,1.889
		c-0.109-0.065-0.478-0.304-0.586-0.369c-0.13-0.065-0.261-0.109-0.391-0.152c-0.26-0.065-0.391-0.13-0.63-0.109l-0.022-6.907
		c0.087,0,0.239-0.022,0.347-0.043c0.065-0.022,0.13-0.065,0.196-0.087c0.999-0.369,1.716-1.346,1.738-2.498
		c0-0.087,0-0.174-0.022-0.261c-0.13-0.022-0.261-0.043-0.391-0.065c-0.022,0-0.022,0-0.044,0c-0.022,0-0.022,0-0.043,0
		c-0.108-0.022-0.217-0.022-0.326-0.044c-0.087,0-0.174,0-0.26-0.022c-0.065,0-0.108,0-0.174,0
		c-0.131-0.022-0.239-0.022-0.347-0.022c-0.043-0.022-0.065-0.022-0.109-0.022c-0.152,0-0.282,0-0.434,0
		c0-0.021-0.022-0.021-0.022-0.021c-0.174,0-0.326,0-0.478,0c-0.174,0-0.326,0-0.478,0c-0.022,0-0.022,0-0.043,0
		c-0.13,0.021-0.283,0.021-0.434,0.021c-0.022,0-0.065,0-0.087,0c-0.13,0.022-0.239,0.022-0.369,0.044c-0.044,0-0.109,0-0.152,0
		c-0.108,0-0.195,0.022-0.282,0.022c-0.087,0.022-0.174,0.022-0.26,0.022c-0.066,0.022-0.131,0.022-0.196,0.043
		c-0.087,0-0.196,0.021-0.282,0.021c0,0.087-0.022,0.195-0.022,0.282c0,0.065,0,0.13,0.022,0.196c0,0.065,0,0.13,0.022,0.195
		c0,0.065,0.022,0.109,0.022,0.174c0.022,0.065,0.043,0.13,0.043,0.195c0.022,0.044,0.044,0.109,0.066,0.174
		c0.021,0.065,0.044,0.108,0.065,0.174c0.022,0.044,0.065,0.108,0.087,0.152c0.021,0.065,0.065,0.109,0.087,0.174
		c0.043,0.043,0.065,0.109,0.108,0.152c0.044,0.044,0.087,0.087,0.109,0.13c0.043,0.066,0.087,0.109,0.13,0.152
		c0.043,0.044,0.087,0.087,0.13,0.109c0.044,0.043,0.087,0.087,0.13,0.131c0.065,0.043,0.109,0.065,0.152,0.108
		c0.065,0.022,0.109,0.065,0.152,0.087c0.065,0.043,0.109,0.065,0.174,0.087c0.347,0.174,0.391,0.239,0.803,0.239l-0.022,6.972
		c-0.043,0.021-0.043,0.021-0.087,0.043c-0.456,0.131-0.89,0.369-1.216,0.695c-0.087,0.065,0,0.043-0.065,0.13l-0.717-2.15
		c1.086-0.391,1.607-1.26,1.607-2.433c0-1.455-1.194-2.628-2.65-2.628c-1.477,0-2.672,1.173-2.672,2.606
		c-0.021,1.455,1.108,2.563,2.65,2.65c0.044,0,0.087,0,0.131,0c0.065,0,0.108,0,0.152,0l-0.022-0.065l0.956,2.671
		c-0.065,0.109-0.043,0.217-0.065,0.326c-0.043,0.109-0.065,0.239-0.087,0.348c-0.021,0.109-0.021,0.174-0.021,0.304
		c0-0.022-0.022,0,0-0.022c-0.087,0.044-0.174,0.087-0.261,0.109c-0.087,0.043-0.174,0.087-0.26,0.131
		c-0.109,0.065-0.109,0.086-0.109,0.086c-0.456-0.912-4.648-7.515-4.648-7.71c0-0.043,0.282-0.152,0.326-0.195
		c0.021-0.022,0.065-0.044,0.108-0.087c0.956-0.782,1.238-2.15,0.586-3.279c-0.044-0.087-0.087-0.152-0.13-0.24
		c-0.13,0.066-0.26,0.109-0.413,0.152l-0.022,0.022c-0.022,0-0.043,0-0.043,0.022c-0.109,0.044-0.217,0.087-0.326,0.13
		c-0.087,0.022-0.152,0.065-0.239,0.087c-0.066,0.021-0.109,0.065-0.174,0.086c-0.109,0.043-0.217,0.087-0.326,0.152
		c-0.043,0-0.065,0.022-0.109,0.044c-0.13,0.044-0.26,0.108-0.391,0.174c-0.022,0.022-0.022,0.022-0.043,0.022
		c-0.13,0.086-0.282,0.152-0.434,0.238c-0.152,0.066-0.283,0.152-0.434,0.218c-0.022,0.022-0.022,0.022-0.022,0.022
		c-0.13,0.065-0.261,0.152-0.391,0.217c-0.043,0.021-0.065,0.043-0.086,0.065c-0.109,0.065-0.218,0.13-0.326,0.196
		c-0.043,0.021-0.087,0.043-0.13,0.086c-0.087,0.044-0.174,0.109-0.261,0.152c-0.065,0.044-0.131,0.087-0.217,0.152
		c-0.043,0.021-0.108,0.065-0.173,0.109c-0.065,0.065-0.152,0.108-0.239,0.174c0.044,0.087,0.087,0.152,0.13,0.239
		c0.652,1.129,1.846,1.52,2.976,1.282l4.778,7.84c-0.044,0.043-0.261,0.152-0.304,0.196c-0.087-0.066-0.13-0.087-0.239-0.131
		c-0.108-0.043-0.217-0.065-0.326-0.109c-0.087-0.022-0.195-0.043-0.304-0.065c-0.173-0.022-0.195-0.044-0.369-0.044l-1.911-1.781
		c0.043-0.065,0.065-0.087,0.087-0.152c0.087-0.109,0.13-0.217,0.174-0.348c0.043-0.13,0.087-0.26,0.108-0.391
		c0.022-0.13,0.043-0.261,0.043-0.391c0.022-0.13,0-0.26,0-0.391c-0.022-0.131-0.043-0.282-0.065-0.413
		c-0.043-0.13-0.087-0.26-0.13-0.391c-0.065-0.109-0.13-0.239-0.195-0.369c-0.782-1.238-2.411-1.629-3.649-0.869
		c-1.216,0.782-1.52,2.324-0.76,3.562c0.782,1.238,2.367,1.715,3.583,0.956c0.065-0.044,0.217-0.174,0.282-0.217l1.455,1.368
		l-0.065,0.021c-0.065,0.022-0.13,0.065-0.195,0.087c-0.065,0.043-0.13,0.066-0.195,0.109c-0.152,0.109-0.304,0.217-0.434,0.347
		c-0.043,0.044-0.087,0.087-0.13,0.152c-0.043,0.044-0.087,0.109-0.13,0.152c-0.043,0.065-0.087,0.109-0.087,0.152l-5.995-3.215
		c0.065-0.109-0.022-0.109,0.022-0.239c0.043-0.174,0.065-0.348,0.065-0.521c0.022-0.174,0-0.347-0.022-0.521
		c-0.021-0.174-0.065-0.347-0.13-0.521c-0.065-0.174-0.13-0.348-0.239-0.5c-0.326-0.543-0.803-0.912-1.347-1.108
		c-1.02,1.433-1.824,2.975-2.433,4.604c0.869,0.63,2.042,0.738,2.976,0.152c0.152-0.109,0.282-0.196,0.391-0.326
		c0.087-0.086,0.174-0.174,0.26-0.26c0.065-0.109,0.087-0.131,0.152-0.239l6.038,3.28c-0.043,0.065-0.065,0.13-0.087,0.195
		c-0.021,0.065-0.021,0.13-0.043,0.195c0,0.065-0.022,0.13-0.022,0.195c0,0.087-0.022,0.152-0.022,0.218c0,0.065,0,0.13,0.022,0.195
		c0,0.087,0,0.152,0,0.217c0.022,0.065,0.022,0.13,0.043,0.195c0.021,0.087,0.043,0.152,0.065,0.239l-2.063-0.369
		c0-0.109,0-0.195,0-0.283c0-0.109,0-0.195-0.021-0.282c0-0.086-0.022-0.195-0.044-0.282c-0.021-0.087-0.043-0.196-0.087-0.282
		c-0.022-0.087-0.065-0.174-0.108-0.261c-0.044-0.087-0.087-0.174-0.13-0.261c-0.782-1.238-2.411-1.629-3.649-0.869
		c-1.216,0.76-1.585,2.411-0.803,3.649c0.76,1.238,2.411,1.629,3.627,0.868c0.195-0.13,0.369-0.26,0.521-0.412
		c0.13-0.152,0.391-0.652,0.5-0.826l2.824,0.543c0.108,0.087,0.26,0.304,0.413,0.391c-0.022,0.066-0.022,0.13-0.043,0.196
		c0,0.065-0.022,0.131-0.022,0.196c0,0.065-0.021,0.13-0.021,0.195c0,0.065,0,0.304,0,0.369l-9.079-0.022
		c0-0.369-0.065-0.304-0.195-0.608c-0.065-0.131-0.109-0.239-0.174-0.348c-0.065-0.108-0.152-0.217-0.239-0.304
		c-0.065-0.109-0.152-0.196-0.261-0.282c-0.087-0.087-0.195-0.152-0.304-0.239c-0.087-0.065-0.217-0.131-0.326-0.195
		c-0.109-0.044-0.239-0.087-0.369-0.131c-0.108-0.043-0.239-0.065-0.369-0.087c-0.13-0.022-0.282-0.043-0.412-0.043
		c-0.087,0-0.174,0.022-0.26,0.022c-0.022,0.087-0.044,0.195-0.044,0.282c-0.022,0.065-0.022,0.13-0.022,0.196
		c-0.021,0.087-0.021,0.174-0.043,0.26c0,0.087,0,0.174-0.022,0.283c0,0.043,0,0.108,0,0.152c-0.022,0.13-0.022,0.238-0.043,0.369
		c0,0.021,0,0.065,0,0.087c0,0.152,0,0.282-0.022,0.434c0,0.022,0,0.022,0,0.043c0,0.152,0,0.304,0,0.478c0,0.152,0,0.304,0,0.478
		v0.022c0,0.152,0.022,0.282,0.022,0.434c0,0.021,0,0.065,0,0.108c0,0.109,0.021,0.217,0.021,0.347c0,0.066,0,0.109,0.022,0.174
		c0,0.087,0,0.174,0.022,0.261c0,0.108,0.022,0.217,0.022,0.326c0,0.021,0,0.021,0,0.043c0.021,0,0.021,0.022,0.021,0.044
		c0,0.13,0.022,0.26,0.044,0.391c0.087,0.021,0.174,0.021,0.26,0.021c0.543,0,1.064-0.152,1.499-0.434
		c0.087-0.065,0.174-0.13,0.239-0.196c0.087-0.065,0.174-0.152,0.239-0.217c0.065-0.087,0.13-0.174,0.195-0.261
		c0.065-0.065,0.13-0.174,0.173-0.26c0.065-0.087,0.109-0.196,0.153-0.282c0.021-0.109,0.065-0.196,0.086-0.304
		c0.043-0.109,0.065-0.217,0.043-0.369l9.122,0.043c0,0.131,0.021,0.347,0.021,0.478c-0.391,0.152-0.391,0.108-0.63,0.412
		c-0.108,0.152-0.152,0.239-0.239,0.391l-2.519,0.651c-0.022-0.043-0.044-0.087-0.066-0.13c-0.065-0.13-0.152-0.239-0.217-0.347
		c-0.087-0.109-0.173-0.195-0.282-0.283c-0.087-0.108-0.196-0.174-0.304-0.26c-0.108-0.066-0.217-0.152-0.326-0.196
		c-0.13-0.065-0.26-0.13-0.391-0.174c-0.131-0.022-0.261-0.065-0.391-0.086c-0.13-0.022-0.282-0.044-0.412-0.044
		c-1.477,0-2.672,1.173-2.693,2.628c0,1.434,1.151,2.52,2.607,2.541c1.477,0,2.715-1.086,2.737-2.52
		c0-0.087-0.043-0.282-0.043-0.347l1.933-0.521l-0.022,0.087c0,0.065-0.022,0.13-0.022,0.195c0,0.087-0.022,0.152-0.022,0.217
		c0,0.195,0.022,0.369,0.065,0.564c0.021,0.065,0.043,0.13,0.065,0.195c0,0.065,0.043,0.13,0.065,0.196
		c0.022,0.065,0.087,0.195,0.109,0.238l-5.843,3.367c-0.065-0.108-0.217-0.152-0.304-0.238c-0.109-0.13-0.261-0.239-0.391-0.348
		c-0.152-0.108-0.304-0.195-0.456-0.261c-0.174-0.065-0.347-0.131-0.521-0.174c-0.174-0.043-0.369-0.065-0.543-0.065
		c-0.63,0-1.216,0.217-1.672,0.565c0.673,1.629,1.564,3.128,2.628,4.496c0.977-0.369,1.672-1.325,1.694-2.432
		c0-0.174-0.022-0.326-0.066-0.499c-0.021-0.109-0.043-0.239-0.086-0.348c-0.043-0.13,0.065,0.087,0.021-0.022l5.973-3.453
		c0.022,0.065-0.043-0.022,0,0.022c0.043,0.065,0.087,0.109,0.152,0.152c0.043,0.043,0.108,0.087,0.152,0.131
		c0.066,0.043,0.109,0.086,0.174,0.108c0.066,0.044,0.109,0.087,0.174,0.108c0.065,0.044,0.13,0.066,0.196,0.109
		c0.043,0.021,0.108,0.043,0.174,0.065c0.087,0.022,0.152,0.044,0.239,0.066l-1.412,1.564c-0.087-0.065-0.152-0.108-0.239-0.174
		c-0.087-0.044-0.173-0.087-0.261-0.13c-0.065-0.044-0.173-0.065-0.26-0.109c-0.087-0.022-0.174-0.044-0.26-0.065
		c-0.109-0.022-0.196-0.044-0.304-0.044c-0.087-0.021-0.195-0.021-0.282-0.021c-1.477,0-2.671,1.173-2.671,2.606
		c-0.022,1.455,1.173,2.628,2.65,2.628c1.455,0.021,2.672-1.151,2.672-2.607c0-0.217-0.021-0.434-0.087-0.651
		c-0.043-0.196-0.326-0.673-0.412-0.869l1.955-2.107c0.13-0.022,0.608-0.13,0.76-0.195c-0.022,0-0.022,0-0.044,0.022
		c0.065,0.065,0.152,0.13,0.239,0.174c0.065,0.065,0.326,0.217,0.456,0.261c-1.434,2.563-3.041,5.148-4.539,7.776
		c-0.13-0.043-0.195-0.087-0.347-0.109c-0.13-0.043-0.26-0.065-0.412-0.065c-0.131-0.022-0.261,0-0.413,0
		c-0.13,0.021-0.261,0.043-0.413,0.065c-0.152,0.044-0.326,0.109-0.478,0.195c-0.174,0.065-0.326,0.152-0.456,0.26
		c-0.152,0.109-0.282,0.239-0.391,0.369c-0.13,0.13-0.239,0.282-0.326,0.456c-0.043,0.066-0.087,0.152-0.13,0.239
		c0.087,0.065,0.152,0.108,0.239,0.174c0.044,0.043,0.109,0.087,0.152,0.109c0.065,0.065,0.13,0.108,0.217,0.152
		c0.065,0.065,0.152,0.108,0.217,0.174c0.044,0.022,0.087,0.043,0.13,0.087c0.109,0.066,0.217,0.13,0.326,0.195
		c0.022,0.022,0.044,0.044,0.066,0.044c0.13,0.086,0.239,0.174,0.369,0.238l0.021,0.022c0.13,0.087,0.282,0.152,0.413,0.239
		c0.152,0.087,0.282,0.152,0.412,0.239c0.022,0,0.022,0,0.044,0c0.13,0.065,0.26,0.152,0.369,0.217c0.043,0,0.065,0.021,0.087,0.043
		c0.108,0.043,0.217,0.087,0.326,0.152c0.065,0.021,0.108,0.043,0.174,0.065c0.065,0.044,0.152,0.087,0.217,0.108
		c0.108,0.043,0.195,0.087,0.304,0.13c0.022,0.022,0.022,0.022,0.044,0.022c0.022,0,0.022,0.021,0.043,0.021
		c0.13,0.044,0.239,0.109,0.37,0.152c0.043-0.065,0.108-0.152,0.152-0.217c0.369-0.673,0.434-1.455,0.217-2.151
		c-0.044-0.152-0.109-0.282-0.174-0.434c-0.087-0.13-0.174-0.282-0.261-0.391c-0.108-0.131-0.369-0.369-0.499-0.478l4.474-7.71
		c0.217,0.108,0.391,0.195,0.586,0.282c-0.022,0.152,0.152,0.825,0.239,0.977l-0.847,2.758c-0.196,0-0.76,0.021-0.956,0.065
		c-0.196,0.066-0.413,0.152-0.587,0.261c-1.259,0.739-1.65,2.368-0.912,3.627c0.76,1.26,2.367,1.694,3.627,0.956
		c1.238-0.739,1.651-2.368,0.891-3.627c-0.044-0.087-0.109-0.174-0.174-0.239c-0.043-0.087-0.108-0.152-0.174-0.239
		c-0.065-0.065-0.13-0.13-0.217-0.195c-0.065-0.065-0.131-0.109-0.217-0.174c-0.087-0.044-0.152-0.087-0.239-0.152
		c-0.087-0.044-0.174-0.066-0.26-0.109l0.63-1.998c0.065,0.065,0.109,0.108,0.152,0.152c0.065,0.043,0.131,0.087,0.174,0.13
		c0.065,0.043,0.109,0.065,0.174,0.108c0.065,0.043,0.13,0.065,0.195,0.087c0.044,0.043,0.109,0.065,0.174,0.087
		c0.065,0.043,0.13,0.065,0.195,0.087c0.065,0,0.13,0.021,0.195,0.043c0.065,0.021,0.109,0.021,0.174,0v6.906
		c-0.13,0,0.022-0.021-0.087,0c-0.13,0.044-0.239,0.065-0.369,0.109c-0.152,0.043-0.304,0.13-0.456,0.217
		c-0.956,0.565-1.412,1.651-1.238,2.694c1.716,0.217,3.475,0.217,5.213-0.043c0.065-0.565-0.043-1.173-0.348-1.716
		c-0.108-0.152-0.217-0.304-0.347-0.434c-0.13-0.13-0.261-0.239-0.413-0.347c-0.13-0.108-0.304-0.195-0.456-0.26
		c-0.152-0.087-0.326-0.13-0.499-0.174c-0.108-0.044-0.174-0.065-0.304-0.065l-0.021-6.82c0.043,0,0.108-0.022,0.173-0.022
		c0.066-0.022,0.13-0.022,0.195-0.043c0.087-0.022,0.152-0.043,0.217-0.065c0.174-0.043,0.326-0.13,0.499-0.217
		c0.065-0.043,0.109-0.086,0.174-0.108c0.065-0.044,0.109-0.087,0.195-0.174l0.565,1.911c-0.065,0.044-0.239,0.087-0.304,0.13
		c-1.26,0.739-1.542,2.368-0.804,3.627c0.76,1.26,2.259,1.694,3.519,0.956c1.238-0.738,1.651-2.367,0.891-3.627
		c-0.065-0.13-0.152-0.238-0.239-0.348c-0.087-0.109-0.195-0.195-0.282-0.282c-0.108-0.108-0.217-0.174-0.326-0.26
		c-0.108-0.065-0.239-0.13-0.347-0.174c-0.13-0.065-0.261-0.108-0.391-0.152c-0.109-0.022-0.239-0.065-0.369-0.065
		c-0.13-0.021-0.282-0.043-0.412-0.021c-0.065,0-0.087,0-0.152,0.021l-0.717-2.519c0.087-0.152,0.065-0.174,0.13-0.348
		c0.065-0.174,0.109-0.347,0.13-0.543c0-0.065,0-0.13,0-0.196c0-0.044,0-0.109,0-0.152c0.043,0.022,0.065,0,0.087-0.022
		c0.066-0.022,0.109-0.044,0.152-0.065c0.066-0.022,0.109-0.043,0.152-0.065c0.065-0.022,0.109-0.044,0.152-0.066
		c0.065-0.043,4.279,7.255,4.605,7.863c-0.022,0.022-0.022,0-0.043,0.022c-0.022,0.043-0.066,0.065-0.109,0.087
		c-0.043,0.022-0.065,0.066-0.108,0.087c-0.043,0.043-0.065,0.065-0.108,0.108c-0.022,0.022-0.065,0.065-0.109,0.087
		c-0.022,0.043-0.043,0.065-0.087,0.108c-0.391,0.456-0.608,1.042-0.608,1.672c0,0.543,0.152,1.043,0.434,1.455
		c1.672-0.652,3.215-1.542,4.605-2.606c-0.434-0.869-1.325-1.455-2.368-1.477c-0.108,0-0.217,0.022-0.304,0.022
		c-0.109,0.021-0.196,0.021-0.304,0.043c-0.087,0.022-0.087,0.022-0.174,0.065c-0.326-0.565-4.648-7.884-4.626-7.906
		c0.022,0-0.022-0.022,0.043-0.065c0.043-0.022,0.087-0.044,0.131-0.087c0.043-0.021,0.087-0.065,0.13-0.087
		c0.043-0.044,0.108-0.065,0.152-0.108c0.043-0.043,0.087-0.065,0.13-0.109c0,0,0,0,0.022,0c0.152,0.087,0.652,0.195,0.804,0.217
		l1.933,2.15c-0.087,0.174-0.369,0.652-0.413,0.847c-0.065,0.218-0.087,0.435-0.087,0.652c-0.022,1.455,1.173,2.628,2.65,2.628
		c1.455,0.021,2.672-1.151,2.672-2.607c0-1.455-1.195-2.628-2.65-2.628c-0.108,0-0.217,0-0.304,0
		c-0.108,0.022-0.195,0.043-0.282,0.065c-0.108,0-0.195,0.043-0.282,0.065c-0.087,0.022-0.174,0.065-0.261,0.108
		c-0.087,0.044-0.174,0.087-0.261,0.13c-0.065,0.044-0.152,0.087-0.239,0.174l-1.39-1.585c0.087-0.022,0.152-0.044,0.217-0.065
		c0.065-0.022,0.13-0.043,0.196-0.065c0.065-0.043,0.13-0.066,0.195-0.109c0.065-0.021,0.109-0.065,0.173-0.087
		c0.066-0.044,0.109-0.087,0.174-0.13c0.044-0.044,0.108-0.087,0.152-0.13c0.043-0.044,0.109-0.087,0.152-0.131
		c0.044-0.065,0.087-0.109,0.109-0.174l5.973,3.41c-0.065,0.109-0.065,0.13-0.108,0.239c-0.044,0.108-0.087,0.238-0.108,0.369
		c-0.022,0.152-0.043,0.326-0.043,0.499c0,1.108,0.695,2.042,1.672,2.433c1.064-1.347,1.976-2.867,2.65-4.474
		c-0.456-0.369-1.021-0.586-1.651-0.586c-0.195,0-0.369,0.022-0.565,0.065c-0.174,0.044-0.347,0.109-0.499,0.174
		c-0.174,0.065-0.326,0.152-0.478,0.261c-0.13,0.086-0.261,0.217-0.391,0.326c-0.087,0.108-0.13,0.043-0.195,0.13l-5.886-3.367
		c0.022-0.044,0.043-0.108,0.087-0.174c0.022-0.065,0.043-0.13,0.065-0.195c0.022-0.065,0.043-0.13,0.043-0.195
		c0.044-0.174,0.066-0.369,0.066-0.543c0-0.087,0-0.152,0-0.217c0-0.065-0.022-0.152-0.022-0.217l-0.022-0.065l1.933,0.521
		c0,0.087-0.044,0.26-0.044,0.347c0,1.455,1.238,2.52,2.693,2.541c1.477,0,2.628-1.064,2.628-2.52s-1.195-2.628-2.65-2.628
		c-0.152,0-0.282,0-0.413,0.022c-0.152,0.022-0.282,0.043-0.413,0.087c-0.13,0.044-0.26,0.109-0.369,0.152
		c-0.13,0.066-0.239,0.131-0.348,0.218c-0.108,0.065-0.217,0.152-0.304,0.239c-0.108,0.087-0.196,0.195-0.282,0.304
		c-0.065,0.087-0.152,0.195-0.217,0.325c-0.022,0.066-0.043,0.087-0.065,0.152l-2.52-0.695c-0.087-0.13-0.108-0.152-0.217-0.282
		c-0.152-0.174-0.348-0.326-0.543-0.456c-0.065-0.065-0.108-0.087-0.152-0.108v-0.022c0-0.043,0.022-0.108,0.022-0.174
		c0-0.065,0-0.108,0.022-0.173c0-0.065,0-0.065,0.021-0.13l8.818,0.043c0,0.108,0.087,0.044,0.109,0.152
		c0.021,0.13,0.043,0.239,0.087,0.369c0.043,0.152,0.109,0.304,0.196,0.456c0.543,0.977,1.607,1.455,2.65,1.303
		c0.282-1.694,0.304-3.453,0.109-5.191c-0.565-0.086-1.173,0-1.716,0.304c-0.174,0.087-0.305,0.196-0.456,0.326
		c-0.13,0.131-0.26,0.261-0.369,0.392c-0.087,0.152-0.195,0.304-0.261,0.456c-0.087,0.152-0.152,0.326-0.195,0.5
		c-0.022,0.108-0.109,0.086-0.131,0.195l-8.861-0.021c0-0.044,0-0.022,0-0.066c0-0.043,0-0.086,0-0.13c0-0.043,0-0.065-0.022-0.108
		c0-0.043,0-0.087,0-0.13c0-0.043,0-0.087-0.022-0.131c0-0.021,0-0.065,0-0.108c-0.022-0.022-0.022-0.044,0-0.066
		c0.108-0.065,0.196-0.13,0.282-0.195c0.087-0.065,0.174-0.131,0.261-0.239l2.78-0.738c0.022,0.065,0.044,0.043,0.066,0.087
		c0.022,0.043,0.043,0.108,0.087,0.152c0.456,0.782,1.303,1.325,2.302,1.325c1.455,0,2.65-1.173,2.671-2.607
		c0-1.455-1.195-2.628-2.65-2.649c-1.477,0-2.672,1.173-2.672,2.628c0,0.043,0,0.108,0,0.173c0,0.066,0,0.109,0.021,0.174
		c0,0.044-0.021-0.065,0,0l-1.998,0.521c0.087-0.217,0.13-0.434,0.152-0.673c0.022-0.087,0.022-0.152,0.022-0.239
		c0-0.109,0-0.217-0.022-0.326c-0.022-0.109-0.044-0.217-0.065-0.326c-0.022-0.109-0.065-0.217-0.087-0.304l6.06-3.54
		c0.087,0.108,0.065,0.087,0.13,0.152c0.066,0.065,0.13,0.13,0.196,0.174c0.065,0.065,0.13,0.13,0.217,0.174
		c0.434,0.304,0.956,0.499,1.52,0.499c0.521,0,0.999-0.152,1.412-0.391c-0.673-1.651-1.433-3.389-2.519-4.778
		c-0.825,0.456-1.542,1.542-1.542,2.52c0,0.13,0.022,0.26,0.022,0.369c0.022,0.13,0.044,0.239,0.087,0.347
		c0.022,0.131,0.022,0.195,0.086,0.304l-6.06,3.518c-0.044-0.087-0.13-0.174-0.239-0.261c-0.282-0.304-0.651-0.521-1.064-0.651
		c-0.065-0.022-0.065,0-0.131-0.022l1.433-1.477c0.022,0.043,0.044,0.065,0.065,0.065c0.022,0.021,0.044,0.043,0.065,0.065
		c0.021,0.022,0.043,0.022,0.065,0.043c0.022,0.021,0.044,0.021,0.066,0.043c0.412,0.261,0.912,0.391,1.433,0.369
		c1.455-0.044,2.65-1.173,2.672-2.606c0-1.455-1.195-2.628-2.65-2.65c-1.477,0-2.672,1.173-2.693,2.628
		c0,0.174,0.022,0.347,0.065,0.499c0.022,0.174,0.065,0.326,0.13,0.499c0.066,0.152,0.217,0.391,0.326,0.521l-1.694,1.889
		c-0.196,0-0.391,0.022-0.586,0.066c-0.195,0.043-0.543,0.195-0.717,0.282c-0.043-0.022-0.065-0.044-0.087-0.065
		c-0.022-0.022-0.065-0.043-0.087-0.065c-0.022-0.022-0.044-0.022-0.065-0.043c-0.043-0.022-0.043-0.043-0.109-0.087
		c-0.065-0.065,4.083-7.102,4.387-7.754c0.022,0,0.087,0.022,0.109,0.044c0.022,0,0.065,0.022,0.087,0.022
		c0.043,0.021,0.065,0.021,0.109,0.021c0.021,0.022,0.043,0.022,0.086,0.043c1.086,0.261,2.281-0.195,2.889-1.216
		c0.065-0.065,0.087-0.152,0.13-0.239c-0.108-0.087-0.217-0.174-0.304-0.239c-0.022-0.022-0.022-0.022-0.043-0.044
		c0,0-0.022,0-0.022-0.022c-0.021,0-0.021,0-0.021,0c-0.087-0.065-0.174-0.13-0.261-0.195c-0.065-0.043-0.13-0.109-0.195-0.152
		c-0.043-0.043-0.087-0.065-0.152-0.109c-0.087-0.065-0.196-0.13-0.283-0.195c-0.022-0.022-0.065-0.043-0.087-0.065
		c-0.109-0.087-0.239-0.152-0.347-0.239c-0.022,0-0.022,0-0.044-0.022c-0.13-0.087-0.26-0.174-0.391-0.239
		c-0.152-0.087-0.282-0.174-0.413-0.261c-0.022,0-0.022,0-0.022,0c-0.13-0.087-0.261-0.152-0.391-0.217
		c-0.022-0.022-0.044-0.022-0.087-0.044c-0.109-0.065-0.217-0.108-0.326-0.174c-0.044-0.022-0.087-0.044-0.13-0.065
		c-0.087-0.044-0.174-0.087-0.26-0.131c-0.066-0.043-0.152-0.065-0.217-0.109c-0.065-0.021-0.13-0.065-0.195-0.087
		c-0.087-0.044-0.174-0.087-0.261-0.109c-0.044,0.065-0.109,0.131-0.152,0.217c-0.021,0.044-0.043,0.087-0.065,0.109
		c-0.022,0.043-0.043,0.087-0.065,0.13c-0.022,0.044-0.044,0.087-0.044,0.131c-0.022,0.043-0.043,0.065-0.065,0.108
		c0,0.044-0.022,0.087-0.043,0.13c0,0.044-0.022,0.087-0.022,0.13c-0.022,0.043-0.022,0.087-0.044,0.131c0,0.043,0,0.087-0.022,0.13
		c0,0.043,0,0.087,0,0.13c-0.022,0.044-0.022,0.065-0.022,0.109c0,0.043,0,0.087,0,0.13c0,0.043,0,0.087,0,0.131
		c0,0.043,0,0.086,0,0.13c0.022,0.043,0.022,0.087,0.022,0.13s0.022,0.087,0.022,0.13c0,0.044,0.022,0.087,0.022,0.109
		c0.022,0.043,0.022,0.087,0.044,0.131c0,0.043,0.021,0.087,0.021,0.13c0.022,0.044,0.043,0.065,0.043,0.108
		c0.021,0.043,0.043,0.087,0.065,0.13c0,0.022,0.022,0.065,0.044,0.109c0.021,0.043,0.043,0.065,0.065,0.108
		c0.022,0.044,0.043,0.066,0.066,0.109c0.022,0.043,0.043,0.065,0.065,0.109c0.022,0.043,0.065,0.065,0.087,0.108
		c0.022,0.022,0.043,0.065,0.087,0.087c0.021,0.043,0.043,0.065,0.087,0.109c0.022,0.022,0.044,0.043,0.086,0.087
		c0.022,0.021,0.065,0.065,0.087,0.087C41.445,85.09,41.488,85.111,41.51,85.133L41.51,85.133z M38.339,100.011
		c0.097-0.049,0.842-0.217,0.89-0.217h0.435c0.069,0,0.152,0.022,0.217,0.043c0.021-0.195,0.021-0.369,0.021-0.543
		c0-0.282,0-0.543-0.043-0.804c-0.021,0-0.065,0-0.087,0.022c-0.13,0-0.238,0.022-0.369,0.022c-1.455-0.022-2.65-1.195-2.65-2.65
		c0-0.651,0.239-1.259,0.63-1.716c-0.304-0.239-0.63-0.435-0.977-0.608c-0.369,1.042-1.368,1.759-2.541,1.759
		c-1.195,0-2.215-0.782-2.541-1.868c-0.369,0.174-0.695,0.369-1.021,0.586c0.043,0.065,0.108,0.108,0.152,0.174
		c0.022,0.044,0.043,0.065,0.065,0.108c0.022,0.022,0.043,0.065,0.065,0.087c0.782,1.238,0.413,2.888-0.803,3.649
		c-0.152,0.087-0.304,0.174-0.456,0.239c-0.152,0.044-0.304,0.087-0.456,0.108c-0.174,0.043-0.326,0.043-0.478,0.043
		c-0.174,0-0.326,0-0.478-0.043c-0.087,0-0.152-0.022-0.239-0.043c-0.044,0.282-0.066,0.586-0.066,0.89c0,0.152,0,0.304,0.022,0.456
		c0.174-0.021,0.348-0.043,0.521-0.043c1.455,0,2.65,1.194,2.65,2.628c0,0.174-0.022,0.347-0.043,0.499
		c-0.044,0.174-0.087,0.326-0.152,0.478c-0.043,0.13-0.13,0.282-0.217,0.413c-0.087,0.13-0.174,0.261-0.282,0.369
		c-0.065,0.066-0.108,0.108-0.152,0.174c0.369,0.304,0.804,0.586,1.238,0.782c0.022,0,0.369-0.76,0.434-0.847
		c1.26-1.65,3.975-1.151,4.605,0.891c0.477-0.218,0.912-0.478,1.303-0.804C36.297,103.03,36.687,100.836,38.339,100.011
		L38.339,100.011z M33.734,101.748c1.455,0,2.65-1.151,2.65-2.585c0-1.455-1.173-2.628-2.628-2.628c-1.455,0-2.65,1.173-2.65,2.607
		C31.084,100.575,32.279,101.748,33.734,101.748L33.734,101.748z"/>
</g>
</svg>
