<?xml version="1.0" encoding="utf-8"?>
<!-- Generator: Adobe Illustrator 19.1.0, SVG Export Plug-In . SVG Version: 6.00 Build 0)  -->
<svg version="1.1" id="Layer_1" xmlns="http://www.w3.org/2000/svg" xmlns:xlink="http://www.w3.org/1999/xlink" x="0px" y="0px"
	 viewBox="0 0 200 200" enable-background="new 0 0 200 200" xml:space="preserve">
<g>
	<path fill="#FCFDFC" d="M100.01,113.817c0.147,0.006,0.295,0.016,0.442,0.016c13.982,0.001,27.964-0.001,41.946,0.01
		c0.411,0,0.504-0.113,0.504-0.511c-0.011-8.859-0.008-17.717-0.01-26.576c0-0.677,0.09-0.589-0.582-0.589
		c-13.923-0.002-27.846-0.002-41.769-0.001c-0.177,0-0.354,0.011-0.531,0.017c-0.147-0.006-0.294-0.017-0.442-0.017
		c-13.982-0.001-27.964,0.002-41.947-0.011c-0.437,0-0.524,0.117-0.523,0.535c0.013,8.859,0.013,17.718-0.001,26.577
		c-0.001,0.45,0.097,0.58,0.568,0.579c13.967-0.014,27.935-0.011,41.902-0.012C99.715,113.833,99.863,113.822,100.01,113.817z"/>
	<path fill="#00ADEE" d="M100.01,86.183c0.177-0.006,0.354-0.016,0.531-0.017c13.923-0.001,27.846-0.001,41.769,0.001
		c0.672,0,0.582-0.088,0.582,0.589c0.002,8.859-0.001,17.717,0.01,26.576c0.001,0.398-0.092,0.511-0.504,0.511
		c-13.982-0.012-27.964-0.01-41.946-0.01c-0.147,0-0.295-0.011-0.442-0.016C100.01,104.605,100.01,95.394,100.01,86.183z
		 M129.615,104.89c-0.093-0.289-0.15-0.451-0.197-0.615c-1.492-5.196-2.985-10.391-4.466-15.59
		c-0.096-0.336-0.222-0.466-0.597-0.461c-1.786,0.024-3.572,0.02-5.358,0.003c-0.354-0.003-0.375,0.094-0.274,0.394
		c2.56,7.639,5.114,15.28,7.658,22.924c0.094,0.284,0.228,0.351,0.502,0.349c1.83-0.01,3.661-0.011,5.491,0.002
		c0.283,0.002,0.407-0.083,0.498-0.355c2.554-7.642,5.114-15.281,7.686-22.917c0.127-0.378,0.005-0.398-0.314-0.395
		c-1.786,0.012-3.573,0.02-5.358-0.005c-0.379-0.005-0.5,0.134-0.595,0.466c-1.179,4.121-2.37,8.239-3.559,12.357
		C130.376,102.284,130.014,103.521,129.615,104.89z M113.188,102.731c0-2.907,0.006-5.814-0.008-8.721
		c-0.002-0.356,0.076-0.48,0.456-0.472c1.269,0.025,2.538,0.001,3.807,0.015c0.284,0.003,0.377-0.07,0.374-0.366
		c-0.014-1.535-0.012-3.069-0.002-4.604c0.002-0.265-0.067-0.354-0.345-0.353c-4.885,0.008-9.769,0.008-14.654,0
		c-0.27,0-0.353,0.077-0.351,0.349c0.011,1.535,0.013,3.07-0.001,4.604c-0.003,0.291,0.083,0.373,0.372,0.37
		c1.254-0.015,2.509,0.013,3.763-0.017c0.433-0.011,0.535,0.115,0.534,0.538c-0.014,5.785-0.006,11.57-0.018,17.354
		c-0.001,0.364,0.09,0.474,0.462,0.47c1.726-0.019,3.453-0.019,5.18,0c0.354,0.004,0.441-0.1,0.439-0.445
		C113.182,108.545,113.188,105.638,113.188,102.731z"/>
	<path fill="#F6931E" d="M100.01,86.183c0,9.211,0,18.422,0,27.634c-0.147,0.006-0.294,0.017-0.442,0.017
		c-13.967,0.001-27.935-0.002-41.902,0.012c-0.471,0-0.568-0.13-0.568-0.579c0.014-8.859,0.013-17.718,0.001-26.577
		c-0.001-0.418,0.086-0.535,0.523-0.535c13.982,0.013,27.964,0.011,41.947,0.011C99.716,86.166,99.863,86.177,100.01,86.183z
		 M69.685,104.877c-0.078-0.231-0.124-0.349-0.158-0.47c-1.508-5.251-3.019-10.501-4.515-15.756
		c-0.095-0.333-0.236-0.427-0.574-0.423c-1.771,0.018-3.543,0.017-5.314,0.001c-0.371-0.003-0.445,0.066-0.32,0.436
		c2.556,7.624,5.102,15.251,7.641,22.881c0.091,0.272,0.22,0.354,0.502,0.351c1.83-0.013,3.661-0.013,5.491-0.001
		c0.279,0.002,0.41-0.076,0.502-0.353c2.547-7.626,5.103-15.248,7.667-22.868c0.118-0.35,0.083-0.451-0.312-0.447
		c-1.786,0.018-3.572,0.018-5.358,0c-0.344-0.003-0.468,0.107-0.562,0.435c-1.4,4.884-2.816,9.763-4.229,14.643
		C70.004,103.795,69.859,104.284,69.685,104.877z M90.861,104.638c2.067,0,4.134-0.014,6.201,0.011
		c0.421,0.005,0.522-0.148,0.553-0.521c0.084-1.023,0.05-2.038-0.18-3.037c-0.862-3.745-3.066-6.315-6.829-7.241
		c-3.813-0.939-7.116,0.157-9.539,3.278c-2.39,3.079-2.833,6.543-1.102,10.064c1.722,3.502,4.694,5.276,8.596,5.267
		c3.917-0.008,6.907-2.62,8.37-5.855c0.142-0.314-0.053-0.275-0.235-0.275c-1.595-0.001-3.189,0.003-4.784-0.004
		c-0.211-0.001-0.356,0.064-0.49,0.23c-0.911,1.133-2.113,1.537-3.534,1.417c-1.73-0.146-3.16-1.311-3.577-2.903
		c-0.097-0.37-0.014-0.441,0.348-0.438C86.727,104.646,88.794,104.638,90.861,104.638z"/>
	<path fill="#F79420" d="M88.352,101.06c-1.225,0-2.45-0.012-3.675,0.007c-0.355,0.006-0.388-0.095-0.272-0.397
		c0.553-1.445,1.581-2.303,3.105-2.581c1.975-0.36,3.829,0.545,4.599,2.262c0.042,0.094,0.068,0.195,0.112,0.288
		c0.144,0.302,0.112,0.436-0.282,0.429C90.743,101.045,89.547,101.06,88.352,101.06z"/>
</g>
</svg>
