<?xml version="1.0" encoding="utf-8"?>
<!-- Generator: Adobe Illustrator 19.1.0, SVG Export Plug-In . SVG Version: 6.00 Build 0)  -->
<svg version="1.1" id="Layer_1" xmlns="http://www.w3.org/2000/svg" xmlns:xlink="http://www.w3.org/1999/xlink" x="0px" y="0px"
	 viewBox="0 0 200 200" enable-background="new 0 0 200 200" xml:space="preserve">
<g>
	<polygon fill="#614834" points="149.62,94.298 151.675,94.298 151.675,99.186 156.714,99.186 156.714,94.298 159.015,94.298 
		159.015,105.826 156.714,105.826 156.714,101.192 151.675,101.192 151.675,105.826 149.62,105.826 149.62,94.298 	"/>
	<polygon fill="#614834" points="79.79,94.325 88.102,94.325 88.102,96.18 82.018,96.18 82.018,99.382 86.349,99.382 
		86.349,101.236 82.018,101.236 82.018,104.014 88.197,104.014 88.197,105.826 79.79,105.826 79.79,94.325 	"/>
	<polygon fill="#614834" points="162.771,94.325 171.083,94.325 171.083,96.18 164.999,96.18 164.999,99.382 169.331,99.382 
		169.331,101.236 164.999,101.236 164.999,104.014 171.179,104.014 171.179,105.826 162.771,105.826 162.771,94.325 	"/>
	<polygon fill="#614834" points="66.53,94.298 68.977,94.298 71.838,102.832 71.996,102.832 74.812,94.298 77.282,94.298 
		73.05,105.826 70.706,105.826 66.53,94.298 	"/>
	<polygon fill="#614834" points="54.747,94.298 57.37,94.298 60.23,99.392 63.14,94.298 65.606,94.298 61.356,101.337 
		61.356,105.826 59.104,105.826 59.104,101.337 54.747,94.298 	"/>
	<path fill="#614834" d="M90.397,102.284h2.434c0.092,0.622,0.361,1.083,0.806,1.386c0.444,0.3,1.087,0.449,1.928,0.449
		c0.717,0,1.256-0.122,1.62-0.363c0.365-0.239,0.544-0.598,0.544-1.071c0-0.69-1.045-1.259-3.134-1.711l-0.072-0.015
		c-0.055-0.012-0.139-0.028-0.252-0.054c-1.12-0.233-1.919-0.492-2.393-0.779c-0.426-0.257-0.747-0.604-0.97-1.038
		c-0.222-0.434-0.333-0.945-0.333-1.537c0-1.105,0.398-1.952,1.19-2.541c0.791-0.588,1.937-0.882,3.434-0.882
		c1.401,0,2.496,0.313,3.285,0.94c0.79,0.629,1.206,1.51,1.251,2.653h-2.371c-0.044-0.55-0.266-0.969-0.667-1.256
		c-0.404-0.286-0.975-0.431-1.718-0.431c-0.647,0-1.144,0.119-1.495,0.358c-0.35,0.239-0.525,0.579-0.525,1.021
		c0,0.603,0.681,1.05,2.042,1.35c0.37,0.082,0.659,0.145,0.865,0.192c0.872,0.211,1.494,0.376,1.859,0.493
		c0.366,0.118,0.687,0.25,0.959,0.394c0.486,0.259,0.853,0.597,1.097,1.022c0.245,0.422,0.367,0.931,0.367,1.525
		c0,1.18-0.42,2.096-1.262,2.746c-0.842,0.65-2.026,0.977-3.557,0.977c-1.509,0-2.693-0.333-3.549-0.995
		C90.922,104.451,90.461,103.509,90.397,102.284L90.397,102.284z"/>
	<path fill="#614834" d="M108.578,105.826V94.298h4.908c1.297,0,2.238,0.105,2.825,0.312c0.586,0.206,1.06,0.574,1.409,1.103
		c0.355,0.531,0.584,1.16,0.611,1.842c0.031,0.746-0.383,1.822-0.845,2.41c-0.419,0.537-0.861,0.79-1.485,1.052l2.614,4.809h-2.551
		l-2.344-4.538l-3.01-0.02v4.558H108.578L108.578,105.826z M110.71,99.55h2.129c1.175,0,1.909-0.045,2.203-0.14
		c0.807-0.259,1.041-0.961,1.041-1.729c0-0.389-0.218-0.701-0.436-0.939c-0.216-0.239-0.525-0.394-0.922-0.454
		c-0.196-0.029-0.794-0.037-1.787-0.037h-2.228V99.55L110.71,99.55z"/>
	<path fill="#614834" d="M174.458,105.827V94.298h4.908c1.295,0,2.236,0.106,2.824,0.312c0.586,0.206,1.06,0.574,1.411,1.103
		c0.353,0.531,0.583,1.16,0.611,1.842c0.03,0.746-0.383,1.822-0.845,2.411c-0.422,0.536-0.863,0.789-1.487,1.051l2.614,4.81h-2.551
		l-2.343-4.54l-3.01-0.02v4.56H174.458L174.458,105.827z M176.589,99.55h2.13c1.173,0,1.908-0.045,2.201-0.14
		c0.807-0.259,1.041-0.961,1.041-1.729c0-0.389-0.218-0.701-0.434-0.94c-0.218-0.239-0.525-0.394-0.924-0.454
		c-0.196-0.029-0.794-0.037-1.787-0.037h-2.228V99.55L176.589,99.55z"/>
	<path fill-rule="evenodd" clip-rule="evenodd" fill="#614834" d="M126.673,96.251c2.104,0,3.809,1.705,3.809,3.809
		c0,2.102-1.705,3.809-3.809,3.809s-3.809-1.706-3.809-3.809C122.864,97.956,124.569,96.251,126.673,96.251L126.673,96.251z
		 M126.673,93.902c3.401,0,6.157,2.757,6.157,6.158c0,3.4-2.756,6.157-6.157,6.157c-3.401,0-6.157-2.758-6.157-6.157
		C120.516,96.659,123.272,93.902,126.673,93.902L126.673,93.902z"/>
	<path fill-rule="evenodd" clip-rule="evenodd" fill="#614834" d="M144.579,97.958h2.357c-0.883-2.359-2.878-3.889-5.599-3.995
		c-3.149-0.124-6.01,2.041-6.322,5.83c-0.295,3.598,2.299,6.093,5.764,6.32c3.13,0.208,5.546-1.616,6.223-4.159h-2.391
		c-2.391,3.693-7.36,2.172-7.238-2.195c0.066-2.347,1.756-3.661,3.718-3.734C142.481,95.975,143.549,96.806,144.579,97.958
		L144.579,97.958z"/>
	<path fill-rule="evenodd" clip-rule="evenodd" fill="#899639" d="M31.971,83.537c9.093,0,16.464,7.372,16.464,16.464
		c0,9.093-7.371,16.463-16.464,16.463c-9.093,0-16.465-7.37-16.465-16.463C15.507,90.908,22.878,83.537,31.971,83.537L31.971,83.537
		z M31.971,85.841c7.82,0,14.16,6.34,14.16,14.159c0,7.821-6.34,14.159-14.16,14.159c-7.821,0-14.16-6.339-14.16-14.159
		C17.811,92.181,24.151,85.841,31.971,85.841L31.971,85.841z"/>
	<path fill-rule="evenodd" clip-rule="evenodd" fill="#899639" d="M20.256,97.53c-0.766,7.202,2.606,11.963,8.435,13.804
		c-0.106-2.365,0.119-5.033-0.524-7.588C27.525,101.19,24.203,97.456,20.256,97.53L20.256,97.53z"/>
	<path fill-rule="evenodd" clip-rule="evenodd" fill="#899639" d="M40.612,108.077c-2.659,2.862-5.888,4.015-9.596,3.733
		l-0.032-10.545c0.706-4.36,2.96-6.462,5.764-7.763c0.555,3.69-1.594,6.647-5.58,9.027
		C33.536,106.021,36.556,107.899,40.612,108.077L40.612,108.077z"/>
	<path fill-rule="evenodd" clip-rule="evenodd" fill="#899639" d="M38.86,90.451c0.867,6.335-0.66,10.5-4.422,12.642
		c2.035,2.112,4.692,2.932,7.861,2.687C45.188,100.149,43.679,94.184,38.86,90.451L38.86,90.451z"/>
	<path fill-rule="evenodd" clip-rule="evenodd" fill="#899639" d="M28.92,100.015c-2.245-3.06-4.872-4.429-7.73-4.782
		c3.69-7.492,11.866-8.925,17.539-4.896C32.517,92.536,29.52,95.359,28.92,100.015L28.92,100.015z"/>
</g>
</svg>
