<?xml version="1.0" encoding="utf-8"?>
<!-- Generator: Adobe Illustrator 19.1.0, SVG Export Plug-In . SVG Version: 6.00 Build 0)  -->
<svg version="1.1" id="Layer_1" xmlns="http://www.w3.org/2000/svg" xmlns:xlink="http://www.w3.org/1999/xlink" x="0px" y="0px"
	 viewBox="0 0 200 200" enable-background="new 0 0 200 200" xml:space="preserve">
<g>
	<path fill="#FF1817" d="M110.341,106.678c-0.475,2.165-0.7,4.507-1.511,6.626c-2.168,5.667-6.573,8.81-12.402,9.967
		c-3.518,0.699-6.908,0.064-10.102-1.597c-2.838-1.476-4.485-3.854-5.302-6.879c-0.072-0.267-0.15-0.533-0.234-0.831
		c-0.77,1.069-1.432,2.117-2.222,3.057c-1.317,1.568-2.969,2.728-4.89,3.437c-2.464,0.909-5.083-0.15-6.528-2.555
		c-1.169-1.946-1.492-4.115-1.414-6.307c0.089-2.504,0.485-4.985,1.383-7.355c1.559-4.116,4.184-7.173,8.507-8.508
		c1.115-0.344,2.247-0.631,3.456-0.314c1.604,0.42,2.719,1.358,3.399,3.071c0.156-2.434,0.887-3.731,3.549-4.409
		c1.39-0.345,2.802-0.604,4.309-0.923c-0.202,1.507-0.398,2.948-0.587,4.39c-0.275,2.095-0.552,4.19-0.815,6.287
		c-0.237,1.894-0.472,3.788-0.679,5.685c-0.399,3.664,1.007,7.011,5.477,7.653c6.55,0.94,13.639-3.998,14.846-10.512
		c0.362-1.956,0.333-3.997,0.362-6.001c0.049-3.402,1.25-6.366,3.375-8.936c2.793-3.377,6.372-5.642,10.707-6.335
		c4.987-0.798,9.363,1.167,10.828,5.966c0.833,2.729,0.341,5.459-0.679,8.058c-2.32,5.91-6.843,9.231-12.869,10.705
		c-2.956,0.723-5.753,0.421-8.188-1.551C111.399,107.981,110.834,107.209,110.341,106.678z M117.801,103.181
		c0.488,2.293,3.239,2.344,4.414,1.175c0.642-0.639,1.259-1.354,1.694-2.141c1.573-2.845,1.769-5.947,1.391-9.09
		c-0.204-1.694-1.033-2.632-2.239-2.708c-1.239-0.078-2.24,0.506-2.965,1.491C118.183,94.508,116.968,99.269,117.801,103.181z
		 M81.891,104.713c0-0.503,0.046-1.012-0.008-1.509c-0.198-1.82-1.644-2.959-3.071-2.269c-0.834,0.403-1.658,1.107-2.149,1.887
		c-1.667,2.647-2.792,10.872,0.54,10.592c1.593-0.033,2.556-0.995,3.231-2.29C81.477,109.121,81.873,106.952,81.891,104.713z"/>
	<path fill="#FF1817" d="M93.525,86.113c1.295-2.406,3.206-3.9,5.717-4.542c1.089-0.278,2.306-0.475,3.387-0.28
		c2.229,0.401,3.212,2.384,2.834,4.94c-0.349,2.359-0.558,4.739-0.862,7.106c-0.236,1.836-0.572,3.66-0.777,5.499
		c-0.209,1.87-0.416,3.752-0.406,5.627c0.003,0.667,0.6,1.36,1.012,1.983c0.216,0.326,0.619,0.528,0.993,0.832
		c-1.377,2.464-3.431,3.996-6.163,4.605c-0.683,0.152-1.401,0.192-2.104,0.199c-2.176,0.021-3.658-1.364-3.652-3.555
		c0.004-1.409,0.222-2.82,0.394-4.224c0.315-2.57,0.682-5.134,0.998-7.704c0.248-2.019,0.428-4.047,0.683-6.065
		C95.815,88.673,95.413,87.124,93.525,86.113z"/>
	<path fill="#2F8785" d="M127.515,78.601c0.015,2.374-1.388,3.878-3.76,4.029c-1.28,0.081-2.293-0.792-2.231-2.065
		c0.149-3.075,1.089-3.815,4.25-4.11C126.774,76.362,127.507,77.375,127.515,78.601z"/>
</g>
</svg>
