<?xml version="1.0" encoding="utf-8"?>
<!-- Generator: Adobe Illustrator 19.1.0, SVG Export Plug-In . SVG Version: 6.00 Build 0)  -->
<svg version="1.1" id="Layer_1" xmlns="http://www.w3.org/2000/svg" xmlns:xlink="http://www.w3.org/1999/xlink" x="0px" y="0px"
	 viewBox="0 0 200 200" enable-background="new 0 0 200 200" xml:space="preserve">
<g>
	<path d="M154.311,112.634c0.354,0,0.599-0.246,0.599-0.6V94.459h5.967c0.354,0,0.599-0.245,0.599-0.6v-2.424
		c0-0.355-0.245-0.6-0.599-0.6h-15.886c-0.355,0-0.599,0.245-0.599,0.6v2.424c0,0.354,0.244,0.6,0.599,0.6h5.968v17.575
		c0,0.354,0.245,0.6,0.599,0.6H154.311z M112.792,111.925l-7.384-20.545c-0.137-0.382-0.409-0.545-0.817-0.545h-3.652
		c-0.408,0-0.653,0.163-0.789,0.545l-7.384,20.545c-0.136,0.355,0.109,0.709,0.463,0.709h2.67c0.409,0,0.654-0.191,0.79-0.573
		l1.609-4.631h8.8l1.608,4.631c0.136,0.382,0.382,0.573,0.79,0.573h2.834C112.709,112.634,112.927,112.279,112.792,111.925z
		 M99.548,103.86l3.161-8.992l3.133,8.992H99.548z M147.253,111.871l-4.605-4.987l3.052-5.231c0.272-0.463,0.027-0.763-0.41-0.763
		h-2.643c-0.436,0-0.681,0.136-0.899,0.49l-1.717,2.998l-3.052-3.297c2.072-1.145,4.034-2.671,4.034-5.395
		c0-3.188-2.235-5.341-5.886-5.341c-3.569,0-5.94,2.316-5.94,5.695c0,1.335,0.573,2.86,1.825,4.305
		c-2.561,1.417-4.251,3.106-4.251,6.268c0,4.115,3.134,6.512,7.112,6.512c3.214,0,5.15-1.389,6.539-3.242l2.07,2.288
		c0.3,0.355,0.546,0.464,1.009,0.464h3.46C147.39,112.634,147.608,112.252,147.253,111.871z M135.182,93.723
		c1.417,0,2.125,0.926,2.125,2.044c0,1.199-0.818,1.88-2.752,2.997c-1.118-1.198-1.607-2.016-1.607-2.943
		C132.948,94.623,133.766,93.723,135.182,93.723z M133.956,109.691c-1.799,0-3.325-1.334-3.325-3.215c0-1.908,1.09-2.861,2.78-3.815
		l4.414,4.742C136.872,108.846,135.699,109.691,133.956,109.691z M117.309,112.634c-0.354,0-0.599-0.246-0.599-0.6V94.459h-5.967
		c-0.355,0-0.6-0.245-0.6-0.6v-2.424c0-0.355,0.245-0.6,0.6-0.6h15.886c0.354,0,0.599,0.245,0.599,0.6v2.424
		c0,0.354-0.245,0.6-0.599,0.6h-5.967v17.575c0,0.354-0.245,0.6-0.6,0.6H117.309z"/>
	<path fill="#009FDB" d="M73.499,80.123c-3.468-2.08-7.495-3.262-11.836-3.262c-4.372,0-8.52,1.225-12,3.359
		c-1.043,0.643-1.631,1.158-1.631,1.819c0,1.952,4.56,4.051,12.649,4.051c8.004,0,14.213-2.298,14.213-4.511
		C74.894,81.051,74.433,80.681,73.499,80.123z M76.943,82.694c0.097,0.152,0.146,0.315,0.146,0.534
		c0,2.571-7.865,7.119-20.386,7.119c-9.199,0-10.921-3.414-10.921-5.585c0-0.776,0.297-1.571,0.952-2.377
		c0.036-0.049,0.006-0.067-0.036-0.03c-1.195,1.013-2.292,2.153-3.256,3.384c-0.461,0.582-0.746,1.097-0.746,1.407
		c0,4.499,11.279,7.761,21.823,7.761c11.236,0,16.251-3.668,16.251-6.894c0-1.152-0.449-1.825-1.595-3.129
		c-0.746-0.849-1.449-1.54-2.195-2.219C76.943,82.634,76.919,82.658,76.943,82.694z M40.755,90.074
		c-0.679,1.346-1.431,3.62-1.655,4.796c-0.097,0.503-0.055,0.746,0.121,1.122c1.419,3.014,8.598,7.834,25.346,7.834
		c10.217,0,18.155-2.51,19.44-7.094c0.236-0.843,0.249-1.734-0.055-2.935c-0.34-1.34-0.976-2.905-1.516-4.002
		c-0.018-0.036-0.049-0.03-0.043,0.012c0.2,6.009-16.554,9.884-25.007,9.884c-9.156,0-16.796-3.65-16.796-8.259
		c0-0.443,0.091-0.885,0.206-1.346C40.81,90.043,40.773,90.037,40.755,90.074z M57.012,109.278c-11.842,0-17.427-5.518-18.44-9.284
		c-0.012-0.055-0.049-0.042-0.049,0.006c0,1.267,0.127,2.905,0.346,3.99c0.103,0.528,0.534,1.358,1.164,2.019
		c2.868,2.989,10.017,7.179,22.399,7.179c16.869,0,20.726-5.621,21.514-7.47c0.564-1.322,0.855-3.711,0.855-5.718
		c0-0.485-0.012-0.873-0.03-1.255c0-0.061-0.036-0.067-0.048-0.006C83.88,103.262,69.467,109.278,57.012,109.278z M63.233,119.458
		c5.694,0,11.952-1.552,15.693-4.627c1.025-0.837,2.001-1.952,2.874-3.45c0.503-0.861,0.995-1.886,1.395-2.892
		c0.018-0.048-0.012-0.073-0.049-0.018c-3.481,5.124-13.558,8.319-23.964,8.319c-7.355,0-15.268-2.353-18.367-6.846
		c-0.03-0.042-0.061-0.024-0.043,0.024C43.66,116.105,52.416,119.458,63.233,119.458z M47.474,118.276
		c3.923,3.038,8.847,4.863,14.189,4.863c5.845,0,11.175-2.171,15.244-5.736c0.049-0.043,0.024-0.073-0.024-0.043
		c-1.825,1.219-7.028,3.881-15.22,3.881c-7.119,0-11.618-1.589-14.159-3.007C47.456,118.209,47.437,118.246,47.474,118.276z"/>
</g>
</svg>
