<?xml version="1.0" encoding="utf-8"?>
<!-- Generator: Adobe Illustrator 19.1.0, SVG Export Plug-In . SVG Version: 6.00 Build 0)  -->
<svg version="1.1" id="Layer_1" xmlns="http://www.w3.org/2000/svg" xmlns:xlink="http://www.w3.org/1999/xlink" x="0px" y="0px"
	 viewBox="0 0 200 200" enable-background="new 0 0 200 200" xml:space="preserve">
<g>
	<path fill="#E41960" d="M130.923,116.628c-6.518,0.006-9.249-3.722-7.295-9.958c2.537-8.099,9.211-12.889,16.985-12.193
		c4.502,0.403,6.748,3.079,6.324,7.533C146.163,110.141,139.065,116.621,130.923,116.628z M140.739,99.605
		c0.429-2.333-1.425-3.619-3.851-2.762c-1.481,0.523-2.609,1.986-3.14,3.122c-1.612,3.451-3.059,6.527-4.166,10.169
		c-1.063,4.86,5.262,4.234,6.525,1.47C137.886,107.712,140.31,101.938,140.739,99.605z"/>
	<path fill="#39361D" d="M87.878,110.798c-0.106,2.04-1.357,3.304-3.319,4.258c-2.599,1.264-6.826,2.035-9.452,1.351
		c-3.207-0.836-5.301-3.135-5.196-6.301c0.242-7.276,6.571-16.299,16.736-15.754c5.077,0.272,6.026,4.345,5.152,7.837
		c-0.258,1.032-0.71,0.878-1.881,1.157c-3.157,0.755-6.366,1.282-9.546,1.937c-2.656,0.547-2.796,0.975-2.979,4.078
		c-0.148,2.496,1.706,3.705,4.064,3.759C83.902,113.177,85.78,111.988,87.878,110.798z M78.704,103.221
		c1.875-0.216,5.354-0.783,7.208-1.199c1.277-0.287,1.096-0.21,1.281-1.4c0.184-1.19,0.403-2.474-0.379-3.382
		c-0.783-0.908-2.348-1.096-3.78-0.047C81.165,98.563,78.485,103.021,78.704,103.221z"/>
	<path fill="#39361D" d="M124.092,90.16c0.365,0.039,0.523,0.202,0.259,0.979c-0.419,1.233-0.834,2.647-1.27,4.007
		c-0.073,0.31-0.12,0.564,0.522,0.639c0.891,0.104,2.578,0.107,3.388,0.161c0.541,0.042-0.473,3.245-1.04,3.252
		c-0.642,0.008-1.7-0.077-3.256-0.157c-1.441-0.073-1.17,0.142-1.811,1.926c-0.642,1.783-2.097,5.807-3.098,8.726
		c-1.132,3.302,0.087,3.953,1.464,3.953c1.127,0,1.914-0.438,2.254-0.406c0.007,0.948-0.376,2.564-1.096,2.849
		c-1.145,0.454-2.505,0.691-3.919,0.691c-6.322-0.271-7.529-1.995-5.483-7.912c1.113-3.219,2.939-8.092,3.296-9.12
		c0.357-1.028,0.094-0.942-2.789-1.029c-0.529-0.007,0.162-3.152,1.099-3.084c3.115,0.223,3.158,0.242,3.413-0.398
		c0.559-1.405,0.794-2.365,1.581-4.321c0.258-0.641,0.298-1.048,1.55-1.059C120.754,89.843,122.206,89.894,124.092,90.16z"/>
	<path fill="#39361D" d="M54.414,97.218c-1.918-1.287-5.316,0.345-6.557,2.779c-1.455,2.853-2.387,4.76-2.937,7.862
		c-0.774,4.366,2.126,6.371,6.334,4.844c1.238-0.449,3.021-1.479,3.731-1.776c0.71-0.297,0.71,1.874-0.709,3.126
		s-7.64,3.548-12.04,2.336c-3.141-0.865-5.036-2.633-5.108-5.754c-0.205-8.95,8.419-17.056,17.298-16.258
		c2.956,0.265,5.252,1.801,5.418,3.976c0.208,2.717,0.359,3.009-0.873,2.877c-0.891-0.095-3.815,0.122-4.318,0.127
		S55.986,98.273,54.414,97.218z"/>
	<path fill="#39361D" d="M93.901,97.309c-0.47-0.094-0.262-1.415,0.239-1.415s9.34,0.037,10.165,0.05s-0.136,1.227-0.114,1.547
		c2.411-1.472,3.976-2.16,6.53-1.729c0.797,0.195,0.371,0.622,0.203,1.134c-0.597,1.673-1.508,3.582-1.929,4.499
		c-0.161,0.351-0.859-1.274-3.543-0.718c-1.881,0.39-3.178,1.945-4.012,4.171c-1.167,3.114-2.338,6.41-3.323,9.582
		c-0.519,1.672-0.64,1.919-2.31,1.94c-1.635,0.021-3.745-0.038-5.617-0.038c1.53-4.264,2.921-8.143,4.313-12.021
		c0.365-1.017,0.75-2.027,1.096-3.051C96.653,98.152,97.108,98.204,93.901,97.309z"/>
	<path fill="#39361D" d="M60.954,97.229l0.334-1.252c0.083-0.298,8.571-0.21,9.356-0.154c0.993,0.071,1.178,0.542,0.964,1.307
		c-0.944,3.382-4.819,12.823-6.738,17.961c-0.186,0.499-0.857,1.118-1.34,1.152c-1.877,0.134-3.77,0.055-6.094,0.055
		c1.216-3.353,2.281-6.292,3.347-9.231c0.624-1.723,1.264-3.44,1.87-5.169C63.902,98.335,63.626,97.563,60.954,97.229z"/>
	<path fill="#F41463" d="M151.415,86.298c1.308-1.238,2.251-2.13,3.252-3.078c6.129,4.812,8.468,10.964,8.186,18.593
		c-1.351,0.06-2.629,0.117-4.225,0.188C158.649,95.774,156.977,90.379,151.415,86.298z"/>
	<path fill="#F41463" d="M155.19,101.864c-1.356,0-2.579,0-4.133,0c0.155-3.956-0.627-7.542-4.561-9.842
		c1.03-1.138,1.9-2.099,2.738-3.024C153.34,90.543,155.971,96.153,155.19,101.864z"/>
	<path fill="#39361D" d="M74.883,86.44c-0.56,0-4.153-0.035-5.198,0.051c-0.577,0.047-1.068,0.133-1.288,0.643
		c-0.759,1.753-1.62,3.965-2.288,5.825c-0.193,0.453,0.078,0.675,0.335,0.668c0.456,0,4.153,0.035,5.198-0.051
		c0.577-0.047,1.068-0.133,1.288-0.643c0.751-1.735,1.602-3.919,2.267-5.766C75.247,87.03,75.444,86.44,74.883,86.44z"/>
</g>
</svg>
