<?xml version="1.0" encoding="utf-8"?>
<!-- Generator: Adobe Illustrator 19.1.0, SVG Export Plug-In . SVG Version: 6.00 Build 0)  -->
<svg version="1.1" id="Layer_1" xmlns="http://www.w3.org/2000/svg" xmlns:xlink="http://www.w3.org/1999/xlink" x="0px" y="0px"
	 viewBox="0 0 200 200" enable-background="new 0 0 200 200" xml:space="preserve">
<g>
	<path fill-rule="evenodd" clip-rule="evenodd" fill="#EA4E4E" d="M85.178,102.572h6.872l-1.299-6.114L85.178,102.572
		L85.178,102.572z M145.183,107.821h-12.661l4.978-14.014h5.032l-3.95,11.146h7.629L145.183,107.821L145.183,107.821z
		 M116.668,107.821l4.978-14.014h15.096l-1.082,2.922h-9.793l-1.028,2.651h9.253l-1.082,2.651h-9.253l-1.028,2.922h10.01
		l-1.028,2.868H116.668L116.668,107.821z M106.334,108.091c-5.303,0-8.711-2.11-6.872-7.142c2.11-5.249,6.872-7.359,12.932-7.359
		c4.491,0,8.495,1.299,7.142,4.707h-5.248c0.216-1.299-1.082-1.84-2.922-1.84c-3.463,0-5.573,1.84-6.601,4.22
		c-0.812,2.381-0.271,4.491,3.138,4.491c1.894,0,3.733-0.487,4.491-2.11h5.573C116.127,107.063,111.636,108.091,106.334,108.091
		L106.334,108.091z M93.402,107.821l-0.541-2.868h-10.28l-2.651,2.868h-5.303l14.555-14.014h5.789l3.95,14.014H93.402
		L93.402,107.821z M60.342,103.33h5.032c-0.541,1.623,0.271,2.11,2.651,2.11c3.192,0,3.679-0.758,3.95-1.569
		c0.541-0.812-0.758-1.028-2.651-1.299l-2.381-0.541c-2.597-0.541-5.248-1.353-4.221-3.95c1.082-3.463,5.573-4.491,9.523-4.491
		c6.331,0,7.683,1.569,6.872,4.22h-5.032c0.271-1.353-1.028-1.623-2.381-1.623c-2.381,0-3.409,0.541-3.679,1.353
		c-0.541,1.028,1.082,1.299,2.922,1.569l2.11,0.271c2.922,0.541,5.248,1.298,4.22,4.22c-1.299,3.733-6.601,4.491-10.551,4.491
		C59.855,108.091,59.585,105.71,60.342,103.33L60.342,103.33z M98.434,82.985C76.737,84.825,57.745,89.1,45.03,93.807h4.761
		l-2.922,7.954c-1.028,2.381,0.271,3.409,2.922,3.409c3.463,0,5.032-1.569,6.06-3.95l2.651-7.413h5.032l-2.922,7.683
		c-1.569,4.761-5.79,6.601-11.85,6.601c-5.844,0-8.765-1.84-7.142-6.06l2.868-7.954c-0.216,0.271-0.757,0.271-1.028,0.541
		l-4.761,13.202h-5.032l3.733-10.28c-5.032,2.922-7.954,6.06-7.683,8.982c0,1.028,0.811,2.11,1.569,3.138h112.814
		c2.11-0.757,4.004-1.299,5.844-1.84h-4.221l5.032-14.014h5.248l-4.22,11.146h5.789c8.224-3.734,12.986-7.683,12.715-11.363
		C169.477,84.067,137.229,79.306,98.434,82.985L98.434,82.985z M33.126,111.013c9.523,6.331,36.739,8.982,68.446,6.06
		c13.473-1.299,26.188-3.409,36.739-6.06H33.126L33.126,111.013z"/>
</g>
</svg>
