<?xml version="1.0" encoding="utf-8"?>
<!-- Generator: Adobe Illustrator 19.1.0, SVG Export Plug-In . SVG Version: 6.00 Build 0)  -->
<svg version="1.1" id="Layer_1" xmlns="http://www.w3.org/2000/svg" xmlns:xlink="http://www.w3.org/1999/xlink" x="0px" y="0px"
	 viewBox="0 0 200 200" enable-background="new 0 0 200 200" xml:space="preserve">
<g>
	<polygon fill="#FFFFFF" points="70.514,118.448 47.059,118.448 47.059,78.889 53.478,77.393 70.514,78.889 	"/>
	<path fill="#FDDC05" d="M98.343,87.482c-1.041-0.016-2.084,0.013-3.125-0.006c-1.284-0.023-2.971,0.408-3.747-0.239
		c-0.915-0.763-0.168-2.518-0.318-3.616c0-1.21,0.011-2.202-0.002-3.194c-0.029-2.063-1.271-3.461-3.066-3.469
		c-1.761-0.007-3.037,1.438-3.053,3.491c-0.015,1.885-0.065,3.773,0.018,5.654c0.047,1.075-0.195,1.484-1.371,1.414
		c-1.978-0.116-3.968-0.077-5.95-0.028c-1.966,0.048-3.254,1.369-3.203,3.17c0.048,1.698,1.38,2.902,3.28,2.922
		c1.984,0.02,3.97,0.053,5.952-0.013c0.948-0.032,1.325,0.206,1.288,1.221c-0.071,1.982-0.049,3.968-0.008,5.952
		c0.043,2.063,1.362,3.434,3.161,3.375c1.758-0.058,2.942-1.41,2.958-3.413c0.016-1.934,0.056-3.871-0.012-5.803
		c-0.036-1.015,0.24-1.392,1.316-1.345c1.98,0.087,3.968,0.044,5.952,0.02c1.996-0.024,3.305-1.267,3.274-3.059
		C101.654,88.736,100.315,87.512,98.343,87.482z"/>
	<g>
		<path fill="#E3087C" d="M106.565,113.517c-1.12-0.878-1.754,0.048-2.348,0.915c-1.002,1.462-2.437,1.95-3.845,1.367
			c-1.524-0.631-2.254-2.63-1.791-4.908c0.329-1.62,1.474-2.687,2.915-2.682c0.887,0.003,1.641,0.341,2.218,1.029
			c0.286,0.341,0.546,0.706,0.84,1.04c0.493,0.558,1.076,0.675,1.726,0.276c0.64-0.393,0.834-0.98,0.603-1.666
			c-0.35-1.039-1.104-1.742-2.038-2.269c-4.446-2.507-9.308,0.221-9.561,5.362c-0.139,2.835,1.197,5.111,3.502,5.968
			c2.732,1.014,6.241,0.275,7.662-1.669C107.081,115.414,107.655,114.371,106.565,113.517z"/>
		<path fill="#E3087C" d="M129.745,108.032c0.314-0.747-0.134-1.233-0.689-1.621c-1.505-1.052-3.126-0.749-4.721,0.977
			c-0.321-1.338-1.233-1.454-2.211-1.269c-1,0.189-0.901,1.067-0.906,1.791c-0.02,2.83-0.002,5.66-0.008,8.49
			c-0.002,1.057,0.278,1.923,1.516,1.952c1.225,0.029,1.599-0.802,1.629-1.866c0.047-1.637,0.008-3.279,0.137-4.909
			c0.22-2.777,0.886-3.273,3.575-2.734C128.898,109.009,129.434,108.769,129.745,108.032z"/>
		<path fill="#E3087C" d="M82.644,106.185c-1.663-0.72-2.728-0.485-4.292,1.067c-0.824-1.622-1.371-1.802-2.724-0.902
			c-0.525,0.431-0.499,1.04-0.503,1.626c-0.011,1.679-0.053,3.359,0.012,5.036c0.057,1.463-0.289,2.95,0.223,4.389
			c0.059,0.12,0.118,0.239,0.177,0.359c0.219,0.414,0.55,0.619,1.028,0.547c0.097,0,0.193,0,0.29,0
			c0.101-0.01,0.203-0.021,0.304-0.031c1.05-0.248,1.159-1.053,1.175-1.939c0.034-1.92-0.154-3.852,0.265-5.753
			c0.401-1.82,1.183-2.355,2.947-1.849c0.817,0.234,1.489,0.137,2.168-0.277C83.883,107.455,83.717,106.649,82.644,106.185z"/>
		<path fill="#E3087C" d="M141.519,107.267c0.033-0.749-0.243-1.271-1.062-1.298c-1.06-0.034-1.817,0.367-1.893,1.567
			c-0.17-0.086-0.269-0.115-0.34-0.175c-1.976-1.657-4.105-2.039-6.035-0.968c-2.413,1.339-2.963,3.613-2.778,6.124
			c0.178,2.417,1.07,4.456,3.571,5.343c0.502,0.178,1.072,0.177,1.613,0.233c1.574,0.162,2.555-0.964,3.676-1.853
			c0.698,3.265-0.633,4.834-3.625,4.48c-0.984-0.116-1.587-0.731-2.182-1.415c-0.678-0.779-1.502-1.093-2.306-0.271
			c-0.754,0.77-0.345,1.572,0.264,2.24c0.579,0.635,1.157,1.267,2.407,1.715c1.925,0.689,4.889,0.97,6.772-0.957
			c1.78-1.821,2.053-3.507,1.945-4.337C141.676,114.218,141.731,110.742,141.519,107.267z M137.593,114.857
			c-1.008,1.066-2.661,1.223-3.782,0.334c-0.136-0.108-0.257-0.221-0.365-0.339c-0.757-0.828-0.876-1.903-0.875-3.015
			c0.015-0.647,0.099-1.266,0.322-1.82c0.106-0.264,0.246-0.513,0.423-0.743c0.055-0.071,0.112-0.141,0.175-0.209
			c0.159-0.171,0.344-0.33,0.558-0.474c1.149-0.775,2.701-0.497,3.618,0.599C138.89,110.653,138.852,113.526,137.593,114.857z
			 M141.419,107.366c-0.086,0.104-0.131,0.219-0.154,0.341C141.289,107.585,141.333,107.47,141.419,107.366z M141.242,108.215
			L141.242,108.215c0-0.043,0-0.086-0.001-0.129C141.241,108.129,141.242,108.172,141.242,108.215z"/>
		<path fill="#E3087C" d="M154.264,116.422c-0.548-1.434-0.476-2.926-0.46-3.889c0.001-6.024-2.502-7.923-7.836-6.452
			c-0.521,0.144-1.036,0.363-1.501,0.636c-0.376,0.221-0.748,0.526-0.99,0.882c-0.54,0.795-1.09,1.722-0.062,2.488
			c0.954,0.71,1.593,0.091,2.177-0.739c0.867-1.233,2.369-1.64,3.84-1.226c0.881,0.247,1.149,0.936,1.214,1.688
			c0.072,0.827-0.712,0.677-1.181,0.795c-1.539,0.386-3.112,0.649-4.632,1.093c-1.735,0.506-2.587,1.78-2.481,3.429
			c0.104,1.612,1.33,2.919,3.049,3.169c1.515,0.221,3.011,0.079,4.288-0.822c0.866-0.61,1.457-0.758,2.087,0.29
			c0.402,0.668,1.154,0.789,1.853,0.432C154.35,117.826,154.552,117.175,154.264,116.422z M150.721,113.152
			c-0.026,0.995-0.412,1.829-1.034,2.39c-0.067,0.061-0.139,0.117-0.212,0.172c-0.011,0.008-0.021,0.018-0.032,0.026
			c-0.339,0.246-0.733,0.42-1.167,0.508c-0.325,0.066-0.672,0.084-1.035,0.048c-0.873-0.087-1.526-0.491-1.692-1.383
			c-0.179-0.961,0.423-1.481,1.252-1.718c1.088-0.311,2.199-0.541,3.297-0.819c0.1-0.025,0.185-0.039,0.256-0.042
			C150.855,112.314,150.703,112.796,150.721,113.152z"/>
		<path fill="#E3087C" d="M119.228,111.979c0-0.644,0.021-1.289-0.004-1.932c-0.103-2.653-1.102-3.792-3.697-4.156
			c-1.382-0.194-2.77-0.179-4.132,0.185c-1.027,0.274-1.977,0.72-2.582,1.629c-0.507,0.763-0.945,1.665,0.011,2.371
			c0.945,0.697,1.592,0.143,2.183-0.702c0.882-1.259,2.569-1.716,3.96-1.225c0.78,0.275,1.014,0.918,1.096,1.622
			c0.1,0.863-0.674,0.71-1.134,0.825c-1.535,0.384-3.104,0.641-4.622,1.078c-1.782,0.513-2.686,1.867-2.534,3.535
			c0.146,1.599,1.399,2.87,3.118,3.096c1.459,0.192,2.915,0.081,4.141-0.787c0.909-0.643,1.528-0.835,2.203,0.282
			c0.403,0.666,1.16,0.744,1.853,0.369c0.648-0.351,0.883-0.943,0.623-1.641C119.158,115.047,119.178,113.517,119.228,111.979z
			 M116.124,113.491c-0.047,0.331-0.127,0.638-0.237,0.917c-0.09,0.229-0.204,0.437-0.334,0.628
			c-0.06,0.088-0.124,0.172-0.192,0.251c-0.025,0.029-0.048,0.06-0.074,0.088c-0.564,0.608-1.374,0.941-2.369,0.93
			c-0.996-0.006-1.783-0.397-1.955-1.428c-0.172-1.033,0.56-1.505,1.436-1.739c0.856-0.229,1.76-0.311,2.582-0.62
			C116.082,112.106,116.264,112.503,116.124,113.491z"/>
		<path fill="#E3087C" d="M87.619,112.877c2.067-0.096,4.157,0.32,6.203-0.259h0l0.022-0.006c1.081-0.398,1.058-1.325,0.983-2.206
			c-0.176-2.062-1.754-3.86-3.888-4.374c-2.889-0.696-5.348,0.001-7.207,2.415c-0.006,0.004-0.012,0.007-0.018,0.01
			c-0.001,0.005-0.001,0.01-0.002,0.015l0.001-0.001c0,0-0.001,0.001-0.001,0.001l0.029-0.03c-0.447,1.208-0.862,2.422-0.823,3.739
			c0.073,2.45,0.873,4.554,3.253,5.561c2.508,1.061,5.037,0.996,7.34-0.679c0.35-0.255,0.637-0.629,0.873-0.999
			c0.33-0.515,0.574-1.105,0.025-1.624c-0.572-0.54-1.166-0.395-1.73,0.071c-0.534,0.441-1.04,0.936-1.631,1.286
			c-1.684,0.998-3.652,0.454-4.466-1.176C85.898,113.252,86.112,112.947,87.619,112.877z M86.723,112.618
			c0.297-0.015,0.594-0.036,0.891-0.06C87.317,112.582,87.02,112.603,86.723,112.618L86.723,112.618z M86.967,108.948
			c0.734-0.892,1.702-1.146,2.807-0.852c1.14,0.303,1.668,1.158,1.945,2.224c0.152,0.588-0.087,0.815-0.678,0.793
			c-0.173-0.006-0.346-0.01-0.52-0.012c-0.52-0.005-1.04,0.006-1.56,0.006c-0.26,0-0.523,0.021-0.782,0.013
			c-0.086-0.003-0.172-0.009-0.257-0.021c-0.556-0.076-1.374,0.332-1.612-0.271C86.065,110.202,86.523,109.488,86.967,108.948z"/>
	</g>
	<g>
		<path fill="#09A0E1" d="M67.919,76.548c-5.861,0-11.719-0.12-17.579-0.007c-2.42,0.004-4.73,1.946-4.73,5.032
			c0,11.003,0.005,22.007,0.005,33.01c0,4.14,1.643,5.343,4.79,5.343c5.732,0,11.464,0.007,17.196,0.007
			c3.203,0,4.775-2.104,4.775-5.237c0-11.043-0.005-22.087-0.005-33.13C72.37,78.538,71.101,76.548,67.919,76.548z M62.261,78.671
			c-1.95,0.375-3.927,0.022-5.884,0.218c-0.212-0.102-0.425-0.205-0.637-0.307C57.92,78.14,60.097,77.946,62.261,78.671z
			 M62.258,117.18c-0.147,0.821-0.816,0.876-1.498,0.868c-1.141-0.012-2.282-0.018-3.423,0.003
			c-0.684,0.012-1.364-0.038-1.562-0.812c-0.221-0.867,0.366-1.25,1.104-1.459c1.401-0.001,2.802-0.003,4.204-0.004
			C61.841,115.939,62.414,116.301,62.258,117.18z M67.96,114.624c0.029-0.034,0.044-0.078,0.044-0.134
			C68.004,114.546,67.989,114.59,67.96,114.624z M70.144,112.024c-0.291,1.178-1.04,1.915-2.19,2.261l0,0
			c-5.9-0.049-11.799-0.154-17.698,0.053c-1.922-0.723-2.305-1.258-2.306-3.293c-0.003-9.139-0.003-18.278,0-27.417
			c0.001-2.285,0.863-3.163,3.137-3.167c5.265-0.009,10.53-0.006,15.794-0.001c2.011,0.002,2.611,0.44,3.273,2.336
			C70.15,92.539,70.147,102.281,70.144,112.024z M70.371,82.752c0.059-0.004,0.106,0.001,0.143,0.014
			C70.477,82.753,70.43,82.747,70.371,82.752z"/>
		<path fill="#09A0E1" d="M62.208,102.19c-2.277,0.041-4.555,0.04-6.832-0.002c-0.933-0.017-0.934,0.412-0.746,1.108
			c0.511,1.887,2.17,3.15,4.181,3.142c2.018-0.008,3.614-1.261,4.146-3.168C63.165,102.521,63.111,102.174,62.208,102.19z"/>
		<path fill="#09A0E1" d="M65.29,94.677c-0.317-0.631,0.901-1.241,0.137-1.807c-0.709-0.525-1.6-0.485-2.408-0.12
			c-1.202,0.544-1.783,1.489-1.725,2.829c0.059,1.367,0.81,2.2,2.045,2.595c1.204,0.386,2.239,0.002,3.053-0.94
			c0.585-0.677,0.863-1.526,0.562-2.345C66.617,93.975,65.819,95.12,65.29,94.677z"/>
		<path fill="#09A0E1" d="M55.974,96.822c0.376-0.605,0.571-1.354,0.258-1.991c-0.383-0.781-1.041,0.202-1.562-0.098
			c-0.485-0.72,0.917-1.291,0.037-1.888c-0.728-0.494-1.632-0.443-2.426-0.076c-1.258,0.581-1.843,1.614-1.687,3
			c0.149,1.335,0.959,2.175,2.225,2.463C54.17,98.541,55.25,97.984,55.974,96.822z"/>
		<path fill="#09A0E1" d="M66.817,89.82c-0.446,0.007-0.892,0.002-1.338,0.002c0-0.007,0-0.015,0-0.022
			c-0.446,0-0.892,0.013-1.337-0.004c-0.477-0.018-0.901-0.027-0.906,0.645c-0.004,0.622,0.34,0.73,0.857,0.718
			c0.892-0.02,1.784-0.013,2.676-0.005c0.454,0.004,0.749-0.1,0.767-0.651C67.552,89.954,67.285,89.812,66.817,89.82z"/>
		<path fill="#09A0E1" d="M51.542,91.712c1.005-0.57,2.04-1.134,3.049-1.74c0.345-0.207,0.135-0.511-0.005-0.772
			c-0.182-0.341-0.387-0.553-0.811-0.306c-0.89,0.521-1.792,1.02-2.693,1.523c-0.371,0.208-0.473,0.461-0.204,0.83
			C51.046,91.475,51.12,91.809,51.542,91.712z"/>
	</g>
</g>
</svg>
