<?xml version="1.0" encoding="utf-8"?>
<!-- Generator: Adobe Illustrator 19.1.0, SVG Export Plug-In . SVG Version: 6.00 Build 0)  -->
<svg version="1.1" id="Layer_1" xmlns="http://www.w3.org/2000/svg" xmlns:xlink="http://www.w3.org/1999/xlink" x="0px" y="0px"
	 viewBox="0 0 200 200" enable-background="new 0 0 200 200" xml:space="preserve">
<g>
	<path fill-rule="evenodd" clip-rule="evenodd" fill="#F48120" d="M72.524,102.499l-0.134,0.033l-0.142,0.033l-0.15,0.025
		l-0.158,0.025l-0.339,0.042l-0.371,0.025l-0.394,0.025l-0.41,0.008h-0.418h-0.434l-0.434-0.008l-0.434-0.008l-0.426-0.008
		l-0.418-0.008l-0.41-0.008l-0.378-0.008l-0.363-0.008h-0.331l-0.41,0.008h-0.386l-0.173-0.008l-0.173-0.017l-0.079-0.008
		l-0.071-0.017l-0.071-0.025l-0.071-0.025l-0.063-0.025l-0.063-0.033l-0.055-0.042l-0.055-0.042l-0.047-0.042l-0.039-0.058
		l-0.039-0.058l-0.032-0.066l-0.024-0.075l-0.024-0.075l-0.016-0.083l-0.008-0.1v-0.1v-0.108l0.016-0.116l0.016-0.133l0.039-0.208
		l0.055-0.208l0.071-0.208l0.087-0.199l0.095-0.191l0.11-0.183l0.118-0.183l0.134-0.174l0.142-0.166l0.158-0.158l0.158-0.15
		l0.173-0.141l0.181-0.133l0.189-0.125l0.197-0.116l0.205-0.108l0.205-0.1l0.221-0.083l0.221-0.075l0.229-0.066l0.229-0.05
		l0.237-0.042l0.237-0.033l0.237-0.008l0.244-0.008l0.244,0.008l0.252,0.025l0.244,0.042l0.244,0.05l0.244,0.066l0.244,0.083
		l0.244,0.1l0.118,0.058l0.126,0.058l0.118,0.066l0.118,0.075l0.11,0.075l0.118,0.091l0.11,0.083l0.11,0.1l0.11,0.1l0.11,0.1
		l0.102,0.108l0.102,0.116l0.095,0.116l0.087,0.116l0.087,0.125l0.087,0.133l0.079,0.125l0.071,0.133l0.063,0.141l0.063,0.133
		l0.055,0.141l0.047,0.15l0.039,0.141l0.032,0.141l0.024,0.15l0.024,0.15l0.008,0.15v0.15l-0.008,0.15l-0.024,0.158l-0.024,0.15
		L72.524,102.499L72.524,102.499z M64.805,107.808l13.505-0.028l0.168,0c0.506-0.001,0.916-0.429,0.921-0.961
		c0.019-2.001-0.021-4.781-0.411-6.513c-0.452-2.01-1.405-3.499-2.822-4.902c-1.424-1.409-2.871-2.206-4.833-2.684
		c-1.801-0.439-3.893-0.417-5.676,0.042c-1.967,0.506-3.768,1.537-5.14,3.057c-1.648,1.826-2.556,4.136-2.901,6.63
		c-0.463,3.349-0.094,6.897,1.451,9.771c1.029,1.915,2.533,3.453,4.447,4.378c1.923,0.93,3.997,1.305,6.149,1.221
		c1.933-0.075,3.802-0.548,5.337-1.595c1.437-0.98,3.42-2.919,3.619-4.827c0.018-0.174,0.089-0.46,0.117-0.732
		c0.034-0.331-0.193-0.628-0.508-0.664c-0.022-0.003-0.041-0.004-0.063-0.004v0c-0.518-0.001-5.127,0.008-5.127,0.008
		c-0.304,0.064-0.572,0.184-0.806,0.428c-0.475,0.497-0.458,0.654-0.922,0.939c-0.889,0.545-2.333,0.663-3.319,0.465
		c-1.319-0.264-2.525-1.108-3.185-2.26c-0.224-0.39-0.561-1.187-0.229-1.62c0.019-0.025,0.094-0.106,0.145-0.132
		C64.754,107.81,64.763,107.808,64.805,107.808L64.805,107.808z"/>
	<path fill-rule="evenodd" clip-rule="evenodd" fill="#F48120" d="M116.306,117.462c1.432-0.016,3.894-0.044,5.144-0.064
		c0.435-0.007,0.782-0.38,0.78-0.837h0c-0.006-1.138-0.022-2.874-0.034-4.185c-0.004-0.464-0.362-0.838-0.804-0.839
		c-0.636-0.002-3.119-0.009-3.119-0.009c-0.02-0.001-0.037-0.003-0.051-0.005c-0.654-0.099-0.695-0.753-0.783-1.454
		c-0.01-0.081-0.02-0.168-0.029-0.26l-0.011-9.901c0.006-0.199,0.013-0.399,0.019-0.6c0.009-0.281,0.224-0.504,0.491-0.509
		c1.059-0.022,3.424,0.061,3.911-0.056c0.348-0.083,0.631-0.211,0.733-0.532c0.055-0.173,0.072-0.336,0.078-0.511
		c0,0-0.051-3.354-0.05-4.04c0.001-0.488-0.372-0.906-0.837-0.91c-1.421-0.013-3.406,0.005-3.57-0.012
		c-0.422-0.044-0.796,0.048-0.922-0.302c-0.037-0.102-0.063-0.439-0.079-0.578l-0.021-4.359c-0.008-0.463-0.362-0.834-0.803-0.839
		l0,0c-1.095-0.013-1.167-0.012-1.242-0.011c-0.284,0.004-2.293-0.049-3.791-0.015c-0.495,0.011-0.889,0.435-0.89,0.955
		c-0.001,0.837-0.007,4.798-0.007,4.798c0,0.18-0.111,0.378-0.281,0.393c-0.754,0.064-1.867-0.006-1.961,0.024
		c-0.403,0.125-0.533,0.357-0.584,0.795l-0.001,3.983c0.03,0.27,0.098,0.532,0.262,0.707c0.356,0.382,0.863,0.29,1.401,0.301
		l0.553,0.011c0.42,0.008,0.68,0.359,0.694,0.8c0.025,0.81,0.025,0.817,0.026,0.824c0.001,0.022,0.001,0.048,0.002,0.078
		l0.003,11.116c-0.054,3.47,1.69,6.038,4.64,6.01C115.215,117.426,116.264,117.462,116.306,117.462L116.306,117.462z"/>
	<path fill-rule="evenodd" clip-rule="evenodd" fill="#F48120" d="M39.087,117.071c0.407-0.02,0.725-0.374,0.72-0.803
		c0.001-0.749,0.022-11.02,0.022-11.02s0.011-0.587,0.032-1.005c0.094-1.906,0.663-3.851,1.924-4.919
		c0.989-0.838,2.319-1.111,3.705-1.005c1.472,0.112,2.441,0.834,2.862,2.368c0.255,0.93,0.319,2.116,0.323,3.165
		c0.001,0.325,0,0.731,0,0.731v0.748c0,0,0.091,10.368,0.097,11.001c-0.085,0.387,0.232,0.745,0.608,0.676
		c0.419,0.003,3.625,0.023,5.096,0.033c0.493,0.048,0.88-0.446,0.732-0.95c-0.002-0.867-0.021-9.431-0.021-9.431
		s0.008-1.219,0.008-2.069c-0.002-3.05-0.163-6.425-1.782-8.865c-0.855-1.288-2.002-2.125-3.398-2.659
		c-1.607-0.615-3.745-0.851-5.385-0.515c-0.946,0.194-1.878,0.592-2.751,1.063c-0.58,0.313-1.443,0.814-1.443,0.814l-0.52,0.299
		c0,0-0.376-0.8-0.624-1.327c-0.172-0.365-0.209-0.451-0.815-0.447c-1.322,0.01-4.383,0.032-4.661,0.034
		c-0.253,0.093-0.407,0.345-0.383,0.626c-0.001,0.575-0.046,21.061-0.05,22.606c-0.05,0.465,0.311,0.868,0.757,0.839
		C34.885,117.064,38.611,117.071,39.087,117.071L39.087,117.071z"/>
	<path fill-rule="evenodd" clip-rule="evenodd" fill="#F48120" d="M93.349,104.249l-0.006,1.585
		c0.001,0.002,0.006,0.011,0.015,0.026l7.477,10.541c0.306,0.415,0.758,0.634,1.268,0.612c0.513-0.001,2.539-0.004,3.493-0.006
		c0.302-0.046,0.518-0.322,0.503-0.643l0.013-3.462l-0.024-0.066l-0.047-0.1l-0.41-0.681l-0.678-1.039l-0.851-1.255l-3.098-4.437
		l-0.142-0.208c0,0,3.762-5.531,4.951-7.279c0.272-0.352,0.391-0.748,0.362-1.201c0.009-0.862,0.024-2.289,0.03-2.889l0.001-0.115
		c0.004-0.398-0.299-0.724-0.678-0.729c-0.004,0-0.007,0-0.011,0c-0.548,0.003-2.967-0.03-3.347-0.009
		c-0.705,0.039-0.986,0.351-1.459,0.989c-0.57,0.769-1.24,1.782-1.876,2.684c-0.666,0.942-1.734,2.334-2.594,3.498
		C95.508,101.058,93.365,104.215,93.349,104.249L93.349,104.249z"/>
	<path fill-rule="evenodd" clip-rule="evenodd" fill="#F48120" d="M92.894,105.834l-0.007-1.585
		c-0.008-0.013-0.017-0.026-0.026-0.039l-7.479-10.429c-0.046-0.064-0.089-0.125-0.131-0.183c-0.275-0.429-0.688-0.669-1.18-0.684
		c-1.059,0.006-3.007,0.016-3.407,0.018c-0.362,0.008-0.649,0.324-0.641,0.704c0,0.007,0,0.013,0.001,0.02
		c0.002,0.429,0.008,2.109,0.011,3.042c-0.096,0.442,0.001,0.863,0.28,1.209c0.002,0.002,0.109,0.172,0.109,0.172l0.26,0.382
		l4.447,6.165l0.134,0.258l0.047,0.125l0.047,0.108c0,0-3.746,5.439-4.975,7.224c-0.271,0.376-0.394,0.781-0.382,1.252
		c0.004,0.749,0.011,1.905,0.014,2.409c-0.005,0.012-0.009,0.025-0.013,0.038c-0.02,0.505,0.328,0.937,0.805,0.997
		c0.466-0.001,2.264-0.004,3.263-0.006c0.389-0.006,0.719-0.158,0.986-0.455l0.184-0.26c0,0,0.063-0.087,0.163-0.225
		C85.604,115.815,92.759,106.104,92.894,105.834L92.894,105.834z"/>
	<path fill-rule="evenodd" clip-rule="evenodd" fill="#F48120" d="M138.668,102.499l-0.134,0.033l-0.142,0.033l-0.15,0.025
		l-0.158,0.025l-0.339,0.042l-0.371,0.025l-0.394,0.025l-0.41,0.008h-0.418h-0.434l-0.434-0.008l-0.434-0.008l-0.426-0.008
		l-0.418-0.008l-0.41-0.008l-0.378-0.008l-0.363-0.008h-0.331l-0.41,0.008h-0.386l-0.173-0.008l-0.173-0.017l-0.079-0.008
		l-0.071-0.017l-0.071-0.025l-0.071-0.025l-0.063-0.025l-0.063-0.033l-0.055-0.042l-0.055-0.042l-0.047-0.042l-0.039-0.058
		l-0.039-0.058l-0.032-0.066l-0.024-0.075l-0.024-0.075l-0.016-0.083l-0.008-0.1v-0.1v-0.108l0.016-0.116l0.016-0.133l0.039-0.208
		l0.055-0.208l0.071-0.208l0.087-0.199l0.095-0.191l0.11-0.183l0.118-0.183l0.134-0.174l0.142-0.166l0.158-0.158l0.158-0.15
		l0.173-0.141l0.181-0.133l0.189-0.125l0.197-0.116l0.205-0.108l0.205-0.1l0.221-0.083l0.221-0.075l0.229-0.066l0.229-0.05
		l0.237-0.042l0.237-0.033l0.237-0.008l0.244-0.008l0.244,0.008l0.252,0.025l0.244,0.042l0.244,0.05l0.244,0.066l0.244,0.083
		l0.244,0.1l0.118,0.058l0.126,0.058l0.118,0.066l0.118,0.075l0.11,0.075l0.118,0.091l0.11,0.083l0.11,0.1l0.11,0.1l0.11,0.1
		l0.102,0.108l0.102,0.116l0.095,0.116l0.087,0.116l0.087,0.125l0.087,0.133l0.079,0.125l0.071,0.133l0.063,0.141l0.063,0.133
		l0.055,0.141l0.047,0.15l0.039,0.141l0.032,0.141l0.024,0.15l0.024,0.15l0.008,0.15v0.15l-0.008,0.15l-0.024,0.158l-0.024,0.15
		L138.668,102.499L138.668,102.499z M130.948,107.808l13.505-0.028l0.168,0c0.506-0.001,0.916-0.429,0.921-0.961
		c0.019-2.001-0.021-4.781-0.411-6.513c-0.452-2.01-1.405-3.499-2.822-4.902c-1.424-1.409-2.87-2.206-4.833-2.684
		c-1.801-0.439-3.893-0.417-5.676,0.042c-1.967,0.506-3.768,1.537-5.14,3.057c-1.648,1.826-2.556,4.136-2.901,6.63
		c-0.463,3.349-0.094,6.897,1.451,9.771c1.029,1.915,2.533,3.453,4.447,4.378c1.923,0.93,3.997,1.305,6.149,1.221
		c1.933-0.075,3.802-0.548,5.337-1.595c1.437-0.98,3.42-2.919,3.619-4.827c0.018-0.174,0.089-0.46,0.117-0.732
		c0.034-0.331-0.193-0.628-0.508-0.664c-0.022-0.003-0.041-0.004-0.063-0.004l0,0c-0.518-0.001-5.127,0.008-5.127,0.008
		c-0.304,0.064-0.572,0.184-0.806,0.428c-0.475,0.497-0.458,0.654-0.922,0.939c-0.889,0.545-2.333,0.663-3.319,0.465
		c-1.319-0.264-2.525-1.108-3.185-2.26c-0.224-0.39-0.561-1.187-0.229-1.62c0.019-0.025,0.094-0.106,0.145-0.132
		C130.898,107.81,130.907,107.808,130.948,107.808L130.948,107.808z"/>
	<path fill-rule="evenodd" clip-rule="evenodd" fill="#F48120" d="M158.493,112.102c0-0.33-0.252-0.599-0.566-0.602
		c-0.036-0.007-0.074-0.014-0.113-0.02l-1.963-0.024c-0.146,0.01-0.222,0.017-0.222,0.017c-0.067,0.004-0.132,0.007-0.195,0.007
		c-0.284,0.001-0.498-0.073-0.639-0.316c-0.128-0.221-0.178-0.398-0.229-0.665c-0.25-1.315-0.227-5.207-0.221-5.882
		c0.016-1.715,0.003-21.47,0-21.538c-0.039-0.766-0.139-0.899-0.989-0.944c-0.339-0.018-3.305-0.028-4.802,0.004l-0.276,0.006
		c-0.272,0.006-0.494,0.217-0.526,0.501l0,0c-0.036,0.319-0.039,0.442-0.036,0.573l0.028,23.975
		c-0.001,2.71,0.149,5.818,1.571,7.866c0.709,1.021,1.64,1.764,2.775,2.162c1.19,0.417,4.522,0.305,3.816,0.304
		c0.923,0.001,1.351,0.075,1.973-0.046c0.36-0.07,0.613-0.391,0.613-0.775C158.493,115.409,158.493,112.46,158.493,112.102
		L158.493,112.102z"/>
	<path fill="#F48120" d="M162.934,116.64v-2.994h1.165c0.332,0,0.573,0.027,0.724,0.081c0.151,0.054,0.271,0.149,0.362,0.287
		c0.09,0.138,0.135,0.295,0.135,0.472c0,0.224-0.069,0.411-0.206,0.557c-0.094,0.1-0.221,0.175-0.379,0.225l0.674,1.38l-0.587-0.007
		l-0.524-1.243l-0.893-0.007v1.25H162.934L162.934,116.64z M163.405,114.912h0.464c0.301,0,0.659-0.005,0.735-0.029
		c0.075-0.024,0.133-0.067,0.176-0.127c0.042-0.06,0.064-0.135,0.064-0.224c0-0.101-0.028-0.182-0.084-0.244
		c-0.056-0.062-0.135-0.102-0.237-0.118c-0.051-0.008-0.374-0.017-0.628-0.017h-0.489V114.912L163.405,114.912z"/>
	<path fill-rule="evenodd" clip-rule="evenodd" fill="#F48120" d="M164.018,112.721c1.222,0,2.213,1.062,2.213,2.371
		c0,1.309-0.991,2.371-2.213,2.371c-1.222,0-2.213-1.062-2.213-2.371C161.805,113.782,162.796,112.721,164.018,112.721
		L164.018,112.721z M164.018,112.302c1.438,0,2.604,1.249,2.604,2.79c0,1.54-1.166,2.79-2.604,2.79c-1.438,0-2.604-1.249-2.604-2.79
		C161.414,113.551,162.58,112.302,164.018,112.302L164.018,112.302z"/>
</g>
</svg>
