<?xml version="1.0" encoding="utf-8"?>
<!-- Generator: Adobe Illustrator 19.1.0, SVG Export Plug-In . SVG Version: 6.00 Build 0)  -->
<svg version="1.1" id="Layer_1" xmlns="http://www.w3.org/2000/svg" xmlns:xlink="http://www.w3.org/1999/xlink" x="0px" y="0px"
	 viewBox="0 0 200 200" enable-background="new 0 0 200 200" xml:space="preserve">
<g>
	<g>
		<g>
			<path fill-rule="evenodd" clip-rule="evenodd" fill="#034EA1" d="M81.095,85.695l-4.189,6.294h-3.418L70.6,96.283h3.591
				l-10.235,15.383c0,0-0.793,1.225-0.793,2.976c0,1.748,2.193,2.012,2.193,2.012h7.786l2.453-4.463H71.74
				c0,0-1.489-0.174-0.794-1.387c0.705-1.234,9.658-14.521,9.658-14.521h4.515l2.477-4.294h-4.134l4.153-6.294H81.095L81.095,85.695
				z"/>
			<polygon fill-rule="evenodd" clip-rule="evenodd" fill="#034EA1" points="105.385,116.653 125.183,85.695 118.56,85.695 
				98.771,116.653 105.385,116.653 			"/>
			<polygon fill-rule="evenodd" clip-rule="evenodd" fill="#034EA1" points="161.013,116.653 180.802,85.695 174.195,85.695 
				154.401,116.653 161.013,116.653 			"/>
			<path fill-rule="evenodd" clip-rule="evenodd" fill="#034EA1" d="M102.353,106.6H86.429c0,0-1.624,1.981-1.804,3.672
				c0,0,0,1.394,1.689,1.394c1.691,0,12.25,0,12.25,0l-3.212,4.987h-9.971c0,0-7.572,0-7.572-4.463c0,0-0.072-3.327,5.479-11.061
				c5.558-7.746,9.36-8.041,15.744-8.041c6.384,0,8.116,2.024,7.912,3.707C106.73,98.717,106.507,99.727,102.353,106.6
				L102.353,106.6z M89.145,102.264h10.497c0,0,1.175-2.011,1.53-3.671c0.356-1.665-1.568-2.101-3.716-2.101
				C95.321,96.491,92.032,96.715,89.145,102.264L89.145,102.264z"/>
			<path fill-rule="evenodd" clip-rule="evenodd" fill="#034EA1" d="M157.399,106.6h-15.922c0,0-1.623,1.981-1.803,3.672
				c0,0,0,1.394,1.687,1.394c1.693,0,12.259,0,12.259,0l-3.213,4.987h-9.972c0,0-7.579,0-7.579-4.463c0,0-0.078-3.327,5.483-11.061
				c5.556-7.746,9.359-8.041,15.741-8.041c6.386,0,8.108,2.024,7.924,3.707C161.784,98.717,161.557,99.727,157.399,106.6
				L157.399,106.6z M144.198,102.264h10.495c0,0,1.177-2.011,1.533-3.671c0.348-1.665-1.573-2.101-3.719-2.101
				C150.366,96.491,147.081,96.715,144.198,102.264L144.198,102.264z"/>
			<path fill-rule="evenodd" clip-rule="evenodd" fill="#034EA1" d="M140.408,93.088l-3.241,4.936c0,0-5.251,0-5.778,0
				c-0.525,0-4.716,0.435-8.476,4.633c-3.759,4.2-4.058,6.206-4.217,7.615c0,0,0,1.394,1.677,1.394c1.697,0,10.678,0,10.678,0
				l-3.207,4.987h-8.393c0,0-8.171,0.256-7.572-4.463c0,0-0.083-3.327,5.474-11.061c0,0,5.029-8.041,15.881-8.041H140.408
				L140.408,93.088z"/>
			<path fill-rule="evenodd" clip-rule="evenodd" fill="#034EA1" d="M163.556,116.675l1.297-2.04h0.476l-0.398,1.723l1.804-1.723
				h0.467l-1.303,2.04h-0.311l0.766-1.21c0.031-0.034,0.072-0.106,0.137-0.205c0.061-0.09,0.127-0.195,0.202-0.305l-1.794,1.72
				h-0.326l0.392-1.72l-0.041,0.065c-0.031,0.044-0.083,0.123-0.144,0.228c-0.059,0.098-0.111,0.173-0.136,0.216l-0.772,1.21
				H163.556L163.556,116.675z"/>
			<polygon fill-rule="evenodd" clip-rule="evenodd" fill="#034EA1" points="166.505,116.675 166.693,116.373 167.045,116.373 
				166.849,116.675 166.505,116.675 			"/>
			<path fill-rule="evenodd" clip-rule="evenodd" fill="#034EA1" d="M169.44,114.875h0.809c0.114,0,0.192,0.01,0.245,0.04
				c0.091,0.054,0.091,0.15,0,0.292c-0.087,0.139-0.188,0.237-0.317,0.286c-0.121,0.051-0.259,0.078-0.414,0.078h-0.768
				L169.44,114.875L169.44,114.875z M168.292,116.675l0.554-0.874h0.758c0.137,0,0.224,0.014,0.274,0.037
				c0.083,0.048,0.083,0.137,0.006,0.262l-0.196,0.342c-0.049,0.084-0.074,0.134-0.083,0.165c-0.012,0.024-0.019,0.054-0.019,0.069
				h0.404l0.031-0.046c-0.036-0.019-0.049-0.059-0.021-0.128c0.003-0.034,0.038-0.096,0.08-0.168l0.166-0.28
				c0.068-0.115,0.093-0.199,0.08-0.252c-0.018-0.056-0.058-0.096-0.131-0.127c0.134-0.051,0.259-0.112,0.371-0.19
				c0.11-0.078,0.205-0.18,0.277-0.299c0.153-0.239,0.144-0.392-0.031-0.478c-0.097-0.051-0.234-0.072-0.423-0.072h-1.125
				l-1.304,2.04H168.292L168.292,116.675z"/>
			<polygon fill-rule="evenodd" clip-rule="evenodd" fill="#034EA1" points="170.478,116.675 170.675,116.373 171.022,116.373 
				170.827,116.675 170.478,116.675 			"/>
			<polygon fill-rule="evenodd" clip-rule="evenodd" fill="#034EA1" points="20.316,110.277 41.477,110.277 41.196,109.978 
				43.333,109.978 43.562,110.277 50.506,110.277 49.361,111.811 44.935,111.811 45.012,111.904 44.274,112.843 43.155,111.811 
				19.198,111.835 20.316,110.277 			"/>
			<polygon fill-rule="evenodd" clip-rule="evenodd" fill="#034EA1" points="40.179,109.038 39.493,108.396 21.691,108.42 
				22.835,106.839 37.813,106.839 37.509,106.54 40.307,106.54 40.561,106.839 53.022,106.839 51.853,108.396 41.934,108.396 
				42.494,109.038 40.179,109.038 			"/>
			<polygon fill-rule="evenodd" clip-rule="evenodd" fill="#034EA1" points="36.492,105.601 35.754,104.913 24.284,104.937 
				25.428,103.355 33.593,103.355 33.847,103.034 39.493,103.034 39.213,103.355 55.617,103.355 54.447,104.913 38.882,104.913 
				39.467,105.601 36.492,105.601 			"/>
			<polygon fill-rule="evenodd" clip-rule="evenodd" fill="#034EA1" points="34.559,102.096 35.017,101.521 26.776,101.521 
				27.922,99.963 36.213,99.963 36.543,99.528 42.52,99.528 42.138,99.963 58.109,99.94 56.966,101.499 40.816,101.521 
				40.307,102.096 34.559,102.096 			"/>
			<polygon fill-rule="evenodd" clip-rule="evenodd" fill="#034EA1" points="37.255,98.589 37.687,98.037 29.346,98.037 
				30.49,96.479 38.882,96.479 39.213,96.066 45.494,96.066 45.139,96.479 60.653,96.479 59.508,98.037 43.791,98.037 
				43.333,98.589 37.255,98.589 			"/>
			<polygon fill-rule="evenodd" clip-rule="evenodd" fill="#034EA1" points="39.925,95.127 40.256,94.715 31.813,94.715 
				32.957,93.157 41.451,93.157 41.756,92.744 48.369,92.744 48.012,93.157 63.144,93.157 61.975,94.715 46.664,94.715 
				46.309,95.127 39.925,95.127 			"/>
			<polygon fill-rule="evenodd" clip-rule="evenodd" fill="#034EA1" points="42.469,91.804 42.927,91.209 34.406,91.209 
				35.55,89.65 44.121,89.65 44.351,89.375 51.294,89.375 51.039,89.65 65.739,89.65 64.569,91.209 49.691,91.209 49.183,91.804 
				42.469,91.804 			"/>
			<path fill-rule="evenodd" clip-rule="evenodd" fill="#034EA1" d="M45.062,88.436l0.382-0.483h-8.622l1.119-1.558
				c4.298,0,8.596,0,12.87,0l1.449-2.063h-0.254l0.712-1.008h1.195l-0.788,1.008h-0.204l-1.627,2.063h2.569H68.13l-1.145,1.535
				l-14.471,0.022l-0.407,0.483H45.062L45.062,88.436z"/>
		</g>
	</g>
</g>
</svg>
