<?xml version="1.0" encoding="utf-8"?>
<!-- Generator: Adobe Illustrator 19.1.0, SVG Export Plug-In . SVG Version: 6.00 Build 0)  -->
<svg version="1.1" id="Layer_1" xmlns="http://www.w3.org/2000/svg" xmlns:xlink="http://www.w3.org/1999/xlink" x="0px" y="0px"
	 viewBox="0 0 200 200" enable-background="new 0 0 200 200" xml:space="preserve">
<g>
	<path fill="#17468E" d="M97.444,92.443v23.682h-6.515v-3.146c-0.945,1.149-2.047,2.011-3.304,2.585
		c-1.258,0.574-2.672,0.862-4.243,0.862c-2.729,0-4.776-0.685-6.141-2.054c-1.364-1.369-2.047-3.415-2.047-6.139v-15.79h6.651
		v13.953c0,1.691,0.297,2.898,0.893,3.619c0.595,0.722,1.579,1.082,2.951,1.082c1.556,0,2.795-0.448,3.718-1.345
		c0.923-0.897,1.384-2.118,1.384-3.663V92.443H97.444L97.444,92.443z"/>
	<path fill-rule="evenodd" clip-rule="evenodd" fill="#17468E" d="M114.948,108.89h6.606c-0.667,2.499-2.012,4.457-4.035,5.873
		c-2.023,1.417-4.49,2.125-7.399,2.125c-3.577,0-6.411-1.153-8.502-3.459c-2.091-2.306-3.137-5.43-3.137-9.373
		c0-3.885,1.03-6.947,3.09-9.188c2.06-2.24,4.877-3.361,8.451-3.361c3.786,0,6.709,1.103,8.769,3.308
		c2.06,2.205,3.09,5.345,3.09,9.421c0,0.452-0.004,0.79-0.011,1.016c-0.007,0.226-0.025,0.44-0.055,0.644h-16.495
		c0.091,1.862,0.564,3.266,1.419,4.212c0.856,0.946,2.086,1.418,3.691,1.418c1.136,0,2.067-0.214,2.794-0.643
		C113.949,110.456,114.524,109.791,114.948,108.89L114.948,108.89z M105.318,101.741h9.722c-0.061-1.602-0.504-2.822-1.329-3.659
		c-0.825-0.837-2.01-1.256-3.555-1.256c-1.439,0-2.571,0.422-3.396,1.267C105.935,98.938,105.455,100.154,105.318,101.741
		L105.318,101.741z"/>
	<path fill="#17468E" d="M158.388,115.978c-0.584,0.015-2.371,0.147-3.29,0.147c-0.811,0-1.476-0.013-1.696-0.013
		c-2.437,0-4.104-0.456-5.002-1.367c-0.898-0.911-1.346-2.709-1.346-5.393V85.536h6.312v6.906h6.942v4.477h-6.942v12.739
		c0,0.626,0.138,1.038,0.415,1.235c0.277,0.197,0.845,0.295,1.704,0.295h2.903V115.978L158.388,115.978z"/>
	<path fill-rule="evenodd" clip-rule="evenodd" fill="#17468E" d="M159.691,89.386v-5.775h6.357v5.775H159.691L159.691,89.386z
		 M159.691,115.798V92.443h6.357v23.356H159.691L159.691,115.798z"/>
	<path fill="#17468E" d="M74.215,115.978c-0.584,0.015-2.371,0.147-3.29,0.147c-0.811,0-1.476-0.013-1.696-0.013
		c-2.437,0-4.104-0.456-5.002-1.367c-0.898-0.911-1.346-2.709-1.346-5.393V85.536h6.312v6.906h6.942v4.477h-6.942v12.739
		c0,0.626,0.138,1.038,0.415,1.235c0.277,0.197,0.845,0.295,1.704,0.295h2.903V115.978L74.215,115.978z"/>
	<path fill="#17468E" d="M123.325,116.125V92.443h6.515v3.146c0.945-1.149,2.047-2.011,3.305-2.585
		c1.258-0.575,2.672-0.862,4.243-0.862c2.73,0,4.777,0.685,6.141,2.054c1.364,1.369,2.047,3.415,2.047,6.139v15.79h-6.652v-13.953
		c0-1.691-0.297-2.898-0.892-3.619c-0.595-0.722-1.579-1.082-2.951-1.082c-1.556,0-2.795,0.448-3.718,1.345
		c-0.923,0.897-1.384,2.118-1.384,3.663v13.647H123.325L123.325,116.125z"/>
	<path fill="#17468E" d="M47.837,82.753H35.266c-6.126,0-11.093,4.967-11.093,11.093v12.308c0,6.127,4.966,11.093,11.093,11.093
		h23.663V93.846C58.929,87.719,53.963,82.753,47.837,82.753z M56.639,114.964H36.108c-5.315,0-9.624-4.309-9.624-9.624V94.661
		c0-5.315,4.309-9.625,9.624-9.625h10.907c5.315,0,9.624,4.309,9.624,9.625V114.964z"/>
	<path fill="#17468E" d="M37.771,95.695c0-1.014,0.822-1.836,1.836-1.836c1.014,0,1.836,0.822,1.836,1.836
		c0,1.014-0.822,1.836-1.836,1.836C38.593,97.531,37.771,96.709,37.771,95.695L37.771,95.695z"/>
	<polygon fill="#17468E" points="38.495,101.163 41.446,101.163 39.737,107.319 36.786,107.319 38.495,101.163 	"/>
	<path fill="#17468E" d="M42.847,91.946c0,0,2.681,3.727,2.681,8.186c0,4.458-2.802,7.863-2.802,7.863l2.117,1.463
		c0,0,3.289-4.116,3.289-9.326c0-4.677-3.24-9.737-3.24-9.737L42.847,91.946L42.847,91.946z"/>
</g>
</svg>
