<?xml version="1.0" encoding="utf-8"?>
<!-- Generator: Adobe Illustrator 19.1.0, SVG Export Plug-In . SVG Version: 6.00 Build 0)  -->
<svg version="1.1" id="Layer_1" xmlns="http://www.w3.org/2000/svg" xmlns:xlink="http://www.w3.org/1999/xlink" x="0px" y="0px"
	 viewBox="0 0 200 200" enable-background="new 0 0 200 200" xml:space="preserve">
<g>
	<path fill="#231F20" d="M69.324,101.011c0.826-3.204,3.774-5.5,7.178-5.5c3.404,0,6.354,2.298,7.179,5.5H69.324z M82.971,106.41
		c-1.314,2.269-3.774,3.698-6.469,3.698c-3.393,0-6.33-2.273-7.171-5.468h18.252v-1.815c0-6.016-4.971-10.91-11.081-10.91
		c-6.112,0-11.082,4.894-11.082,10.91c0,6.017,4.97,10.914,11.082,10.914c4.753,0,8.949-2.956,10.491-7.373L82.971,106.41z
		 M88.986,91.624v21.833h3.666V95.933h3.714v-3.595h-3.714v-0.714c0-1.263,1.053-2.294,2.345-2.294h1.369V85.7h-1.369
		C91.682,85.7,88.986,88.357,88.986,91.624 M128.76,91.916c-4.81,0-8.724,3.84-8.724,8.558v12.982h3.63v-12.982
		c0-2.736,2.285-4.963,5.093-4.963c2.79,0,5.059,2.227,5.059,4.963v12.982h3.63v-12.982C137.448,95.756,133.55,91.916,128.76,91.916
		 M107.551,110.108c-4.108,0-7.449-3.268-7.449-7.283c0-4.033,3.341-7.315,7.449-7.315c4.108,0,7.449,3.282,7.449,7.315
		C115,106.841,111.658,110.108,107.551,110.108 M107.551,91.916c-6.11,0-11.081,4.894-11.081,10.91
		c0,6.017,4.972,10.914,11.081,10.914c6.11,0,11.082-4.897,11.082-10.914C118.632,96.81,113.66,91.916,107.551,91.916
		 M55.327,91.916c-4.809,0-8.723,3.84-8.723,8.558v12.982h3.631v-12.982c0-2.736,2.283-4.963,5.092-4.963
		c2.789,0,5.059,2.227,5.059,4.963v12.982h3.631v-12.982C64.017,95.756,60.119,91.916,55.327,91.916 M41.569,105.109
		c0,2.737-2.284,4.965-5.092,4.965c-2.789,0-5.058-2.228-5.058-4.965V85.7h-3.631v19.409c0,4.739,3.897,8.594,8.689,8.594
		c4.81,0,8.724-3.855,8.724-8.594V85.7h-3.632V105.109z"/>
	<g>
		<path fill="#FFD100" d="M168.176,96.832c0,0.858,0.697,1.551,1.554,1.551h0.933c0.856,0,1.55-0.694,1.55-1.551v-3.417
			c0-0.858-0.694-1.552-1.55-1.552h-0.933c-0.857,0-1.554,0.694-1.554,1.552V96.832z"/>
		<path fill="#FFD100" d="M168.176,104.673c0,0.858,0.697,1.551,1.554,1.551h0.933c0.856,0,1.55-0.694,1.55-1.551v-3.417
			c0-0.858-0.694-1.551-1.55-1.551h-0.933c-0.857,0-1.554,0.694-1.554,1.551V104.673z"/>
		<path fill="#FFD100" d="M168.176,112.748c0,0.856,0.697,1.551,1.554,1.551h0.933c0.856,0,1.55-0.695,1.55-1.551v-3.419
			c0-0.854-0.694-1.55-1.55-1.55h-0.933c-0.857,0-1.554,0.696-1.554,1.55V112.748z"/>
		<path fill="#FFD100" d="M156.688,104.673c0,0.858,0.695,1.551,1.552,1.551h0.931c0.861,0,1.554-0.694,1.554-1.551v-3.417
			c0-0.858-0.693-1.551-1.554-1.551h-0.931c-0.856,0-1.552,0.694-1.552,1.551V104.673z"/>
		<path fill="#FFD100" d="M156.688,112.748c0,0.856,0.695,1.551,1.552,1.551h0.931c0.861,0,1.554-0.695,1.554-1.551v-3.419
			c0-0.854-0.693-1.55-1.554-1.55h-0.931c-0.856,0-1.552,0.696-1.552,1.55V112.748z"/>
		<path fill="#FFD100" d="M162.587,104.673c0,0.858,0.696,1.551,1.553,1.551h0.931c0.859,0,1.552-0.694,1.552-1.551v-3.417
			c0-0.858-0.693-1.551-1.552-1.551h-0.931c-0.856,0-1.553,0.694-1.553,1.551V104.673z"/>
		<path fill="#FFD100" d="M162.587,112.748c0,0.856,0.696,1.551,1.553,1.551h0.931c0.859,0,1.552-0.695,1.552-1.551v-3.419
			c0-0.854-0.693-1.55-1.552-1.55h-0.931c-0.856,0-1.553,0.696-1.553,1.55V112.748z"/>
		<path fill="#FFD100" d="M145.17,104.673c0,0.858,0.696,1.551,1.553,1.551h0.931c0.858,0,1.552-0.694,1.552-1.551v-3.417
			c0-0.858-0.694-1.551-1.552-1.551h-0.931c-0.857,0-1.553,0.694-1.553,1.551V104.673z"/>
		<path fill="#FFD100" d="M145.17,112.748c0,0.856,0.696,1.551,1.553,1.551h0.931c0.858,0,1.552-0.695,1.552-1.551v-3.419
			c0-0.854-0.694-1.55-1.552-1.55h-0.931c-0.857,0-1.553,0.696-1.553,1.55V112.748z"/>
		<path fill="#FFD100" d="M151.069,112.748c0,0.856,0.695,1.551,1.553,1.551h0.935c0.857,0,1.55-0.695,1.55-1.551v-3.419
			c0-0.854-0.693-1.55-1.55-1.55h-0.935c-0.858,0-1.553,0.696-1.553,1.55V112.748z"/>
		<path fill="#FFD100" d="M139.737,112.748c0,0.856,0.694,1.551,1.55,1.551h0.933c0.859,0,1.553-0.695,1.553-1.551v-3.419
			c0-0.854-0.694-1.55-1.553-1.55h-0.933c-0.856,0-1.55,0.696-1.55,1.55V112.748z"/>
	</g>
</g>
</svg>
