<?xml version="1.0" encoding="utf-8"?>
<!-- Generator: Adobe Illustrator 19.1.0, SVG Export Plug-In . SVG Version: 6.00 Build 0)  -->
<svg version="1.1" id="Layer_1" xmlns="http://www.w3.org/2000/svg" xmlns:xlink="http://www.w3.org/1999/xlink" x="0px" y="0px"
	 viewBox="0 0 200 200" enable-background="new 0 0 200 200" xml:space="preserve">
<g>
	<path d="M105.963,97.975c0.108-0.466,0.186-0.942,0.33-1.396c0.771-2.424,2.052-4.481,4.04-6.145
		c1.982-1.66,4.238-2.665,6.739-2.933c3.653-0.39,7.057,0.354,10.038,2.718c2.727,2.163,4.258,4.988,4.777,8.338
		c0.314,2.023,0.036,4.064-0.785,5.985c-1.895,4.434-5.298,6.998-9.981,7.836c-4.712,0.843-8.715-0.605-11.991-4.066
		c-0.503-0.531-0.916-1.148-1.356-1.735c-0.102-0.136-0.146-0.315-0.281-0.62c1.293-0.313,2.55-0.617,3.808-0.92
		c0.341-0.082,0.687-0.143,1.024-0.238c1.086-0.304,1.954-0.483,3.036,0.486c2.31,2.069,6.243,1.407,7.951-0.709
		c0.495-0.614,0.799-1.382,1.258-2.199c-12.504,0-24.78,0-37.059,0c0.14,1.682,1.702,3.371,3.637,3.872
		c2.047,0.53,4.081,0.393,5.585-1.178c0.759-0.793,1.288-0.632,2.089-0.416c1.52,0.41,3.066,0.724,4.599,1.089
		c0.827,0.196,0.917,0.4,0.413,1.106c-1.753,2.456-3.97,4.348-6.917,5.161c-5.461,1.507-10.211,0.187-14.055-3.973
		c-2.457-2.659-3.372-5.954-2.906-9.494c0.508-3.86,2.492-6.951,5.788-9.06c3.404-2.177,7.111-2.624,10.993-1.505
		c4.822,1.39,7.758,4.598,9.003,9.413c0.043,0.165,0.005,0.351,0.005,0.528C105.818,97.938,105.89,97.957,105.963,97.975z
		 M113.476,97.45c3.639,0,7.222,0,10.817,0c-0.617-2.648-3.075-4.203-6.214-3.874C115.916,93.803,114.158,94.826,113.476,97.45z
		 M87.57,97.45c3.637,0,7.204,0,10.78,0c-0.468-2.203-2.792-4.237-6.038-3.891C90.011,93.804,88.021,95.118,87.57,97.45z"/>
	<path d="M43.323,88.172c2.654,0,5.013-0.017,7.371,0.027c0.234,0.004,0.607,0.344,0.671,0.592c1.11,4.325,2.181,8.661,3.267,12.992
		c0.049,0.195,0.154,0.375,0.28,0.674c1.238-4.511,2.459-8.927,3.655-13.351c0.176-0.651,0.42-0.99,1.193-0.955
		c1.581,0.072,3.168,0.047,4.751,0.008c0.584-0.014,0.832,0.193,0.983,0.744c1.232,4.499,2.49,8.992,3.798,13.696
		c1.248-4.914,2.452-9.651,3.658-14.398c2.568,0,5.072,0,7.723,0c-0.087,0.463-0.12,0.888-0.248,1.282
		c-1.621,4.998-3.261,9.991-4.886,14.988c-0.704,2.164-1.41,4.329-2.057,6.51c-0.194,0.654-0.477,0.903-1.174,0.888
		c-2.029-0.045-4.06-0.016-6.158-0.016c-1.35-4.938-2.693-9.85-4.084-14.939c-1.393,5.09-2.738,10.004-4.083,14.918
		c-2.373,0-4.672,0-7.049,0C48.416,104.006,45.893,96.163,43.323,88.172z"/>
	<path d="M129.832,88.172c2.957,0,5.704-0.015,8.45,0.023c0.28,0.004,0.651,0.267,0.818,0.517c1.106,1.653,2.167,3.337,3.246,5.008
		c0.09,0.14,0.21,0.262,0.392,0.485c0.854-1.321,1.788-2.501,2.428-3.823c0.874-1.804,2.104-2.468,4.115-2.256
		c1.948,0.206,3.934,0.045,6.149,0.045c-0.302,0.55-0.476,0.988-0.751,1.348c-2.476,3.237-4.97,6.46-7.442,9.667
		c3.159,4.159,6.299,8.293,9.44,12.428c-0.07,0.079-0.139,0.159-0.209,0.238c-2.412,0-4.828-0.08-7.235,0.033
		c-1.248,0.059-1.984-0.321-2.634-1.389c-1.18-1.941-2.524-3.783-3.874-5.775c-0.473,0.654-0.883,1.207-1.279,1.771
		c-1.178,1.677-2.345,3.362-3.534,5.031c-0.111,0.155-0.347,0.313-0.527,0.314c-2.807,0.02-5.613,0.014-8.688,0.014
		c0.456-0.691,0.782-1.247,1.165-1.759c2.547-3.404,5.094-6.808,7.676-10.185c0.438-0.573,0.346-0.941-0.059-1.461
		c-2.417-3.1-4.806-6.223-7.194-9.346C130.118,88.881,130.036,88.597,129.832,88.172z"/>
</g>
</svg>
