<?xml version="1.0" encoding="utf-8"?>
<!-- Generator: Adobe Illustrator 19.1.0, SVG Export Plug-In . SVG Version: 6.00 Build 0)  -->
<svg version="1.1" id="Layer_1" xmlns="http://www.w3.org/2000/svg" xmlns:xlink="http://www.w3.org/1999/xlink" x="0px" y="0px"
	 viewBox="0 0 35 35" enable-background="new 0 0 35 35" xml:space="preserve">
<g>
	<path fill="#A4B2BC" d="M17.488,3.5C25.204,3.479,31.457,9.714,31.5,17.474c0.043,7.717-6.235,14.011-13.989,14.026
		C9.773,31.514,3.495,25.241,3.5,17.497C3.505,9.76,9.739,3.522,17.488,3.5z M15.188,17.435c0,2.903,0,5.762,0,8.626
		c1.211,0,2.389,0,3.601,0c0-2.884,0-5.742,0-8.631c0.827,0,1.62,0,2.419,0c0.105-1.017,0.206-2.005,0.313-3.04
		c-0.923,0-1.818,0-2.704,0c-0.02-0.073-0.035-0.103-0.035-0.132c-0.002-0.535-0.009-1.07-0.002-1.605
		c0.008-0.644,0.26-0.887,0.905-0.889c0.585-0.001,1.169,0,1.77,0c0-1.002,0-1.97,0-2.978c-0.856,0-1.693-0.003-2.53,0.002
		c-0.262,0.002-0.527,0.005-0.785,0.042c-1.507,0.217-2.471,1.06-2.812,2.491c-0.096,0.404-0.123,0.829-0.139,1.246
		c-0.023,0.595-0.006,1.191-0.006,1.828c-0.581,0-1.13,0-1.691,0c0,1.033,0,2.024,0,3.04C14.048,17.435,14.59,17.435,15.188,17.435z
		"/>
</g>
</svg>
