<?xml version="1.0" encoding="utf-8"?>
<!-- Generator: Adobe Illustrator 19.1.0, SVG Export Plug-In . SVG Version: 6.00 Build 0)  -->
<svg version="1.1" id="Layer_1" xmlns="http://www.w3.org/2000/svg" xmlns:xlink="http://www.w3.org/1999/xlink" x="0px" y="0px"
	 viewBox="0 0 35 35" enable-background="new 0 0 35 35" xml:space="preserve">
<g>
	<path fill="#1337AA" d="M3.908,26.091c3.045,0.279,5.755-0.462,8.16-2.308c-1.171-0.073-2.234-0.433-3.17-1.133
		c-0.938-0.703-1.594-1.612-1.983-2.767c0.84,0.126,1.642,0.118,2.465-0.107c-3.271-0.784-4.538-3.709-4.407-5.515
		c0.394,0.149,0.78,0.327,1.184,0.44c0.397,0.111,0.813,0.156,1.239,0.198c-1.157-0.884-1.944-1.997-2.259-3.414
		c-0.314-1.412-0.104-2.75,0.611-4.033c3.027,3.56,6.849,5.514,11.53,5.845c-0.01-0.092-0.013-0.163-0.026-0.231
		c-0.518-2.801,1.074-5.533,3.789-6.377c2.065-0.642,3.935-0.202,5.54,1.258c0.197,0.18,0.356,0.216,0.606,0.155
		c1.027-0.25,2.007-0.614,2.928-1.133c0.07-0.039,0.144-0.072,0.264-0.131c-0.437,1.312-1.231,2.285-2.329,3.035
		c1.049-0.105,2.042-0.392,3.041-0.757c-0.2,0.268-0.39,0.545-0.603,0.802c-0.583,0.702-1.229,1.341-1.967,1.881
		c-0.13,0.096-0.166,0.202-0.162,0.358c0.081,3.698-0.992,7.045-3.138,10.039c-1.892,2.639-4.383,4.509-7.468,5.55
		c-2.397,0.809-4.861,1.031-7.371,0.71c-2.296-0.294-4.422-1.069-6.387-2.289C3.979,26.157,3.964,26.141,3.908,26.091z"/>
</g>
</svg>
