<?xml version="1.0" encoding="utf-8"?>
<!-- Generator: Adobe Illustrator 19.1.0, SVG Export Plug-In . SVG Version: 6.00 Build 0)  -->
<svg version="1.1" id="Layer_1" xmlns="http://www.w3.org/2000/svg" xmlns:xlink="http://www.w3.org/1999/xlink" x="0px" y="0px"
	 viewBox="0 0 35 35" enable-background="new 0 0 35 35" xml:space="preserve">
<g>
	<path fill="#1337AA" d="M1.318,20.135c0-1.757,0-3.513,0-5.27c0.014-0.084,0.035-0.167,0.04-0.252
		c0.039-0.644,0.062-1.29,0.115-1.932c0.092-1.116,0.197-2.236,0.575-3.297C2.553,7.967,3.56,7.064,5.04,6.753
		c0.595-0.125,1.21-0.18,1.819-0.211c2.166-0.111,4.332-0.248,6.5-0.281c2.892-0.043,5.785-0.006,8.677,0.014
		c2.445,0.017,4.886,0.136,7.321,0.375c1.83,0.18,3.329,1.376,3.716,3.143c0.226,1.03,0.389,2.085,0.457,3.137
		c0.204,3.155,0.212,6.315-0.029,9.47c-0.084,1.098-0.195,2.202-0.576,3.243c-0.51,1.392-1.504,2.283-2.962,2.598
		c-0.544,0.118-1.107,0.17-1.664,0.199c-2.226,0.114-4.452,0.26-6.68,0.295c-2.892,0.046-5.785,0.006-8.677-0.013
		c-2.445-0.016-4.886-0.135-7.321-0.376c-1.908-0.189-3.402-1.46-3.754-3.349c-0.206-1.106-0.316-2.23-0.448-3.348
		C1.359,21.148,1.35,20.64,1.318,20.135z M13.325,22.517c3.429-1.778,6.821-3.537,10.276-5.329
		c-3.461-1.806-6.853-3.575-10.276-5.361C13.325,15.407,13.325,18.936,13.325,22.517z"/>
</g>
</svg>
