<?xml version="1.0" encoding="utf-8"?>
<!-- Generator: Adobe Illustrator 19.1.0, SVG Export Plug-In . SVG Version: 6.00 Build 0)  -->
<svg version="1.1" id="Layer_1" xmlns="http://www.w3.org/2000/svg" xmlns:xlink="http://www.w3.org/1999/xlink" x="0px" y="0px"
	 viewBox="0 0 34 34" enable-background="new 0 0 34 34" xml:space="preserve">
<g opacity="0.7">
	<g>
		<path fill="#FFFFFF" d="M10.253,14.602c-0.084-1.925,0.029-5.904,2.119-8.29c1.139-1.301,2.747-1.961,4.778-1.961
			c1.856,0,3.338,0.615,4.406,1.827c2.088,2.371,2.198,6.46,2.114,8.424h1.271c0.092-2.162-0.055-6.552-2.434-9.257
			c-1.319-1.499-3.121-2.259-5.358-2.259c-2.413,0-4.341,0.806-5.733,2.396c-2.378,2.718-2.529,6.994-2.436,9.12H10.253z"/>
		<g>
			<path fill="#FFFFFF" d="M28.553,32.608H5.447c-0.35,0-0.632-0.283-0.632-0.632V14.529c0-0.35,0.283-0.632,0.632-0.632h23.105
				c0.35,0,0.632,0.283,0.632,0.632v17.446C29.185,32.325,28.902,32.608,28.553,32.608z M6.08,31.343h21.84V15.162H6.08V31.343z"/>
		</g>
	</g>
	<path fill="#FFFFFF" d="M16.982,29.107c-0.92,0-1.669-0.749-1.669-1.669v-4.013c0-0.002,0-0.004,0-0.006
		c-0.972-0.579-1.577-1.622-1.577-2.78c0-1.79,1.456-3.246,3.246-3.246c1.789,0,3.245,1.456,3.245,3.246
		c0,1.157-0.605,2.201-1.577,2.78c0,0.002,0,0.004,0,0.006v4.013C18.651,28.358,17.902,29.107,16.982,29.107z"/>
</g>
</svg>
