<?xml version="1.0" encoding="utf-8"?>
<!-- Generator: Adobe Illustrator 21.0.2, SVG Export Plug-In . SVG Version: 6.00 Build 0)  -->
<svg version="1.1" id="Layer_1" xmlns="http://www.w3.org/2000/svg" xmlns:xlink="http://www.w3.org/1999/xlink" x="0px" y="0px"
	 viewBox="0 0 180 74" enable-background="new 0 0 180 74" xml:space="preserve">
<g>
	<rect x="60.935" y="16.636" fill="#28439B" width="5.299" height="5.299"/>
	<rect x="60.935" y="1.998" fill="#28439B" width="10.598" height="10.598"/>
	<rect x="51.391" y="7.092" fill="#28439B" width="5.504" height="5.504"/>
	<rect x="32.617" y="34.932" fill="#28439B" width="5.504" height="5.504"/>
	<path fill="#ACD038" d="M29.602,16.369c-7.831,0-14.369,0.927-18.475,1.704c-2.965,0.562-5.092,1.12-6.202,1.436
		c-0.119,0.418-0.273,0.983-0.449,1.683c2.718,0.484,7.967,1.463,14.271,2.864c5.313,1.181,10.309,2.424,14.85,3.695
		c4.89,1.368,9.277,2.777,13.059,4.193c1.363-6.199,2.303-11.309,2.719-13.657c-0.789-0.208-1.952-0.477-3.515-0.746
		C42.749,17.007,37.402,16.369,29.602,16.369z"/>
	<path fill="#ACD038" d="M54.279,19.773c-0.418-0.119-0.983-0.273-1.683-0.448c-0.482,2.709-1.457,7.937-2.855,14.231
		c-1.177,5.298-2.417,10.284-3.685,14.822c-1.365,4.884-2.769,9.265-4.182,13.046c6.188,1.36,11.287,2.299,13.63,2.713
		c0.207-0.78,0.475-1.929,0.743-3.476c0.534-3.091,1.171-8.413,1.171-16.211c0-7.819-0.924-14.347-1.699-18.447
		C55.157,23.028,54.597,20.889,54.279,19.773z"/>
	<path fill="#ACD038" d="M25.588,60.639c-4.883-1.365-9.265-2.769-13.047-4.182c-1.363,6.203-2.3,11.292-2.713,13.63
		c0.779,0.207,1.928,0.475,3.476,0.743c3.091,0.534,8.413,1.171,16.211,1.171c7.831,0,14.369-0.927,18.475-1.704
		c2.957-0.56,5.089-1.118,6.202-1.436c0.119-0.419,0.274-0.983,0.449-1.683c-2.521-0.449-7.87-1.442-14.231-2.855
		C35.112,63.147,30.126,61.908,25.588,60.639z"/>
	<path fill="#ACD038" d="M1.786,44.099c0,7.818,0.924,14.347,1.699,18.447c0.561,2.965,1.123,5.11,1.441,6.229
		c0.418,0.119,0.982,0.273,1.683,0.449c0.482-2.709,1.457-7.936,2.853-14.222c1.176-5.294,2.415-10.278,3.682-14.815
		c1.364-4.882,2.768-9.263,4.18-13.044c-6.214-1.367-11.338-2.311-13.696-2.728c-0.2,0.78-0.456,1.926-0.712,3.461
		C2.4,30.97,1.786,36.296,1.786,44.099z"/>
	<path fill="#28439B" d="M71.426,35.227c0-5.41,5.92-7.638,9.573-6.435v3.475c-0.084-0.021-0.2-0.042-0.347-0.063
		c-0.548-0.063-0.948-0.095-1.201-0.095c-1.285,0-2.343,0.495-3.175,1.485c-0.832,0.99-1.248,2.359-1.248,4.107v7.772h-3.602V35.227
		z"/>
	<path fill="#28439B" d="M134.678,35.227c0-5.41,5.92-7.638,9.573-6.435v3.475c-0.084-0.021-0.2-0.042-0.348-0.063
		c-0.548-0.063-0.948-0.095-1.201-0.095c-1.285,0-2.343,0.495-3.175,1.485c-0.832,0.99-1.248,2.359-1.248,4.107v7.772h-3.602V35.227
		z"/>
	<path fill="#28439B" d="M84.79,38.238c0,1.369,0.379,2.517,1.137,3.444c0.758,0.927,1.843,1.39,3.254,1.39
		c2.022,0,3.349-0.905,3.981-2.717h3.412c-0.379,1.749-1.248,3.112-2.607,4.092c-1.359,0.979-2.954,1.469-4.787,1.469
		c-2.507,0-4.466-0.79-5.877-2.37c-1.411-1.58-2.117-3.654-2.117-6.224c0-1.158,0.184-2.259,0.553-3.302
		c0.368-1.043,0.9-1.964,1.595-2.765c0.695-0.8,1.532-1.427,2.512-1.88c0.979-0.453,2.059-0.679,3.238-0.679
		c1.158,0,2.217,0.221,3.175,0.663c0.958,0.442,1.785,1.053,2.48,1.832c0.695,0.78,1.221,1.674,1.58,2.686
		c0.358,1.011,0.537,2.064,0.537,3.159c0,0.4-0.021,0.801-0.063,1.201H84.79z M93.194,35.868c-0.063-1.201-0.78-4.16-3.995-4.16
		s-4.367,2.917-4.409,4.16H93.194z"/>
	<path fill="#28439B" d="M110.571,34.605c-0.148-0.969-0.553-1.722-1.216-2.259c-0.663-0.537-1.501-0.806-2.512-0.806
		c-0.527,0-1.048,0.084-1.564,0.253c-0.516,0.169-0.995,0.469-1.438,0.9c-0.442,0.432-0.801,1.043-1.074,1.832
		c-0.274,0.79-0.411,1.775-0.411,2.954c0,0.716,0.084,1.401,0.253,2.054c0.168,0.653,0.427,1.248,0.774,1.785
		c0.348,0.537,0.795,0.964,1.343,1.28c0.547,0.316,1.201,0.474,1.959,0.474c1.053,0,1.922-0.332,2.607-0.995
		c0.684-0.663,1.111-1.574,1.28-2.733h3.602c-0.337,2.128-1.148,3.755-2.433,4.881c-1.285,1.127-2.97,1.69-5.055,1.69
		c-2.486,0-4.429-0.784-5.829-2.354c-1.401-1.569-2.101-3.596-2.101-6.082c0-2.569,0.695-4.676,2.085-6.319
		c1.39-1.643,3.381-2.464,5.971-2.464c2.001,0,3.686,0.506,5.055,1.517c1.369,1.011,2.138,2.475,2.306,4.392H110.571z"/>
	<path fill="#28439B" d="M130.792,41.84l-0.005,4.036c-0.176,0.019-0.394,0.04-0.533,0.04c-0.779,0-1.406-0.153-1.88-0.458
		c-0.474-0.305-0.774-0.816-0.9-1.532c-0.674,0.653-1.527,1.148-2.559,1.485c-1.032,0.337-2.064,0.506-3.096,0.506
		c-1.58,0-2.907-0.416-3.981-1.248c-1.074-0.832-1.611-2.006-1.611-3.523c0-0.969,0.174-1.774,0.521-2.417
		c0.348-0.642,0.816-1.137,1.406-1.485c0.589-0.348,1.237-0.605,1.943-0.774c0.705-0.168,1.511-0.305,2.417-0.411
		c0.358-0.063,0.885-0.137,1.58-0.221c1.179-0.147,2.027-0.342,2.543-0.584c0.516-0.242,0.774-0.743,0.774-1.501
		c0-0.442-0.1-0.811-0.3-1.106c-0.2-0.295-0.464-0.521-0.79-0.679c-0.327-0.158-0.685-0.269-1.074-0.332
		c-0.39-0.063-0.795-0.095-1.216-0.095c-1.054,0-1.896,0.216-2.528,0.648c-0.632,0.432-0.99,1.08-1.074,1.943h-3.602
		c0.063-1.011,0.305-1.869,0.727-2.575c0.421-0.705,0.979-1.269,1.674-1.69c0.695-0.421,1.469-0.721,2.322-0.9
		c0.853-0.179,1.753-0.269,2.701-0.269c0.821,0,1.622,0.09,2.401,0.269c0.779,0.179,1.479,0.458,2.101,0.837
		c0.621,0.379,1.116,0.874,1.485,1.485c0.368,0.611,0.553,1.327,0.553,2.148V41.84z M127.19,37.29
		c-0.358,0.232-0.774,0.4-1.248,0.506c-0.474,0.106-1.069,0.2-1.785,0.284c-0.59,0.063-1.053,0.126-1.39,0.19
		c-0.906,0.148-1.622,0.422-2.148,0.821c-0.527,0.4-0.79,1.032-0.79,1.896c0,0.379,0.105,0.706,0.316,0.979
		c0.21,0.274,0.484,0.49,0.821,0.648c0.337,0.158,0.7,0.274,1.09,0.347c0.389,0.074,0.753,0.111,1.09,0.111
		c0.421,0,0.869-0.058,1.343-0.174c0.474-0.115,0.916-0.3,1.327-0.553c0.411-0.253,0.742-0.574,0.995-0.964
		c0.253-0.389,0.379-0.858,0.379-1.406V37.29z"/>
	<path fill="#28439B" d="M178.214,41.84l-0.005,4.036c-0.176,0.019-0.394,0.04-0.533,0.04c-0.779,0-1.406-0.153-1.88-0.458
		c-0.474-0.305-0.774-0.816-0.9-1.532c-0.674,0.653-1.527,1.148-2.559,1.485c-1.032,0.337-2.064,0.506-3.096,0.506
		c-1.58,0-2.907-0.416-3.981-1.248c-1.074-0.832-1.611-2.006-1.611-3.523c0-0.969,0.174-1.774,0.521-2.417
		c0.348-0.642,0.816-1.137,1.406-1.485c0.589-0.348,1.237-0.605,1.943-0.774c0.705-0.168,1.511-0.305,2.417-0.411
		c0.358-0.063,0.885-0.137,1.58-0.221c1.179-0.147,2.027-0.342,2.543-0.584c0.516-0.242,0.774-0.743,0.774-1.501
		c0-0.442-0.1-0.811-0.3-1.106c-0.2-0.295-0.464-0.521-0.79-0.679c-0.327-0.158-0.685-0.269-1.074-0.332
		c-0.39-0.063-0.795-0.095-1.216-0.095c-1.054,0-1.896,0.216-2.528,0.648c-0.632,0.432-0.99,1.08-1.074,1.943h-3.602
		c0.063-1.011,0.305-1.869,0.727-2.575c0.421-0.705,0.979-1.269,1.674-1.69c0.695-0.421,1.469-0.721,2.322-0.9
		c0.853-0.179,1.753-0.269,2.701-0.269c0.821,0,1.622,0.09,2.401,0.269c0.779,0.179,1.479,0.458,2.101,0.837
		c0.621,0.379,1.116,0.874,1.485,1.485c0.368,0.611,0.553,1.327,0.553,2.148V41.84z M174.612,37.29
		c-0.358,0.232-0.774,0.4-1.248,0.506c-0.474,0.106-1.069,0.2-1.785,0.284c-0.59,0.063-1.053,0.126-1.39,0.19
		c-0.906,0.148-1.622,0.422-2.148,0.821c-0.527,0.4-0.79,1.032-0.79,1.896c0,0.379,0.105,0.706,0.316,0.979
		c0.21,0.274,0.484,0.49,0.821,0.648c0.337,0.158,0.7,0.274,1.09,0.347c0.389,0.074,0.753,0.111,1.09,0.111
		c0.421,0,0.869-0.058,1.343-0.174c0.474-0.115,0.916-0.3,1.327-0.553c0.411-0.253,0.742-0.574,0.995-0.964
		c0.253-0.389,0.379-0.858,0.379-1.406V37.29z"/>
	<path fill="#28439B" d="M160.901,44.62c0,2.422-0.69,4.249-2.069,5.482c-1.38,1.232-3.365,1.848-5.955,1.848
		c-0.864,0-1.706-0.09-2.528-0.269c-0.821-0.179-1.58-0.469-2.275-0.869c-0.695-0.4-1.264-0.932-1.706-1.596
		c-0.442-0.663-0.706-1.448-0.79-2.354h3.602c0.21,0.948,0.648,1.585,1.311,1.911c0.664,0.326,1.532,0.49,2.607,0.49
		c1.432,0,2.491-0.353,3.175-1.058c0.684-0.706,1.027-1.743,1.027-3.112v-2.496h-0.063c-0.506,0.906-1.196,1.611-2.069,2.117
		c-0.874,0.506-1.817,0.758-2.828,0.758c-1.243,0-2.333-0.221-3.27-0.663c-0.937-0.442-1.706-1.058-2.306-1.848
		c-0.6-0.79-1.043-1.701-1.327-2.733c-0.284-1.032-0.426-2.148-0.426-3.349c0-1.116,0.168-2.164,0.505-3.144
		c0.337-0.979,0.826-1.848,1.469-2.607c0.642-0.758,1.422-1.353,2.338-1.785c0.916-0.431,1.943-0.648,3.08-0.648
		c1.074,0,2.038,0.227,2.891,0.679c0.853,0.453,1.504,1.233,1.943,2.006c1.201-2.12,3.665-2.243,3.665-2.243V44.62z M154.898,42.156
		c0.569-0.316,1.027-0.747,1.374-1.295c0.348-0.548,0.605-1.158,0.774-1.833c0.168-0.674,0.253-1.369,0.253-2.085
		c0-1.537-0.363-2.822-1.09-3.855c-0.727-1.032-1.828-1.548-3.302-1.548c-0.758,0-1.417,0.163-1.975,0.49
		c-0.558,0.327-1.006,0.764-1.343,1.311c-0.337,0.548-0.584,1.153-0.742,1.817c-0.158,0.663-0.237,1.354-0.237,2.069
		c0,0.695,0.084,1.364,0.253,2.006c0.168,0.643,0.421,1.206,0.758,1.69c0.779,1.137,1.874,1.706,3.286,1.706
		C153.666,42.63,154.329,42.472,154.898,42.156z"/>
	<g>
		<path fill="#ACD038" d="M129.079,57.134c-0.373-0.618-0.882-1.127-1.511-1.511c-0.619-0.377-1.325-0.659-2.098-0.837
			c-1.652-0.379-3.464-0.329-5.033-0.001c-0.846,0.178-1.625,0.48-2.316,0.898c-0.701,0.425-1.271,1.001-1.695,1.711
			c-0.424,0.71-0.671,1.581-0.734,2.591l-0.014,0.231h3.916l0.019-0.197c0.075-0.775,0.385-1.338,0.946-1.722
			c0.573-0.391,1.355-0.589,2.324-0.589c0.394,0,0.778,0.03,1.143,0.089c0.354,0.058,0.684,0.159,0.98,0.303
			c0.28,0.136,0.508,0.332,0.679,0.583c0.168,0.248,0.253,0.567,0.253,0.949c0,0.648-0.204,1.059-0.624,1.256
			c-0.478,0.224-1.284,0.408-2.396,0.547c-0.691,0.084-1.195,0.155-1.528,0.214c-0.885,0.104-1.681,0.239-2.365,0.402
			c-0.702,0.168-1.355,0.428-1.941,0.773c-0.603,0.355-1.087,0.867-1.442,1.522c-0.352,0.652-0.53,1.474-0.53,2.443
			c0,1.532,0.553,2.737,1.644,3.582c1.074,0.832,2.416,1.254,3.986,1.254c1.016,0,2.047-0.168,3.065-0.5
			c0.889-0.29,1.655-0.705,2.281-1.235c0.165,0.564,0.461,0.986,0.883,1.257c0.492,0.317,1.144,0.478,1.937,0.478
			c0.14,0,0.361-0.021,0.538-0.04l0.195-0.02l0.005-12.238C129.646,58.496,129.455,57.759,129.079,57.134z M121.013,68.334
			c-0.358-0.067-0.695-0.175-1.004-0.32c-0.293-0.137-0.534-0.327-0.715-0.563c-0.175-0.228-0.261-0.495-0.261-0.815
			c0-0.771,0.222-1.315,0.679-1.662c0.478-0.364,1.146-0.617,1.988-0.755c0.319-0.06,0.766-0.121,1.331-0.181
			c0.697-0.082,1.286-0.176,1.75-0.279c0.342-0.076,0.658-0.186,0.943-0.328v2.226c0,0.485-0.112,0.903-0.332,1.243
			c-0.225,0.348-0.526,0.639-0.895,0.866c-0.376,0.232-0.787,0.403-1.222,0.509C122.485,68.469,121.82,68.487,121.013,68.334z"/>
		<path fill="#ACD038" d="M107.665,69.205h-0.063c-0.505,0.864-1.185,1.501-2.038,1.911c-0.853,0.411-1.828,0.616-2.922,0.616
			c-1.18,0-2.233-0.237-3.159-0.711c-0.927-0.474-1.701-1.122-2.322-1.943c-0.622-0.821-1.085-1.753-1.39-2.796
			c-0.306-1.043-0.458-2.143-0.458-3.302c0-1.116,0.152-2.18,0.458-3.191c0.305-1.011,0.763-1.916,1.374-2.717
			c0.611-0.8,1.374-1.427,2.291-1.88c0.916-0.453,1.953-0.679,3.112-0.679c0.99,0,1.922,0.211,2.796,0.632
			c0.874,0.422,1.553,1.022,2.038,1.801h0.063v-8.215h4.486V71.29h-4.265V69.205z M107.397,61.085
			c-0.137-0.611-0.353-1.158-0.648-1.643c-0.295-0.484-0.695-0.863-1.201-1.137c-0.506-0.274-1.106-0.411-1.801-0.411
			c-0.716,0-1.327,0.137-1.833,0.411c-0.506,0.274-0.916,0.659-1.232,1.153c-0.316,0.495-0.543,1.053-0.679,1.674
			c-0.137,0.622-0.205,1.28-0.205,1.975c0,0.653,0.079,1.29,0.237,1.912c0.158,0.622,0.4,1.185,0.727,1.69
			c0.326,0.505,0.737,0.906,1.232,1.201c0.495,0.295,1.079,0.442,1.754,0.442c0.716,0,1.322-0.142,1.817-0.427
			c0.495-0.284,0.895-0.674,1.201-1.169c0.305-0.495,0.521-1.053,0.648-1.675c0.126-0.621,0.19-1.29,0.19-2.006
			C107.602,62.36,107.533,61.697,107.397,61.085z"/>
		<path fill="#ACD038" d="M139.132,54.956h3.286v3.001h-3.286v8.088c0,0.758,0.126,1.264,0.379,1.516
			c0.253,0.253,0.758,0.379,1.517,0.379c0.505,0,0.969-0.042,1.39-0.126v3.507c-0.632,0.105-1.506,0.158-2.622,0.158
			c-0.758,0-1.438-0.053-2.038-0.158c-0.6-0.105-1.137-0.3-1.611-0.584c-0.474-0.284-0.843-0.684-1.106-1.201
			c-0.264-0.516-0.395-1.164-0.395-1.943v-9.636h-2.717v-3.001h2.717v-4.897h4.486V54.956z"/>
		<path fill="#ACD038" d="M146.367,56.868c1.537-1.569,3.581-2.354,6.129-2.354c2.569,0,4.623,0.785,6.161,2.354
			c1.537,1.569,2.306,3.66,2.306,6.271c0,2.591-0.769,4.671-2.306,6.24c-1.538,1.569-3.591,2.354-6.161,2.354
			c-2.549,0-4.592-0.784-6.129-2.354c-1.538-1.569-2.306-3.649-2.306-6.24C144.061,60.528,144.829,58.437,146.367,56.868z
			 M148.753,65.098c0.137,0.611,0.358,1.164,0.663,1.659c0.305,0.495,0.716,0.885,1.232,1.169c0.516,0.284,1.132,0.427,1.848,0.427
			c0.737,0,1.363-0.142,1.88-0.427c0.516-0.284,0.927-0.674,1.232-1.169c0.305-0.495,0.526-1.048,0.664-1.659
			c0.137-0.611,0.205-1.264,0.205-1.959s-0.069-1.353-0.205-1.975c-0.137-0.621-0.358-1.179-0.664-1.674
			c-0.306-0.495-0.716-0.885-1.232-1.169c-0.516-0.284-1.143-0.427-1.88-0.427c-0.716,0-1.332,0.142-1.848,0.427
			c-0.516,0.284-0.927,0.674-1.232,1.169c-0.306,0.495-0.527,1.053-0.663,1.674c-0.137,0.622-0.205,1.28-0.205,1.975
			S148.615,64.487,148.753,65.098z"/>
		<path fill="#ACD038" d="M167.346,65.983c0.021,0.927,0.358,1.617,1.011,2.069c0.653,0.453,1.464,0.679,2.433,0.679
			c0.779,0,1.464-0.168,2.054-0.506c0.589-0.337,0.885-0.863,0.885-1.58c0-0.632-0.379-1.111-1.137-1.438
			c-0.758-0.326-2.075-0.69-3.949-1.09c-0.758-0.168-1.427-0.352-2.006-0.553c-0.58-0.2-1.111-0.463-1.596-0.79
			c-0.485-0.326-0.869-0.737-1.153-1.232c-0.284-0.495-0.427-1.09-0.427-1.785c0-0.99,0.195-1.832,0.585-2.528
			c0.389-0.695,0.921-1.237,1.596-1.627c0.674-0.389,1.427-0.668,2.259-0.837c0.832-0.168,1.722-0.253,2.67-0.253
			s1.827,0.09,2.638,0.269c0.811,0.179,1.548,0.469,2.212,0.869c0.663,0.4,1.201,0.937,1.611,1.611
			c0.411,0.674,0.658,1.496,0.743,2.464h-4.265c-0.063-0.822-0.363-1.395-0.9-1.722c-0.537-0.326-1.259-0.49-2.164-0.49
			c-0.695,0-1.285,0.106-1.769,0.316c-0.485,0.211-0.727,0.611-0.727,1.201c0,0.611,0.316,1.053,0.948,1.327
			c0.632,0.274,1.6,0.548,2.907,0.821c0.589,0.126,1,0.221,1.232,0.284c0.758,0.169,1.432,0.363,2.022,0.584
			c0.589,0.221,1.127,0.501,1.611,0.837c0.484,0.337,0.863,0.769,1.137,1.295c0.273,0.527,0.411,1.148,0.411,1.864
			c0,1.032-0.205,1.917-0.616,2.654c-0.411,0.738-0.969,1.327-1.674,1.769c-0.706,0.442-1.496,0.764-2.37,0.964
			c-0.874,0.2-1.806,0.3-2.796,0.3c-1.011,0-1.959-0.1-2.843-0.3c-0.885-0.2-1.685-0.526-2.401-0.979
			c-0.716-0.453-1.29-1.053-1.722-1.801c-0.432-0.747-0.669-1.638-0.711-2.67H167.346z"/>
	</g>
</g>
</svg>
