<?xml version="1.0" encoding="utf-8"?>
<!-- Generator: Adobe Illustrator 19.1.0, SVG Export Plug-In . SVG Version: 6.00 Build 0)  -->
<svg version="1.1" id="Layer_1" xmlns="http://www.w3.org/2000/svg" xmlns:xlink="http://www.w3.org/1999/xlink" x="0px" y="0px"
	 viewBox="0 0 1310 840" enable-background="new 0 0 1310 840" xml:space="preserve">
<radialGradient id="SVGID_1_" cx="381.9995" cy="596.563" r="352.3103" gradientTransform="matrix(1.205 0 0 0.9959 194.6976 -174.138)" gradientUnits="userSpaceOnUse">
	<stop  offset="0" style="stop-color:#FFFFFF"/>
	<stop  offset="1" style="stop-color:#FFFFFF;stop-opacity:0"/>
</radialGradient>
<ellipse opacity="0.2" fill="url(#SVGID_1_)" cx="655" cy="420" rx="424.527" ry="350.878"/>
<g>
	<path opacity="0.3" fill="#262627" d="M838.402,600.548c0,6.215-26.228,16.85-101.339,16.85s-100.431-10.047-100.431-16.85
		s25.774-14.01,100.885-14.01S838.402,594.333,838.402,600.548z"/>
	<path opacity="0.3" fill="#262627" d="M629.565,576.303c0,4.866-20.534,13.192-79.339,13.192s-78.628-7.866-78.628-13.192
		s20.179-10.969,78.984-10.969S629.565,571.437,629.565,576.303z"/>
	<g>
		<g opacity="0.8">
			<g>
				<g>
					<path fill="#FFFFFF" d="M737.445,551.003c0.383,0,0.764-0.023,1.147-0.029l1.973,12.652l11.331-0.991l-0.256-12.782
						c0.763-0.12,1.522-0.249,2.278-0.391l4.13,12.087l10.989-2.947l-2.464-12.509c0.729-0.254,1.451-0.527,2.174-0.8l6.159,11.174
						l10.308-4.806l-4.602-11.909c0.673-0.378,1.351-0.748,2.014-1.144l7.999,9.928l9.318-6.523l-6.607-10.934
						c0.593-0.487,1.168-1.002,1.749-1.506l9.643,8.423l8.044-8.042l-8.425-9.643c0.503-0.581,1.02-1.155,1.508-1.751l10.934,6.608
						l6.522-9.316l-9.926-8.001c0.395-0.664,0.764-1.343,1.142-2.015l11.909,4.603l4.805-10.307l-11.172-6.159
						c0.275-0.723,0.545-1.444,0.801-2.175l12.511,2.464l2.942-10.987l-12.085-4.131c0.141-0.756,0.271-1.517,0.391-2.276
						l12.782,0.254l0.988-11.332l-12.647-1.972c0.003-0.385,0.028-0.766,0.028-1.154c0-0.385-0.025-0.764-0.028-1.149l12.649-1.973
						l-0.993-11.331l-12.777,0.254c-0.123-0.76-0.252-1.52-0.393-2.278l12.087-4.127l-2.944-10.989l-12.511,2.464
						c-0.254-0.729-0.526-1.454-0.799-2.174l11.175-6.159l-4.81-10.308l-11.909,4.602c-0.376-0.673-0.745-1.351-1.141-2.013
						l9.929-8.001l-6.527-9.318l-10.931,6.606c-0.49-0.593-1.004-1.168-1.508-1.749l8.425-9.645l-8.042-8.042l-9.643,8.425
						c-0.584-0.503-1.158-1.018-1.751-1.505l6.606-10.936l-9.316-6.522l-7.998,9.928c-0.666-0.398-1.345-0.764-2.02-1.143
						l4.608-11.911l-10.309-4.808l-6.157,11.177c-0.725-0.273-1.448-0.547-2.178-0.802l2.465-12.512l-10.985-2.942l-4.129,12.09
						c-0.758-0.142-1.519-0.273-2.278-0.393l0.254-12.784l-11.33-0.991l-1.972,12.651c-0.385-0.003-0.768-0.027-1.154-0.027
						c-0.385,0-0.768,0.024-1.151,0.027l-1.974-12.651l-11.328,0.991l0.254,12.784c-0.762,0.12-1.52,0.252-2.278,0.393
						l-4.129-12.092l-10.987,2.944l2.466,12.512c-0.73,0.255-1.454,0.529-2.18,0.802l-6.157-11.177l-10.309,4.806l4.608,11.911
						c-0.675,0.379-1.354,0.747-2.018,1.145l-8.001-9.933l-9.318,6.525l6.611,10.936c-0.595,0.488-1.168,1.004-1.75,1.508
						l-9.647-8.428l-8.041,8.042l8.427,9.644c-0.503,0.582-1.022,1.157-1.508,1.75l-10.938-6.607l-6.521,9.314l9.93,8.003
						c-0.396,0.664-0.765,1.342-1.144,2.015l-11.913-4.606l-4.807,10.307l11.179,6.159c-0.275,0.726-0.547,1.448-0.801,2.178
						l-12.515-2.465l-2.942,10.985l12.092,4.13c-0.144,0.758-0.271,1.516-0.393,2.28l-12.786-0.256l-0.989,11.33l12.651,1.972
						c-0.003,0.385-0.029,0.768-0.029,1.156c0,0.385,0.026,0.766,0.029,1.147l-12.654,1.974l0.991,11.33l12.784-0.254
						c0.121,0.762,0.252,1.52,0.393,2.276l-12.092,4.132l2.944,10.987l12.513-2.464c0.256,0.729,0.526,1.451,0.8,2.176
						l-11.176,6.159l4.806,10.307l11.911-4.606c0.38,0.675,0.748,1.351,1.146,2.018l-9.933,8.001l6.523,9.316l10.934-6.606
						c0.488,0.593,1.004,1.166,1.51,1.749l-8.429,9.645l8.042,8.042l9.645-8.425c0.583,0.501,1.155,1.02,1.75,1.508l-6.609,10.936
						l9.318,6.522l8.001-9.928c0.664,0.395,1.344,0.764,2.015,1.14l-4.606,11.913l10.309,4.806l6.16-11.175
						c0.72,0.273,1.442,0.547,2.174,0.801l-2.466,12.511l10.989,2.944l4.131-12.09c0.754,0.141,1.514,0.273,2.276,0.396
						l-0.256,12.782l11.335,0.989l1.971-12.65C736.674,550.98,737.057,551.003,737.445,551.003z M737.445,544.177
						c-20.869,0-40.527-7.806-55.678-22.008l3.018-3.022c19.347,18.052,45.766,24.301,70.018,18.748l1.118,4.169
						C749.93,543.446,743.746,544.177,737.445,544.177z M737.445,381.157c20.869,0,40.526,7.809,55.682,22.01l-3.02,3.021
						c-14.348-13.399-32.935-20.76-52.662-20.76c-5.925,0-11.736,0.683-17.371,1.971l-1.108-4.127
						C724.958,381.889,731.142,381.157,737.445,381.157z M788.844,514.069c-8.67,8.673-19.013,14.679-29.995,18.043l-1.175-4.386
						c10.225-3.169,19.853-8.785,27.947-16.881c8.096-8.094,13.714-17.724,16.883-27.947l4.436,1.189
						C803.502,495.286,797.366,505.55,788.844,514.069z M811.342,485.267l4.13,1.105c-3.835,12.681-10.757,24.301-20.39,33.933
						c-9.633,9.631-21.252,16.554-33.933,20.39l-1.12-4.186c11.729-3.567,22.776-9.966,32.034-19.224
						C801.155,508.19,807.7,497.232,811.342,485.267z M695.459,477.02c7.63-7.63,20-7.63,27.633,0
						c7.628,7.632,7.628,20.003,0,27.633c-7.632,7.63-20.003,7.63-27.633,0C687.827,497.023,687.827,484.652,695.459,477.02z
						 M737.823,503.236c4.188,0,7.582,3.395,7.582,7.583c0,4.187-3.394,7.584-7.582,7.584c-4.189,0-7.584-3.397-7.584-7.584
						C730.24,506.631,733.634,503.236,737.823,503.236z M726.494,473.618c-6.047-6.049-6.047-15.853,0-21.901
						c6.05-6.049,15.856-6.049,21.901,0c6.049,6.048,6.049,15.852,0.002,21.901C742.351,479.667,732.545,479.665,726.494,473.618z
						 M695.461,448.314c-7.632-7.63-7.632-19.999,0-27.629c7.63-7.631,19.998-7.631,27.63,0c7.628,7.63,7.628,19.999,0,27.629
						C715.46,455.945,703.091,455.945,695.461,448.314z M779.428,420.685c7.63,7.63,7.63,20.002,0,27.629
						c-7.63,7.631-20,7.631-27.63,0.002c-7.63-7.63-7.63-20.001,0-27.631C759.428,413.054,771.799,413.054,779.428,420.685z
						 M744.646,415.276c0,4.187-3.396,7.582-7.584,7.582c-4.188,0-7.582-3.395-7.582-7.582c0-4.188,3.394-7.582,7.582-7.582
						C741.25,407.694,744.646,411.088,744.646,415.276z M697.252,463.429c0,4.188-3.395,7.583-7.582,7.583
						c-4.186,0-7.581-3.395-7.581-7.583c0-4.187,3.395-7.584,7.581-7.584C693.857,455.845,697.252,459.242,697.252,463.429z
						 M777.632,462.667c0-4.188,3.396-7.582,7.582-7.582c4.187,0,7.584,3.394,7.584,7.582c0,4.186-3.397,7.582-7.584,7.582
						C781.028,470.249,777.632,466.853,777.632,462.667z M751.796,477.025c7.632-7.632,20.003-7.632,27.633-0.004
						c7.63,7.632,7.63,20.003,0,27.633c-7.631,7.63-20,7.63-27.633,0C744.167,497.023,744.167,484.652,751.796,477.025z
						 M803.896,477.676c4.766-21.206-0.7-44.239-16.414-61.229l3.225-3.225c12.54,13.487,19.429,30.933,19.429,49.445
						c0,5.52-0.631,10.94-1.822,16.194L803.896,477.676z M783.665,412.629c-16.989-15.711-40.023-21.18-61.231-16.411l-1.183-4.418
						c5.254-1.192,10.674-1.824,16.194-1.824c18.512,0,35.958,6.888,49.445,19.43L783.665,412.629z M714.845,388.772
						c-11.963,3.642-22.923,10.184-32.018,19.279c-9.095,9.093-15.637,20.055-19.281,32.02l-4.129-1.108
						c3.835-12.682,10.76-24.301,20.392-33.933c9.633-9.631,21.247-16.555,33.931-20.39L714.845,388.772z M686.045,411.266
						c8.516-8.519,18.78-14.657,29.98-18.093l1.19,4.435c-10.225,3.17-19.853,8.788-27.949,16.882
						c-8.094,8.096-13.712,17.724-16.882,27.949l-4.435-1.19C671.385,430.051,677.527,419.788,686.045,411.266z M670.993,447.661
						c-4.768,21.205,0.7,44.239,16.411,61.226l-3.225,3.225c-12.538-13.486-19.426-30.931-19.426-49.445
						c0-5.518,0.632-10.937,1.82-16.19L670.993,447.661z M691.224,512.71c16.991,15.71,40.022,21.177,61.228,16.409l1.175,4.381
						c-22.735,5.153-47.469-0.702-65.627-17.57L691.224,512.71z M816.84,481.145l-4.127-1.105
						c1.288-5.635,1.974-11.448,1.974-17.373c0-19.729-7.363-38.315-20.763-52.66l3.022-3.02
						c14.204,15.153,22.01,34.812,22.01,55.68C818.955,468.968,818.224,475.154,816.84,481.145z M658.048,444.192l4.127,1.107
						c-1.288,5.635-1.971,11.448-1.971,17.368c0,19.727,7.364,38.317,20.761,52.662l-3.017,3.018
						c-14.206-15.152-22.012-34.812-22.012-55.681C655.935,456.366,656.668,450.182,658.048,444.192z"/>
				</g>
				<g>
					<path fill="#FFFFFF" d="M742.499,467.721c2.79-2.793,2.79-7.315,0-10.106c-2.79-2.793-7.315-2.793-10.106-0.002
						c-2.79,2.793-2.79,7.315,0,10.108C735.184,470.512,739.708,470.512,742.499,467.721z"/>
				</g>
			</g>
		</g>
		<g opacity="0.5">
			<g>
				<g>
					<path fill="#FFFFFF" d="M654.164,363.332h7.937l0.58-8.594c0.568-0.043,1.139-0.073,1.704-0.131l2.061,8.345l7.811-1.378
						l-0.915-8.543c0.553-0.143,1.099-0.302,1.647-0.456l3.484,7.87l7.455-2.713l-2.395-8.277c0.519-0.236,1.041-0.463,1.551-0.71
						l4.796,7.145l6.876-3.969l-3.798-7.739c0.468-0.32,0.925-0.656,1.384-0.986l5.983,6.226l6.079-5.106l-5.093-6.974
						c0.406-0.393,0.805-0.795,1.201-1.2l6.978,5.096l5.098-6.082l-6.225-5.978c0.334-0.463,0.666-0.92,0.987-1.389l7.74,3.799
						l3.967-6.875l-7.145-4.792c0.249-0.512,0.478-1.035,0.71-1.552l8.279,2.394l2.714-7.456l-7.874-3.485
						c0.156-0.547,0.315-1.093,0.456-1.645l8.545,0.918l1.378-7.816l-8.346-2.058c0.056-0.566,0.09-1.137,0.131-1.705l8.594-0.579
						v-7.938l-8.591-0.58c-0.04-0.568-0.073-1.138-0.129-1.705l8.341-2.057l-1.378-7.815l-8.523,0.917
						c-0.139-0.556-0.302-1.104-0.458-1.656l7.854-3.471l-2.712-7.459l-8.243,2.387c-0.236-0.523-0.473-1.044-0.723-1.56
						l7.122-4.779l-3.966-6.874l-7.713,3.788c-0.321-0.471-0.653-0.937-0.987-1.4l6.199-5.959l-5.101-6.077l-6.955,5.08
						c-0.2-0.206-0.388-0.416-0.59-0.618s-0.412-0.39-0.618-0.59l5.081-6.955l-6.081-5.101l-5.957,6.199
						c-0.465-0.336-0.927-0.664-1.4-0.987l3.786-7.714l-6.874-3.966l-4.777,7.122c-0.514-0.251-1.037-0.485-1.56-0.721l2.387-8.246
						l-7.456-2.713l-3.473,7.856c-0.553-0.156-1.101-0.318-1.658-0.459l0.918-8.527l-7.813-1.376l-2.058,8.343
						c-0.564-0.056-1.139-0.087-1.708-0.129l-0.578-8.594h-7.935l-0.581,8.594c-0.568,0.043-1.139,0.073-1.705,0.129l-2.058-8.343
						l-7.812,1.378l0.913,8.525c-0.556,0.139-1.104,0.301-1.655,0.458l-3.471-7.855l-7.457,2.713l2.386,8.242
						c-0.523,0.237-1.046,0.472-1.559,0.725l-4.78-7.125l-6.874,3.969l3.786,7.714c-0.47,0.324-0.937,0.652-1.4,0.985l-5.957-6.199
						l-6.078,5.101l5.079,6.955c-0.204,0.199-0.416,0.39-0.621,0.592c-0.199,0.2-0.385,0.412-0.585,0.615l-6.955-5.079l-5.104,6.077
						l6.201,5.958c-0.335,0.464-0.666,0.928-0.989,1.399l-7.713-3.786l-3.967,6.872l7.122,4.78c-0.25,0.516-0.488,1.037-0.718,1.561
						l-8.244-2.386l-2.716,7.456l7.855,3.471c-0.156,0.553-0.321,1.102-0.456,1.658l-8.527-0.918l-1.381,7.814l8.344,2.06
						c-0.056,0.564-0.089,1.137-0.131,1.705l-8.592,0.576v7.938l8.596,0.58c0.042,0.569,0.073,1.14,0.129,1.705l-8.346,2.059
						l1.381,7.815l8.544-0.921c0.144,0.556,0.3,1.102,0.454,1.649l-7.873,3.483l2.715,7.457l8.277-2.395
						c0.235,0.52,0.46,1.041,0.712,1.554l-7.145,4.791l3.963,6.876l7.742-3.798c0.32,0.468,0.655,0.927,0.987,1.386l-6.226,5.981
						l5.102,6.081l6.978-5.093c0.394,0.403,0.795,0.805,1.201,1.199l-5.097,6.976l6.08,5.103l5.982-6.228
						c0.459,0.334,0.916,0.668,1.385,0.987l-3.799,7.742l6.875,3.967l4.792-7.142c0.512,0.245,1.036,0.474,1.555,0.708l-2.4,8.277
						l7.461,2.713l3.484-7.87c0.547,0.156,1.091,0.316,1.647,0.456l-0.92,8.543l7.819,1.381l2.058-8.345
						c0.564,0.058,1.132,0.089,1.703,0.131L654.164,363.332z M658.133,349.524c-31.182,0-56.551-25.371-56.551-56.556
						c0-15.107,5.883-29.306,16.563-39.991c10.682-10.681,24.884-16.563,39.988-16.563c15.109,0,29.311,5.882,39.993,16.564
						c10.681,10.683,16.565,24.883,16.565,39.99C714.691,324.153,689.32,349.52,658.133,349.524z"/>
				</g>
				<g>
					<path fill="#FFFFFF" d="M712.013,294.566h-18.422c-0.525,11.9-6.916,22.272-16.348,28.311l9.223,15.968
						C701.394,329.605,711.466,313.283,712.013,294.566z"/>
				</g>
				<g>
					<path fill="#FFFFFF" d="M658.133,328.463c-5.895,0-11.453-1.442-16.346-3.989l-9.222,15.973
						c7.61,4.106,16.316,6.44,25.568,6.44c9.254,0,17.963-2.334,25.571-6.44l-9.221-15.973
						C669.588,327.021,664.033,328.463,658.133,328.463z"/>
				</g>
				<g>
					<path fill="#FFFFFF" d="M693.591,291.373h18.422c-0.547-18.716-10.619-35.039-25.548-44.279l-9.221,15.968
						C686.675,269.102,693.066,279.472,693.591,291.373z"/>
				</g>
				<g>
					<path fill="#FFFFFF" d="M622.682,294.563l-18.424,0.002c0.545,18.715,10.62,35.039,25.55,44.279l9.218-15.968
						C629.595,316.835,623.207,306.463,622.682,294.563z"/>
				</g>
				<g>
					<path fill="#FFFFFF" d="M658.133,257.473c5.9,0,11.455,1.447,16.351,3.994l9.221-15.973
						c-7.609-4.107-16.317-6.441-25.571-6.441c-9.252,0-17.958,2.334-25.567,6.439l9.223,15.971
						C646.68,258.92,652.238,257.473,658.133,257.473z"/>
				</g>
				<g>
					<path fill="#FFFFFF" d="M639.03,263.062l-9.223-15.968c-14.93,9.24-25.004,25.562-25.55,44.279h18.424
						C623.207,279.471,629.595,269.1,639.03,263.062z"/>
				</g>
				<g>
					<path fill="#FFFFFF" d="M658.135,325.536c17.96,0,32.567-14.607,32.567-32.567c0-17.958-14.607-32.567-32.567-32.567
						c-17.958,0-32.567,14.609-32.567,32.567C625.568,310.929,640.177,325.536,658.135,325.536z M628.267,292.968
						c0-16.471,13.399-29.869,29.868-29.869c16.471,0,29.867,13.398,29.867,29.869c0,16.471-13.396,29.869-29.867,29.869
						C641.667,322.837,628.267,309.439,628.267,292.968z"/>
				</g>
				<g>
					<path fill="#FFFFFF" d="M681.745,292.968c0-13.038-10.57-23.61-23.61-23.61c-13.038,0-23.609,10.572-23.609,23.61
						s10.571,23.61,23.609,23.61C671.175,316.578,681.745,306.006,681.745,292.968z M648.553,292.968
						c0-5.293,4.289-9.585,9.582-9.585c5.293,0,9.582,4.291,9.582,9.585c0,5.293-4.289,9.585-9.582,9.585
						C652.842,302.553,648.553,298.262,648.553,292.968z"/>
				</g>
			</g>
		</g>
		<g opacity="0.3">
			<g>
				<g>
					<path fill="#FFFFFF" d="M528.738,490.965l16.265,2.869l2.999-9.741c0.855,0.031,1.714,0.064,2.58,0.064
						c0.868,0,1.726-0.035,2.588-0.064l3,9.738l16.265-2.867l-0.515-10.17c1.645-0.534,3.265-1.127,4.858-1.776l6.147,8.124
						l14.302-8.256l-3.977-9.418c1.36-1.058,2.687-2.154,3.959-3.305l8.573,5.543l10.615-12.648l-6.95-7.484
						c0.917-1.454,1.785-2.94,2.593-4.464l9.941,2.276l5.651-15.519l-9.063-4.639c0.361-1.676,0.654-3.378,0.892-5.095l10.107-1.264
						l-0.001-16.513l-10.106-1.262c-0.238-1.72-0.531-3.421-0.892-5.097l9.059-4.639l-5.648-15.514l-9.938,2.269
						c-0.81-1.522-1.676-3.011-2.593-4.464l6.945-7.479l-10.611-12.648l-8.575,5.539c-1.274-1.154-2.601-2.248-3.954-3.305
						l3.973-9.415l-14.302-8.256l-6.145,8.123c-1.593-0.652-3.213-1.246-4.86-1.778l0.508-10.164l-16.258-2.867l-3,9.736
						c-0.858-0.033-1.718-0.066-2.584-0.066c-0.866,0-1.728,0.031-2.588,0.063l-2.997-9.731l-16.261,2.867l0.508,10.135
						c-1.651,0.53-3.281,1.115-4.887,1.767l-6.118-8.082l-14.297,8.255l3.957,9.377c-1.356,1.06-2.693,2.156-3.977,3.322
						l-8.535-5.517l-10.616,12.649l6.917,7.446c-0.926,1.468-1.809,2.959-2.615,4.486l-9.884-2.259l-5.648,15.517l9.044,4.634
						c-0.36,1.684-0.658,3.386-0.889,5.106l-10.093,1.259l-0.002,16.513l10.106,1.262c0.237,1.72,0.531,3.421,0.891,5.099
						l-9.054,4.636l5.645,15.519l9.937-2.274c0.81,1.524,1.678,3.013,2.594,4.466l-6.945,7.477l10.613,12.65l8.573-5.54
						c1.274,1.154,2.601,2.247,3.956,3.304l-3.973,9.413l14.301,8.258l6.147-8.123c1.593,0.65,3.211,1.243,4.86,1.776
						L528.738,490.965z M529.676,450.828c3.623,2.093,4.866,6.728,2.771,10.35c-2.091,3.625-6.726,4.867-10.347,2.771
						c-3.626-2.088-4.866-6.724-2.776-10.347C521.415,449.976,526.05,448.733,529.676,450.828z M581.842,453.601
						c2.094,3.623,0.854,8.26-2.774,10.35c-3.623,2.094-8.254,0.851-10.349-2.774c-2.094-3.622-0.854-8.257,2.774-10.35
						C575.116,448.735,579.751,449.979,581.842,453.601z M543.007,464.007c0-4.183,3.39-7.58,7.578-7.58
						c4.183,0.004,7.577,3.397,7.576,7.58c0.002,4.183-3.392,7.577-7.576,7.575C546.399,471.584,543.008,468.192,543.007,464.007z
						 M520.115,414.614c0-16.827,13.639-30.467,30.467-30.467c16.825,0,30.466,13.642,30.466,30.467
						c0,16.827-13.641,30.467-30.466,30.467C533.755,445.081,520.115,431.44,520.115,414.614z M501.19,422.188
						c-4.183,0.002-7.578-3.393-7.575-7.576c-0.002-4.183,3.392-7.577,7.575-7.579c4.186,0,7.578,3.394,7.578,7.579
						C508.767,418.795,505.375,422.19,501.19,422.188z M511.597,383.352c3.623,2.091,4.866,6.727,2.776,10.35
						c-2.095,3.625-6.728,4.869-10.351,2.774c-3.626-2.091-4.869-6.726-2.774-10.347
						C503.34,382.503,507.972,381.259,511.597,383.352z M599.922,386.13c2.091,3.622,0.854,8.257-2.771,10.35
						c-3.626,2.093-8.261,0.849-10.354-2.771c-2.091-3.626-0.849-8.261,2.776-10.354
						C593.199,381.259,597.832,382.505,599.922,386.13z M599.979,407.037c4.186,0,7.576,3.392,7.576,7.577
						c0,4.184-3.39,7.578-7.576,7.578c-4.185,0-7.576-3.395-7.576-7.578C592.403,410.428,595.794,407.037,599.979,407.037z
						 M514.368,435.521c2.093,3.623,0.852,8.26-2.771,10.348c-3.625,2.093-8.258,0.853-10.349-2.776
						c-2.095-3.618-0.852-8.252,2.771-10.346C507.64,430.655,512.278,431.896,514.368,435.521z M589.571,445.874
						c-3.623-2.093-4.866-6.725-2.774-10.351c2.093-3.626,6.728-4.866,10.351-2.774c3.621,2.092,4.866,6.725,2.77,10.351
						C597.83,446.722,593.199,447.962,589.571,445.874z M532.449,368.045c2.094,3.625,0.851,8.259-2.77,10.353
						c-3.625,2.091-8.262,0.853-10.351-2.775c-2.095-3.624-0.852-8.257,2.774-10.347
						C525.723,363.183,530.356,364.422,532.449,368.045z M550.586,357.641c4.183,0,7.575,3.393,7.578,7.576
						c0.002,4.186-3.394,7.577-7.578,7.579c-4.185-0.002-7.579-3.394-7.578-7.579C543.008,361.034,546.401,357.639,550.586,357.641z
						 M571.493,378.4c-3.623-2.094-4.866-6.728-2.774-10.353c2.093-3.625,6.728-4.864,10.351-2.771
						c3.626,2.093,4.866,6.723,2.774,10.348C579.751,379.251,575.118,380.491,571.493,378.4z"/>
				</g>
				<g>
					<path fill="#FFFFFF" d="M560.188,414.612c0-5.301-4.3-9.599-9.604-9.599c-5.304-0.002-9.602,4.296-9.602,9.599
						c0,5.305,4.3,9.604,9.602,9.601C555.888,424.213,560.182,419.916,560.188,414.612z"/>
				</g>
				<g>
					<path fill="#FFFFFF" d="M575.484,414.612c0-6.653-2.588-12.904-7.292-17.605c-4.706-4.705-10.959-7.293-17.608-7.293
						c-6.653-0.002-12.909,2.588-17.61,7.291c-4.702,4.701-7.292,10.955-7.292,17.608c0,6.654,2.59,12.904,7.295,17.609
						c4.702,4.704,10.955,7.294,17.606,7.292C564.309,439.51,575.48,428.339,575.484,414.612z M535.119,430.077
						c-4.132-4.131-6.405-9.622-6.405-15.465c0-5.843,2.274-11.336,6.403-15.465c4.129-4.13,9.622-6.403,15.465-6.401
						c5.843,0,11.334,2.271,15.465,6.403c4.131,4.13,6.405,9.623,6.405,15.463c-0.002,12.057-9.817,21.868-21.871,21.871
						C544.741,436.483,539.248,434.209,535.119,430.077z"/>
				</g>
			</g>
		</g>
		<g opacity="0.2">
			<g>
				<path fill="#FFFFFF" d="M764.968,348.656l6.072,1.072l1.121-3.638c0.32,0.011,0.641,0.024,0.964,0.024
					c0.324,0,0.646-0.013,0.967-0.024l1.121,3.637l6.073-1.071l-0.192-3.797c0.616-0.199,1.22-0.421,1.814-0.663l2.296,3.035
					l5.341-3.083l-1.484-3.518c0.507-0.396,1.002-0.803,1.476-1.233l3.202,2.069l3.964-4.722l-2.595-2.796
					c0.343-0.541,0.666-1.098,0.968-1.666l3.712,0.85l2.11-5.794l-3.384-1.733c0.135-0.625,0.245-1.261,0.332-1.903l3.775-0.472
					l-0.001-6.165l-3.774-0.473c-0.087-0.641-0.197-1.276-0.332-1.902l3.383-1.733l-2.109-5.793l-3.711,0.849
					c-0.302-0.569-0.625-1.125-0.968-1.668l2.593-2.792l-3.963-4.724l-3.201,2.069c-0.476-0.43-0.971-0.839-1.477-1.234l1.483-3.515
					l-5.34-3.084l-2.295,3.033c-0.594-0.243-1.199-0.465-1.814-0.664l0.19-3.795l-6.072-1.071l-1.12,3.636
					c-0.321-0.012-0.641-0.025-0.965-0.025c-0.323,0-0.645,0.012-0.967,0.023l-1.119-3.634l-6.073,1.071l0.19,3.786
					c-0.616,0.197-1.225,0.415-1.825,0.66l-2.284-3.019l-5.339,3.084l1.476,3.501c-0.506,0.396-1.004,0.804-1.485,1.24l-3.187-2.06
					l-3.963,4.724l2.582,2.78c-0.346,0.547-0.674,1.105-0.977,1.675l-3.69-0.844l-2.11,5.793l3.378,1.73
					c-0.133,0.629-0.245,1.265-0.333,1.907l-3.768,0.47v6.167l3.772,0.471c0.09,0.642,0.2,1.277,0.334,1.904l-3.38,1.731
					l2.108,5.794l3.71-0.849c0.303,0.57,0.627,1.125,0.969,1.668l-2.593,2.793l3.963,4.724l3.201-2.07
					c0.476,0.431,0.971,0.839,1.478,1.235l-1.483,3.515l5.339,3.083l2.296-3.034c0.594,0.243,1.198,0.465,1.814,0.663
					L764.968,348.656z M773.124,296.44c2.017,0,3.976,0.255,5.848,0.732l-5.842,12.979l-5.854-12.986
					C769.164,296.687,771.125,296.44,773.124,296.44z M773.124,327.101c-3.841,0.001-6.956-3.114-6.956-6.956
					c0-3.843,3.114-6.958,6.956-6.956c3.842,0,6.957,3.114,6.957,6.956C780.08,323.987,776.967,327.101,773.124,327.101z
					 M795.938,326.57c-1.089,3.856-3.127,7.316-5.851,10.11l-8.295-11.532L795.938,326.57z M781.783,315.153l8.305-11.543
					c2.724,2.794,4.762,6.254,5.851,10.111L781.783,315.153z M764.465,315.133l-14.162-1.415c1.057-3.774,3.045-7.241,5.852-10.119
					L764.465,315.133z M764.445,325.15l-8.284,11.53c-2.725-2.794-4.762-6.253-5.851-10.11L764.445,325.15z M773.12,330.163
					l5.85,12.957c-1.871,0.476-3.829,0.731-5.845,0.731c-2.017,0-3.974-0.256-5.845-0.731L773.12,330.163z"/>
			</g>
			<g>
				<circle fill="#FFFFFF" cx="773.124" cy="320.145" r="3.309"/>
			</g>
		</g>
	</g>
</g>
</svg>
