<?xml version="1.0" encoding="utf-8"?>
<!-- Generator: Adobe Illustrator 19.1.0, SVG Export Plug-In . SVG Version: 6.00 Build 0)  -->
<svg version="1.1" id="Layer_1" xmlns="http://www.w3.org/2000/svg" xmlns:xlink="http://www.w3.org/1999/xlink" x="0px" y="0px"
	 viewBox="0 0 34 34" enable-background="new 0 0 34 34" xml:space="preserve">
<g opacity="0.7">
	<path fill="#FFFFFF" d="M17,15.98c-3.91,0-7.091-3.181-7.091-7.091S13.09,1.798,17,1.798c3.91,0,7.092,3.181,7.092,7.091
		S20.91,15.98,17,15.98z M17,2.841c-3.335,0-6.048,2.713-6.048,6.048s2.713,6.048,6.048,6.048s6.048-2.713,6.048-6.048
		S20.335,2.841,17,2.841z"/>
	<path fill="#FFFFFF" d="M17,32.202c-5.577,0-8.582-1.468-8.708-1.53l-0.288-0.144l-0.002-1.695
		c-0.011-4.989-0.016-7.738,1.531-9.289c1.342-1.345,3.755-1.609,7.467-1.609c3.845,0,6.177,0.25,7.493,1.568
		c1.522,1.525,1.516,4.287,1.506,9.302l-0.002,1.723l-0.288,0.144C25.583,30.734,22.577,32.202,17,32.202z M9.047,29.863
		c0.857,0.347,3.596,1.296,7.953,1.296c4.358,0,7.097-0.949,7.954-1.296l0.001-1.06c0.01-4.735,0.016-7.343-1.2-8.562
		c-1.053-1.056-3.274-1.262-6.755-1.262c-3.958,0-5.782,0.353-6.729,1.302c-1.241,1.244-1.236,3.839-1.226,8.55L9.047,29.863z"/>
</g>
</svg>
