<?xml version="1.0" encoding="utf-8"?>
<!-- Generator: Adobe Illustrator 19.1.0, SVG Export Plug-In . SVG Version: 6.00 Build 0)  -->
<svg version="1.1" id="Layer_1" xmlns="http://www.w3.org/2000/svg" xmlns:xlink="http://www.w3.org/1999/xlink" x="0px" y="0px"
	 viewBox="0 0 150 150" enable-background="new 0 0 150 150" xml:space="preserve">
<g>
	<path fill="#1337AA" d="M116.415,19.573L56.633,92.674L34.436,68.659L22.792,80.303c0,0,16.111,31.051,24.917,44.868
		c2.29,3.593,5.597,5.256,8.934,5.256c3.524,0,7.081-1.857,9.5-5.256c8.857-12.443,61.066-97.699,61.066-97.699L116.415,19.573z
		 M57.996,119.372c-0.578,0.812-1.138,1.025-1.318,1.052c-0.073-0.051-0.272-0.214-0.536-0.627
		c-5.228-8.204-13.274-22.98-18.7-33.152l11.847,12.818c1.896,2.051,4.559,3.213,7.343,3.213c0.101,0,0.202-0.001,0.303-0.005
		c2.893-0.088,5.606-1.424,7.438-3.665l28.517-34.87C78.433,87.504,62.431,113.141,57.996,119.372z"/>
</g>
</svg>
