<?xml version="1.0" encoding="utf-8"?>
<!-- Generator: Adobe Illustrator 19.1.0, SVG Export Plug-In . SVG Version: 6.00 Build 0)  -->
<svg version="1.1" id="Layer_1" xmlns="http://www.w3.org/2000/svg" xmlns:xlink="http://www.w3.org/1999/xlink" x="0px" y="0px"
	 viewBox="0 0 150 150" enable-background="new 0 0 150 150" xml:space="preserve">
<g>
	<path fill="#1337AA" d="M83.874,39.948c0-10.321-8.397-18.718-18.719-18.718s-18.719,8.397-18.719,18.718
		c0,4.041,1.287,7.9,3.666,11.106v-5.994c0-3.761,0.82-7.143,2.439-10.051c2.026-5.159,7.086-8.62,12.613-8.62
		c4.148,0,8.013,1.873,10.609,5.141c2.3,2.358,5.021,6.611,5.021,13.53v5.14C82.792,47.161,83.874,43.607,83.874,39.948z"/>
	<g>
		<path fill="#1337AA" d="M97.352,39.948c0-17.753-14.443-32.196-32.196-32.196S32.959,22.196,32.959,39.948
			c0,9.129,3.898,17.829,10.714,23.948c0.969-0.196,1.939-0.294,2.9-0.294c1.2,0,2.385,0.152,3.529,0.456v-1.67
			c-7.515-5.052-11.984-13.399-11.984-22.44c0-14.908,12.129-27.037,27.037-27.037S92.192,25.04,92.192,39.948
			c0,6.125-2.081,12.042-5.889,16.819c1.629,0.626,3.117,1.524,4.446,2.685C95.015,53.865,97.352,46.981,97.352,39.948z"/>
		<path fill="#1337AA" d="M113.808,78.786c-1.622-1.714-3.757-2.606-6.346-2.653l-0.215-0.002c-0.918,0-1.8,0.122-2.682,0.372
			c-1.072-3.373-3.361-7.317-8.231-8.013c-0.63-0.09-1.253-0.136-1.853-0.136c-1.324,0-2.575,0.221-3.726,0.658
			c-0.687-1.767-1.609-3.255-2.744-4.426c-1.986-2.05-4.611-3.134-7.591-3.134l-0.129,0.001c-1.389,0.014-2.695,0.208-3.892,0.578
			V47.054c0-8.522-5.245-12.981-10.425-12.981c-5.155,0-10.374,4.459-10.374,12.981v26.374c-1.553-2.76-4.449-4.454-7.673-4.454
			c-1.16,0-2.319,0.215-3.445,0.639c-4.232,1.593-7.959,6.381-6.142,13.128c1.617,6.004,16.935,50.145,23.801,55.857
			c3.817,3.175,12.626,3.649,17.536,3.649c8.892,0,18.74-1.454,21.954-3.24c4.127-2.293,7.743-11.397,10.05-18.63
			c3.043-9.543,5.031-19.852,5.316-27.578C117.264,85.621,116.31,81.43,113.808,78.786z M116.162,85.121
			c0.104,0.591,0.186,1.218,0.25,1.884C116.349,86.339,116.266,85.712,116.162,85.121s-0.228-1.145-0.373-1.665
			C115.935,83.976,116.059,84.53,116.162,85.121z M115.556,82.7c-0.25-0.731-0.548-1.389-0.896-1.984
			c-0.145-0.248-0.303-0.481-0.466-0.708c0.163,0.227,0.32,0.46,0.466,0.708C115.008,81.311,115.306,81.969,115.556,82.7z
			 M61.787,92.401c0.278-0.252,0.512-0.549,0.693-0.877s0.31-0.688,0.375-1.068c-0.065,0.379-0.194,0.739-0.375,1.068
			S62.064,92.149,61.787,92.401c-0.416,0.379-0.929,0.657-1.506,0.795c-0.001,0-0.001,0-0.001,0s0.001,0,0.001,0
			C60.857,93.059,61.37,92.78,61.787,92.401z M97.829,132.218c-2.231,1.215-10.647,2.239-18.422,2.239
			c-6.403,0-10.883-0.671-12.29-1.841c-4.062-3.379-18.594-41.981-21.263-51.897c-0.73-2.709,0.714-3.575,1.369-3.822
			c0.14-0.053,0.422-0.141,0.725-0.141c0.431,0,0.716,0.173,0.899,0.546c1.946,3.958,7.128,14.244,7.17,14.325
			c0.665,1.319,1.996,2.139,3.473,2.139c0.302,0,0.605-0.036,0.901-0.106c1.761-0.418,2.991-1.975,2.991-3.785v-42.82
			c0-3.377,1.336-5.199,2.592-5.199c1.281,0,2.643,1.822,2.643,5.199V71.89c0,2.074,1.623,3.781,3.694,3.886
			c0.066,0.003,0.133,0.005,0.199,0.005c2.002,0,3.666-1.504,3.869-3.498c0.031-0.309,0.407-3.014,3.995-3.05
			c0.916,0.006,1.529,0.233,2.041,0.759c1.624,1.668,2.024,5.699,1.963,7.389c-0.087,2.049,1.446,3.822,3.49,4.031
			c0.134,0.014,0.268,0.021,0.401,0.021c1.913,0,3.526-1.372,3.836-3.261c0.152-0.927,0.698-2.032,2.433-2.032
			c0.218,0,0.451,0.018,0.695,0.052c1.687,0.241,2.556,4.658,2.549,6.957c-0.015,1.744,1.148,3.297,2.83,3.774
			c0.346,0.098,0.702,0.147,1.06,0.147c1.354,0,2.63-0.719,3.33-1.877c0.001,0,0.885-1.281,2.276-1.281
			c0.678,0.012,0.818,0.159,0.877,0.222c0.398,0.421,1.299,2.079,1.066,8.376C108.648,107.994,100.886,129.993,97.829,132.218z
			 M62.905,47.054c0-3.261,1.182-5.161,2.5-5.585C64.087,41.893,62.905,43.794,62.905,47.054z M69.094,71.89L69.094,71.89
			c0,0.454,0.089,0.889,0.251,1.287c0.162,0.398,0.397,0.758,0.688,1.065c-0.292-0.307-0.527-0.667-0.688-1.065
			C69.183,72.779,69.094,72.345,69.094,71.89z M74.754,74.451c0.089-0.078,0.168-0.169,0.249-0.256
			C74.922,74.283,74.844,74.373,74.754,74.451z M75.186,73.999c0.078-0.098,0.141-0.207,0.208-0.314
			C75.327,73.792,75.264,73.901,75.186,73.999z M75.53,73.471c0.065-0.124,0.113-0.258,0.163-0.39
			C75.643,73.214,75.596,73.347,75.53,73.471z M75.775,72.88c0.063-0.206,0.107-0.42,0.13-0.641
			C75.881,72.46,75.837,72.674,75.775,72.88z M90.838,79.779c0.081-0.093,0.151-0.195,0.221-0.296
			C90.988,79.584,90.919,79.686,90.838,79.779z M91.2,79.281c0.071-0.119,0.127-0.248,0.183-0.377
			C91.327,79.033,91.271,79.162,91.2,79.281z M91.47,78.717c0.073-0.199,0.13-0.406,0.165-0.622c0-0.004,0.002-0.009,0.003-0.013
			c-0.001,0.004-0.002,0.009-0.003,0.013C91.6,78.311,91.543,78.518,91.47,78.717z M91.709,77.753
			c0.01-0.039,0.027-0.082,0.04-0.123C91.737,77.67,91.72,77.714,91.709,77.753z M91.844,77.351c0.021-0.053,0.05-0.105,0.075-0.159
			C91.895,77.245,91.866,77.299,91.844,77.351z M92.058,76.927c0.035-0.058,0.077-0.113,0.117-0.17
			C92.135,76.814,92.093,76.87,92.058,76.927z M92.369,76.515c0.051-0.056,0.108-0.108,0.166-0.16
			C92.478,76.407,92.42,76.459,92.369,76.515z M108.39,83.703c0.05,0.039,0.084,0.075,0.112,0.104
			C108.475,83.778,108.44,83.742,108.39,83.703z M109.471,86.496c0.034,0.213,0.066,0.437,0.095,0.681
			C109.537,86.932,109.504,86.709,109.471,86.496z M108.952,84.535c0.117,0.268,0.233,0.608,0.338,1.042
			C109.185,85.144,109.069,84.803,108.952,84.535z M107.278,83.436c-1.458,0-2.412,1.146-2.635,1.442
			C104.866,84.582,105.821,83.436,107.278,83.436c0.008,0,0.017,0,0.025,0C107.295,83.436,107.287,83.436,107.278,83.436z
			 M104.29,85.367c0.11-0.131,0.213-0.27,0.304-0.42C104.503,85.098,104.4,85.236,104.29,85.367z M103.929,85.735
			c0.088-0.078,0.172-0.161,0.252-0.249C104.101,85.574,104.017,85.657,103.929,85.735z M101.953,86.577
			c0.115-0.01,0.23-0.026,0.343-0.047C102.183,86.551,102.069,86.567,101.953,86.577z M102.457,86.499
			c0.138-0.033,0.274-0.074,0.408-0.124C102.732,86.425,102.596,86.466,102.457,86.499z M102.934,86.352
			c0.154-0.061,0.302-0.135,0.446-0.218C103.236,86.217,103.088,86.291,102.934,86.352z M103.503,86.055
			c0.101-0.064,0.199-0.132,0.293-0.207C103.702,85.922,103.604,85.991,103.503,86.055z M101.672,86.595
			c-0.082,0-0.165-0.011-0.247-0.017c0.119,0.009,0.238,0.014,0.356,0.01C101.744,86.589,101.708,86.595,101.672,86.595z
			 M100.742,86.466c-0.37-0.105-0.711-0.268-1.014-0.479c-0.455-0.315-0.825-0.736-1.079-1.222
			c-0.106-0.201-0.184-0.417-0.248-0.638c0.064,0.221,0.142,0.437,0.248,0.638c0.255,0.486,0.625,0.906,1.079,1.222
			C100.031,86.198,100.372,86.361,100.742,86.466c0.172,0.048,0.345,0.08,0.517,0.101C101.086,86.546,100.913,86.514,100.742,86.466
			z M98.182,81.802c-0.02-0.2-0.046-0.411-0.075-0.626C98.137,81.391,98.162,81.602,98.182,81.802
			c0.019,0.187,0.034,0.365,0.045,0.534C98.216,82.167,98.201,81.989,98.182,81.802z M97.45,78.276
			c-0.132-0.38-0.283-0.74-0.454-1.063C97.166,77.537,97.317,77.896,97.45,78.276c0.208,0.599,0.369,1.247,0.492,1.883
			C97.819,79.524,97.658,78.875,97.45,78.276z M95.11,68.854c0.093,0.005,0.183,0.005,0.277,0.013
			C95.293,68.859,95.203,68.859,95.11,68.854z M94.087,75.707c0.11-0.013,0.215-0.028,0.335-0.032
			C94.302,75.678,94.196,75.694,94.087,75.707z M92.797,76.15c0.069-0.047,0.142-0.091,0.22-0.133
			C92.94,76.059,92.867,76.103,92.797,76.15z M93.362,75.869c0.09-0.033,0.179-0.064,0.278-0.089
			C93.542,75.804,93.451,75.836,93.362,75.869z M93.276,68.901c0.08-0.009,0.161-0.015,0.241-0.022
			C93.437,68.885,93.356,68.892,93.276,68.901z M92.256,69.067c0.036-0.008,0.07-0.018,0.107-0.026
			C92.327,69.049,92.292,69.059,92.256,69.067z M90.654,79.963c-0.084,0.083-0.167,0.165-0.258,0.238
			C90.487,80.127,90.571,80.045,90.654,79.963z M90.48,69.639c-0.089-0.251-0.199-0.5-0.302-0.75
			C90.281,69.139,90.391,69.388,90.48,69.639L90.48,69.639z M91.274,69.338c0.072-0.024,0.144-0.047,0.217-0.069
			C91.419,69.291,91.346,69.314,91.274,69.338z M88.718,80.917c0.115-0.016,0.228-0.037,0.339-0.064
			C88.945,80.879,88.833,80.901,88.718,80.917z M89.323,80.779c0.109-0.036,0.214-0.079,0.318-0.125
			C89.537,80.7,89.432,80.743,89.323,80.779z M89.887,80.537c0.101-0.055,0.196-0.118,0.291-0.183
			C90.083,80.419,89.988,80.482,89.887,80.537z M88.27,80.957c-0.117,0-0.234-0.006-0.353-0.018
			c0.175,0.018,0.347,0.012,0.519,0.003C88.38,80.945,88.327,80.957,88.27,80.957z M84.856,77.399
			c0.009-0.261,0.007-0.628-0.015-1.066C84.863,76.771,84.865,77.138,84.856,77.399c-0.019,0.451,0.05,0.886,0.193,1.288
			C84.906,78.285,84.836,77.85,84.856,77.399z M82.757,69.66c-0.084-0.087-0.178-0.15-0.268-0.223
			C82.579,69.51,82.673,69.573,82.757,69.66c0.234,0.24,0.443,0.52,0.63,0.828C83.2,70.179,82.991,69.9,82.757,69.66z
			 M80.369,68.756c-1,0.01-1.777,0.211-2.38,0.511C78.592,68.967,79.369,68.766,80.369,68.756c0.234,0.001,0.452,0.02,0.66,0.05
			C80.821,68.777,80.604,68.758,80.369,68.756z M76.904,70.074c0.186-0.2,0.405-0.392,0.665-0.564
			C77.309,69.683,77.089,69.875,76.904,70.074z M76.007,71.719c0.056-0.209,0.14-0.459,0.272-0.729
			C76.146,71.26,76.063,71.51,76.007,71.719z M72.774,75.279c-0.088,0.007-0.174,0.025-0.264,0.025
			c-0.058,0-0.116-0.001-0.174-0.005c-0.681-0.035-1.307-0.267-1.824-0.64c0.516,0.373,1.143,0.605,1.824,0.64
			C72.484,75.307,72.629,75.291,72.774,75.279z M74.533,74.617c-0.093,0.07-0.184,0.141-0.284,0.201
			C74.349,74.759,74.44,74.686,74.533,74.617z M73.996,74.945c-0.103,0.051-0.205,0.104-0.313,0.144
			C73.791,75.048,73.893,74.995,73.996,74.945z M73.405,75.169c-0.111,0.031-0.221,0.063-0.336,0.083
			C73.184,75.232,73.295,75.199,73.405,75.169z M69.094,47.054c0-3.261-1.202-5.161-2.541-5.585
			C67.892,41.893,69.094,43.794,69.094,47.054z M59.49,93.289c-0.079,0-0.157-0.011-0.236-0.016
			c0.105,0.007,0.211,0.009,0.317,0.007C59.544,93.28,59.516,93.289,59.49,93.289z M57.211,92.406
			c0.085,0.077,0.174,0.148,0.266,0.216C57.384,92.554,57.296,92.483,57.211,92.406z M57.629,92.73
			c0.103,0.067,0.21,0.126,0.319,0.182C57.839,92.856,57.732,92.797,57.629,92.73z M58.083,92.982
			c0.158,0.072,0.32,0.133,0.487,0.18C58.403,93.115,58.241,93.053,58.083,92.982z M58.626,93.173
			c0.15,0.039,0.302,0.068,0.457,0.087C58.927,93.242,58.775,93.213,58.626,93.173z M56.831,92.002
			c0.076,0.095,0.155,0.188,0.24,0.273C56.986,92.189,56.907,92.097,56.831,92.002z M56.442,91.411
			c-0.009-0.018-0.182-0.361-0.467-0.927C56.26,91.049,56.433,91.392,56.442,91.411c0.082,0.163,0.179,0.316,0.284,0.46
			C56.621,91.726,56.525,91.574,56.442,91.411z M55.365,89.271c0.119,0.236,0.228,0.452,0.33,0.656
			C55.593,89.723,55.484,89.506,55.365,89.271z M54.782,88.111c-0.125-0.248-0.252-0.502-0.385-0.766
			C54.53,87.609,54.657,87.863,54.782,88.111z M54.712,72.929c0.051,0.073,0.102,0.146,0.151,0.221
			C54.814,73.075,54.763,73.001,54.712,72.929z M52.971,84.504c0.347,0.692,0.688,1.372,1.014,2.021
			C53.659,85.876,53.318,85.196,52.971,84.504z M52.294,70.657c0.018,0.011,0.035,0.025,0.054,0.036
			C52.329,70.682,52.312,70.668,52.294,70.657z M49.275,77.091c0.18,0.366,0.389,0.789,0.62,1.254
			c0.192,0.388,0.401,0.808,0.62,1.247c-0.219-0.439-0.428-0.859-0.62-1.247C49.664,77.88,49.455,77.457,49.275,77.091
			c-0.079-0.161-0.171-0.292-0.273-0.398C49.104,76.799,49.196,76.93,49.275,77.091z M48.952,69.52
			c0.086,0.01,0.172,0.021,0.258,0.033C49.124,69.541,49.038,69.531,48.952,69.52z M50.204,69.758
			c0.028,0.008,0.056,0.019,0.084,0.027C50.259,69.776,50.232,69.765,50.204,69.758z M51.167,70.095
			c0.079,0.033,0.157,0.066,0.236,0.101C51.325,70.161,51.246,70.127,51.167,70.095z M51.105,80.775
			c-0.125-0.251-0.248-0.498-0.369-0.739C50.856,80.277,50.979,80.524,51.105,80.775z M47.055,76.45
			c-0.076,0.028-0.172,0.069-0.28,0.124c-0.122,0.062-0.259,0.145-0.401,0.247c0.142-0.103,0.28-0.185,0.401-0.247
			C46.883,76.519,46.979,76.479,47.055,76.45c0.168-0.063,0.513-0.172,0.894-0.172C47.568,76.279,47.223,76.387,47.055,76.45z
			 M46.279,69.605c0.111-0.021,0.222-0.031,0.332-0.047C46.501,69.574,46.39,69.584,46.279,69.605z M45.464,69.794
			c0.095-0.026,0.189-0.043,0.284-0.066C45.653,69.751,45.559,69.767,45.464,69.794z M53.881,105.152
			c-0.549-1.426-1.09-2.849-1.617-4.255C52.791,102.303,53.332,103.726,53.881,105.152z M60.875,122.17
			c-0.231-0.518-0.465-1.046-0.702-1.587C60.41,121.123,60.644,121.652,60.875,122.17z M66.812,132.982L66.812,132.982
			L66.812,132.982L66.812,132.982z M66.277,132.41c-0.224-0.274-0.467-0.616-0.726-1.015
			C65.811,131.794,66.054,132.137,66.277,132.41z M64.388,129.421c-0.355-0.649-0.728-1.367-1.119-2.15
			C63.66,128.053,64.033,128.771,64.388,129.421z M78.873,134.93c-0.131-0.001-0.262-0.001-0.393-0.002
			C78.61,134.929,78.742,134.929,78.873,134.93z M77.533,134.912c-0.068-0.002-0.138-0.002-0.206-0.004
			C77.395,134.909,77.464,134.91,77.533,134.912z M76.2,134.87c-0.099-0.004-0.196-0.01-0.295-0.014
			C76.004,134.86,76.101,134.866,76.2,134.87z M75.108,134.815c-0.132-0.008-0.26-0.017-0.391-0.025
			C74.847,134.798,74.976,134.807,75.108,134.815z M74.049,134.742c-0.136-0.01-0.27-0.022-0.404-0.033
			C73.778,134.72,73.913,134.732,74.049,134.742z M73.022,134.65c-0.13-0.013-0.259-0.026-0.386-0.04
			C72.763,134.624,72.893,134.637,73.022,134.65z M72.011,134.535c-0.108-0.014-0.217-0.027-0.323-0.041
			C71.794,134.508,71.903,134.521,72.011,134.535z M70.923,134.377c-0.042-0.007-0.087-0.013-0.129-0.02
			C70.836,134.364,70.881,134.37,70.923,134.377z M69.974,134.201c-0.083-0.017-0.16-0.037-0.241-0.055
			C69.814,134.165,69.891,134.184,69.974,134.201z M69.216,134.023c-0.092-0.024-0.178-0.049-0.266-0.073
			C69.038,133.974,69.124,134,69.216,134.023z M68.527,133.823c-0.085-0.027-0.167-0.055-0.248-0.084
			C68.36,133.767,68.442,133.795,68.527,133.823z M67.911,133.598c-0.072-0.03-0.145-0.059-0.213-0.09
			C67.766,133.539,67.839,133.568,67.911,133.598z M67.365,133.34c-0.052-0.028-0.108-0.055-0.156-0.084
			C67.257,133.285,67.313,133.312,67.365,133.34z M98.084,132.622c0.014-0.01,0.03-0.027,0.044-0.038
			C98.114,132.595,98.098,132.613,98.084,132.622c-0.139,0.077-0.303,0.153-0.484,0.228
			C97.78,132.775,97.945,132.699,98.084,132.622z M97.408,132.922c-0.132,0.05-0.266,0.1-0.416,0.149
			C97.142,133.022,97.277,132.972,97.408,132.922z M96.728,133.153c-0.146,0.044-0.296,0.088-0.456,0.132
			C96.432,133.241,96.582,133.198,96.728,133.153z M95.955,133.367c-0.165,0.042-0.336,0.083-0.513,0.123
			C95.619,133.45,95.79,133.409,95.955,133.367z M95.089,133.569c-0.189,0.041-0.385,0.08-0.585,0.119
			C94.704,133.649,94.901,133.61,95.089,133.569z M94.136,133.76c-0.229,0.042-0.469,0.083-0.71,0.124
			C93.668,133.843,93.907,133.802,94.136,133.76z M93.106,133.938c-0.357,0.057-0.724,0.113-1.104,0.167
			C92.382,134.051,92.749,133.996,93.106,133.938z M91.842,134.126c-0.33,0.046-0.665,0.09-1.01,0.132
			C91.177,134.215,91.513,134.171,91.842,134.126z M90.392,134.309c-0.261,0.031-0.524,0.061-0.792,0.089
			C89.869,134.369,90.131,134.339,90.392,134.309z M89.098,134.449c-0.259,0.026-0.52,0.051-0.784,0.075
			C88.578,134.5,88.839,134.475,89.098,134.449z M87.787,134.571c-0.264,0.023-0.531,0.044-0.799,0.065
			C87.256,134.615,87.523,134.594,87.787,134.571z M86.446,134.676c-0.276,0.02-0.553,0.038-0.831,0.055
			C85.893,134.714,86.171,134.696,86.446,134.676z M85.088,134.764c-0.313,0.018-0.628,0.034-0.944,0.049
			C84.459,134.798,84.775,134.782,85.088,134.764z M83.719,134.835c-0.455,0.02-0.911,0.038-1.368,0.052
			C82.807,134.873,83.264,134.855,83.719,134.835z M82.053,134.894c-0.359,0.01-0.718,0.019-1.076,0.025
			C81.335,134.913,81.694,134.904,82.053,134.894z M80.472,134.925c-0.288,0.003-0.576,0.006-0.862,0.007
			C79.896,134.931,80.184,134.928,80.472,134.925z M101.398,127.1c0.111-0.252,0.223-0.509,0.336-0.774
			C101.62,126.592,101.509,126.849,101.398,127.1z M104.513,135.481c-0.121,0.171-0.242,0.339-0.364,0.5
			C104.272,135.82,104.393,135.652,104.513,135.481z M107.453,76.61L107.453,76.61c-0.199-0.004-0.391,0.006-0.583,0.014
			c0.126-0.005,0.248-0.016,0.377-0.016C107.315,76.607,107.384,76.608,107.453,76.61z M105.211,76.838
			c0.169-0.038,0.338-0.076,0.512-0.104C105.549,76.762,105.38,76.8,105.211,76.838z M106.037,76.693
			c0.159-0.021,0.317-0.042,0.48-0.055C106.354,76.651,106.196,76.673,106.037,76.693z M101.024,71.304
			c1.576,1.542,2.598,3.645,3.223,5.796c0.234-0.078,0.475-0.148,0.721-0.21c-0.246,0.062-0.486,0.132-0.721,0.21
			C103.622,74.949,102.6,72.846,101.024,71.304c-0.525-0.514-1.113-0.966-1.767-1.337C99.911,70.338,100.499,70.79,101.024,71.304z
			 M98.58,69.624c-0.7-0.315-1.469-0.542-2.314-0.662C97.111,69.082,97.88,69.309,98.58,69.624z M94.545,68.833
			c-0.068,0-0.133,0.004-0.2,0.004c0.046,0,0.089-0.007,0.136-0.007C94.502,68.83,94.524,68.833,94.545,68.833z M87.669,64.917
			c0.661,0.682,1.214,1.442,1.677,2.242C88.883,66.359,88.33,65.599,87.669,64.917c-0.711-0.734-1.507-1.337-2.375-1.805
			C86.162,63.579,86.958,64.183,87.669,64.917z M80.3,61.929c0.04-0.001,0.08-0.001,0.12-0.001c0.712,0,1.403,0.065,2.068,0.192
			c0.665,0.127,1.305,0.318,1.914,0.569c-0.609-0.251-1.249-0.441-1.914-0.569c-0.665-0.127-1.356-0.192-2.068-0.192
			C80.38,61.928,80.34,61.928,80.3,61.929c-1.68,0.017-3.131,0.3-4.378,0.767l0,0C77.169,62.229,78.62,61.946,80.3,61.929z
			 M56.077,75.441c-0.253-0.509-0.48-0.969-0.673-1.363C55.597,74.472,55.824,74.932,56.077,75.441z M54.086,72.137
			c-0.008-0.009-0.014-0.018-0.022-0.026C54.072,72.119,54.078,72.129,54.086,72.137z M53.123,71.245
			c0.068,0.054,0.134,0.108,0.2,0.164C53.258,71.352,53.191,71.298,53.123,71.245z M48.014,69.457c-0.039,0-0.077-0.005-0.116-0.004
			c0.01,0,0.02-0.001,0.03-0.001C47.956,69.452,47.985,69.457,48.014,69.457z M47.093,69.492c0.117-0.011,0.233-0.012,0.35-0.018
			C47.326,69.48,47.21,69.481,47.093,69.492z M40.032,73.712c-0.336,0.496-0.633,1.032-0.879,1.606
			C39.399,74.744,39.696,74.208,40.032,73.712z M46.892,105.897c0.372,0.984,0.752,1.976,1.136,2.97
			C47.644,107.873,47.264,106.881,46.892,105.897z M55.199,126.065c-0.613-1.323-1.234-2.713-1.858-4.149
			C53.965,123.352,54.587,124.741,55.199,126.065c0.612,1.323,1.216,2.581,1.806,3.754
			C56.415,128.646,55.811,127.388,55.199,126.065z M58.263,132.218c0.438,0.804,0.868,1.568,1.282,2.246
			C59.131,133.786,58.701,133.022,58.263,132.218z M65.438,139.876c-0.112-0.042-0.214-0.089-0.323-0.134
			C65.223,139.787,65.326,139.834,65.438,139.876z M63.784,139.127c-0.128-0.07-0.242-0.146-0.363-0.219
			C63.542,138.981,63.657,139.057,63.784,139.127z M84.82,141.619c-1.699,0.098-3.428,0.152-5.14,0.152c-0.001,0-0.002,0-0.003,0
			c-1.214,0-2.416-0.03-3.596-0.087c1.181,0.057,2.384,0.087,3.599,0.087C81.392,141.77,83.121,141.717,84.82,141.619
			c1.133-0.065,2.252-0.151,3.344-0.253C87.072,141.468,85.953,141.553,84.82,141.619z M67.283,140.465
			c0.028,0.007,0.053,0.016,0.081,0.024C67.337,140.481,67.311,140.473,67.283,140.465z M70.126,141.073
			c0.956,0.161,1.952,0.295,2.988,0.398C72.078,141.368,71.082,141.234,70.126,141.073z M73.502,141.505
			c0.713,0.065,1.438,0.12,2.176,0.161C74.939,141.625,74.215,141.57,73.502,141.505z M102.875,137.459
			c0.017-0.016,0.033-0.037,0.05-0.054C102.908,137.422,102.892,137.442,102.875,137.459z M111.227,120.232
			c-0.626,1.963-1.351,4.062-2.151,6.123C109.877,124.294,110.601,122.195,111.227,120.232c0.947-2.97,1.792-6.014,2.514-9.03
			C113.019,114.219,112.174,117.263,111.227,120.232z M115.52,102.339c-0.183,1.144-0.389,2.308-0.616,3.487
			C115.131,104.647,115.337,103.482,115.52,102.339c0.183-1.144,0.344-2.266,0.48-3.362
			C115.864,100.072,115.703,101.195,115.52,102.339z M116.556,91.496c-0.007,0.417-0.019,0.845-0.035,1.285
			c-0.053,1.441-0.166,2.973-0.334,4.573c0.168-1.6,0.281-3.132,0.334-4.573C116.537,92.342,116.549,91.913,116.556,91.496
			c0.007-0.417,0.01-0.823,0.007-1.218C116.566,90.673,116.563,91.079,116.556,91.496z"/>
	</g>
</g>
</svg>
