<?xml version="1.0" encoding="utf-8"?>
<!-- Generator: Adobe Illustrator 19.1.0, SVG Export Plug-In . SVG Version: 6.00 Build 0)  -->
<svg version="1.1" id="Layer_1" xmlns="http://www.w3.org/2000/svg" xmlns:xlink="http://www.w3.org/1999/xlink" x="0px" y="0px"
	 viewBox="0 0 150 150" enable-background="new 0 0 150 150" xml:space="preserve">
<g>
	<path fill="#1337AA" d="M112.964,91.528H37.036c-5.904,0-10.708-4.803-10.708-10.708V30.202c0-5.904,4.804-10.708,10.708-10.708
		h75.927c5.904,0,10.708,4.803,10.708,10.708V80.82C123.671,86.724,118.868,91.528,112.964,91.528z M37.036,29.228
		c-0.528,0-0.973,0.446-0.973,0.973V80.82c0,0.528,0.446,0.973,0.973,0.973h75.927c0.528,0,0.973-0.446,0.973-0.973V30.202
		c0-0.528-0.446-0.973-0.973-0.973H37.036z"/>
	<path fill="#1337AA" d="M142.336,122.206l-21.343-21.456c-0.913-0.919-2.155-1.435-3.451-1.435H32.457
		c-1.295,0-2.538,0.516-3.451,1.435L7.664,122.206c-1.387,1.394-1.798,3.485-1.043,5.301c0.755,1.815,2.527,2.999,4.494,2.999
		h127.771c1.967,0,3.739-1.183,4.494-2.999C144.135,125.692,143.723,123.6,142.336,122.206z M61.372,120.447l3.894-6.652h19.469
		l3.894,6.652H61.372z"/>
</g>
</svg>
